<svg width="152" height="152" viewBox="0 0 152 152" fill="none" xmlns="http://www.w3.org/2000/svg">
<g filter="url(#filter0_d_59_3)">
<path d="M111.142 58.5529C117.785 50.3986 119.887 38.9684 115.645 28.5409C109.457 13.3299 92.109 6.01356 76.8954 12.2027C66.4699 16.4439 59.7532 25.9285 58.5517 36.3769C50.3974 29.7346 38.967 27.6325 28.5415 31.8737C13.3279 38.0628 6.01441 55.4118 12.2024 70.6227C16.4445 81.0503 25.9292 87.7667 36.3778 88.9681C29.7342 97.1201 27.6319 108.55 31.874 118.978C38.062 134.189 55.4098 141.505 70.6234 135.316C81.0489 131.075 87.7656 121.59 88.968 111.144C97.1214 117.784 108.552 119.886 118.977 115.645C134.191 109.456 141.504 92.107 135.316 76.896C131.074 66.4685 121.59 59.752 111.142 58.5529ZM78.2223 84.7298C73.8099 81.137 68.4399 78.8728 62.7858 78.2249C66.381 73.8116 68.6453 68.4417 69.2965 62.789C73.7089 66.3817 79.0789 68.646 84.734 69.2961C81.1378 73.7071 78.8735 79.0771 78.2223 84.7298Z" fill="#AECC1C"/>
<path d="M75.0115 7.57116C92.783 0.34159 113.048 8.88798 120.276 26.6564C124.198 36.297 123.473 46.6669 119.164 55.289C128.268 58.4528 136.026 65.3713 139.948 75.0114C147.176 92.78 138.633 113.047 120.862 120.277C111.222 124.198 100.852 123.473 92.2304 119.164C89.0651 128.268 82.1469 136.026 72.5077 139.948C54.736 147.177 34.471 138.63 27.2424 120.862C23.321 111.222 24.0444 100.852 28.3542 92.2315C19.2498 89.0664 11.4927 82.1468 7.57094 72.5066C0.342555 54.738 8.88594 34.472 26.6575 27.2423C36.2964 23.321 46.6659 24.0455 55.2879 28.355C58.4528 19.2502 65.3724 11.4925 75.0115 7.57116ZM72.5589 70.8094C72.0655 72.2287 71.4811 73.615 70.8091 74.9592C72.2285 75.4522 73.6147 76.0365 74.9586 76.7081C75.452 75.289 76.0367 73.903 76.7088 72.5591C75.2892 72.0658 73.903 71.4812 72.5589 70.8094Z" stroke="white" stroke-width="10"/>
</g>
<defs>
<filter id="filter0_d_59_3" x="0" y="0" width="151.604" height="151.604" filterUnits="userSpaceOnUse" color-interpolation-filters="sRGB">
<feFlood flood-opacity="0" result="BackgroundImageFix"/>
<feColorMatrix in="SourceAlpha" type="matrix" values="0 0 0 0 0 0 0 0 0 0 0 0 0 0 0 0 0 0 127 0" result="hardAlpha"/>
<feOffset dx="4.08565" dy="4.08565"/>
<feComposite in2="hardAlpha" operator="out"/>
<feColorMatrix type="matrix" values="0 0 0 0 0 0 0 0 0 0 0 0 0 0 0 0 0 0 0.25 0"/>
<feBlend mode="normal" in2="BackgroundImageFix" result="effect1_dropShadow_59_3"/>
<feBlend mode="normal" in="SourceGraphic" in2="effect1_dropShadow_59_3" result="shape"/>
</filter>
</defs>
</svg>
