<svg width="489" height="163" viewBox="0 0 489 163" fill="none" xmlns="http://www.w3.org/2000/svg">
<g filter="url(#filter0_d_31_16)">
<mask id="path-1-outside-1_31_16" maskUnits="userSpaceOnUse" x="-0.594604" y="-0.730225" width="486" height="156" fill="black">
<rect fill="white" x="-0.594604" y="-0.730225" width="486" height="156"/>
<path d="M10.9091 71.2698V14.3723H27.4011L42.7387 51.3144L58.1587 14.3723H74.4858V71.2698H61.7045V36.3067L47.0266 71.2698H38.2858L23.6904 36.3067V71.2698H10.9091ZM102.633 72.2593C91.0886 72.2593 82.3478 62.7764 82.3478 50.2425C82.3478 37.7085 91.0886 28.2256 102.633 28.2256C107.746 28.2256 112.116 30.1222 115.332 33.4206V29.2151H127.371V56.262C127.371 58.406 128.608 59.6429 130.752 59.6429H131.576V71.2698H128.196C122.423 71.2698 118.63 69.3732 116.734 65.58C113.353 69.703 108.488 72.2593 102.633 72.2593ZM105.024 60.6324C110.961 60.6324 115.332 56.1796 115.332 50.2425C115.332 44.3053 110.961 39.8525 105.024 39.8525C99.1697 39.8525 94.7993 44.3053 94.7993 50.2425C94.7993 56.1796 99.1697 60.6324 105.024 60.6324ZM156.124 71.2698C146.147 71.2698 140.952 66.5696 140.952 57.5814V40.1823H134.685V29.2151H138.148C140.457 29.2151 141.611 28.0607 141.611 25.7518V18.1655H152.991V29.2151H162.144V40.1823H152.991V55.6024C152.991 58.5709 154.805 60.3026 157.939 60.3026H162.144V71.2698H156.124ZM166.729 71.2698L173.161 38.863C170.852 37.2962 169.45 34.4926 169.45 31.4416C169.45 26.9887 172.584 23.9377 177.284 23.9377C181.737 23.9377 184.788 26.7413 185.282 30.4521L211.257 33.4206V36.3067C206.722 42.5737 204.331 48.016 204.331 52.6338C204.331 57.1691 206.557 59.6429 210.763 59.6429H212.577V71.2698H209.691C197.981 71.2698 191.962 64.8379 191.962 54.1181C191.962 50.4898 192.704 46.8616 194.436 43.1509L184.128 41.7491L178.603 71.2698H166.729ZM217.91 24.9272L226.156 12.7231H241.246L230.527 24.9272H217.91ZM218.735 71.2698V29.2151H230.774V71.2698H218.735ZM260.519 72.2593C247.573 72.2593 237.842 62.7764 237.842 50.2425C237.842 37.7085 247.573 28.2256 260.519 28.2256C271.816 28.2256 280.804 35.5646 282.206 45.7896H269.425C268.27 42.2438 264.724 39.8525 260.519 39.8525C254.582 39.8525 250.211 44.3053 250.211 50.2425C250.211 56.1796 254.582 60.6324 260.519 60.6324C264.724 60.6324 268.27 58.2411 269.425 54.6953H282.206C280.804 64.9204 271.816 72.2593 260.519 72.2593ZM304.039 72.2593C294.721 72.2593 288.537 65.9923 288.537 56.427V29.2151H300.576V52.7987C300.576 57.4989 303.544 60.6324 308.08 60.6324C312.945 60.6324 316.243 57.4165 316.243 52.6338V29.2151H328.282V56.262C328.282 58.406 329.519 59.6429 331.663 59.6429H332.488V71.2698H329.107C323.335 71.2698 319.459 69.3732 317.645 65.58C314.347 69.9504 309.729 72.2593 304.039 72.2593ZM341.348 71.2698L336.73 61.6219C339.286 60.6324 341.76 59.3131 343.986 57.8288C339.781 51.4794 337.472 43.2334 337.472 33.9154C337.472 19.2375 344.316 10.909 354.624 10.909C364.519 10.909 371.033 18.4129 371.033 31.1942C371.033 40.7596 367.405 50.0775 361.221 57.5814C363.612 58.9008 366.251 59.6429 369.137 59.6429H371.776V71.2698H368.477C362.128 71.2698 356.52 69.3732 351.82 66.0748C348.604 68.2188 345.141 69.9504 341.348 71.2698ZM349.841 33.0083C349.841 38.863 350.996 44.2229 353.14 48.5933C356.603 43.4807 358.582 37.4612 358.582 31.1942C358.582 25.5869 357.015 22.5359 354.376 22.5359C351.655 22.5359 349.841 25.8343 349.841 33.0083ZM395.672 72.2593C384.128 72.2593 375.387 62.7764 375.387 50.2425C375.387 37.7085 384.128 28.2256 395.672 28.2256C400.785 28.2256 405.155 30.1222 408.371 33.4206V29.2151H420.41V56.262C420.41 58.406 421.647 59.6429 423.791 59.6429H424.616V71.2698H421.235C415.463 71.2698 411.669 69.3732 409.773 65.58C406.392 69.703 401.527 72.2593 395.672 72.2593ZM398.064 60.6324C404.001 60.6324 408.371 56.1796 408.371 50.2425C408.371 44.3053 404.001 39.8525 398.064 39.8525C392.209 39.8525 387.838 44.3053 387.838 50.2425C387.838 56.1796 392.209 60.6324 398.064 60.6324ZM456.41 72.2593C450.143 72.2593 444.619 69.868 440.908 66.1573L438.764 71.2698H426.395L443.959 29.2151H457.73C458.967 40.0174 473.892 39.6051 473.892 54.9427C473.892 65.1677 467.378 72.2593 456.41 72.2593ZM461.523 54.6953C461.523 49.5828 454.349 47.7687 450.638 41.914L444.866 56.1796C446.845 58.9008 450.226 60.6324 454.102 60.6324C458.472 60.6324 461.523 58.3235 461.523 54.6953ZM69.6432 143.27L91.0004 86.3723H106.091L127.53 143.27H113.512L110.049 133.292H86.8774L83.3316 143.27H69.6432ZM91.0004 121.5H105.843L98.4218 100.473L91.0004 121.5ZM132.333 143.27V83.8985H144.372V105.421C147.588 102.122 151.958 100.226 157.071 100.226C168.698 100.226 177.356 109.709 177.356 122.242C177.356 134.776 168.698 144.259 157.071 144.259C151.958 144.259 147.588 142.363 144.372 139.064V143.27H132.333ZM154.679 132.632C160.617 132.632 164.987 128.18 164.987 122.242C164.987 116.305 160.617 111.852 154.679 111.852C148.742 111.852 144.372 116.305 144.372 122.242C144.372 128.18 148.742 132.632 154.679 132.632ZM204.876 144.259C191.848 144.259 182.117 134.776 182.117 122.242C182.117 109.709 191.848 100.226 204.794 100.226C217.658 100.226 227.47 109.626 227.47 122.407C227.47 123.479 227.388 125.129 227.141 126.118H194.981C196.301 130.901 200.094 133.952 205.124 133.952C209.082 133.952 212.38 132.22 213.947 129.994H226.811C223.677 138.487 215.266 144.259 204.876 144.259ZM204.794 110.533C200.011 110.533 196.383 113.502 195.064 118.119H214.607C213.287 113.502 209.577 110.533 204.794 110.533ZM230.104 143.27L236.536 110.863C234.227 109.296 232.825 106.493 232.825 103.442C232.825 98.9887 235.959 95.9377 240.659 95.9377C245.112 95.9377 248.163 98.7413 248.658 102.452L274.632 105.421V108.307C270.097 114.574 267.706 120.016 267.706 124.634C267.706 129.169 269.932 131.643 274.138 131.643H275.952V143.27H273.066C261.356 143.27 255.337 136.838 255.337 126.118C255.337 122.49 256.079 118.862 257.811 115.151L247.503 113.749L241.978 143.27H230.104ZM300.349 143.27C290.371 143.27 285.176 138.57 285.176 129.581V112.182H278.909V101.215H282.373C284.682 101.215 285.836 100.061 285.836 97.7518V90.1655H297.216V101.215H306.369V112.182H297.216V127.602C297.216 130.571 299.03 132.303 302.163 132.303H306.369V143.27H300.349ZM331.331 144.259C319.786 144.259 311.046 134.776 311.046 122.242C311.046 109.709 319.786 100.226 331.331 100.226C336.443 100.226 340.814 102.122 344.03 105.421V101.215H356.069V128.262C356.069 130.406 357.306 131.643 359.45 131.643H360.274V143.27H356.893C351.121 143.27 347.328 141.373 345.431 137.58C342.051 141.703 337.185 144.259 331.331 144.259ZM333.722 132.632C339.659 132.632 344.03 128.18 344.03 122.242C344.03 116.305 339.659 111.852 333.722 111.852C327.867 111.852 323.497 116.305 323.497 122.242C323.497 128.18 327.867 132.632 333.722 132.632ZM392.069 144.259C385.802 144.259 380.277 141.868 376.567 138.157L374.423 143.27H362.054L379.618 101.215H393.388C394.625 112.017 409.551 111.605 409.551 126.943C409.551 137.168 403.036 144.259 392.069 144.259ZM397.182 126.695C397.182 121.583 390.008 119.769 386.297 113.914L380.525 128.18C382.504 130.901 385.885 132.632 389.76 132.632C394.131 132.632 397.182 130.324 397.182 126.695Z"/>
</mask>
<path d="M10.9091 71.2698V14.3723H27.4011L42.7387 51.3144L58.1587 14.3723H74.4858V71.2698H61.7045V36.3067L47.0266 71.2698H38.2858L23.6904 36.3067V71.2698H10.9091ZM102.633 72.2593C91.0886 72.2593 82.3478 62.7764 82.3478 50.2425C82.3478 37.7085 91.0886 28.2256 102.633 28.2256C107.746 28.2256 112.116 30.1222 115.332 33.4206V29.2151H127.371V56.262C127.371 58.406 128.608 59.6429 130.752 59.6429H131.576V71.2698H128.196C122.423 71.2698 118.63 69.3732 116.734 65.58C113.353 69.703 108.488 72.2593 102.633 72.2593ZM105.024 60.6324C110.961 60.6324 115.332 56.1796 115.332 50.2425C115.332 44.3053 110.961 39.8525 105.024 39.8525C99.1697 39.8525 94.7993 44.3053 94.7993 50.2425C94.7993 56.1796 99.1697 60.6324 105.024 60.6324ZM156.124 71.2698C146.147 71.2698 140.952 66.5696 140.952 57.5814V40.1823H134.685V29.2151H138.148C140.457 29.2151 141.611 28.0607 141.611 25.7518V18.1655H152.991V29.2151H162.144V40.1823H152.991V55.6024C152.991 58.5709 154.805 60.3026 157.939 60.3026H162.144V71.2698H156.124ZM166.729 71.2698L173.161 38.863C170.852 37.2962 169.45 34.4926 169.45 31.4416C169.45 26.9887 172.584 23.9377 177.284 23.9377C181.737 23.9377 184.788 26.7413 185.282 30.4521L211.257 33.4206V36.3067C206.722 42.5737 204.331 48.016 204.331 52.6338C204.331 57.1691 206.557 59.6429 210.763 59.6429H212.577V71.2698H209.691C197.981 71.2698 191.962 64.8379 191.962 54.1181C191.962 50.4898 192.704 46.8616 194.436 43.1509L184.128 41.7491L178.603 71.2698H166.729ZM217.91 24.9272L226.156 12.7231H241.246L230.527 24.9272H217.91ZM218.735 71.2698V29.2151H230.774V71.2698H218.735ZM260.519 72.2593C247.573 72.2593 237.842 62.7764 237.842 50.2425C237.842 37.7085 247.573 28.2256 260.519 28.2256C271.816 28.2256 280.804 35.5646 282.206 45.7896H269.425C268.27 42.2438 264.724 39.8525 260.519 39.8525C254.582 39.8525 250.211 44.3053 250.211 50.2425C250.211 56.1796 254.582 60.6324 260.519 60.6324C264.724 60.6324 268.27 58.2411 269.425 54.6953H282.206C280.804 64.9204 271.816 72.2593 260.519 72.2593ZM304.039 72.2593C294.721 72.2593 288.537 65.9923 288.537 56.427V29.2151H300.576V52.7987C300.576 57.4989 303.544 60.6324 308.08 60.6324C312.945 60.6324 316.243 57.4165 316.243 52.6338V29.2151H328.282V56.262C328.282 58.406 329.519 59.6429 331.663 59.6429H332.488V71.2698H329.107C323.335 71.2698 319.459 69.3732 317.645 65.58C314.347 69.9504 309.729 72.2593 304.039 72.2593ZM341.348 71.2698L336.73 61.6219C339.286 60.6324 341.76 59.3131 343.986 57.8288C339.781 51.4794 337.472 43.2334 337.472 33.9154C337.472 19.2375 344.316 10.909 354.624 10.909C364.519 10.909 371.033 18.4129 371.033 31.1942C371.033 40.7596 367.405 50.0775 361.221 57.5814C363.612 58.9008 366.251 59.6429 369.137 59.6429H371.776V71.2698H368.477C362.128 71.2698 356.52 69.3732 351.82 66.0748C348.604 68.2188 345.141 69.9504 341.348 71.2698ZM349.841 33.0083C349.841 38.863 350.996 44.2229 353.14 48.5933C356.603 43.4807 358.582 37.4612 358.582 31.1942C358.582 25.5869 357.015 22.5359 354.376 22.5359C351.655 22.5359 349.841 25.8343 349.841 33.0083ZM395.672 72.2593C384.128 72.2593 375.387 62.7764 375.387 50.2425C375.387 37.7085 384.128 28.2256 395.672 28.2256C400.785 28.2256 405.155 30.1222 408.371 33.4206V29.2151H420.41V56.262C420.41 58.406 421.647 59.6429 423.791 59.6429H424.616V71.2698H421.235C415.463 71.2698 411.669 69.3732 409.773 65.58C406.392 69.703 401.527 72.2593 395.672 72.2593ZM398.064 60.6324C404.001 60.6324 408.371 56.1796 408.371 50.2425C408.371 44.3053 404.001 39.8525 398.064 39.8525C392.209 39.8525 387.838 44.3053 387.838 50.2425C387.838 56.1796 392.209 60.6324 398.064 60.6324ZM456.41 72.2593C450.143 72.2593 444.619 69.868 440.908 66.1573L438.764 71.2698H426.395L443.959 29.2151H457.73C458.967 40.0174 473.892 39.6051 473.892 54.9427C473.892 65.1677 467.378 72.2593 456.41 72.2593ZM461.523 54.6953C461.523 49.5828 454.349 47.7687 450.638 41.914L444.866 56.1796C446.845 58.9008 450.226 60.6324 454.102 60.6324C458.472 60.6324 461.523 58.3235 461.523 54.6953ZM69.6432 143.27L91.0004 86.3723H106.091L127.53 143.27H113.512L110.049 133.292H86.8774L83.3316 143.27H69.6432ZM91.0004 121.5H105.843L98.4218 100.473L91.0004 121.5ZM132.333 143.27V83.8985H144.372V105.421C147.588 102.122 151.958 100.226 157.071 100.226C168.698 100.226 177.356 109.709 177.356 122.242C177.356 134.776 168.698 144.259 157.071 144.259C151.958 144.259 147.588 142.363 144.372 139.064V143.27H132.333ZM154.679 132.632C160.617 132.632 164.987 128.18 164.987 122.242C164.987 116.305 160.617 111.852 154.679 111.852C148.742 111.852 144.372 116.305 144.372 122.242C144.372 128.18 148.742 132.632 154.679 132.632ZM204.876 144.259C191.848 144.259 182.117 134.776 182.117 122.242C182.117 109.709 191.848 100.226 204.794 100.226C217.658 100.226 227.47 109.626 227.47 122.407C227.47 123.479 227.388 125.129 227.141 126.118H194.981C196.301 130.901 200.094 133.952 205.124 133.952C209.082 133.952 212.38 132.22 213.947 129.994H226.811C223.677 138.487 215.266 144.259 204.876 144.259ZM204.794 110.533C200.011 110.533 196.383 113.502 195.064 118.119H214.607C213.287 113.502 209.577 110.533 204.794 110.533ZM230.104 143.27L236.536 110.863C234.227 109.296 232.825 106.493 232.825 103.442C232.825 98.9887 235.959 95.9377 240.659 95.9377C245.112 95.9377 248.163 98.7413 248.658 102.452L274.632 105.421V108.307C270.097 114.574 267.706 120.016 267.706 124.634C267.706 129.169 269.932 131.643 274.138 131.643H275.952V143.27H273.066C261.356 143.27 255.337 136.838 255.337 126.118C255.337 122.49 256.079 118.862 257.811 115.151L247.503 113.749L241.978 143.27H230.104ZM300.349 143.27C290.371 143.27 285.176 138.57 285.176 129.581V112.182H278.909V101.215H282.373C284.682 101.215 285.836 100.061 285.836 97.7518V90.1655H297.216V101.215H306.369V112.182H297.216V127.602C297.216 130.571 299.03 132.303 302.163 132.303H306.369V143.27H300.349ZM331.331 144.259C319.786 144.259 311.046 134.776 311.046 122.242C311.046 109.709 319.786 100.226 331.331 100.226C336.443 100.226 340.814 102.122 344.03 105.421V101.215H356.069V128.262C356.069 130.406 357.306 131.643 359.45 131.643H360.274V143.27H356.893C351.121 143.27 347.328 141.373 345.431 137.58C342.051 141.703 337.185 144.259 331.331 144.259ZM333.722 132.632C339.659 132.632 344.03 128.18 344.03 122.242C344.03 116.305 339.659 111.852 333.722 111.852C327.867 111.852 323.497 116.305 323.497 122.242C323.497 128.18 327.867 132.632 333.722 132.632ZM392.069 144.259C385.802 144.259 380.277 141.868 376.567 138.157L374.423 143.27H362.054L379.618 101.215H393.388C394.625 112.017 409.551 111.605 409.551 126.943C409.551 137.168 403.036 144.259 392.069 144.259ZM397.182 126.695C397.182 121.583 390.008 119.769 386.297 113.914L380.525 128.18C382.504 130.901 385.885 132.632 389.76 132.632C394.131 132.632 397.182 130.324 397.182 126.695Z" fill="#FBB733"/>
<path d="M10.9091 71.2698H7.62939e-06C7.62939e-06 77.2947 4.88417 82.1789 10.9091 82.1789V71.2698ZM10.9091 14.3723V3.46325C4.88417 3.46325 7.62939e-06 8.34742 7.62939e-06 14.3723H10.9091ZM27.4011 14.3723L37.4764 10.1893C35.7857 6.11728 31.8102 3.46325 27.4011 3.46325V14.3723ZM42.7387 51.3144L32.6634 55.4975C34.3526 59.566 38.323 62.2193 42.7283 62.2235C47.1336 62.2277 51.109 59.582 52.8059 55.5166L42.7387 51.3144ZM58.1587 14.3723V3.46325C53.7572 3.46325 49.7869 6.10831 48.0914 10.1702L58.1587 14.3723ZM74.4858 14.3723H85.3949C85.3949 8.34742 80.5107 3.46325 74.4858 3.46325V14.3723ZM74.4858 71.2698V82.1789C80.5107 82.1789 85.3949 77.2947 85.3949 71.2698H74.4858ZM61.7045 71.2698H50.7954C50.7954 77.2947 55.6796 82.1789 61.7045 82.1789V71.2698ZM61.7045 36.3067H72.6136C72.6136 31.112 68.9507 26.6379 63.8583 25.6123C58.7658 24.5868 53.6566 27.2943 51.6458 32.084L61.7045 36.3067ZM47.0266 71.2698V82.1789C51.42 82.1789 55.3847 79.5434 57.0853 75.4925L47.0266 71.2698ZM38.2858 71.2698L28.2187 75.4723C29.9143 79.534 33.8845 82.1789 38.2858 82.1789V71.2698ZM23.6904 36.3067L33.7575 32.1042C31.7548 27.3066 26.6449 24.5889 21.5474 25.6102C16.4499 26.6315 12.7813 31.1079 12.7813 36.3067H23.6904ZM23.6904 71.2698V82.1789C29.7153 82.1789 34.5995 77.2947 34.5995 71.2698H23.6904ZM10.9091 71.2698H21.8182V14.3723H10.9091H7.62939e-06V71.2698H10.9091ZM10.9091 14.3723V25.2814H27.4011V14.3723V3.46325H10.9091V14.3723ZM27.4011 14.3723L17.3259 18.5554L32.6634 55.4975L42.7387 51.3144L52.8139 47.1314L37.4764 10.1893L27.4011 14.3723ZM42.7387 51.3144L52.8059 55.5166L68.226 18.5745L58.1587 14.3723L48.0914 10.1702L32.6714 47.1123L42.7387 51.3144ZM58.1587 14.3723V25.2814H74.4858V14.3723V3.46325H58.1587V14.3723ZM74.4858 14.3723H63.5767V71.2698H74.4858H85.3949V14.3723H74.4858ZM74.4858 71.2698V60.3607H61.7045V71.2698V82.1789H74.4858V71.2698ZM61.7045 71.2698H72.6136V36.3067H61.7045H50.7954V71.2698H61.7045ZM61.7045 36.3067L51.6458 32.084L36.9679 67.047L47.0266 71.2698L57.0853 75.4925L71.7632 40.5295L61.7045 36.3067ZM47.0266 71.2698V60.3607H38.2858V71.2698V82.1789H47.0266V71.2698ZM38.2858 71.2698L48.353 67.0672L33.7575 32.1042L23.6904 36.3067L13.6233 40.5093L28.2187 75.4723L38.2858 71.2698ZM23.6904 36.3067H12.7813V71.2698H23.6904H34.5995V36.3067H23.6904ZM23.6904 71.2698V60.3607H10.9091V71.2698V82.1789H23.6904V71.2698ZM115.332 33.4206L107.521 41.0362C110.619 44.2135 115.332 45.1977 119.443 43.5255C123.553 41.8534 126.241 37.8581 126.241 33.4206H115.332ZM115.332 29.2151V18.3061C109.307 18.3061 104.423 23.1902 104.423 29.2151H115.332ZM127.371 29.2151H138.28C138.28 23.1902 133.396 18.3061 127.371 18.3061V29.2151ZM131.576 59.6429H142.486C142.486 53.618 137.601 48.7338 131.576 48.7338V59.6429ZM131.576 71.2698V82.1789C137.601 82.1789 142.486 77.2947 142.486 71.2698H131.576ZM116.734 65.58L126.491 60.7013C124.838 57.3947 121.622 55.1504 117.948 54.7388C114.275 54.3271 110.642 55.8041 108.298 58.6628L116.734 65.58ZM102.633 72.2593V61.3502C97.9364 61.3502 93.2569 57.6087 93.2569 50.2425H82.3478H71.4388C71.4388 67.9441 84.2408 83.1684 102.633 83.1684V72.2593ZM82.3478 50.2425H93.2569C93.2569 42.8763 97.9364 39.1347 102.633 39.1347V28.2256V17.3165C84.2408 17.3165 71.4388 32.5408 71.4388 50.2425H82.3478ZM102.633 28.2256V39.1347C104.888 39.1347 106.416 39.9029 107.521 41.0362L115.332 33.4206L123.143 25.805C117.816 20.3416 110.603 17.3165 102.633 17.3165V28.2256ZM115.332 33.4206H126.241V29.2151H115.332H104.423V33.4206H115.332ZM115.332 29.2151V40.1242H127.371V29.2151V18.3061H115.332V29.2151ZM127.371 29.2151H116.462V56.262H127.371H138.28V29.2151H127.371ZM127.371 56.262H116.462C116.462 59.4124 117.409 63.3353 120.544 66.4704C123.679 69.6054 127.602 70.552 130.752 70.552V59.6429V48.7338C131.758 48.7338 133.991 49.062 135.971 51.0426C137.952 53.0232 138.28 55.2556 138.28 56.262H127.371ZM130.752 59.6429V70.552H131.576V59.6429V48.7338H130.752V59.6429ZM131.576 59.6429H120.667V71.2698H131.576H142.486V59.6429H131.576ZM131.576 71.2698V60.3607H128.196V71.2698V82.1789H131.576V71.2698ZM128.196 71.2698V60.3607C126.43 60.3607 125.831 60.0605 125.869 60.0794C125.911 60.1002 126.054 60.183 126.22 60.3484C126.386 60.5138 126.469 60.6576 126.491 60.7013L116.734 65.58L106.976 70.4587C111.372 79.2493 119.981 82.1789 128.196 82.1789V71.2698ZM116.734 65.58L108.298 58.6628C106.874 60.3995 105.042 61.3502 102.633 61.3502V72.2593V83.1684C111.933 83.1684 119.832 79.0066 125.169 72.4973L116.734 65.58ZM105.024 60.6324V71.5415C117.101 71.5415 126.241 62.0893 126.241 50.2425H115.332H104.423C104.423 50.38 104.399 50.3887 104.432 50.3083C104.463 50.2293 104.531 50.1117 104.648 49.9932C104.765 49.8741 104.895 49.7939 105.002 49.75C105.111 49.7053 105.134 49.7233 105.024 49.7233V60.6324ZM115.332 50.2425H126.241C126.241 38.3957 117.101 28.9434 105.024 28.9434V39.8525V50.7616C105.134 50.7616 105.111 50.7797 105.002 50.7349C104.895 50.691 104.765 50.6108 104.648 50.4917C104.531 50.3733 104.463 50.2556 104.432 50.1766C104.399 50.0962 104.423 50.1049 104.423 50.2425H115.332ZM105.024 39.8525V28.9434C92.9726 28.9434 83.8902 38.454 83.8902 50.2425H94.7993H105.708C105.708 50.105 105.732 50.0927 105.702 50.1676C105.673 50.2406 105.609 50.3536 105.495 50.4699C105.38 50.5867 105.248 50.6714 105.128 50.7212C105.005 50.7721 104.955 50.7616 105.024 50.7616V39.8525ZM94.7993 50.2425H83.8902C83.8902 62.0309 92.9726 71.5415 105.024 71.5415V60.6324V49.7233C104.955 49.7233 105.005 49.7128 105.128 49.7637C105.248 49.8135 105.38 49.8982 105.495 50.0151C105.609 50.1313 105.673 50.2443 105.702 50.3173C105.732 50.3922 105.708 50.38 105.708 50.2425H94.7993ZM140.952 40.1823H151.861C151.861 34.1574 146.977 29.2732 140.952 29.2732V40.1823ZM134.685 40.1823H123.776C123.776 46.2073 128.66 51.0914 134.685 51.0914V40.1823ZM134.685 29.2151V18.3061C128.66 18.3061 123.776 23.1902 123.776 29.2151H134.685ZM141.611 18.1655V7.25641C135.587 7.25641 130.702 12.1406 130.702 18.1655H141.611ZM152.991 18.1655H163.9C163.9 12.1406 159.016 7.25641 152.991 7.25641V18.1655ZM152.991 29.2151H142.082C142.082 35.2401 146.966 40.1242 152.991 40.1242V29.2151ZM162.144 29.2151H173.053C173.053 23.1902 168.169 18.3061 162.144 18.3061V29.2151ZM162.144 40.1823V51.0914C168.169 51.0914 173.053 46.2073 173.053 40.1823H162.144ZM152.991 40.1823V29.2732C146.966 29.2732 142.082 34.1574 142.082 40.1823H152.991ZM162.144 60.3026H173.053C173.053 54.2777 168.169 49.3935 162.144 49.3935V60.3026ZM162.144 71.2698V82.1789C168.169 82.1789 173.053 77.2947 173.053 71.2698H162.144ZM156.124 71.2698V60.3607C152.667 60.3607 151.923 59.5327 152.107 59.6989C152.201 59.7842 152.194 59.8409 152.127 59.6622C152.039 59.4296 151.861 58.7989 151.861 57.5814H140.952H130.043C130.043 64.1876 132.014 70.9527 137.486 75.8934C142.762 80.6567 149.604 82.1789 156.124 82.1789V71.2698ZM140.952 57.5814H151.861V40.1823H140.952H130.043V57.5814H140.952ZM140.952 40.1823V29.2732H134.685V40.1823V51.0914H140.952V40.1823ZM134.685 40.1823H145.594V29.2151H134.685H123.776V40.1823H134.685ZM134.685 29.2151V40.1242H138.148V29.2151V18.3061H134.685V29.2151ZM138.148 29.2151V40.1242C140.984 40.1242 145.115 39.4078 148.46 36.0632C151.804 32.7186 152.521 28.5878 152.521 25.7518H141.611H130.702C130.702 25.2247 130.842 22.8256 133.032 20.6354C135.222 18.4452 137.621 18.3061 138.148 18.3061V29.2151ZM141.611 25.7518H152.521V18.1655H141.611H130.702V25.7518H141.611ZM141.611 18.1655V29.0746H152.991V18.1655V7.25641H141.611V18.1655ZM152.991 18.1655H142.082V29.2151H152.991H163.9V18.1655H152.991ZM152.991 29.2151V40.1242H162.144V29.2151V18.3061H152.991V29.2151ZM162.144 29.2151H151.235V40.1823H162.144H173.053V29.2151H162.144ZM162.144 40.1823V29.2732H152.991V40.1823V51.0914H162.144V40.1823ZM152.991 40.1823H142.082V55.6024H152.991H163.9V40.1823H152.991ZM152.991 55.6024H142.082C142.082 59.3428 143.282 63.6516 146.771 66.97C150.185 70.217 154.42 71.2117 157.939 71.2117V60.3026V49.3935C158.323 49.3935 160.085 49.5223 161.808 51.1614C163.607 52.8718 163.9 54.8305 163.9 55.6024H152.991ZM157.939 60.3026V71.2117H162.144V60.3026V49.3935H157.939V60.3026ZM162.144 60.3026H151.235V71.2698H162.144H173.053V60.3026H162.144ZM162.144 71.2698V60.3607H156.124V71.2698V82.1789H162.144V71.2698ZM166.729 71.2698L156.029 69.146C155.393 72.349 156.225 75.6684 158.298 78.1922C160.37 80.716 163.463 82.1789 166.729 82.1789V71.2698ZM173.161 38.863L183.861 40.9867C184.714 36.6883 182.913 32.2966 179.286 29.836L173.161 38.863ZM185.282 30.4521L174.469 31.8938C175.13 36.8503 179.076 40.7228 184.044 41.2906L185.282 30.4521ZM211.257 33.4206H222.166C222.166 27.875 218.006 23.2118 212.496 22.5821L211.257 33.4206ZM211.257 36.3067L220.095 42.7024C221.442 40.8417 222.166 38.6035 222.166 36.3067H211.257ZM212.577 59.6429H223.486C223.486 53.618 218.602 48.7338 212.577 48.7338V59.6429ZM212.577 71.2698V82.1789C218.602 82.1789 223.486 77.2947 223.486 71.2698H212.577ZM194.436 43.1509L204.321 47.7642C205.788 44.6219 205.673 40.9696 204.012 37.9256C202.351 34.8816 199.342 32.8086 195.906 32.3413L194.436 43.1509ZM184.128 41.7491L185.598 30.9395C179.837 30.156 174.475 34.0278 173.405 39.7423L184.128 41.7491ZM178.603 71.2698V82.1789C183.854 82.1789 188.36 78.438 189.326 73.2766L178.603 71.2698ZM166.729 71.2698L177.429 73.3935L183.861 40.9867L173.161 38.863L162.46 36.7392L156.029 69.146L166.729 71.2698ZM173.161 38.863L179.286 29.836C179.791 30.1787 180.064 30.5646 180.197 30.8302C180.33 31.0953 180.359 31.3056 180.359 31.4416H169.45H158.541C158.541 37.7104 161.42 44.0792 167.035 47.89L173.161 38.863ZM169.45 31.4416H180.359C180.359 31.8643 180.153 32.9332 179.169 33.8801C178.217 34.7962 177.324 34.8468 177.284 34.8468V23.9377V13.0286C172.543 13.0286 167.733 14.6047 164.04 18.1596C160.314 21.7452 158.541 26.566 158.541 31.4416H169.45ZM177.284 23.9377V34.8468C177.169 34.8468 176.492 34.7818 175.735 34.143C174.985 33.5107 174.57 32.6532 174.469 31.8938L185.282 30.4521L196.096 29.0103C194.832 19.5283 186.842 13.0286 177.284 13.0286V23.9377ZM185.282 30.4521L184.044 41.2906L210.019 44.2592L211.257 33.4206L212.496 22.5821L186.521 19.6135L185.282 30.4521ZM211.257 33.4206H200.348V36.3067H211.257H222.166V33.4206H211.257ZM211.257 36.3067L202.42 29.9111C197.469 36.7515 193.422 44.5228 193.422 52.6338H204.331H215.24C215.24 51.5092 215.975 48.3958 220.095 42.7024L211.257 36.3067ZM204.331 52.6338H193.422C193.422 56.5374 194.376 61.3202 197.913 65.1948C201.602 69.2351 206.499 70.552 210.763 70.552V59.6429V48.7338C210.821 48.7338 212.501 48.8139 214.026 50.4834C215.399 51.9873 215.24 53.2655 215.24 52.6338H204.331ZM210.763 59.6429V70.552H212.577V59.6429V48.7338H210.763V59.6429ZM212.577 59.6429H201.668V71.2698H212.577H223.486V59.6429H212.577ZM212.577 71.2698V60.3607H209.691V71.2698V82.1789H212.577V71.2698ZM209.691 71.2698V60.3607C205.782 60.3607 204.468 59.3168 204.122 58.9731C203.781 58.6347 202.871 57.4793 202.871 54.1181H191.962H181.053C181.053 61.4766 183.152 68.8971 188.748 74.4546C194.339 80.0068 201.89 82.1789 209.691 82.1789V71.2698ZM191.962 54.1181H202.871C202.871 52.0624 203.273 50.011 204.321 47.7642L194.436 43.1509L184.55 38.5376C182.135 43.7122 181.053 48.9173 181.053 54.1181H191.962ZM194.436 43.1509L195.906 32.3413L185.598 30.9395L184.128 41.7491L182.658 52.5587L192.965 53.9605L194.436 43.1509ZM184.128 41.7491L173.405 39.7423L167.88 69.263L178.603 71.2698L189.326 73.2766L194.851 43.7559L184.128 41.7491ZM178.603 71.2698V60.3607H166.729V71.2698V82.1789H178.603V71.2698ZM217.91 24.9272L208.871 18.8197C206.612 22.1634 206.383 26.4811 208.276 30.0449C210.169 33.6087 213.875 35.8363 217.91 35.8363V24.9272ZM226.156 12.7231V1.81405C222.533 1.81405 219.146 3.61322 217.117 6.6156L226.156 12.7231ZM241.246 12.7231L249.443 19.9225C252.27 16.7037 252.951 12.1279 251.185 8.22482C249.418 4.32175 245.531 1.81405 241.246 1.81405V12.7231ZM230.527 24.9272V35.8363C233.665 35.8363 236.652 34.4846 238.723 32.1266L230.527 24.9272ZM218.735 71.2698H207.826C207.826 77.2947 212.71 82.1789 218.735 82.1789V71.2698ZM218.735 29.2151V18.3061C212.71 18.3061 207.826 23.1902 207.826 29.2151H218.735ZM230.774 29.2151H241.683C241.683 23.1902 236.799 18.3061 230.774 18.3061V29.2151ZM230.774 71.2698V82.1789C236.799 82.1789 241.683 77.2947 241.683 71.2698H230.774ZM217.91 24.9272L226.949 31.0348L235.195 18.8307L226.156 12.7231L217.117 6.6156L208.871 18.8197L217.91 24.9272ZM226.156 12.7231V23.6322H241.246V12.7231V1.81405H226.156V12.7231ZM241.246 12.7231L233.05 5.52378L222.33 17.7279L230.527 24.9272L238.723 32.1266L249.443 19.9225L241.246 12.7231ZM230.527 24.9272V14.0181H217.91V24.9272V35.8363H230.527V24.9272ZM218.735 71.2698H229.644V29.2151H218.735H207.826V71.2698H218.735ZM218.735 29.2151V40.1242H230.774V29.2151V18.3061H218.735V29.2151ZM230.774 29.2151H219.865V71.2698H230.774H241.683V29.2151H230.774ZM230.774 71.2698V60.3607H218.735V71.2698V82.1789H230.774V71.2698ZM282.206 45.7896V56.6987C285.358 56.6987 288.355 55.3356 290.427 52.9605C292.499 50.5854 293.442 47.4304 293.014 44.3079L282.206 45.7896ZM269.425 45.7896L259.051 49.1669C260.514 53.6586 264.701 56.6987 269.425 56.6987V45.7896ZM269.425 54.6953V43.7862C264.701 43.7862 260.514 46.8264 259.051 51.318L269.425 54.6953ZM282.206 54.6953L293.014 56.177C293.442 53.0546 292.499 49.8995 290.427 47.5244C288.355 45.1493 285.358 43.7862 282.206 43.7862V54.6953ZM260.519 72.2593V61.3502C253.304 61.3502 248.751 56.4616 248.751 50.2425H237.842H226.933C226.933 69.0912 241.842 83.1684 260.519 83.1684V72.2593ZM237.842 50.2425H248.751C248.751 44.0233 253.304 39.1347 260.519 39.1347V28.2256V17.3165C241.842 17.3165 226.933 31.3937 226.933 50.2425H237.842ZM260.519 28.2256V39.1347C267.06 39.1347 270.827 43.1105 271.398 47.2714L282.206 45.7896L293.014 44.3079C290.781 28.0187 276.572 17.3165 260.519 17.3165V28.2256ZM282.206 45.7896V34.8805H269.425V45.7896V56.6987H282.206V45.7896ZM269.425 45.7896L279.798 42.4123C276.972 33.7346 268.738 28.9434 260.519 28.9434V39.8525V50.7616C260.557 50.7616 260.367 50.7704 260.051 50.5591C259.724 50.3405 259.286 49.8864 259.051 49.1669L269.425 45.7896ZM260.519 39.8525V28.9434C248.442 28.9434 239.302 38.3957 239.302 50.2425H250.211H261.12C261.12 50.1049 261.144 50.0962 261.112 50.1766C261.08 50.2556 261.013 50.3733 260.896 50.4917C260.778 50.6108 260.649 50.691 260.541 50.7349C260.432 50.7797 260.409 50.7616 260.519 50.7616V39.8525ZM250.211 50.2425H239.302C239.302 62.0893 248.442 71.5415 260.519 71.5415V60.6324V49.7233C260.409 49.7233 260.432 49.7053 260.541 49.75C260.649 49.7939 260.778 49.8741 260.896 49.9932C261.013 50.1117 261.08 50.2293 261.112 50.3083C261.144 50.3887 261.12 50.38 261.12 50.2425H250.211ZM260.519 60.6324V71.5415C268.738 71.5415 276.972 66.7503 279.798 58.0726L269.425 54.6953L259.051 51.318C259.286 50.5985 259.724 50.1444 260.051 49.9259C260.367 49.7145 260.557 49.7233 260.519 49.7233V60.6324ZM269.425 54.6953V65.6044H282.206V54.6953V43.7862H269.425V54.6953ZM282.206 54.6953L271.398 53.2136C270.827 57.3744 267.06 61.3502 260.519 61.3502V72.2593V83.1684C276.572 83.1684 290.781 72.4663 293.014 56.177L282.206 54.6953ZM288.537 29.2151V18.3061C282.512 18.3061 277.628 23.1902 277.628 29.2151H288.537ZM300.576 29.2151H311.485C311.485 23.1902 306.601 18.3061 300.576 18.3061V29.2151ZM316.243 29.2151V18.3061C310.218 18.3061 305.334 23.1902 305.334 29.2151H316.243ZM328.282 29.2151H339.191C339.191 23.1902 334.307 18.3061 328.282 18.3061V29.2151ZM332.488 59.6429H343.397C343.397 53.618 338.513 48.7338 332.488 48.7338V59.6429ZM332.488 71.2698V82.1789C338.513 82.1789 343.397 77.2947 343.397 71.2698H332.488ZM317.645 65.58L327.486 60.8732C325.843 57.437 322.526 55.1067 318.736 54.7257C314.946 54.3446 311.232 55.968 308.938 59.0083L317.645 65.58ZM304.039 72.2593V61.3502C301.892 61.3502 300.965 60.6815 300.58 60.2892C300.178 59.8794 299.446 58.8225 299.446 56.427H288.537H277.628C277.628 63.5968 279.988 70.4561 285.007 75.5711C290.044 80.7036 296.868 83.1684 304.039 83.1684V72.2593ZM288.537 56.427H299.446V29.2151H288.537H277.628V56.427H288.537ZM288.537 29.2151V40.1242H300.576V29.2151V18.3061H288.537V29.2151ZM300.576 29.2151H289.667V52.7987H300.576H311.485V29.2151H300.576ZM300.576 52.7987H289.667C289.667 57.4581 291.172 62.2787 294.737 66.012C298.349 69.7947 303.205 71.5415 308.08 71.5415V60.6324V49.7233C308.419 49.7233 309.523 49.9034 310.517 50.9443C311.464 51.9359 311.485 52.8396 311.485 52.7987H300.576ZM308.08 60.6324V71.5415C312.956 71.5415 317.87 69.889 321.615 66.2242C325.382 62.5386 327.152 57.6113 327.152 52.6338H316.243H305.334C305.334 52.439 305.455 51.511 306.357 50.629C306.761 50.2334 307.19 49.9874 307.544 49.8533C307.89 49.7222 308.093 49.7233 308.08 49.7233V60.6324ZM316.243 52.6338H327.152V29.2151H316.243H305.334V52.6338H316.243ZM316.243 29.2151V40.1242H328.282V29.2151V18.3061H316.243V29.2151ZM328.282 29.2151H317.373V56.262H328.282H339.191V29.2151H328.282ZM328.282 56.262H317.373C317.373 59.4124 318.32 63.3353 321.455 66.4704C324.59 69.6054 328.513 70.552 331.663 70.552V59.6429V48.7338C332.67 48.7338 334.902 49.062 336.883 51.0426C338.863 53.0232 339.191 55.2556 339.191 56.262H328.282ZM331.663 59.6429V70.552H332.488V59.6429V48.7338H331.663V59.6429ZM332.488 59.6429H321.579V71.2698H332.488H343.397V59.6429H332.488ZM332.488 71.2698V60.3607H329.107V71.2698V82.1789H332.488V71.2698ZM329.107 71.2698V60.3607C327.334 60.3607 326.706 60.0582 326.728 60.069C326.766 60.0875 326.925 60.1768 327.117 60.3694C327.312 60.5647 327.431 60.7574 327.486 60.8732L317.645 65.58L307.804 70.2868C312.131 79.3344 321.046 82.1789 329.107 82.1789V71.2698ZM317.645 65.58L308.938 59.0083C307.739 60.5963 306.371 61.3502 304.039 61.3502V72.2593V83.1684C313.087 83.1684 320.954 79.3045 326.353 72.1517L317.645 65.58ZM341.348 71.2698L331.508 75.9795C333.906 80.9897 339.685 83.3981 344.932 81.5734L341.348 71.2698ZM336.73 61.6219L332.792 51.4485C329.958 52.5456 327.709 54.7754 326.589 57.6006C325.469 60.4258 325.578 63.5903 326.89 66.3317L336.73 61.6219ZM343.986 57.8288L350.038 66.9057C355.04 63.5708 356.401 56.8172 353.082 51.8048L343.986 57.8288ZM361.221 57.5814L352.802 50.6432C350.738 53.1472 349.897 56.44 350.505 59.6273C351.114 62.8147 353.11 65.5656 355.951 67.1332L361.221 57.5814ZM371.776 59.6429H382.685C382.685 53.618 377.8 48.7338 371.776 48.7338V59.6429ZM371.776 71.2698V82.1789C377.8 82.1789 382.685 77.2947 382.685 71.2698H371.776ZM351.82 66.0748L358.087 57.1451C354.404 54.5607 349.512 54.5023 345.769 56.9979L351.82 66.0748ZM353.14 48.5933L343.345 53.3979C345.058 56.8895 348.5 59.2052 352.38 59.4759C356.26 59.7466 359.99 57.9315 362.171 54.7116L353.14 48.5933ZM341.348 71.2698L351.188 66.56L346.57 56.9122L336.73 61.6219L326.89 66.3317L331.508 75.9795L341.348 71.2698ZM336.73 61.6219L340.668 71.7954C344.035 70.4922 347.213 68.789 350.038 66.9057L343.986 57.8288L337.935 48.7519C336.307 49.8371 334.538 50.7727 332.792 51.4485L336.73 61.6219ZM343.986 57.8288L353.082 51.8048C350.258 47.542 348.381 41.4818 348.381 33.9154H337.472H326.563C326.563 44.9849 329.304 55.4168 334.891 63.8528L343.986 57.8288ZM337.472 33.9154H348.381C348.381 28.119 349.748 24.9711 350.844 23.5406C351.695 22.4296 352.724 21.8181 354.624 21.8181V10.909V-7.24792e-05C346.216 -7.24792e-05 338.67 3.55266 333.521 10.2753C328.618 16.6786 326.563 25.0338 326.563 33.9154H337.472ZM354.624 10.909V21.8181C356.589 21.8181 357.499 22.4433 358.124 23.2006C358.938 24.1872 360.124 26.5475 360.124 31.1942H371.033H381.942C381.942 23.0596 379.872 15.2773 374.955 9.31663C369.848 3.12668 362.554 -7.24792e-05 354.624 -7.24792e-05V10.909ZM371.033 31.1942H360.124C360.124 37.9953 357.531 44.9056 352.802 50.6432L361.221 57.5814L369.639 64.5196C377.279 55.2495 381.942 43.5238 381.942 31.1942H371.033ZM361.221 57.5814L355.951 67.1332C359.855 69.2873 364.296 70.552 369.137 70.552V59.6429V48.7338C368.205 48.7338 367.369 48.5142 366.491 48.0297L361.221 57.5814ZM369.137 59.6429V70.552H371.776V59.6429V48.7338H369.137V59.6429ZM371.776 59.6429H360.866V71.2698H371.776H382.685V59.6429H371.776ZM371.776 71.2698V60.3607H368.477V71.2698V82.1789H371.776V71.2698ZM368.477 71.2698V60.3607C364.407 60.3607 360.981 59.1764 358.087 57.1451L351.82 66.0748L345.554 75.0045C352.059 79.5699 359.848 82.1789 368.477 82.1789V71.2698ZM351.82 66.0748L345.769 56.9979C343.321 58.6296 340.687 59.9493 337.764 60.9662L341.348 71.2698L344.932 81.5734C349.595 79.9515 353.887 77.808 357.871 75.1517L351.82 66.0748ZM349.841 33.0083H338.932C338.932 40.2405 340.351 47.2933 343.345 53.3979L353.14 48.5933L362.934 43.7886C361.64 41.1525 360.75 37.4855 360.75 33.0083H349.841ZM353.14 48.5933L362.171 54.7116C366.779 47.9106 369.491 39.7801 369.491 31.1942H358.582H347.673C347.673 35.1422 346.427 39.0509 344.108 42.4749L353.14 48.5933ZM358.582 31.1942H369.491C369.491 27.6485 369.038 23.5594 367.253 19.9388C365.242 15.8592 360.959 11.6268 354.376 11.6268V22.5359V33.445C352.794 33.445 351.144 32.9428 349.764 31.9475C348.495 31.0318 347.902 30.0273 347.684 29.5858C347.469 29.1502 347.489 29.0056 347.55 29.3569C347.607 29.6824 347.673 30.2782 347.673 31.1942H358.582ZM354.376 22.5359V11.6268C347.437 11.6268 343.128 16.2924 341.182 20.5141C339.423 24.329 338.932 28.7859 338.932 33.0083H349.841H360.75C360.75 31.6519 360.838 30.6991 360.937 30.0825C361.041 29.4373 361.125 29.367 360.995 29.6496C360.867 29.9279 360.364 30.9009 359.133 31.8394C357.768 32.8796 356.064 33.445 354.376 33.445V22.5359ZM408.371 33.4206L400.56 41.0362C403.658 44.2135 408.372 45.1977 412.482 43.5255C416.592 41.8534 419.28 37.8581 419.28 33.4206H408.371ZM408.371 29.2151V18.3061C402.346 18.3061 397.462 23.1902 397.462 29.2151H408.371ZM420.41 29.2151H431.319C431.319 23.1902 426.435 18.3061 420.41 18.3061V29.2151ZM424.616 59.6429H435.525C435.525 53.618 430.641 48.7338 424.616 48.7338V59.6429ZM424.616 71.2698V82.1789C430.641 82.1789 435.525 77.2947 435.525 71.2698H424.616ZM409.773 65.58L419.53 60.7013C417.877 57.3947 414.661 55.1504 410.988 54.7388C407.314 54.3271 403.681 55.8041 401.337 58.6628L409.773 65.58ZM395.672 72.2593V61.3502C390.976 61.3502 386.296 57.6087 386.296 50.2425H375.387H364.478C364.478 67.9441 377.28 83.1684 395.672 83.1684V72.2593ZM375.387 50.2425H386.296C386.296 42.8763 390.976 39.1347 395.672 39.1347V28.2256V17.3165C377.28 17.3165 364.478 32.5408 364.478 50.2425H375.387ZM395.672 28.2256V39.1347C397.927 39.1347 399.455 39.9029 400.56 41.0362L408.371 33.4206L416.182 25.805C410.855 20.3416 403.642 17.3165 395.672 17.3165V28.2256ZM408.371 33.4206H419.28V29.2151H408.371H397.462V33.4206H408.371ZM408.371 29.2151V40.1242H420.41V29.2151V18.3061H408.371V29.2151ZM420.41 29.2151H409.501V56.262H420.41H431.319V29.2151H420.41ZM420.41 56.262H409.501C409.501 59.4124 410.448 63.3353 413.583 66.4704C416.718 69.6054 420.641 70.552 423.791 70.552V59.6429V48.7338C424.797 48.7338 427.03 49.062 429.011 51.0426C430.991 53.0232 431.319 55.2556 431.319 56.262H420.41ZM423.791 59.6429V70.552H424.616V59.6429V48.7338H423.791V59.6429ZM424.616 59.6429H413.707V71.2698H424.616H435.525V59.6429H424.616ZM424.616 71.2698V60.3607H421.235V71.2698V82.1789H424.616V71.2698ZM421.235 71.2698V60.3607C419.469 60.3607 418.87 60.0605 418.908 60.0794C418.95 60.1002 419.093 60.183 419.259 60.3484C419.425 60.5138 419.508 60.6576 419.53 60.7013L409.773 65.58L400.015 70.4587C404.411 79.2493 413.02 82.1789 421.235 82.1789V71.2698ZM409.773 65.58L401.337 58.6628C399.913 60.3995 398.081 61.3502 395.672 61.3502V72.2593V83.1684C404.972 83.1684 412.871 79.0066 418.208 72.4973L409.773 65.58ZM398.064 60.6324V71.5415C410.14 71.5415 419.28 62.0893 419.28 50.2425H408.371H397.462C397.462 50.38 397.439 50.3887 397.471 50.3083C397.503 50.2293 397.57 50.1117 397.687 49.9932C397.805 49.8741 397.934 49.7939 398.041 49.75C398.15 49.7053 398.173 49.7233 398.064 49.7233V60.6324ZM408.371 50.2425H419.28C419.28 38.3957 410.14 28.9434 398.064 28.9434V39.8525V50.7616C398.173 50.7616 398.15 50.7797 398.041 50.7349C397.934 50.691 397.805 50.6108 397.687 50.4917C397.57 50.3733 397.503 50.2556 397.471 50.1766C397.439 50.0962 397.462 50.1049 397.462 50.2425H408.371ZM398.064 39.8525V28.9434C386.012 28.9434 376.929 38.454 376.929 50.2425H387.838H398.748C398.748 50.105 398.771 50.0927 398.741 50.1676C398.712 50.2406 398.648 50.3536 398.534 50.4699C398.419 50.5867 398.287 50.6714 398.167 50.7212C398.044 50.7721 397.994 50.7616 398.064 50.7616V39.8525ZM387.838 50.2425H376.929C376.929 62.0309 386.012 71.5415 398.064 71.5415V60.6324V49.7233C397.994 49.7233 398.044 49.7128 398.167 49.7637C398.287 49.8135 398.419 49.8982 398.534 50.0151C398.648 50.1313 398.712 50.2443 398.741 50.3173C398.771 50.3922 398.748 50.38 398.748 50.2425H387.838ZM440.908 66.1573L448.622 58.4434C446.052 55.873 442.37 54.7518 438.803 55.4531C435.236 56.1545 432.253 58.5863 430.848 61.9384L440.908 66.1573ZM438.764 71.2698V82.1789C443.159 82.1789 447.125 79.5416 448.824 75.4886L438.764 71.2698ZM426.395 71.2698L416.329 67.0656C414.922 70.4328 415.293 74.2802 417.316 77.3173C419.338 80.3543 422.746 82.1789 426.395 82.1789V71.2698ZM443.959 29.2151V18.3061C439.558 18.3061 435.589 20.9502 433.893 25.0109L443.959 29.2151ZM457.73 29.2151L468.568 27.9741C467.937 22.4654 463.275 18.3061 457.73 18.3061V29.2151ZM450.638 41.914L459.852 36.074C457.664 32.6205 453.728 30.6809 449.655 31.0493C445.583 31.4176 442.059 34.032 440.526 37.8222L450.638 41.914ZM444.866 56.1796L434.753 52.0878C433.341 55.5784 433.829 59.5507 436.043 62.596L444.866 56.1796ZM456.41 72.2593V61.3502C452.896 61.3502 450.19 60.0111 448.622 58.4434L440.908 66.1573L433.194 73.8711C439.048 79.7248 447.39 83.1684 456.41 83.1684V72.2593ZM440.908 66.1573L430.848 61.9384L428.704 67.0509L438.764 71.2698L448.824 75.4886L450.968 70.3761L440.908 66.1573ZM438.764 71.2698V60.3607H426.395V71.2698V82.1789H438.764V71.2698ZM426.395 71.2698L436.461 75.474L454.025 33.4194L443.959 29.2151L433.893 25.0109L416.329 67.0656L426.395 71.2698ZM443.959 29.2151V40.1242H457.73V29.2151V18.3061H443.959V29.2151ZM457.73 29.2151L446.892 30.4562C448.133 41.2981 457.046 46.932 459.386 48.8373C461.107 50.2383 461.842 51.0307 462.27 51.7216C462.565 52.1978 462.983 53.0391 462.983 54.9427H473.892H484.801C484.801 49.1775 483.353 44.3187 480.811 40.221C478.402 36.3379 475.329 33.6825 473.163 31.919C470.555 29.7951 469.683 29.2091 468.827 28.2729C468.557 27.9774 468.514 27.8679 468.536 27.9125C468.573 27.9869 468.576 28.0422 468.568 27.9741L457.73 29.2151ZM473.892 54.9427H462.983C462.983 57.7227 462.136 59.125 461.485 59.7875C460.868 60.4146 459.479 61.3502 456.41 61.3502V72.2593V83.1684C464.309 83.1684 471.661 80.5582 477.043 75.0833C482.391 69.6438 484.801 62.3877 484.801 54.9427H473.892ZM461.523 54.6953H472.432C472.432 46.3623 466.226 41.6314 464.329 40.0985C461.302 37.6518 460.493 37.0847 459.852 36.074L450.638 41.914L441.424 47.754C444.494 52.598 449.127 55.8653 450.615 57.0674C451.685 57.9321 451.751 58.0907 451.596 57.8825C451.249 57.4172 450.614 56.2583 450.614 54.6953H461.523ZM450.638 41.914L440.526 37.8222L434.753 52.0878L444.866 56.1796L454.979 60.2714L460.751 46.0058L450.638 41.914ZM444.866 56.1796L436.043 62.596C440.219 68.3378 446.988 71.5415 454.102 71.5415V60.6324V49.7233C453.464 49.7233 453.471 49.4637 453.689 49.7632L444.866 56.1796ZM454.102 60.6324V71.5415C458.1 71.5415 462.522 70.4915 466.2 67.5954C470.113 64.514 472.432 59.8817 472.432 54.6953H461.523H450.614C450.614 54.0421 450.759 53.2195 451.172 52.3726C451.583 51.5304 452.148 50.8901 452.702 50.4535C453.762 49.619 454.473 49.7233 454.102 49.7233V60.6324ZM69.6432 143.27L59.4299 139.436C58.1723 142.786 58.6379 146.54 60.6758 149.482C62.7136 152.424 66.0646 154.179 69.6432 154.179V143.27ZM91.0004 86.3723V75.4632C86.4542 75.4632 82.3847 78.2825 80.7871 82.5387L91.0004 86.3723ZM106.091 86.3723L116.299 82.5257C114.698 78.2763 110.632 75.4632 106.091 75.4632V86.3723ZM127.53 143.27V154.179C131.111 154.179 134.464 152.421 136.502 149.476C138.539 146.531 139.001 142.774 137.739 139.423L127.53 143.27ZM113.512 143.27L103.206 146.847C104.73 151.236 108.866 154.179 113.512 154.179V143.27ZM110.049 133.292L120.355 129.715C118.831 125.326 114.695 122.383 110.049 122.383V133.292ZM86.8773 133.292V122.383C82.2607 122.383 78.144 125.289 76.5981 129.639L86.8773 133.292ZM83.3316 143.27V154.179C87.9482 154.179 92.065 151.273 93.6109 146.923L83.3316 143.27ZM91.0004 121.5L80.7132 117.87C79.5349 121.208 80.05 124.911 82.0948 127.801C84.1397 130.691 87.4599 132.409 91.0004 132.409V121.5ZM105.843 121.5V132.409C109.384 132.409 112.704 130.691 114.749 127.801C116.794 124.911 117.309 121.208 116.13 117.87L105.843 121.5ZM98.4218 100.473L108.709 96.8422C107.17 92.4807 103.047 89.5639 98.4218 89.5639C93.7965 89.5639 89.674 92.4807 88.1346 96.8422L98.4218 100.473ZM69.6432 143.27L79.8565 147.103L101.214 90.206L91.0004 86.3723L80.7871 82.5387L59.4299 139.436L69.6432 143.27ZM91.0004 86.3723V97.2814H106.091V86.3723V75.4632H91.0004V86.3723ZM106.091 86.3723L95.8821 90.219L117.322 147.116L127.53 143.27L137.739 139.423L116.299 82.5257L106.091 86.3723ZM127.53 143.27V132.361H113.512V143.27V154.179H127.53V143.27ZM113.512 143.27L123.818 139.693L120.355 129.715L110.049 133.292L99.7427 136.869L103.206 146.847L113.512 143.27ZM110.049 133.292V122.383H86.8773V133.292V144.201H110.049V133.292ZM86.8773 133.292L76.5981 129.639L73.0523 139.617L83.3316 143.27L93.6109 146.923L97.1567 136.945L86.8773 133.292ZM83.3316 143.27V132.361H69.6432V143.27V154.179H83.3316V143.27ZM91.0004 121.5V132.409H105.843V121.5V110.591H91.0004V121.5ZM105.843 121.5L116.13 117.87L108.709 96.8422L98.4218 100.473L88.1346 104.104L95.556 125.131L105.843 121.5ZM98.4218 100.473L88.1346 96.8422L80.7132 117.87L91.0004 121.5L101.288 125.131L108.709 104.104L98.4218 100.473ZM132.333 143.27H121.424C121.424 149.295 126.308 154.179 132.333 154.179V143.27ZM132.333 83.8985V72.9894C126.308 72.9894 121.424 77.8736 121.424 83.8985H132.333ZM144.372 83.8985H155.281C155.281 77.8736 150.397 72.9894 144.372 72.9894V83.8985ZM144.372 105.421H133.463C133.463 109.858 136.151 113.853 140.261 115.526C144.371 117.198 149.085 116.213 152.183 113.036L144.372 105.421ZM144.372 139.064L152.183 131.449C149.085 128.271 144.371 127.287 140.261 128.959C136.151 130.632 133.463 134.627 133.463 139.064H144.372ZM144.372 143.27V154.179C150.397 154.179 155.281 149.295 155.281 143.27H144.372ZM132.333 143.27H143.242V83.8985H132.333H121.424V143.27H132.333ZM132.333 83.8985V94.8076H144.372V83.8985V72.9894H132.333V83.8985ZM144.372 83.8985H133.463V105.421H144.372H155.281V83.8985H144.372ZM144.372 105.421L152.183 113.036C153.288 111.903 154.816 111.135 157.071 111.135V100.226V89.3165C149.101 89.3165 141.888 92.3416 136.561 97.805L144.372 105.421ZM157.071 100.226V111.135C161.822 111.135 166.447 114.846 166.447 122.242H177.356H188.265C188.265 104.571 175.573 89.3165 157.071 89.3165V100.226ZM177.356 122.242H166.447C166.447 129.639 161.822 133.35 157.071 133.35V144.259V155.168C175.573 155.168 188.265 139.914 188.265 122.242H177.356ZM157.071 144.259V133.35C154.816 133.35 153.288 132.582 152.183 131.449L144.372 139.064L136.561 146.68C141.888 152.143 149.101 155.168 157.071 155.168V144.259ZM144.372 139.064H133.463V143.27H144.372H155.281V139.064H144.372ZM144.372 143.27V132.361H132.333V143.27V154.179H144.372V143.27ZM154.679 132.632V143.542C166.756 143.542 175.896 134.089 175.896 122.242H164.987H154.078C154.078 122.38 154.055 122.389 154.087 122.308C154.119 122.229 154.186 122.112 154.303 121.993C154.421 121.874 154.55 121.794 154.657 121.75C154.766 121.705 154.789 121.723 154.679 121.723V132.632ZM164.987 122.242H175.896C175.896 110.396 166.756 100.943 154.679 100.943V111.853V122.762C154.789 122.762 154.766 122.78 154.657 122.735C154.55 122.691 154.421 122.611 154.303 122.492C154.186 122.373 154.119 122.256 154.087 122.177C154.055 122.096 154.078 122.105 154.078 122.242H164.987ZM154.679 111.853V100.943C142.603 100.943 133.463 110.396 133.463 122.242H144.372H155.281C155.281 122.105 155.304 122.096 155.272 122.177C155.24 122.256 155.173 122.373 155.056 122.492C154.938 122.611 154.809 122.691 154.702 122.735C154.593 122.78 154.57 122.762 154.679 122.762V111.853ZM144.372 122.242H133.463C133.463 134.089 142.603 143.542 154.679 143.542V132.632V121.723C154.57 121.723 154.593 121.705 154.702 121.75C154.809 121.794 154.938 121.874 155.056 121.993C155.173 122.112 155.24 122.229 155.272 122.308C155.304 122.389 155.281 122.38 155.281 122.242H144.372ZM227.141 126.118V137.027C232.146 137.027 236.51 133.62 237.724 128.764L227.141 126.118ZM194.981 126.118V115.209C191.576 115.209 188.365 116.799 186.302 119.509C184.239 122.218 183.559 125.736 184.465 129.019L194.981 126.118ZM213.947 129.994V119.085C210.397 119.085 207.069 120.812 205.025 123.716L213.947 129.994ZM226.811 129.994L237.046 133.77C238.28 130.422 237.801 126.683 235.761 123.756C233.721 120.829 230.378 119.085 226.811 119.085V129.994ZM195.064 118.119L184.574 115.123C183.634 118.414 184.293 121.956 186.354 124.689C188.416 127.422 191.64 129.029 195.064 129.029V118.119ZM214.607 118.119V129.029C218.03 129.029 221.255 127.422 223.316 124.689C225.377 121.956 226.036 118.414 225.096 115.123L214.607 118.119ZM204.876 144.259V133.35C197.552 133.35 193.027 128.436 193.027 122.242H182.117H171.208C171.208 141.117 186.143 155.168 204.876 155.168V144.259ZM182.117 122.242H193.027C193.027 116.023 197.579 111.135 204.794 111.135V100.226V89.3165C186.117 89.3165 171.208 103.394 171.208 122.242H182.117ZM204.794 100.226V111.135C211.926 111.135 216.561 115.94 216.561 122.407H227.47H238.38C238.38 103.312 223.389 89.3165 204.794 89.3165V100.226ZM227.47 122.407H216.561C216.561 122.698 216.549 123.097 216.521 123.457C216.508 123.631 216.495 123.743 216.488 123.792C216.478 123.863 216.492 123.735 216.557 123.472L227.141 126.118L237.724 128.764C238.32 126.38 238.38 123.577 238.38 122.407H227.47ZM227.141 126.118V115.209H194.981V126.118V137.027H227.141V126.118ZM194.981 126.118L184.465 129.019C187.029 138.315 194.963 144.861 205.124 144.861V133.952V123.043C204.976 123.043 204.964 123.022 205.049 123.05C205.136 123.079 205.256 123.137 205.376 123.231C205.494 123.323 205.557 123.407 205.576 123.437C205.594 123.464 205.549 123.406 205.497 123.217L194.981 126.118ZM205.124 133.952V144.861C211.953 144.861 218.897 141.916 222.869 136.272L213.947 129.994L205.025 123.716C205.281 123.352 205.509 123.145 205.629 123.049C205.752 122.95 205.816 122.923 205.797 122.932C205.753 122.953 205.523 123.043 205.124 123.043V133.952ZM213.947 129.994V140.903H226.811V129.994V119.085H213.947V129.994ZM226.811 129.994L216.576 126.218C215.175 130.015 211.15 133.35 204.876 133.35V144.259V155.168C219.382 155.168 232.18 146.959 237.046 133.77L226.811 129.994ZM204.794 110.533V99.624C194.738 99.624 187.118 106.22 184.574 115.123L195.064 118.119L205.553 121.116C205.605 120.936 205.647 120.882 205.626 120.913C205.604 120.948 205.532 121.044 205.393 121.154C205.252 121.266 205.092 121.35 204.945 121.4C204.799 121.45 204.735 121.442 204.794 121.442V110.533ZM195.064 118.119V129.029H214.607V118.119V107.21H195.064V118.119ZM214.607 118.119L225.096 115.123C222.522 106.113 214.744 99.624 204.794 99.624V110.533V121.442C204.853 121.442 204.803 121.45 204.679 121.408C204.554 121.366 204.414 121.294 204.287 121.194C204.161 121.096 204.092 121.007 204.066 120.967C204.041 120.929 204.074 120.966 204.117 121.116L214.607 118.119ZM230.104 143.27L219.404 141.146C218.768 144.349 219.6 147.668 221.673 150.192C223.745 152.716 226.839 154.179 230.104 154.179V143.27ZM236.536 110.863L247.236 112.987C248.089 108.688 246.288 104.297 242.661 101.836L236.536 110.863ZM248.658 102.452L237.844 103.894C238.505 108.85 242.451 112.723 247.419 113.291L248.658 102.452ZM274.632 105.421H285.542C285.542 99.875 281.381 95.2118 275.871 94.5821L274.632 105.421ZM274.632 108.307L283.47 114.702C284.817 112.842 285.542 110.604 285.542 108.307H274.632ZM275.952 131.643H286.861C286.861 125.618 281.977 120.734 275.952 120.734V131.643ZM275.952 143.27V154.179C281.977 154.179 286.861 149.295 286.861 143.27H275.952ZM257.811 115.151L267.696 119.764C269.163 116.622 269.048 112.97 267.387 109.926C265.726 106.882 262.717 104.809 259.281 104.341L257.811 115.151ZM247.503 113.749L248.973 102.939C243.213 102.156 237.85 106.028 236.78 111.742L247.503 113.749ZM241.978 143.27V154.179C247.229 154.179 251.735 150.438 252.701 145.277L241.978 143.27ZM230.104 143.27L240.804 145.394L247.236 112.987L236.536 110.863L225.836 108.739L219.404 141.146L230.104 143.27ZM236.536 110.863L242.661 101.836C243.166 102.179 243.439 102.565 243.572 102.83C243.705 103.095 243.734 103.306 243.734 103.442H232.825H221.916C221.916 109.71 224.795 116.079 230.41 119.89L236.536 110.863ZM232.825 103.442H243.734C243.734 103.864 243.528 104.933 242.544 105.88C241.592 106.796 240.699 106.847 240.659 106.847V95.9377V85.0286C235.918 85.0286 231.108 86.6047 227.415 90.1596C223.689 93.7452 221.916 98.566 221.916 103.442H232.825ZM240.659 95.9377V106.847C240.544 106.847 239.867 106.782 239.11 106.143C238.36 105.511 237.945 104.653 237.844 103.894L248.658 102.452L259.471 101.01C258.207 91.5284 250.217 85.0286 240.659 85.0286V95.9377ZM248.658 102.452L247.419 113.291L273.394 116.259L274.632 105.421L275.871 94.5821L249.896 91.6135L248.658 102.452ZM274.632 105.421H263.723V108.307H274.632H285.542V105.421H274.632ZM274.632 108.307L265.795 101.911C260.844 108.752 256.797 116.523 256.797 124.634H267.706H278.615C278.615 123.509 279.35 120.396 283.47 114.702L274.632 108.307ZM267.706 124.634H256.797C256.797 128.537 257.751 133.32 261.288 137.195C264.977 141.235 269.874 142.552 274.138 142.552V131.643V120.734C274.196 120.734 275.876 120.814 277.401 122.483C278.774 123.987 278.615 125.265 278.615 124.634H267.706ZM274.138 131.643V142.552H275.952V131.643V120.734H274.138V131.643ZM275.952 131.643H265.043V143.27H275.952H286.861V131.643H275.952ZM275.952 143.27V132.361H273.066V143.27V154.179H275.952V143.27ZM273.066 143.27V132.361C269.157 132.361 267.843 131.317 267.497 130.973C267.156 130.635 266.246 129.479 266.246 126.118H255.337H244.428C244.428 133.477 246.527 140.897 252.123 146.455C257.714 152.007 265.265 154.179 273.066 154.179V143.27ZM255.337 126.118H266.246C266.246 124.062 266.648 122.011 267.696 119.764L257.811 115.151L247.925 110.538C245.51 115.712 244.428 120.917 244.428 126.118H255.337ZM257.811 115.151L259.281 104.341L248.973 102.939L247.503 113.749L246.033 124.559L256.34 125.96L257.811 115.151ZM247.503 113.749L236.78 111.742L231.255 141.263L241.978 143.27L252.701 145.277L258.226 115.756L247.503 113.749ZM241.978 143.27V132.361H230.104V143.27V154.179H241.978V143.27ZM285.176 112.182H296.085C296.085 106.157 291.201 101.273 285.176 101.273V112.182ZM278.909 112.182H268C268 118.207 272.884 123.091 278.909 123.091V112.182ZM278.909 101.215V90.3061C272.884 90.3061 268 95.1902 268 101.215H278.909ZM285.836 90.1655V79.2564C279.811 79.2564 274.927 84.1406 274.927 90.1655H285.836ZM297.216 90.1655H308.125C308.125 84.1406 303.24 79.2564 297.216 79.2564V90.1655ZM297.216 101.215H286.306C286.306 107.24 291.191 112.124 297.216 112.124V101.215ZM306.369 101.215H317.278C317.278 95.1902 312.394 90.3061 306.369 90.3061V101.215ZM306.369 112.182V123.091C312.394 123.091 317.278 118.207 317.278 112.182H306.369ZM297.216 112.182V101.273C291.191 101.273 286.306 106.157 286.306 112.182H297.216ZM306.369 132.303H317.278C317.278 126.278 312.394 121.394 306.369 121.394V132.303ZM306.369 143.27V154.179C312.394 154.179 317.278 149.295 317.278 143.27H306.369ZM300.349 143.27V132.361C296.891 132.361 296.147 131.533 296.332 131.699C296.426 131.784 296.419 131.841 296.351 131.662C296.263 131.43 296.085 130.799 296.085 129.581H285.176H274.267C274.267 136.188 276.238 142.953 281.711 147.893C286.987 152.657 293.829 154.179 300.349 154.179V143.27ZM285.176 129.581H296.085V112.182H285.176H274.267V129.581H285.176ZM285.176 112.182V101.273H278.909V112.182V123.091H285.176V112.182ZM278.909 112.182H289.818V101.215H278.909H268V112.182H278.909ZM278.909 101.215V112.124H282.373V101.215V90.3061H278.909V101.215ZM282.373 101.215V112.124C285.209 112.124 289.339 111.408 292.684 108.063C296.029 104.719 296.745 100.588 296.745 97.7518H285.836H274.927C274.927 97.2247 275.066 94.8256 277.256 92.6354C279.447 90.4452 281.846 90.3061 282.373 90.3061V101.215ZM285.836 97.7518H296.745V90.1655H285.836H274.927V97.7518H285.836ZM285.836 90.1655V101.075H297.216V90.1655V79.2564H285.836V90.1655ZM297.216 90.1655H286.306V101.215H297.216H308.125V90.1655H297.216ZM297.216 101.215V112.124H306.369V101.215V90.3061H297.216V101.215ZM306.369 101.215H295.46V112.182H306.369H317.278V101.215H306.369ZM306.369 112.182V101.273H297.216V112.182V123.091H306.369V112.182ZM297.216 112.182H286.306V127.602H297.216H308.125V112.182H297.216ZM297.216 127.602H286.306C286.306 131.343 287.507 135.652 290.996 138.97C294.409 142.217 298.645 143.212 302.163 143.212V132.303V121.394C302.548 121.394 304.31 121.522 306.033 123.161C307.831 124.872 308.125 126.831 308.125 127.602H297.216ZM302.163 132.303V143.212H306.369V132.303V121.394H302.163V132.303ZM306.369 132.303H295.46V143.27H306.369H317.278V132.303H306.369ZM306.369 143.27V132.361H300.349V143.27V154.179H306.369V143.27ZM344.03 105.421L336.219 113.036C339.317 116.213 344.03 117.198 348.141 115.526C352.251 113.853 354.939 109.858 354.939 105.421H344.03ZM344.03 101.215V90.3061C338.005 90.3061 333.121 95.1902 333.121 101.215H344.03ZM356.069 101.215H366.978C366.978 95.1902 362.094 90.3061 356.069 90.3061V101.215ZM360.274 131.643H371.183C371.183 125.618 366.299 120.734 360.274 120.734V131.643ZM360.274 143.27V154.179C366.299 154.179 371.183 149.295 371.183 143.27H360.274ZM345.431 137.58L355.189 132.701C353.536 129.395 350.32 127.15 346.646 126.739C342.972 126.327 339.34 127.804 336.996 130.663L345.431 137.58ZM331.331 144.259V133.35C326.634 133.35 321.955 129.609 321.955 122.242H311.046H300.137C300.137 139.944 312.939 155.168 331.331 155.168V144.259ZM311.046 122.242H321.955C321.955 114.876 326.634 111.135 331.331 111.135V100.226V89.3165C312.939 89.3165 300.137 104.541 300.137 122.242H311.046ZM331.331 100.226V111.135C333.586 111.135 335.114 111.903 336.219 113.036L344.03 105.421L351.841 97.805C346.514 92.3416 339.301 89.3165 331.331 89.3165V100.226ZM344.03 105.421H354.939V101.215H344.03H333.121V105.421H344.03ZM344.03 101.215V112.124H356.069V101.215V90.3061H344.03V101.215ZM356.069 101.215H345.16V128.262H356.069H366.978V101.215H356.069ZM356.069 128.262H345.16C345.16 131.412 346.106 135.335 349.241 138.47C352.376 141.605 356.299 142.552 359.45 142.552V131.643V120.734C360.456 120.734 362.689 121.062 364.669 123.043C366.65 125.023 366.978 127.256 366.978 128.262H356.069ZM359.45 131.643V142.552H360.274V131.643V120.734H359.45V131.643ZM360.274 131.643H349.365V143.27H360.274H371.183V131.643H360.274ZM360.274 143.27V132.361H356.893V143.27V154.179H360.274V143.27ZM356.893 143.27V132.361C355.128 132.361 354.529 132.06 354.567 132.079C354.609 132.1 354.752 132.183 354.918 132.348C355.083 132.514 355.167 132.658 355.189 132.701L345.431 137.58L335.674 142.459C340.069 151.249 348.679 154.179 356.893 154.179V143.27ZM345.431 137.58L336.996 130.663C335.572 132.4 333.74 133.35 331.331 133.35V144.259V155.168C340.631 155.168 348.53 151.007 353.867 144.497L345.431 137.58ZM333.722 132.632V143.542C345.799 143.542 354.939 134.089 354.939 122.242H344.03H333.121C333.121 122.38 333.097 122.389 333.129 122.308C333.161 122.229 333.228 122.112 333.345 121.993C333.463 121.874 333.592 121.794 333.7 121.75C333.809 121.705 333.832 121.723 333.722 121.723V132.632ZM344.03 122.242H354.939C354.939 110.396 345.799 100.943 333.722 100.943V111.853V122.762C333.832 122.762 333.809 122.78 333.7 122.735C333.592 122.691 333.463 122.611 333.345 122.492C333.228 122.373 333.161 122.256 333.129 122.177C333.097 122.096 333.121 122.105 333.121 122.242H344.03ZM333.722 111.853V100.943C321.67 100.943 312.588 110.454 312.588 122.242H323.497H334.406C334.406 122.105 334.43 122.093 334.4 122.168C334.37 122.241 334.307 122.354 334.193 122.47C334.078 122.587 333.946 122.671 333.826 122.721C333.703 122.772 333.653 122.762 333.722 122.762V111.853ZM323.497 122.242H312.588C312.588 134.031 321.67 143.542 333.722 143.542V132.632V121.723C333.653 121.723 333.703 121.713 333.826 121.764C333.946 121.813 334.078 121.898 334.193 122.015C334.307 122.131 334.37 122.244 334.4 122.317C334.43 122.392 334.406 122.38 334.406 122.242H323.497ZM376.567 138.157L384.28 130.443C381.71 127.873 378.028 126.752 374.462 127.453C370.895 128.154 367.912 130.586 366.506 133.938L376.567 138.157ZM374.423 143.27V154.179C378.818 154.179 382.783 151.542 384.483 147.489L374.423 143.27ZM362.054 143.27L351.987 139.066C350.581 142.433 350.951 146.28 352.974 149.317C354.997 152.354 358.404 154.179 362.054 154.179V143.27ZM379.618 101.215V90.3061C375.217 90.3061 371.247 92.9502 369.551 97.0109L379.618 101.215ZM393.388 101.215L404.227 99.9741C403.596 94.4654 398.933 90.3061 393.388 90.3061V101.215ZM386.297 113.914L395.511 108.074C393.322 104.621 389.386 102.681 385.314 103.049C381.242 103.418 377.718 106.032 376.184 109.822L386.297 113.914ZM380.525 128.18L370.412 124.088C369 127.578 369.487 131.551 371.702 134.596L380.525 128.18ZM392.069 144.259V133.35C388.555 133.35 385.848 132.011 384.28 130.443L376.567 138.157L368.853 145.871C374.706 151.725 383.049 155.168 392.069 155.168V144.259ZM376.567 138.157L366.506 133.938L364.362 139.051L374.423 143.27L384.483 147.489L386.627 142.376L376.567 138.157ZM374.423 143.27V132.361H362.054V143.27V154.179H374.423V143.27ZM362.054 143.27L372.12 147.474L389.684 105.419L379.618 101.215L369.551 97.0109L351.987 139.066L362.054 143.27ZM379.618 101.215V112.124H393.388V101.215V90.3061H379.618V101.215ZM393.388 101.215L382.55 102.456C383.792 113.298 392.705 118.932 395.045 120.837C396.765 122.238 397.5 123.031 397.929 123.722C398.224 124.198 398.641 125.039 398.641 126.943H409.551H420.46C420.46 121.178 419.011 116.319 416.47 112.221C414.061 108.338 410.987 105.683 408.822 103.919C406.214 101.795 405.342 101.209 404.486 100.273C404.215 99.9774 404.172 99.8679 404.194 99.9125C404.232 99.9869 404.234 100.042 404.227 99.9741L393.388 101.215ZM409.551 126.943H398.641C398.641 129.723 397.795 131.125 397.143 131.787C396.527 132.415 395.137 133.35 392.069 133.35V144.259V155.168C399.968 155.168 407.319 152.558 412.702 147.083C418.049 141.644 420.46 134.388 420.46 126.943H409.551ZM397.182 126.695H408.091C408.091 118.362 401.885 113.631 399.988 112.099C396.961 109.652 396.152 109.085 395.511 108.074L386.297 113.914L377.083 119.754C380.153 124.598 384.786 127.865 386.273 129.067C387.343 129.932 387.41 130.091 387.255 129.883C386.908 129.417 386.272 128.258 386.272 126.695H397.182ZM386.297 113.914L376.184 109.822L370.412 124.088L380.525 128.18L390.637 132.271L396.409 118.006L386.297 113.914ZM380.525 128.18L371.702 134.596C375.878 140.338 382.647 143.542 389.76 143.542V132.632V121.723C389.123 121.723 389.129 121.464 389.347 121.763L380.525 128.18ZM389.76 132.632V143.542C393.759 143.542 398.181 142.491 401.859 139.595C405.772 136.514 408.091 131.882 408.091 126.695H397.182H386.272C386.272 126.042 386.418 125.22 386.831 124.373C387.242 123.53 387.806 122.89 388.361 122.453C389.421 121.619 390.132 121.723 389.76 121.723V132.632Z" fill="white" mask="url(#path-1-outside-1_31_16)"/>
</g>
<defs>
<filter id="filter0_d_31_16" x="0" y="0" width="488.074" height="162.805" filterUnits="userSpaceOnUse" color-interpolation-filters="sRGB">
<feFlood flood-opacity="0" result="BackgroundImageFix"/>
<feColorMatrix in="SourceAlpha" type="matrix" values="0 0 0 0 0 0 0 0 0 0 0 0 0 0 0 0 0 0 127 0" result="hardAlpha"/>
<feOffset dx="3.27273" dy="7.63636"/>
<feComposite in2="hardAlpha" operator="out"/>
<feColorMatrix type="matrix" values="0 0 0 0 0 0 0 0 0 0 0 0 0 0 0 0 0 0 0.25 0"/>
<feBlend mode="normal" in2="BackgroundImageFix" result="effect1_dropShadow_31_16"/>
<feBlend mode="normal" in="SourceGraphic" in2="effect1_dropShadow_31_16" result="shape"/>
</filter>
</defs>
</svg>