<svg width="1250" height="442" viewBox="0 0 1250 442" fill="none" xmlns="http://www.w3.org/2000/svg">
<g filter="url(#filter0_d_0_1)">
<mask id="path-1-outside-1_0_1" maskUnits="userSpaceOnUse" x="-0.655151" y="26" width="1278" height="404" fill="black">
<rect fill="white" x="-0.655151" y="26" width="1278" height="404"/>
<path d="M153.935 419.281C71.761 419.281 10 359.09 10 279.533C10 199.977 71.761 139.786 153.935 139.786C225.64 139.786 282.69 186.369 291.588 251.27H210.462C203.134 228.764 180.628 213.585 153.935 213.585C116.25 213.585 88.5097 241.849 88.5097 279.533C88.5097 317.218 116.25 345.482 153.935 345.482C180.628 345.482 203.134 330.303 210.462 307.797H291.588C282.69 372.698 225.64 419.281 153.935 419.281ZM464.191 419.281C382.018 419.281 320.257 359.09 320.257 279.533C320.257 199.977 382.018 139.786 464.191 139.786C546.365 139.786 608.126 199.977 608.126 279.533C608.126 359.09 546.365 419.281 464.191 419.281ZM464.191 345.482C501.876 345.482 529.616 317.218 529.616 279.533C529.616 241.849 501.876 213.585 464.191 213.585C426.506 213.585 398.766 241.849 398.766 279.533C398.766 317.218 426.506 345.482 464.191 345.482ZM782.127 419.281C699.43 419.281 637.669 359.09 637.669 279.533C637.669 199.977 699.43 139.786 781.603 139.786C863.254 139.786 925.538 199.454 925.538 280.58C925.538 287.384 925.015 297.852 923.444 304.133H719.319C727.693 334.49 751.77 353.856 783.697 353.856C808.82 353.856 829.756 342.865 839.701 328.733H921.351C901.462 382.643 848.075 419.281 782.127 419.281ZM781.603 205.211C751.246 205.211 728.217 224.053 719.842 253.364H843.888C835.513 224.053 811.961 205.211 781.603 205.211ZM1083.35 419.281C1010.07 419.281 954.595 359.09 954.595 279.533C954.595 199.977 1010.07 139.786 1083.35 139.786C1115.8 139.786 1143.54 151.824 1163.95 172.76V36.1533H1240.37V317.742C1240.37 331.35 1248.22 339.201 1261.83 339.201H1267.06V413H1245.6C1208.97 413 1184.89 400.962 1172.85 376.886C1151.39 403.055 1120.51 419.281 1083.35 419.281ZM1098.53 345.482C1136.21 345.482 1163.95 317.218 1163.95 279.533C1163.95 241.849 1136.21 213.585 1098.53 213.585C1061.37 213.585 1033.63 241.849 1033.63 279.533C1033.63 317.218 1061.37 345.482 1098.53 345.482Z"/>
</mask>
<path d="M153.935 419.281C71.761 419.281 10 359.09 10 279.533C10 199.977 71.761 139.786 153.935 139.786C225.64 139.786 282.69 186.369 291.588 251.27H210.462C203.134 228.764 180.628 213.585 153.935 213.585C116.25 213.585 88.5097 241.849 88.5097 279.533C88.5097 317.218 116.25 345.482 153.935 345.482C180.628 345.482 203.134 330.303 210.462 307.797H291.588C282.69 372.698 225.64 419.281 153.935 419.281ZM464.191 419.281C382.018 419.281 320.257 359.09 320.257 279.533C320.257 199.977 382.018 139.786 464.191 139.786C546.365 139.786 608.126 199.977 608.126 279.533C608.126 359.09 546.365 419.281 464.191 419.281ZM464.191 345.482C501.876 345.482 529.616 317.218 529.616 279.533C529.616 241.849 501.876 213.585 464.191 213.585C426.506 213.585 398.766 241.849 398.766 279.533C398.766 317.218 426.506 345.482 464.191 345.482ZM782.127 419.281C699.43 419.281 637.669 359.09 637.669 279.533C637.669 199.977 699.43 139.786 781.603 139.786C863.254 139.786 925.538 199.454 925.538 280.58C925.538 287.384 925.015 297.852 923.444 304.133H719.319C727.693 334.49 751.77 353.856 783.697 353.856C808.82 353.856 829.756 342.865 839.701 328.733H921.351C901.462 382.643 848.075 419.281 782.127 419.281ZM781.603 205.211C751.246 205.211 728.217 224.053 719.842 253.364H843.888C835.513 224.053 811.961 205.211 781.603 205.211ZM1083.35 419.281C1010.07 419.281 954.595 359.09 954.595 279.533C954.595 199.977 1010.07 139.786 1083.35 139.786C1115.8 139.786 1143.54 151.824 1163.95 172.76V36.1533H1240.37V317.742C1240.37 331.35 1248.22 339.201 1261.83 339.201H1267.06V413H1245.6C1208.97 413 1184.89 400.962 1172.85 376.886C1151.39 403.055 1120.51 419.281 1083.35 419.281ZM1098.53 345.482C1136.21 345.482 1163.95 317.218 1163.95 279.533C1163.95 241.849 1136.21 213.585 1098.53 213.585C1061.37 213.585 1033.63 241.849 1033.63 279.533C1033.63 317.218 1061.37 345.482 1098.53 345.482Z" fill="#AECC1C"/>
<path d="M291.588 251.27V261.27C294.477 261.27 297.225 260.02 299.124 257.843C301.023 255.666 301.888 252.774 301.496 249.912L291.588 251.27ZM210.462 251.27L200.953 254.366C202.293 258.483 206.131 261.27 210.462 261.27V251.27ZM210.462 307.797V297.797C206.131 297.797 202.293 300.584 200.953 304.701L210.462 307.797ZM291.588 307.797L301.496 309.155C301.888 306.293 301.023 303.401 299.124 301.224C297.225 299.046 294.477 297.797 291.588 297.797V307.797ZM153.935 419.281V409.281C77.0143 409.281 20 353.301 20 279.533H10H-1.50077e-06C-1.50077e-06 364.879 66.5077 429.281 153.935 429.281V419.281ZM10 279.533H20C20 205.765 77.0143 149.786 153.935 149.786V139.786V129.786C66.5077 129.786 -1.50077e-06 194.188 -1.50077e-06 279.533H10ZM153.935 139.786V149.786C221.28 149.786 273.545 193.286 281.681 252.628L291.588 251.27L301.496 249.912C291.836 179.451 230 129.786 153.935 129.786V139.786ZM291.588 251.27V241.27H210.462V251.27V261.27H291.588V251.27ZM210.462 251.27L219.97 248.174C211.111 220.964 184.307 203.585 153.935 203.585V213.585V223.585C176.949 223.585 195.157 236.564 200.953 254.366L210.462 251.27ZM153.935 213.585V203.585C110.622 203.585 78.5097 236.432 78.5097 279.533H88.5097H98.5097C98.5097 247.266 121.878 223.585 153.935 223.585V213.585ZM88.5097 279.533H78.5097C78.5097 322.635 110.622 355.482 153.935 355.482V345.482V335.482C121.878 335.482 98.5097 311.801 98.5097 279.533H88.5097ZM153.935 345.482V355.482C184.307 355.482 211.111 338.103 219.97 310.893L210.462 307.797L200.953 304.701C195.157 322.503 176.949 335.482 153.935 335.482V345.482ZM210.462 307.797V317.797H291.588V307.797V297.797H210.462V307.797ZM291.588 307.797L281.681 306.439C273.545 365.781 221.28 409.281 153.935 409.281V419.281V429.281C230 429.281 291.836 379.615 301.496 309.155L291.588 307.797ZM464.191 419.281V409.281C387.271 409.281 330.257 353.301 330.257 279.533H320.257H310.257C310.257 364.879 376.764 429.281 464.191 429.281V419.281ZM320.257 279.533H330.257C330.257 205.765 387.271 149.786 464.191 149.786V139.786V129.786C376.764 129.786 310.257 194.188 310.257 279.533H320.257ZM464.191 139.786V149.786C541.111 149.786 598.126 205.765 598.126 279.533H608.126H618.126C618.126 194.188 551.618 129.786 464.191 129.786V139.786ZM608.126 279.533H598.126C598.126 353.301 541.111 409.281 464.191 409.281V419.281V429.281C551.618 429.281 618.126 364.879 618.126 279.533H608.126ZM464.191 345.482V355.482C507.504 355.482 539.616 322.635 539.616 279.533H529.616H519.616C519.616 311.801 496.248 335.482 464.191 335.482V345.482ZM529.616 279.533H539.616C539.616 236.432 507.504 203.585 464.191 203.585V213.585V223.585C496.248 223.585 519.616 247.266 519.616 279.533H529.616ZM464.191 213.585V203.585C420.879 203.585 388.766 236.432 388.766 279.533H398.766H408.766C408.766 247.266 432.134 223.585 464.191 223.585V213.585ZM398.766 279.533H388.766C388.766 322.635 420.879 355.482 464.191 355.482V345.482V335.482C432.134 335.482 408.766 311.801 408.766 279.533H398.766ZM923.444 304.133V314.133C928.033 314.133 932.033 311.01 933.146 306.559L923.444 304.133ZM719.319 304.133V294.133C716.197 294.133 713.254 295.591 711.363 298.075C709.472 300.559 708.849 303.783 709.679 306.792L719.319 304.133ZM839.701 328.733V318.733C836.446 318.733 833.395 320.317 831.523 322.978L839.701 328.733ZM921.351 328.733L930.733 332.194C931.865 329.126 931.425 325.698 929.555 323.015C927.685 320.332 924.621 318.733 921.351 318.733V328.733ZM719.842 253.364L710.227 250.616C709.365 253.634 709.969 256.88 711.859 259.386C713.749 261.891 716.705 263.364 719.842 263.364V253.364ZM843.888 253.364V263.364C847.026 263.364 849.982 261.891 851.871 259.386C853.761 256.88 854.365 253.634 853.503 250.616L843.888 253.364ZM782.127 419.281V409.281C704.659 409.281 647.669 353.278 647.669 279.533H637.669H627.669C627.669 364.902 694.201 429.281 782.127 429.281V419.281ZM637.669 279.533H647.669C647.669 205.765 704.683 149.786 781.603 149.786V139.786V129.786C694.177 129.786 627.669 194.188 627.669 279.533H637.669ZM781.603 139.786V149.786C858 149.786 915.538 205.241 915.538 280.58H925.538H935.538C935.538 193.666 868.508 129.786 781.603 129.786V139.786ZM925.538 280.58H915.538C915.538 287.295 914.994 296.705 913.743 301.708L923.444 304.133L933.146 306.559C935.036 299 935.538 287.474 935.538 280.58H925.538ZM923.444 304.133V294.133H719.319V304.133V314.133H923.444V304.133ZM719.319 304.133L709.679 306.792C719.195 341.286 747.067 363.856 783.697 363.856V353.856V343.856C756.472 343.856 736.192 327.694 728.959 301.474L719.319 304.133ZM783.697 353.856V363.856C811.452 363.856 835.729 351.753 847.879 334.488L839.701 328.733L831.523 322.978C823.783 333.977 806.189 343.856 783.697 343.856V353.856ZM839.701 328.733V338.733H921.351V328.733V318.733H839.701V328.733ZM921.351 328.733L911.969 325.272C893.668 374.877 844.302 409.281 782.127 409.281V419.281V429.281C851.848 429.281 909.255 390.409 930.733 332.194L921.351 328.733ZM781.603 205.211V195.211C746.412 195.211 719.724 217.379 710.227 250.616L719.842 253.364L729.458 256.111C736.71 230.728 756.08 215.211 781.603 215.211V205.211ZM719.842 253.364V263.364H843.888V253.364V243.364H719.842V253.364ZM843.888 253.364L853.503 250.616C843.979 217.281 816.698 195.211 781.603 195.211V205.211V215.211C807.224 215.211 827.048 230.826 834.273 256.111L843.888 253.364ZM1163.95 172.76L1156.79 179.741C1159.63 182.654 1163.95 183.556 1167.72 182.023C1171.49 180.49 1173.95 176.828 1173.95 172.76H1163.95ZM1163.95 36.1533V26.1533C1158.43 26.1533 1153.95 30.6304 1153.95 36.1533H1163.95ZM1240.37 36.1533H1250.37C1250.37 30.6304 1245.89 26.1533 1240.37 26.1533V36.1533ZM1267.06 339.201H1277.06C1277.06 333.678 1272.59 329.201 1267.06 329.201V339.201ZM1267.06 413V423C1272.59 423 1277.06 418.523 1277.06 413H1267.06ZM1172.85 376.886L1181.8 372.413C1180.28 369.382 1177.33 367.325 1173.97 366.948C1170.6 366.57 1167.27 367.924 1165.12 370.545L1172.85 376.886ZM1083.35 419.281V409.281C1016.35 409.281 964.595 354.353 964.595 279.533H954.595H944.595C944.595 363.827 1003.8 429.281 1083.35 429.281V419.281ZM954.595 279.533H964.595C964.595 204.714 1016.35 149.786 1083.35 149.786V139.786V129.786C1003.8 129.786 944.595 195.24 944.595 279.533H954.595ZM1083.35 139.786V149.786C1113.18 149.786 1138.32 160.79 1156.79 179.741L1163.95 172.76L1171.11 165.779C1148.77 142.859 1118.42 129.786 1083.35 129.786V139.786ZM1163.95 172.76H1173.95V36.1533H1163.95H1153.95V172.76H1163.95ZM1163.95 36.1533V46.1533H1240.37V36.1533V26.1533H1163.95V36.1533ZM1240.37 36.1533H1230.37V317.742H1240.37H1250.37V36.1533H1240.37ZM1240.37 317.742H1230.37C1230.37 326.451 1232.92 334.637 1238.93 340.645C1244.93 346.654 1253.12 349.201 1261.83 349.201V339.201V329.201C1256.93 329.201 1254.39 327.822 1253.07 326.503C1251.75 325.184 1250.37 322.641 1250.37 317.742H1240.37ZM1261.83 339.201V349.201H1267.06V339.201V329.201H1261.83V339.201ZM1267.06 339.201H1257.06V413H1267.06H1277.06V339.201H1267.06ZM1267.06 413V403H1245.6V413V423H1267.06V413ZM1245.6 413V403C1211.21 403 1191.54 391.909 1181.8 372.413L1172.85 376.886L1163.91 381.358C1178.24 410.015 1206.73 423 1245.6 423V413ZM1172.85 376.886L1165.12 370.545C1145.45 394.527 1117.35 409.281 1083.35 409.281V419.281V429.281C1123.67 429.281 1157.33 411.584 1180.58 383.226L1172.85 376.886ZM1098.53 345.482V355.482C1141.84 355.482 1173.95 322.635 1173.95 279.533H1163.95H1153.95C1153.95 311.801 1130.59 335.482 1098.53 335.482V345.482ZM1163.95 279.533H1173.95C1173.95 236.432 1141.84 203.585 1098.53 203.585V213.585V223.585C1130.59 223.585 1153.95 247.266 1153.95 279.533H1163.95ZM1098.53 213.585V203.585C1055.69 203.585 1023.63 236.485 1023.63 279.533H1033.63H1043.63C1043.63 247.213 1067.05 223.585 1098.53 223.585V213.585ZM1033.63 279.533H1023.63C1023.63 322.582 1055.69 355.482 1098.53 355.482V345.482V335.482C1067.05 335.482 1043.63 311.854 1043.63 279.533H1033.63Z" fill="white" mask="url(#path-1-outside-1_0_1)"/>
</g>
<g filter="url(#filter1_d_0_1)">
<path d="M1168.08 15.3268C1170.58 15.0126 1173.51 15.0536 1176.16 16.7838C1178.47 18.2931 1179.75 20.5882 1180.59 22.5035L1180.93 23.2985L1181.19 23.9371C1183.64 30.1896 1185.13 38.7541 1186.37 44.6158L1186.62 45.7887V45.7897C1192.45 72.1355 1196.74 97.8195 1203.29 123.494C1204.43 127.939 1205.86 132.49 1207.3 137.369C1208.71 142.145 1210.1 147.148 1210.97 152.063C1211.54 155.289 1212.29 159.938 1211.5 164.24C1211.08 166.501 1210.2 168.898 1208.47 171.007C1207 172.796 1205.1 174.156 1202.84 175.077L1202.09 175.825H1196.13L1195.7 175.755L1133.06 165.616L1132.96 165.599L1132.86 165.58C1121.31 163.28 1109.49 161.57 1097.45 159.707C1085.48 157.854 1073.35 155.858 1061.54 153.004V153.003C1059.27 152.455 1054.68 151.708 1051.08 149.053L1048.84 147.405V142.358L1048.99 141.734C1054.41 118.847 1062.71 96.9863 1076.85 77.5328L1077.78 76.2662C1097.37 49.798 1122.48 31.1341 1153.46 19.8346V19.8336C1155.09 19.2398 1157.64 18.2662 1160.08 17.4274C1162.46 16.6083 1165.28 15.7279 1167.58 15.3932L1168.08 15.3268Z" fill="#FBB733" stroke="white" stroke-width="11"/>
</g>
<defs>
<filter id="filter0_d_0_1" x="0" y="26.1533" width="1303.06" height="415.128" filterUnits="userSpaceOnUse" color-interpolation-filters="sRGB">
<feFlood flood-opacity="0" result="BackgroundImageFix"/>
<feColorMatrix in="SourceAlpha" type="matrix" values="0 0 0 0 0 0 0 0 0 0 0 0 0 0 0 0 0 0 127 0" result="hardAlpha"/>
<feOffset dx="26" dy="12"/>
<feComposite in2="hardAlpha" operator="out"/>
<feColorMatrix type="matrix" values="0 0 0 0 0.0135968 0 0 0 0 0.0135968 0 0 0 0 0.0135968 0 0 0 0.1 0"/>
<feBlend mode="normal" in2="BackgroundImageFix" result="effect1_dropShadow_0_1"/>
<feBlend mode="normal" in="SourceGraphic" in2="effect1_dropShadow_0_1" result="shape"/>
</filter>
<filter id="filter1_d_0_1" x="1043.34" y="9.67505" width="177.996" height="180.65" filterUnits="userSpaceOnUse" color-interpolation-filters="sRGB">
<feFlood flood-opacity="0" result="BackgroundImageFix"/>
<feColorMatrix in="SourceAlpha" type="matrix" values="0 0 0 0 0 0 0 0 0 0 0 0 0 0 0 0 0 0 127 0" result="hardAlpha"/>
<feOffset dx="4" dy="9"/>
<feComposite in2="hardAlpha" operator="out"/>
<feColorMatrix type="matrix" values="0 0 0 0 0 0 0 0 0 0 0 0 0 0 0 0 0 0 0.25 0"/>
<feBlend mode="normal" in2="BackgroundImageFix" result="effect1_dropShadow_0_1"/>
<feBlend mode="normal" in="SourceGraphic" in2="effect1_dropShadow_0_1" result="shape"/>
</filter>
</defs>
</svg>
