<svg width="901" height="190" viewBox="0 0 901 190" fill="none" xmlns="http://www.w3.org/2000/svg">
<g filter="url(#filter0_d_3_58)">
<mask id="path-1-outside-1_3_58" maskUnits="userSpaceOnUse" x="-0.0888062" y="-0.52977" width="897" height="188" fill="black">
<rect fill="white" x="-0.0888062" y="-0.52977" width="897" height="188"/>
<path d="M10.4723 68.4702L31.9647 13.9489H43.106L64.5985 68.4702H54.2473L49.8224 56.8548H25.0113L20.5864 68.4702H10.4723ZM28.33 48.163H46.5037L37.4168 24.2211L28.33 48.163ZM70.2333 83.4833V28.1719H79.0832V33.9401C82.4809 29.7522 87.3799 27.2237 93.3061 27.2237C104.605 27.2237 113.139 36.3106 113.139 48.3211C113.139 60.3315 104.605 69.4184 93.3061 69.4184C87.3799 69.4184 82.4809 66.8899 79.0832 62.702V83.4833H70.2333ZM91.5677 60.8847C98.6792 60.8847 103.973 55.4325 103.973 48.3211C103.973 41.2096 98.6792 35.7575 91.5677 35.7575C84.4563 35.7575 79.0832 41.2096 79.0832 48.3211C79.0832 55.4325 84.4563 60.8847 91.5677 60.8847ZM117.165 68.4702L123.645 35.6784C121.59 34.4142 120.326 32.1227 120.326 29.6732C120.326 26.1965 122.696 23.826 126.331 23.826C129.966 23.826 132.336 26.1175 132.574 29.2781L158.807 32.2807V34.4142C154.145 41.0516 151.537 46.9778 151.537 51.9558C151.537 57.0129 154.224 59.9365 158.728 59.9365H160.308V68.4702H157.938C147.903 68.4702 142.451 62.623 142.451 52.983C142.451 48.7161 143.794 44.1332 146.243 39.4712L131.704 37.5748L125.857 68.4702H117.165ZM185.66 69.4184C173.176 69.4184 163.931 60.3315 163.931 48.3211C163.931 36.3106 173.176 27.2237 185.423 27.2237C197.75 27.2237 206.995 36.3106 206.995 48.4001C206.995 49.2693 206.916 50.7706 206.758 51.7188H173.413C174.756 57.566 179.497 61.4378 185.818 61.4378C190.48 61.4378 194.51 59.3833 196.564 56.3017H206.362C203.123 64.1243 195.221 69.4184 185.66 69.4184ZM185.423 35.2043C179.576 35.2043 174.914 38.8391 173.492 44.4493H197.434C196.09 38.9181 191.349 35.2043 185.423 35.2043ZM214.762 68.4702V28.1719H223.612V33.3079C226.852 29.3571 231.514 27.2237 237.203 27.2237C246.764 27.2237 253.164 33.545 253.164 43.106V56.2227C253.164 58.5142 254.507 59.9365 256.799 59.9365H257.589V68.4702H255.061C248.028 68.4702 244.314 64.9145 244.314 58.1981V46.0296C244.314 39.8663 240.364 35.7575 234.279 35.7575C227.879 35.7575 223.612 39.9453 223.612 46.1876V68.4702H214.762ZM281.38 69.4184C270.002 69.4184 261.547 60.3315 261.547 48.3211C261.547 36.3106 270.002 27.2237 281.38 27.2237C287.307 27.2237 292.206 29.7522 295.524 33.9401V11.5785H304.374V56.2227C304.374 58.5142 305.717 59.9365 308.088 59.9365H308.799V68.4702H306.271C300.739 68.4702 297.263 66.2578 296.078 62.0699C292.68 66.6529 287.544 69.4184 281.38 69.4184ZM283.119 60.8847C290.23 60.8847 295.524 55.4325 295.524 48.3211C295.524 41.2096 290.23 35.7575 283.119 35.7575C275.928 35.7575 270.634 41.2096 270.634 48.3211C270.634 55.4325 275.928 60.8847 283.119 60.8847ZM335.05 69.4184C322.566 69.4184 313.321 60.3315 313.321 48.3211C313.321 36.3106 322.566 27.2237 334.813 27.2237C347.14 27.2237 356.385 36.3106 356.385 48.4001C356.385 49.2693 356.306 50.7706 356.148 51.7188H322.803C324.146 57.566 328.887 61.4378 335.208 61.4378C339.87 61.4378 343.9 59.3833 345.955 56.3017H355.753C352.513 64.1243 344.611 69.4184 335.05 69.4184ZM334.813 35.2043C328.966 35.2043 324.304 38.8391 322.882 44.4493H346.824C345.481 38.9181 340.74 35.2043 334.813 35.2043ZM360.002 68.4702L366.481 35.6784C364.427 34.4142 363.162 32.1227 363.162 29.6732C363.162 26.1965 365.533 23.826 369.168 23.826C372.802 23.826 375.173 26.1175 375.41 29.2781L401.643 32.2807V34.4142C396.981 41.0516 394.374 46.9778 394.374 51.9558C394.374 57.0129 397.06 59.9365 401.564 59.9365H403.145V68.4702H400.774C390.739 68.4702 385.287 62.623 385.287 52.983C385.287 48.7161 386.63 44.1332 389.08 39.4712L374.541 37.5748L368.694 68.4702H360.002ZM460.934 23.4309L468.994 12.5266H480.214L470.258 23.4309H460.934ZM466.307 69.4184C453.823 69.4184 444.578 60.3315 444.578 48.3211C444.578 36.3106 453.823 27.2237 466.07 27.2237C478.397 27.2237 487.642 36.3106 487.642 48.4001C487.642 49.2693 487.563 50.7706 487.405 51.7188H454.06C455.403 57.566 460.144 61.4378 466.465 61.4378C471.127 61.4378 475.157 59.3833 477.211 56.3017H487.009C483.77 64.1243 475.868 69.4184 466.307 69.4184ZM466.07 35.2043C460.223 35.2043 455.561 38.8391 454.139 44.4493H478.081C476.737 38.9181 471.996 35.2043 466.07 35.2043ZM537.494 21.6925C534.333 21.6925 531.884 19.243 531.884 16.0824C531.884 12.8427 534.333 10.4722 537.494 10.4722C540.734 10.4722 543.183 12.8427 543.183 16.0824C543.183 19.243 540.734 21.6925 537.494 21.6925ZM533.069 68.4702V28.1719H541.919V68.4702H533.069ZM552.588 68.4702V28.1719H561.438V33.3079C564.678 29.3571 569.34 27.2237 575.029 27.2237C584.59 27.2237 590.99 33.545 590.99 43.106V56.2227C590.99 58.5142 592.333 59.9365 594.625 59.9365H595.415V68.4702H592.886C585.854 68.4702 582.14 64.9145 582.14 58.1981V46.0296C582.14 39.8663 578.189 35.7575 572.105 35.7575C565.705 35.7575 561.438 39.9453 561.438 46.1876V68.4702H552.588ZM618.049 68.4702C609.278 68.4702 604.537 64.0453 604.537 56.0647V36.2316H597.742V28.1719H601.85C603.905 28.1719 605.011 27.0657 605.011 25.0112V17.2676H613.387V28.1719H623.343V36.2316H613.387V54.6424C613.387 58.1981 615.599 60.3315 619.313 60.3315H623.343V68.4702H618.049ZM649.727 69.4184C637.242 69.4184 627.997 60.3315 627.997 48.3211C627.997 36.3106 637.242 27.2237 649.49 27.2237C661.816 27.2237 671.061 36.3106 671.061 48.4001C671.061 49.2693 670.982 50.7706 670.824 51.7188H637.479C638.823 57.566 643.564 61.4378 649.885 61.4378C654.547 61.4378 658.577 59.3833 660.631 56.3017H670.429C667.19 64.1243 659.288 69.4184 649.727 69.4184ZM649.49 35.2043C643.643 35.2043 638.981 38.8391 637.558 44.4493H661.5C660.157 38.9181 655.416 35.2043 649.49 35.2043ZM674.678 68.4702L681.157 35.6784C679.103 34.4142 677.839 32.1227 677.839 29.6732C677.839 26.1965 680.209 23.826 683.844 23.826C687.479 23.826 689.849 26.1175 690.086 29.2781L716.32 32.2807V34.4142C711.658 41.0516 709.05 46.9778 709.05 51.9558C709.05 57.0129 711.737 59.9365 716.241 59.9365H717.821V68.4702H715.451C705.416 68.4702 699.963 62.623 699.963 52.983C699.963 48.7161 701.307 44.1332 703.756 39.4712L689.217 37.5748L683.37 68.4702H674.678ZM741.435 69.4184C730.056 69.4184 721.602 60.3315 721.602 48.3211C721.602 36.3106 730.056 27.2237 741.435 27.2237C747.361 27.2237 752.26 29.7522 755.579 33.9401V28.1719H764.428V56.2227C764.428 58.5142 765.772 59.9365 768.142 59.9365H768.853V68.4702H766.325C760.794 68.4702 757.317 66.2578 756.132 62.0699C752.734 66.6529 747.598 69.4184 741.435 69.4184ZM743.173 60.8847C750.284 60.8847 755.579 55.4325 755.579 48.3211C755.579 41.2096 750.284 35.7575 743.173 35.7575C735.983 35.7575 730.688 41.2096 730.688 48.3211C730.688 55.4325 735.983 60.8847 743.173 60.8847ZM793.291 67.443C781.992 67.443 773.458 58.8302 773.458 47.3729C773.458 35.9155 781.992 27.2237 793.291 27.2237C799.217 27.2237 804.116 29.6732 807.514 33.624V28.1719H816.364V64.1243C816.364 76.3719 808.146 84.4315 795.661 84.4315C785.31 84.4315 777.409 78.9004 775.828 70.2876H784.915C786.259 74.0014 790.525 76.4509 795.74 76.4509C802.852 76.4509 807.514 71.8679 807.514 64.5194V61.0427C804.116 65.0725 799.217 67.443 793.291 67.443ZM795.029 58.9883C802.141 58.9883 807.514 54.0102 807.514 47.3729C807.514 40.7355 802.141 35.6784 795.029 35.6784C787.918 35.6784 782.545 40.7355 782.545 47.3729C782.545 54.0102 787.918 58.9883 795.029 58.9883ZM831.182 21.6925C828.021 21.6925 825.572 19.243 825.572 16.0824C825.572 12.8427 828.021 10.4722 831.182 10.4722C834.422 10.4722 836.871 12.8427 836.871 16.0824C836.871 19.243 834.422 21.6925 831.182 21.6925ZM826.757 68.4702V28.1719H835.607V68.4702H826.757ZM843.282 68.4702L849.762 35.6784C847.707 34.4142 846.443 32.1227 846.443 29.6732C846.443 26.1965 848.814 23.826 852.448 23.826C856.083 23.826 858.454 26.1175 858.691 29.2781L884.924 32.2807V34.4142C880.262 41.0516 877.655 46.9778 877.655 51.9558C877.655 57.0129 880.341 59.9365 884.845 59.9365H886.425V68.4702H884.055C874.02 68.4702 868.568 62.623 868.568 52.983C868.568 48.7161 869.911 44.1332 872.36 39.4712L857.821 37.5748L851.974 68.4702H843.282ZM53.8174 176.97C34.3174 176.97 19.6924 162.595 19.6924 143.595C19.6924 124.595 34.3174 110.22 53.8174 110.22C70.4424 110.22 83.5674 120.72 86.1924 135.72H71.3174C69.0674 128.595 62.1924 123.72 53.8174 123.72C42.5674 123.72 34.0674 132.345 34.0674 143.595C34.0674 154.845 42.5674 163.47 53.8174 163.47C62.1924 163.47 69.0674 158.595 71.3174 151.47H86.1924C83.5674 166.47 70.4424 176.97 53.8174 176.97ZM128.891 176.97C109.391 176.97 94.7657 162.595 94.7657 143.595C94.7657 124.595 109.391 110.22 128.891 110.22C148.266 110.22 163.016 124.595 163.016 143.595C163.016 162.595 148.266 176.97 128.891 176.97ZM128.891 163.47C140.141 163.47 148.516 154.845 148.516 143.595C148.516 132.345 140.141 123.72 128.891 123.72C117.641 123.72 109.141 132.345 109.141 143.595C109.141 154.845 117.641 163.47 128.891 163.47ZM175.667 175.47V111.72H189.667V119.095C194.417 113.345 201.167 110.22 209.417 110.22C219.042 110.22 226.417 114.595 230.167 121.845C235.042 114.345 242.792 110.22 252.667 110.22C266.792 110.22 276.167 119.72 276.167 134.095V156.095C276.167 159.72 278.417 161.97 282.042 161.97H283.292V175.47H279.167C268.042 175.47 262.167 169.845 262.167 159.22V138.22C262.167 129.47 256.667 123.72 248.042 123.72C239.042 123.72 232.917 129.595 232.917 138.47V175.47H218.917V138.22C218.917 129.47 213.417 123.72 204.792 123.72C195.792 123.72 189.667 129.595 189.667 138.47V175.47H175.667ZM352.279 176.97C332.779 176.97 318.154 162.595 318.154 143.595C318.154 124.595 332.779 110.22 352.279 110.22C371.654 110.22 386.404 124.595 386.404 143.595C386.404 162.595 371.654 176.97 352.279 176.97ZM352.279 163.47C363.529 163.47 371.904 154.845 371.904 143.595C371.904 132.345 363.529 123.72 352.279 123.72C341.029 123.72 332.529 132.345 332.529 143.595C332.529 154.845 341.029 163.47 352.279 163.47ZM428.597 175.47V111.72H442.597V119.095C447.347 113.345 454.097 110.22 462.347 110.22C471.972 110.22 479.347 114.595 483.097 121.845C487.972 114.345 495.722 110.22 505.597 110.22C519.722 110.22 529.097 119.72 529.097 134.095V156.095C529.097 159.72 531.347 161.97 534.972 161.97H536.222V175.47H532.097C520.972 175.47 515.097 169.845 515.097 159.22V138.22C515.097 129.47 509.597 123.72 500.972 123.72C491.972 123.72 485.847 129.595 485.847 138.47V175.47H471.847V138.22C471.847 129.47 466.347 123.72 457.722 123.72C448.722 123.72 442.597 129.595 442.597 138.47V175.47H428.597ZM569.162 176.97C554.537 176.97 544.787 167.22 544.787 152.345V111.72H558.787V148.22C558.787 157.345 564.662 163.47 573.662 163.47C583.162 163.47 589.537 157.22 589.537 147.97V111.72H603.537V156.095C603.537 159.72 605.787 161.97 609.412 161.97H610.662V175.47H606.537C598.162 175.47 592.787 172.22 590.662 166.22C585.787 173.22 578.412 176.97 569.162 176.97ZM620.857 175.47V111.72H634.857V119.845C639.982 113.595 647.357 110.22 656.357 110.22C671.482 110.22 681.607 120.22 681.607 135.345V156.095C681.607 159.72 683.732 161.97 687.357 161.97H688.607V175.47H684.607C673.482 175.47 667.607 169.845 667.607 159.22V139.97C667.607 130.22 661.357 123.72 651.732 123.72C641.607 123.72 634.857 130.345 634.857 140.22V175.47H620.857ZM726.244 176.97C708.244 176.97 694.869 162.595 694.869 143.595C694.869 124.595 708.244 110.22 726.244 110.22C735.619 110.22 743.369 114.22 748.619 120.845V85.4702H762.619V156.095C762.619 159.72 764.744 161.97 768.494 161.97H769.619V175.47H765.619C756.869 175.47 751.369 171.97 749.494 165.345C744.119 172.595 735.994 176.97 726.244 176.97ZM728.994 163.47C740.244 163.47 748.619 154.845 748.619 143.595C748.619 132.345 740.244 123.72 728.994 123.72C717.619 123.72 709.244 132.345 709.244 143.595C709.244 154.845 717.619 163.47 728.994 163.47ZM810.898 176.97C791.398 176.97 776.773 162.595 776.773 143.595C776.773 124.595 791.398 110.22 810.898 110.22C830.273 110.22 845.023 124.595 845.023 143.595C845.023 162.595 830.273 176.97 810.898 176.97ZM810.898 163.47C822.148 163.47 830.523 154.845 830.523 143.595C830.523 132.345 822.148 123.72 810.898 123.72C799.648 123.72 791.148 132.345 791.148 143.595C791.148 154.845 799.648 163.47 810.898 163.47ZM859.424 149.345L858.549 110.47V89.2202H873.424V110.47L872.549 149.345H859.424ZM865.924 176.47C860.424 176.47 856.299 172.345 856.299 166.97C856.299 161.595 860.424 157.345 865.924 157.345C871.424 157.345 875.549 161.595 875.549 166.97C875.549 172.345 871.424 176.47 865.924 176.47Z"/>
</mask>
<path d="M10.4723 68.4702L31.9647 13.9489H43.106L64.5985 68.4702H54.2473L49.8224 56.8548H25.0113L20.5864 68.4702H10.4723ZM28.33 48.163H46.5037L37.4168 24.2211L28.33 48.163ZM70.2333 83.4833V28.1719H79.0832V33.9401C82.4809 29.7522 87.3799 27.2237 93.3061 27.2237C104.605 27.2237 113.139 36.3106 113.139 48.3211C113.139 60.3315 104.605 69.4184 93.3061 69.4184C87.3799 69.4184 82.4809 66.8899 79.0832 62.702V83.4833H70.2333ZM91.5677 60.8847C98.6792 60.8847 103.973 55.4325 103.973 48.3211C103.973 41.2096 98.6792 35.7575 91.5677 35.7575C84.4563 35.7575 79.0832 41.2096 79.0832 48.3211C79.0832 55.4325 84.4563 60.8847 91.5677 60.8847ZM117.165 68.4702L123.645 35.6784C121.59 34.4142 120.326 32.1227 120.326 29.6732C120.326 26.1965 122.696 23.826 126.331 23.826C129.966 23.826 132.336 26.1175 132.574 29.2781L158.807 32.2807V34.4142C154.145 41.0516 151.537 46.9778 151.537 51.9558C151.537 57.0129 154.224 59.9365 158.728 59.9365H160.308V68.4702H157.938C147.903 68.4702 142.451 62.623 142.451 52.983C142.451 48.7161 143.794 44.1332 146.243 39.4712L131.704 37.5748L125.857 68.4702H117.165ZM185.66 69.4184C173.176 69.4184 163.931 60.3315 163.931 48.3211C163.931 36.3106 173.176 27.2237 185.423 27.2237C197.75 27.2237 206.995 36.3106 206.995 48.4001C206.995 49.2693 206.916 50.7706 206.758 51.7188H173.413C174.756 57.566 179.497 61.4378 185.818 61.4378C190.48 61.4378 194.51 59.3833 196.564 56.3017H206.362C203.123 64.1243 195.221 69.4184 185.66 69.4184ZM185.423 35.2043C179.576 35.2043 174.914 38.8391 173.492 44.4493H197.434C196.09 38.9181 191.349 35.2043 185.423 35.2043ZM214.762 68.4702V28.1719H223.612V33.3079C226.852 29.3571 231.514 27.2237 237.203 27.2237C246.764 27.2237 253.164 33.545 253.164 43.106V56.2227C253.164 58.5142 254.507 59.9365 256.799 59.9365H257.589V68.4702H255.061C248.028 68.4702 244.314 64.9145 244.314 58.1981V46.0296C244.314 39.8663 240.364 35.7575 234.279 35.7575C227.879 35.7575 223.612 39.9453 223.612 46.1876V68.4702H214.762ZM281.38 69.4184C270.002 69.4184 261.547 60.3315 261.547 48.3211C261.547 36.3106 270.002 27.2237 281.38 27.2237C287.307 27.2237 292.206 29.7522 295.524 33.9401V11.5785H304.374V56.2227C304.374 58.5142 305.717 59.9365 308.088 59.9365H308.799V68.4702H306.271C300.739 68.4702 297.263 66.2578 296.078 62.0699C292.68 66.6529 287.544 69.4184 281.38 69.4184ZM283.119 60.8847C290.23 60.8847 295.524 55.4325 295.524 48.3211C295.524 41.2096 290.23 35.7575 283.119 35.7575C275.928 35.7575 270.634 41.2096 270.634 48.3211C270.634 55.4325 275.928 60.8847 283.119 60.8847ZM335.05 69.4184C322.566 69.4184 313.321 60.3315 313.321 48.3211C313.321 36.3106 322.566 27.2237 334.813 27.2237C347.14 27.2237 356.385 36.3106 356.385 48.4001C356.385 49.2693 356.306 50.7706 356.148 51.7188H322.803C324.146 57.566 328.887 61.4378 335.208 61.4378C339.87 61.4378 343.9 59.3833 345.955 56.3017H355.753C352.513 64.1243 344.611 69.4184 335.05 69.4184ZM334.813 35.2043C328.966 35.2043 324.304 38.8391 322.882 44.4493H346.824C345.481 38.9181 340.74 35.2043 334.813 35.2043ZM360.002 68.4702L366.481 35.6784C364.427 34.4142 363.162 32.1227 363.162 29.6732C363.162 26.1965 365.533 23.826 369.168 23.826C372.802 23.826 375.173 26.1175 375.41 29.2781L401.643 32.2807V34.4142C396.981 41.0516 394.374 46.9778 394.374 51.9558C394.374 57.0129 397.06 59.9365 401.564 59.9365H403.145V68.4702H400.774C390.739 68.4702 385.287 62.623 385.287 52.983C385.287 48.7161 386.63 44.1332 389.08 39.4712L374.541 37.5748L368.694 68.4702H360.002ZM460.934 23.4309L468.994 12.5266H480.214L470.258 23.4309H460.934ZM466.307 69.4184C453.823 69.4184 444.578 60.3315 444.578 48.3211C444.578 36.3106 453.823 27.2237 466.07 27.2237C478.397 27.2237 487.642 36.3106 487.642 48.4001C487.642 49.2693 487.563 50.7706 487.405 51.7188H454.06C455.403 57.566 460.144 61.4378 466.465 61.4378C471.127 61.4378 475.157 59.3833 477.211 56.3017H487.009C483.77 64.1243 475.868 69.4184 466.307 69.4184ZM466.07 35.2043C460.223 35.2043 455.561 38.8391 454.139 44.4493H478.081C476.737 38.9181 471.996 35.2043 466.07 35.2043ZM537.494 21.6925C534.333 21.6925 531.884 19.243 531.884 16.0824C531.884 12.8427 534.333 10.4722 537.494 10.4722C540.734 10.4722 543.183 12.8427 543.183 16.0824C543.183 19.243 540.734 21.6925 537.494 21.6925ZM533.069 68.4702V28.1719H541.919V68.4702H533.069ZM552.588 68.4702V28.1719H561.438V33.3079C564.678 29.3571 569.34 27.2237 575.029 27.2237C584.59 27.2237 590.99 33.545 590.99 43.106V56.2227C590.99 58.5142 592.333 59.9365 594.625 59.9365H595.415V68.4702H592.886C585.854 68.4702 582.14 64.9145 582.14 58.1981V46.0296C582.14 39.8663 578.189 35.7575 572.105 35.7575C565.705 35.7575 561.438 39.9453 561.438 46.1876V68.4702H552.588ZM618.049 68.4702C609.278 68.4702 604.537 64.0453 604.537 56.0647V36.2316H597.742V28.1719H601.85C603.905 28.1719 605.011 27.0657 605.011 25.0112V17.2676H613.387V28.1719H623.343V36.2316H613.387V54.6424C613.387 58.1981 615.599 60.3315 619.313 60.3315H623.343V68.4702H618.049ZM649.727 69.4184C637.242 69.4184 627.997 60.3315 627.997 48.3211C627.997 36.3106 637.242 27.2237 649.49 27.2237C661.816 27.2237 671.061 36.3106 671.061 48.4001C671.061 49.2693 670.982 50.7706 670.824 51.7188H637.479C638.823 57.566 643.564 61.4378 649.885 61.4378C654.547 61.4378 658.577 59.3833 660.631 56.3017H670.429C667.19 64.1243 659.288 69.4184 649.727 69.4184ZM649.49 35.2043C643.643 35.2043 638.981 38.8391 637.558 44.4493H661.5C660.157 38.9181 655.416 35.2043 649.49 35.2043ZM674.678 68.4702L681.157 35.6784C679.103 34.4142 677.839 32.1227 677.839 29.6732C677.839 26.1965 680.209 23.826 683.844 23.826C687.479 23.826 689.849 26.1175 690.086 29.2781L716.32 32.2807V34.4142C711.658 41.0516 709.05 46.9778 709.05 51.9558C709.05 57.0129 711.737 59.9365 716.241 59.9365H717.821V68.4702H715.451C705.416 68.4702 699.963 62.623 699.963 52.983C699.963 48.7161 701.307 44.1332 703.756 39.4712L689.217 37.5748L683.37 68.4702H674.678ZM741.435 69.4184C730.056 69.4184 721.602 60.3315 721.602 48.3211C721.602 36.3106 730.056 27.2237 741.435 27.2237C747.361 27.2237 752.26 29.7522 755.579 33.9401V28.1719H764.428V56.2227C764.428 58.5142 765.772 59.9365 768.142 59.9365H768.853V68.4702H766.325C760.794 68.4702 757.317 66.2578 756.132 62.0699C752.734 66.6529 747.598 69.4184 741.435 69.4184ZM743.173 60.8847C750.284 60.8847 755.579 55.4325 755.579 48.3211C755.579 41.2096 750.284 35.7575 743.173 35.7575C735.983 35.7575 730.688 41.2096 730.688 48.3211C730.688 55.4325 735.983 60.8847 743.173 60.8847ZM793.291 67.443C781.992 67.443 773.458 58.8302 773.458 47.3729C773.458 35.9155 781.992 27.2237 793.291 27.2237C799.217 27.2237 804.116 29.6732 807.514 33.624V28.1719H816.364V64.1243C816.364 76.3719 808.146 84.4315 795.661 84.4315C785.31 84.4315 777.409 78.9004 775.828 70.2876H784.915C786.259 74.0014 790.525 76.4509 795.74 76.4509C802.852 76.4509 807.514 71.8679 807.514 64.5194V61.0427C804.116 65.0725 799.217 67.443 793.291 67.443ZM795.029 58.9883C802.141 58.9883 807.514 54.0102 807.514 47.3729C807.514 40.7355 802.141 35.6784 795.029 35.6784C787.918 35.6784 782.545 40.7355 782.545 47.3729C782.545 54.0102 787.918 58.9883 795.029 58.9883ZM831.182 21.6925C828.021 21.6925 825.572 19.243 825.572 16.0824C825.572 12.8427 828.021 10.4722 831.182 10.4722C834.422 10.4722 836.871 12.8427 836.871 16.0824C836.871 19.243 834.422 21.6925 831.182 21.6925ZM826.757 68.4702V28.1719H835.607V68.4702H826.757ZM843.282 68.4702L849.762 35.6784C847.707 34.4142 846.443 32.1227 846.443 29.6732C846.443 26.1965 848.814 23.826 852.448 23.826C856.083 23.826 858.454 26.1175 858.691 29.2781L884.924 32.2807V34.4142C880.262 41.0516 877.655 46.9778 877.655 51.9558C877.655 57.0129 880.341 59.9365 884.845 59.9365H886.425V68.4702H884.055C874.02 68.4702 868.568 62.623 868.568 52.983C868.568 48.7161 869.911 44.1332 872.36 39.4712L857.821 37.5748L851.974 68.4702H843.282ZM53.8174 176.97C34.3174 176.97 19.6924 162.595 19.6924 143.595C19.6924 124.595 34.3174 110.22 53.8174 110.22C70.4424 110.22 83.5674 120.72 86.1924 135.72H71.3174C69.0674 128.595 62.1924 123.72 53.8174 123.72C42.5674 123.72 34.0674 132.345 34.0674 143.595C34.0674 154.845 42.5674 163.47 53.8174 163.47C62.1924 163.47 69.0674 158.595 71.3174 151.47H86.1924C83.5674 166.47 70.4424 176.97 53.8174 176.97ZM128.891 176.97C109.391 176.97 94.7657 162.595 94.7657 143.595C94.7657 124.595 109.391 110.22 128.891 110.22C148.266 110.22 163.016 124.595 163.016 143.595C163.016 162.595 148.266 176.97 128.891 176.97ZM128.891 163.47C140.141 163.47 148.516 154.845 148.516 143.595C148.516 132.345 140.141 123.72 128.891 123.72C117.641 123.72 109.141 132.345 109.141 143.595C109.141 154.845 117.641 163.47 128.891 163.47ZM175.667 175.47V111.72H189.667V119.095C194.417 113.345 201.167 110.22 209.417 110.22C219.042 110.22 226.417 114.595 230.167 121.845C235.042 114.345 242.792 110.22 252.667 110.22C266.792 110.22 276.167 119.72 276.167 134.095V156.095C276.167 159.72 278.417 161.97 282.042 161.97H283.292V175.47H279.167C268.042 175.47 262.167 169.845 262.167 159.22V138.22C262.167 129.47 256.667 123.72 248.042 123.72C239.042 123.72 232.917 129.595 232.917 138.47V175.47H218.917V138.22C218.917 129.47 213.417 123.72 204.792 123.72C195.792 123.72 189.667 129.595 189.667 138.47V175.47H175.667ZM352.279 176.97C332.779 176.97 318.154 162.595 318.154 143.595C318.154 124.595 332.779 110.22 352.279 110.22C371.654 110.22 386.404 124.595 386.404 143.595C386.404 162.595 371.654 176.97 352.279 176.97ZM352.279 163.47C363.529 163.47 371.904 154.845 371.904 143.595C371.904 132.345 363.529 123.72 352.279 123.72C341.029 123.72 332.529 132.345 332.529 143.595C332.529 154.845 341.029 163.47 352.279 163.47ZM428.597 175.47V111.72H442.597V119.095C447.347 113.345 454.097 110.22 462.347 110.22C471.972 110.22 479.347 114.595 483.097 121.845C487.972 114.345 495.722 110.22 505.597 110.22C519.722 110.22 529.097 119.72 529.097 134.095V156.095C529.097 159.72 531.347 161.97 534.972 161.97H536.222V175.47H532.097C520.972 175.47 515.097 169.845 515.097 159.22V138.22C515.097 129.47 509.597 123.72 500.972 123.72C491.972 123.72 485.847 129.595 485.847 138.47V175.47H471.847V138.22C471.847 129.47 466.347 123.72 457.722 123.72C448.722 123.72 442.597 129.595 442.597 138.47V175.47H428.597ZM569.162 176.97C554.537 176.97 544.787 167.22 544.787 152.345V111.72H558.787V148.22C558.787 157.345 564.662 163.47 573.662 163.47C583.162 163.47 589.537 157.22 589.537 147.97V111.72H603.537V156.095C603.537 159.72 605.787 161.97 609.412 161.97H610.662V175.47H606.537C598.162 175.47 592.787 172.22 590.662 166.22C585.787 173.22 578.412 176.97 569.162 176.97ZM620.857 175.47V111.72H634.857V119.845C639.982 113.595 647.357 110.22 656.357 110.22C671.482 110.22 681.607 120.22 681.607 135.345V156.095C681.607 159.72 683.732 161.97 687.357 161.97H688.607V175.47H684.607C673.482 175.47 667.607 169.845 667.607 159.22V139.97C667.607 130.22 661.357 123.72 651.732 123.72C641.607 123.72 634.857 130.345 634.857 140.22V175.47H620.857ZM726.244 176.97C708.244 176.97 694.869 162.595 694.869 143.595C694.869 124.595 708.244 110.22 726.244 110.22C735.619 110.22 743.369 114.22 748.619 120.845V85.4702H762.619V156.095C762.619 159.72 764.744 161.97 768.494 161.97H769.619V175.47H765.619C756.869 175.47 751.369 171.97 749.494 165.345C744.119 172.595 735.994 176.97 726.244 176.97ZM728.994 163.47C740.244 163.47 748.619 154.845 748.619 143.595C748.619 132.345 740.244 123.72 728.994 123.72C717.619 123.72 709.244 132.345 709.244 143.595C709.244 154.845 717.619 163.47 728.994 163.47ZM810.898 176.97C791.398 176.97 776.773 162.595 776.773 143.595C776.773 124.595 791.398 110.22 810.898 110.22C830.273 110.22 845.023 124.595 845.023 143.595C845.023 162.595 830.273 176.97 810.898 176.97ZM810.898 163.47C822.148 163.47 830.523 154.845 830.523 143.595C830.523 132.345 822.148 123.72 810.898 123.72C799.648 123.72 791.148 132.345 791.148 143.595C791.148 154.845 799.648 163.47 810.898 163.47ZM859.424 149.345L858.549 110.47V89.2202H873.424V110.47L872.549 149.345H859.424ZM865.924 176.47C860.424 176.47 856.299 172.345 856.299 166.97C856.299 161.595 860.424 157.345 865.924 157.345C871.424 157.345 875.549 161.595 875.549 166.97C875.549 172.345 871.424 176.47 865.924 176.47Z" fill="#BB2B71"/>
<path d="M10.4723 68.4702L0.729692 64.6297C-0.541289 67.8539 -0.134841 71.498 1.81528 74.363C3.76541 77.2279 7.00661 78.9425 10.4723 78.9425V68.4702ZM31.9647 13.9489V3.47672C27.6634 3.47672 23.7996 6.10681 22.2221 10.1084L31.9647 13.9489ZM43.106 13.9489L52.8486 10.1084C51.2712 6.10681 47.4073 3.47672 43.106 3.47672V13.9489ZM64.5985 68.4702V78.9425C68.0641 78.9425 71.3053 77.2279 73.2554 74.363C75.2056 71.498 75.612 67.8539 74.341 64.6297L64.5985 68.4702ZM54.2473 68.4702L44.4612 72.1983C46.0081 76.259 49.902 78.9425 54.2473 78.9425V68.4702ZM49.8224 56.8548L59.6086 53.1268C58.0617 49.0661 54.1677 46.3826 49.8224 46.3826V56.8548ZM25.0113 56.8548V46.3826C20.6659 46.3826 16.772 49.0661 15.2251 53.1268L25.0113 56.8548ZM20.5864 68.4702V78.9425C24.9317 78.9425 28.8256 76.259 30.3725 72.1983L20.5864 68.4702ZM28.33 48.163L18.5392 44.4471C17.3178 47.6651 17.7558 51.2779 19.7107 54.1108C21.6657 56.9438 24.8879 58.6353 28.33 58.6353V48.163ZM46.5037 48.163V58.6353C49.9457 58.6353 53.168 56.9438 55.1229 54.1108C57.0779 51.2779 57.5159 47.6651 56.2945 44.4471L46.5037 48.163ZM37.4168 24.2211L47.2076 20.5051C45.664 16.4381 41.7669 13.7488 37.4168 13.7488C33.0668 13.7488 29.1697 16.4381 27.6261 20.5051L37.4168 24.2211ZM10.4723 68.4702L20.2148 72.3108L41.7073 17.7895L31.9647 13.9489L22.2221 10.1084L0.729692 64.6297L10.4723 68.4702ZM31.9647 13.9489V24.4212H43.106V13.9489V3.47672H31.9647V13.9489ZM43.106 13.9489L33.3634 17.7895L54.8559 72.3108L64.5985 68.4702L74.341 64.6297L52.8486 10.1084L43.106 13.9489ZM64.5985 68.4702V57.998H54.2473V68.4702V78.9425H64.5985V68.4702ZM54.2473 68.4702L64.0335 64.7422L59.6086 53.1268L49.8224 56.8548L40.0362 60.5829L44.4612 72.1983L54.2473 68.4702ZM49.8224 56.8548V46.3826H25.0113V56.8548V67.327H49.8224V56.8548ZM25.0113 56.8548L15.2251 53.1268L10.8002 64.7422L20.5864 68.4702L30.3725 72.1983L34.7974 60.5829L25.0113 56.8548ZM20.5864 68.4702V57.998H10.4723V68.4702V78.9425H20.5864V68.4702ZM28.33 48.163V58.6353H46.5037V48.163V37.6908H28.33V48.163ZM46.5037 48.163L56.2945 44.4471L47.2076 20.5051L37.4168 24.2211L27.6261 27.937L36.713 51.879L46.5037 48.163ZM37.4168 24.2211L27.6261 20.5051L18.5392 44.4471L28.33 48.163L38.1207 51.879L47.2076 27.937L37.4168 24.2211ZM70.2333 83.4833H59.7611C59.7611 89.267 64.4497 93.9556 70.2333 93.9556V83.4833ZM70.2333 28.1719V17.6997C64.4497 17.6997 59.7611 22.3882 59.7611 28.1719H70.2333ZM79.0832 28.1719H89.5554C89.5554 22.3882 84.8668 17.6997 79.0832 17.6997V28.1719ZM79.0832 33.9401H68.6109C68.6109 38.3743 71.4037 42.3279 75.5829 43.81C79.7621 45.2921 84.4217 43.9815 87.2155 40.538L79.0832 33.9401ZM79.0832 62.702L87.2155 56.1041C84.4217 52.6606 79.7621 51.35 75.5829 52.8321C71.4037 54.3142 68.6109 58.2678 68.6109 62.702H79.0832ZM79.0832 83.4833V93.9556C84.8668 93.9556 89.5554 89.267 89.5554 83.4833H79.0832ZM70.2333 83.4833H80.7055V28.1719H70.2333H59.7611V83.4833H70.2333ZM70.2333 28.1719V38.6441H79.0832V28.1719V17.6997H70.2333V28.1719ZM79.0832 28.1719H68.6109V33.9401H79.0832H89.5554V28.1719H79.0832ZM79.0832 33.9401L87.2155 40.538C88.681 38.7317 90.6242 37.6959 93.3061 37.6959V27.2237V16.7515C84.1355 16.7515 76.2807 20.7728 70.9508 27.3422L79.0832 33.9401ZM93.3061 27.2237V37.6959C98.2187 37.6959 102.667 41.4721 102.667 48.3211H113.139H123.611C123.611 31.1491 110.992 16.7515 93.3061 16.7515V27.2237ZM113.139 48.3211H102.667C102.667 55.17 98.2187 58.9462 93.3061 58.9462V69.4184V79.8906C110.992 79.8906 123.611 65.4931 123.611 48.3211H113.139ZM93.3061 69.4184V58.9462C90.6242 58.9462 88.681 57.9105 87.2155 56.1041L79.0832 62.702L70.9508 69.3C76.2807 75.8694 84.1355 79.8906 93.3061 79.8906V69.4184ZM79.0832 62.702H68.6109V83.4833H79.0832H89.5554V62.702H79.0832ZM79.0832 83.4833V73.0111H70.2333V83.4833V93.9556H79.0832V83.4833ZM91.5677 60.8847V71.3569C104.637 71.3569 114.446 61.0407 114.446 48.3211H103.973H93.5011C93.5011 49.2239 93.1918 49.7018 92.9671 49.9305C92.7557 50.1457 92.3601 50.4124 91.5677 50.4124V60.8847ZM103.973 48.3211H114.446C114.446 35.6015 104.637 25.2852 91.5677 25.2852V35.7575V46.2297C92.3601 46.2297 92.7557 46.4965 92.9671 46.7116C93.1918 46.9403 93.5011 47.4182 93.5011 48.3211H103.973ZM91.5677 35.7575V25.2852C78.5858 25.2852 68.6109 35.5131 68.6109 48.3211H79.0832H89.5554C89.5554 47.4647 89.8512 46.9919 90.0962 46.7447C90.3347 46.5041 90.7665 46.2297 91.5677 46.2297V35.7575ZM79.0832 48.3211H68.6109C68.6109 61.129 78.5858 71.3569 91.5677 71.3569V60.8847V50.4124C90.7665 50.4124 90.3347 50.138 90.0962 49.8974C89.8512 49.6502 89.5554 49.1774 89.5554 48.3211H79.0832ZM117.165 68.4702L106.892 66.4403C106.284 69.514 107.085 72.6982 109.074 75.1189C111.064 77.5396 114.032 78.9425 117.165 78.9425V68.4702ZM123.645 35.6784L133.918 37.7084C134.766 33.4177 132.858 29.0519 129.133 26.7597L123.645 35.6784ZM132.574 29.2781L122.131 30.0613C122.507 35.0729 126.39 39.1109 131.383 39.6824L132.574 29.2781ZM158.807 32.2807H169.279C169.279 26.9578 165.286 22.4817 159.998 21.8764L158.807 32.2807ZM158.807 34.4142L167.377 40.4333C168.615 38.6704 169.279 36.5685 169.279 34.4142H158.807ZM160.308 59.9365H170.78C170.78 54.1528 166.092 49.4642 160.308 49.4642V59.9365ZM160.308 68.4702V78.9425C166.092 78.9425 170.78 74.2539 170.78 68.4702H160.308ZM146.243 39.4712L155.514 44.3422C157.107 41.3093 157.117 37.6888 155.539 34.6479C153.961 31.6069 150.995 29.5301 147.598 29.087L146.243 39.4712ZM131.704 37.5748L133.059 27.1906C127.555 26.4727 122.447 30.1738 121.415 35.6274L131.704 37.5748ZM125.857 68.4702V78.9425C130.89 78.9425 135.211 75.3625 136.147 70.4176L125.857 68.4702ZM117.165 68.4702L127.439 70.5002L133.918 37.7084L123.645 35.6784L113.371 33.6485L106.892 66.4403L117.165 68.4702ZM123.645 35.6784L129.133 26.7597C130.242 27.4423 130.798 28.5649 130.798 29.6732H120.326H109.854C109.854 35.6806 112.938 41.3861 118.156 44.5972L123.645 35.6784ZM120.326 29.6732H130.798C130.798 30.3801 130.507 31.7361 129.3 32.921C128.104 34.0937 126.831 34.2982 126.331 34.2982V23.826V13.3538C122.197 13.3538 117.921 14.7436 114.631 17.9707C111.33 21.21 109.854 25.4896 109.854 29.6732H120.326ZM126.331 23.826V34.2982C125.901 34.2982 124.808 34.1281 123.725 33.1543C122.639 32.1776 122.198 30.9548 122.131 30.0613L132.574 29.2781L143.016 28.4949C142.712 24.4408 140.968 20.4919 137.728 17.5793C134.492 14.6696 130.396 13.3538 126.331 13.3538V23.826ZM132.574 29.2781L131.383 39.6824L157.616 42.685L158.807 32.2807L159.998 21.8764L133.764 18.8738L132.574 29.2781ZM158.807 32.2807H148.335V34.4142H158.807H169.279V32.2807H158.807ZM158.807 34.4142L150.237 28.3951C145.225 35.5309 141.065 43.6719 141.065 51.9558H151.537H162.01C162.01 50.2837 163.065 46.5722 167.377 40.4333L158.807 34.4142ZM151.537 51.9558H141.065C141.065 56.2543 142.217 61.0472 145.682 64.8729C149.273 68.8377 154.122 70.4087 158.728 70.4087V59.9365V49.4642C158.731 49.4642 159.062 49.4654 159.584 49.6737C160.135 49.8933 160.718 50.2741 161.205 50.8122C162.201 51.9118 162.01 52.7144 162.01 51.9558H151.537ZM158.728 59.9365V70.4087H160.308V59.9365V49.4642H158.728V59.9365ZM160.308 59.9365H149.836V68.4702H160.308H170.78V59.9365H160.308ZM160.308 68.4702V57.998H157.938V68.4702V78.9425H160.308V68.4702ZM157.938 68.4702V57.998C154.952 57.998 154.067 57.171 153.905 57.0062C153.711 56.8082 152.923 55.8697 152.923 52.983H142.451H131.978C131.978 59.7363 133.917 66.5415 138.957 71.6771C144.03 76.8459 150.889 78.9425 157.938 78.9425V68.4702ZM142.451 52.983H152.923C152.923 50.8768 153.605 47.9743 155.514 44.3422L146.243 39.4712L136.973 34.6003C133.982 40.2921 131.978 46.5555 131.978 52.983H142.451ZM146.243 39.4712L147.598 29.087L133.059 27.1906L131.704 37.5748L130.35 47.9591L144.889 49.8555L146.243 39.4712ZM131.704 37.5748L121.415 35.6274L115.568 66.5228L125.857 68.4702L136.147 70.4176L141.994 39.5222L131.704 37.5748ZM125.857 68.4702V57.998H117.165V68.4702V78.9425H125.857V68.4702ZM206.758 51.7188V62.191C211.877 62.191 216.246 58.49 217.087 53.4404L206.758 51.7188ZM173.413 51.7188V41.2465C170.223 41.2465 167.207 42.7001 165.221 45.1952C163.234 47.6903 162.492 50.9549 163.206 54.0635L173.413 51.7188ZM196.564 56.3017V45.8295C193.063 45.8295 189.793 47.5794 187.851 50.4928L196.564 56.3017ZM206.362 56.3017L216.038 60.3087C217.376 57.0774 217.013 53.3913 215.07 50.4834C213.126 47.5754 209.86 45.8295 206.362 45.8295V56.3017ZM173.492 44.4493L163.341 41.8757C162.547 45.0075 163.243 48.3304 165.227 50.8803C167.211 53.4302 170.261 54.9215 173.492 54.9215V44.4493ZM197.434 44.4493V54.9215C200.646 54.9215 203.681 53.4471 205.666 50.9217C207.652 48.3964 208.368 45.0995 207.61 41.9778L197.434 44.4493ZM185.66 69.4184V58.9462C178.702 58.9462 174.403 54.2944 174.403 48.3211H163.931H153.458C153.458 66.3686 167.649 79.8906 185.66 79.8906V69.4184ZM163.931 48.3211H174.403C174.403 42.2727 178.779 37.6959 185.423 37.6959V27.2237V16.7515C167.572 16.7515 153.458 30.3485 153.458 48.3211H163.931ZM185.423 27.2237V37.6959C192.146 37.6959 196.522 42.2722 196.522 48.4001H206.995H217.467C217.467 30.3489 203.354 16.7515 185.423 16.7515V27.2237ZM206.995 48.4001H196.522C196.522 48.5686 196.513 48.9295 196.486 49.3446C196.473 49.541 196.458 49.7132 196.444 49.8494C196.429 49.9972 196.421 50.0402 196.428 49.9971L206.758 51.7188L217.087 53.4404C217.375 51.7114 217.467 49.5818 217.467 48.4001H206.995ZM206.758 51.7188V41.2465H173.413V51.7188V62.191H206.758V51.7188ZM173.413 51.7188L163.206 54.0635C165.651 64.7064 174.657 71.91 185.818 71.91V61.4378V50.9656C184.847 50.9656 184.416 50.6925 184.254 50.5641C184.087 50.4317 183.791 50.1241 183.619 49.3741L173.413 51.7188ZM185.818 61.4378V71.91C193.35 71.91 200.955 68.5946 205.278 62.1107L196.564 56.3017L187.851 50.4928C187.976 50.3049 187.967 50.4237 187.587 50.6089C187.221 50.7867 186.623 50.9656 185.818 50.9656V61.4378ZM196.564 56.3017V66.7739H206.362V56.3017V45.8295H196.564V56.3017ZM206.362 56.3017L196.687 52.2948C195.177 55.9407 191.278 58.9462 185.66 58.9462V69.4184V79.8906C199.165 79.8906 211.068 72.308 216.038 60.3087L206.362 56.3017ZM185.423 35.2043V24.7321C174.805 24.7321 165.946 31.5995 163.341 41.8757L173.492 44.4493L183.643 47.0228C183.805 46.3817 184.067 46.1136 184.219 45.9956C184.371 45.8777 184.714 45.6766 185.423 45.6766V35.2043ZM173.492 44.4493V54.9215H197.434V44.4493V33.977H173.492V44.4493ZM197.434 44.4493L207.61 41.9778C205.094 31.6167 196.041 24.7321 185.423 24.7321V35.2043V45.6766C186.161 45.6766 186.553 45.8916 186.739 46.0357C186.923 46.1781 187.137 46.4256 187.257 46.9207L197.434 44.4493ZM214.762 68.4702H204.29C204.29 74.2539 208.979 78.9425 214.762 78.9425V68.4702ZM214.762 28.1719V17.6997C208.979 17.6997 204.29 22.3882 204.29 28.1719H214.762ZM223.612 28.1719H234.084C234.084 22.3882 229.396 17.6997 223.612 17.6997V28.1719ZM223.612 33.3079H213.14C213.14 37.7322 215.92 41.6791 220.086 43.1687C224.252 44.6584 228.905 43.3693 231.71 39.9482L223.612 33.3079ZM257.589 59.9365H268.061C268.061 54.1528 263.373 49.4642 257.589 49.4642V59.9365ZM257.589 68.4702V78.9425C263.373 78.9425 268.061 74.2539 268.061 68.4702H257.589ZM223.612 68.4702V78.9425C229.396 78.9425 234.084 74.2539 234.084 68.4702H223.612ZM214.762 68.4702H225.234V28.1719H214.762H204.29V68.4702H214.762ZM214.762 28.1719V38.6441H223.612V28.1719V17.6997H214.762V28.1719ZM223.612 28.1719H213.14V33.3079H223.612H234.084V28.1719H223.612ZM223.612 33.3079L231.71 39.9482C232.779 38.645 234.352 37.6959 237.203 37.6959V27.2237V16.7515C228.675 16.7515 220.925 20.0693 215.514 26.6677L223.612 33.3079ZM237.203 27.2237V37.6959C239.63 37.6959 240.831 38.4549 241.39 39.0107C241.942 39.5583 242.692 40.721 242.692 43.106H253.164H263.636C263.636 35.93 261.186 29.1515 256.148 24.1483C251.117 19.1531 244.337 16.7515 237.203 16.7515V27.2237ZM253.164 43.106H242.692V56.2227H253.164H263.636V43.106H253.164ZM253.164 56.2227H242.692C242.692 59.3947 243.653 63.184 246.603 66.2273C249.596 69.3156 253.448 70.4087 256.799 70.4087V59.9365V49.4642C257.859 49.4642 259.893 49.8462 261.642 51.6505C263.347 53.4098 263.636 55.3422 263.636 56.2227H253.164ZM256.799 59.9365V70.4087H257.589V59.9365V49.4642H256.799V59.9365ZM257.589 59.9365H247.117V68.4702H257.589H268.061V59.9365H257.589ZM257.589 68.4702V57.998H255.061V68.4702V78.9425H257.589V68.4702ZM255.061 68.4702V57.998C254.62 57.998 254.289 57.9699 254.057 57.9368C253.825 57.9037 253.706 57.8679 253.677 57.8585C253.65 57.8498 253.714 57.868 253.837 57.9394C253.962 58.0126 254.122 58.1254 254.288 58.2842C254.455 58.4437 254.592 58.615 254.696 58.7782C254.798 58.9389 254.846 59.0574 254.863 59.103C254.878 59.1454 254.858 59.1048 254.835 58.9558C254.812 58.8056 254.787 58.5582 254.787 58.1981H244.314H233.842C233.842 63.4459 235.33 69.135 239.813 73.4214C244.216 77.6321 249.9 78.9425 255.061 78.9425V68.4702ZM244.314 58.1981H254.787V46.0296H244.314H233.842V58.1981H244.314ZM244.314 46.0296H254.787C254.787 40.6862 253.037 35.3435 249.086 31.2812C245.105 27.1883 239.753 25.2852 234.279 25.2852V35.7575V46.2297C234.619 46.2297 234.694 46.2855 234.586 46.2432C234.535 46.2231 234.454 46.1851 234.357 46.121C234.26 46.0566 234.162 45.9765 234.071 45.8834C233.981 45.7905 233.912 45.699 233.862 45.6199C233.813 45.5413 233.792 45.4883 233.786 45.4739C233.775 45.4434 233.842 45.6061 233.842 46.0296H244.314ZM234.279 35.7575V25.2852C228.758 25.2852 223.324 27.1315 219.22 31.1479C215.098 35.183 213.14 40.6094 213.14 46.1876H223.612H234.084C234.084 45.8238 234.145 45.7052 234.123 45.7598C234.114 45.7842 234.09 45.8368 234.044 45.9061C233.998 45.9758 233.94 46.0479 233.871 46.1154C233.802 46.1828 233.736 46.2329 233.682 46.2671C233.628 46.3009 233.599 46.3112 233.607 46.3083C233.619 46.3036 233.822 46.2297 234.279 46.2297V35.7575ZM223.612 46.1876H213.14V68.4702H223.612H234.084V46.1876H223.612ZM223.612 68.4702V57.998H214.762V68.4702V78.9425H223.612V68.4702ZM295.524 33.9401L287.317 40.4442C290.085 43.9368 294.759 45.2953 298.968 43.8299C303.176 42.3646 305.997 38.3964 305.997 33.9401H295.524ZM295.524 11.5785V1.10623C289.741 1.10623 285.052 5.7948 285.052 11.5785H295.524ZM304.374 11.5785H314.846C314.846 5.7948 310.158 1.10623 304.374 1.10623V11.5785ZM308.799 59.9365H319.271C319.271 54.1528 314.583 49.4642 308.799 49.4642V59.9365ZM308.799 68.4702V78.9425C314.583 78.9425 319.271 74.2539 319.271 68.4702H308.799ZM296.078 62.0699L306.154 59.2181C305.067 55.3769 301.89 52.4878 297.963 51.7689C294.037 51.05 290.043 52.6262 287.665 55.8331L296.078 62.0699ZM281.38 69.4184V58.9462C276.415 58.9462 272.02 55.1984 272.02 48.3211H261.547H251.075C251.075 65.4647 263.589 79.8906 281.38 79.8906V69.4184ZM261.547 48.3211H272.02C272.02 41.4438 276.415 37.6959 281.38 37.6959V27.2237V16.7515C263.589 16.7515 251.075 31.1774 251.075 48.3211H261.547ZM281.38 27.2237V37.6959C284.083 37.6959 285.969 38.7432 287.317 40.4442L295.524 33.9401L303.732 27.436C298.443 20.7613 290.53 16.7515 281.38 16.7515V27.2237ZM295.524 33.9401H305.997V11.5785H295.524H285.052V33.9401H295.524ZM295.524 11.5785V22.0507H304.374V11.5785V1.10623H295.524V11.5785ZM304.374 11.5785H293.902V56.2227H304.374H314.846V11.5785H304.374ZM304.374 56.2227H293.902C293.902 59.3969 294.866 63.2253 297.88 66.2862C300.92 69.3741 304.793 70.4087 308.088 70.4087V59.9365V49.4642C309.012 49.4642 311.028 49.7877 312.804 51.5915C314.554 53.3684 314.846 55.34 314.846 56.2227H304.374ZM308.088 59.9365V70.4087H308.799V59.9365V49.4642H308.088V59.9365ZM308.799 59.9365H298.327V68.4702H308.799H319.271V59.9365H308.799ZM308.799 68.4702V57.998H306.271V68.4702V78.9425H308.799V68.4702ZM306.271 68.4702V57.998C305.573 57.998 305.165 57.9271 304.985 57.8833C304.815 57.8419 304.902 57.8384 305.127 57.9803C305.369 58.1328 305.639 58.3714 305.862 58.678C306.079 58.9755 306.147 59.195 306.154 59.2181L296.078 62.0699L286.001 64.9217C287.242 69.3074 289.897 73.1395 293.962 75.7007C297.827 78.1362 302.194 78.9425 306.271 78.9425V68.4702ZM296.078 62.0699L287.665 55.8331C286.194 57.817 284.147 58.9462 281.38 58.9462V69.4184V79.8906C290.941 79.8906 299.165 75.4888 304.49 68.3067L296.078 62.0699ZM283.119 60.8847V71.3569C296.188 71.3569 305.997 61.0407 305.997 48.3211H295.524H285.052C285.052 49.2239 284.743 49.7018 284.518 49.9305C284.307 50.1457 283.911 50.4124 283.119 50.4124V60.8847ZM295.524 48.3211H305.997C305.997 35.6015 296.188 25.2852 283.119 25.2852V35.7575V46.2297C283.911 46.2297 284.307 46.4965 284.518 46.7116C284.743 46.9403 285.052 47.4182 285.052 48.3211H295.524ZM283.119 35.7575V25.2852C270.014 25.2852 260.162 35.5571 260.162 48.3211H270.634H281.106C281.106 47.42 281.414 46.9513 281.634 46.7282C281.841 46.5189 282.256 46.2297 283.119 46.2297V35.7575ZM270.634 48.3211H260.162C260.162 61.085 270.014 71.3569 283.119 71.3569V60.8847V50.4124C282.256 50.4124 281.841 50.1232 281.634 49.9139C281.414 49.6909 281.106 49.2221 281.106 48.3211H270.634ZM356.148 51.7188V62.191C361.267 62.191 365.636 58.49 366.478 53.4404L356.148 51.7188ZM322.803 51.7188V41.2465C319.613 41.2465 316.598 42.7001 314.611 45.1952C312.624 47.6903 311.882 50.9549 312.597 54.0635L322.803 51.7188ZM345.955 56.3017V45.8295C342.453 45.8295 339.184 47.5794 337.241 50.4928L345.955 56.3017ZM355.753 56.3017L365.428 60.3087C366.766 57.0774 366.403 53.3913 364.46 50.4834C362.517 47.5754 359.25 45.8295 355.753 45.8295V56.3017ZM322.882 44.4493L312.731 41.8757C311.937 45.0075 312.633 48.3304 314.617 50.8803C316.601 53.4302 319.651 54.9215 322.882 54.9215V44.4493ZM346.824 44.4493V54.9215C350.036 54.9215 353.071 53.4471 355.056 50.9217C357.042 48.3964 357.758 45.0995 357 41.9778L346.824 44.4493ZM335.05 69.4184V58.9462C328.093 58.9462 323.793 54.2944 323.793 48.3211H313.321H302.849C302.849 66.3686 317.039 79.8906 335.05 79.8906V69.4184ZM313.321 48.3211H323.793C323.793 42.2727 328.169 37.6959 334.813 37.6959V27.2237V16.7515C316.962 16.7515 302.849 30.3485 302.849 48.3211H313.321ZM334.813 27.2237V37.6959C341.536 37.6959 345.913 42.2722 345.913 48.4001H356.385H366.857C366.857 30.3489 352.744 16.7515 334.813 16.7515V27.2237ZM356.385 48.4001H345.913C345.913 48.5686 345.903 48.9295 345.876 49.3446C345.863 49.541 345.848 49.7132 345.834 49.8494C345.819 49.9972 345.811 50.0402 345.818 49.9971L356.148 51.7188L366.478 53.4404C366.766 51.7114 366.857 49.5818 366.857 48.4001H356.385ZM356.148 51.7188V41.2465H322.803V51.7188V62.191H356.148V51.7188ZM322.803 51.7188L312.597 54.0635C315.042 64.7064 324.047 71.91 335.208 71.91V61.4378V50.9656C334.237 50.9656 333.806 50.6925 333.644 50.5641C333.477 50.4317 333.182 50.1241 333.009 49.3741L322.803 51.7188ZM335.208 61.4378V71.91C342.74 71.91 350.345 68.5946 354.668 62.1107L345.955 56.3017L337.241 50.4928C337.367 50.3049 337.358 50.4237 336.977 50.6089C336.612 50.7867 336.013 50.9656 335.208 50.9656V61.4378ZM345.955 56.3017V66.7739H355.753V56.3017V45.8295H345.955V56.3017ZM355.753 56.3017L346.077 52.2948C344.568 55.9407 340.668 58.9462 335.05 58.9462V69.4184V79.8906C348.555 79.8906 360.459 72.308 365.428 60.3087L355.753 56.3017ZM334.813 35.2043V24.7321C324.195 24.7321 315.336 31.5995 312.731 41.8757L322.882 44.4493L333.033 47.0228C333.196 46.3817 333.457 46.1136 333.609 45.9956C333.761 45.8777 334.104 45.6766 334.813 45.6766V35.2043ZM322.882 44.4493V54.9215H346.824V44.4493V33.977H322.882V44.4493ZM346.824 44.4493L357 41.9778C354.484 31.6167 345.431 24.7321 334.813 24.7321V35.2043V45.6766C335.551 45.6766 335.943 45.8916 336.13 46.0357C336.314 46.1781 336.527 46.4256 336.647 46.9207L346.824 44.4493ZM360.002 68.4702L349.728 66.4403C349.121 69.514 349.922 72.6982 351.911 75.1189C353.9 77.5396 356.869 78.9425 360.002 78.9425V68.4702ZM366.481 35.6784L376.755 37.7084C377.602 33.4177 375.694 29.0519 371.97 26.7597L366.481 35.6784ZM375.41 29.2781L364.967 30.0613C365.343 35.0729 369.226 39.1109 374.219 39.6824L375.41 29.2781ZM401.643 32.2807H412.116C412.116 26.9578 408.123 22.4817 402.834 21.8764L401.643 32.2807ZM401.643 34.4142L410.213 40.4333C411.451 38.6704 412.116 36.5685 412.116 34.4142H401.643ZM403.145 59.9365H413.617C413.617 54.1528 408.928 49.4642 403.145 49.4642V59.9365ZM403.145 68.4702V78.9425C408.928 78.9425 413.617 74.2539 413.617 68.4702H403.145ZM389.08 39.4712L398.35 44.3422C399.944 41.3093 399.953 37.6888 398.375 34.6479C396.797 31.6069 393.831 29.5301 390.434 29.087L389.08 39.4712ZM374.541 37.5748L375.895 27.1906C370.391 26.4727 365.283 30.1738 364.251 35.6274L374.541 37.5748ZM368.694 68.4702V78.9425C373.726 78.9425 378.047 75.3625 378.983 70.4176L368.694 68.4702ZM360.002 68.4702L370.275 70.5002L376.755 37.7084L366.481 35.6784L356.207 33.6485L349.728 66.4403L360.002 68.4702ZM366.481 35.6784L371.97 26.7597C373.079 27.4423 373.635 28.5649 373.635 29.6732H363.162H352.69C352.69 35.6806 355.775 41.3861 360.993 44.5972L366.481 35.6784ZM363.162 29.6732H373.635C373.635 30.3801 373.344 31.7361 372.136 32.921C370.941 34.0937 369.667 34.2982 369.168 34.2982V23.826V13.3538C365.033 13.3538 360.757 14.7436 357.468 17.9707C354.166 21.21 352.69 25.4896 352.69 29.6732H363.162ZM369.168 23.826V34.2982C368.738 34.2982 367.644 34.1281 366.561 33.1543C365.475 32.1776 365.034 30.9548 364.967 30.0613L375.41 29.2781L385.853 28.4949C385.549 24.4408 383.804 20.4919 380.565 17.5793C377.328 14.6696 373.232 13.3538 369.168 13.3538V23.826ZM375.41 29.2781L374.219 39.6824L400.453 42.685L401.643 32.2807L402.834 21.8764L376.601 18.8738L375.41 29.2781ZM401.643 32.2807H391.171V34.4142H401.643H412.116V32.2807H401.643ZM401.643 34.4142L393.074 28.3951C388.062 35.5309 383.902 43.6719 383.902 51.9558H394.374H404.846C404.846 50.2837 405.901 46.5722 410.213 40.4333L401.643 34.4142ZM394.374 51.9558H383.902C383.902 56.2543 385.053 61.0472 388.519 64.8729C392.11 68.8377 396.958 70.4087 401.564 70.4087V59.9365V49.4642C401.567 49.4642 401.899 49.4654 402.421 49.6737C402.971 49.8933 403.554 50.2741 404.042 50.8122C405.038 51.9118 404.846 52.7144 404.846 51.9558H394.374ZM401.564 59.9365V70.4087H403.145V59.9365V49.4642H401.564V59.9365ZM403.145 59.9365H392.672V68.4702H403.145H413.617V59.9365H403.145ZM403.145 68.4702V57.998H400.774V68.4702V78.9425H403.145V68.4702ZM400.774 68.4702V57.998C397.788 57.998 396.903 57.171 396.741 57.0062C396.547 56.8082 395.759 55.8697 395.759 52.983H385.287H374.815C374.815 59.7363 376.753 66.5415 381.794 71.6771C386.867 76.8459 393.725 78.9425 400.774 78.9425V68.4702ZM385.287 52.983H395.759C395.759 50.8768 396.442 47.9743 398.35 44.3422L389.08 39.4712L379.809 34.6003C376.819 40.2921 374.815 46.5555 374.815 52.983H385.287ZM389.08 39.4712L390.434 29.087L375.895 27.1906L374.541 37.5748L373.186 47.9591L387.725 49.8555L389.08 39.4712ZM374.541 37.5748L364.251 35.6274L358.404 66.5228L368.694 68.4702L378.983 70.4176L384.83 39.5222L374.541 37.5748ZM368.694 68.4702V57.998H360.002V68.4702V78.9425H368.694V68.4702ZM460.934 23.4309L452.513 17.2063C450.163 20.3855 449.803 24.6171 451.584 28.1469C453.364 31.6768 456.981 33.9031 460.934 33.9031V23.4309ZM468.994 12.5266V2.05443C465.672 2.05443 462.547 3.63059 460.572 6.30205L468.994 12.5266ZM480.214 12.5266L487.948 19.5877C490.745 16.5236 491.47 12.0967 489.796 8.30042C488.121 4.50411 484.363 2.05443 480.214 2.05443V12.5266ZM470.258 23.4309V33.9031C473.201 33.9031 476.007 32.6651 477.992 30.492L470.258 23.4309ZM487.405 51.7188V62.191C492.524 62.191 496.893 58.49 497.734 53.4404L487.405 51.7188ZM454.06 51.7188V41.2465C450.87 41.2465 447.854 42.7001 445.867 45.1952C443.881 47.6903 443.139 50.9549 443.853 54.0635L454.06 51.7188ZM477.211 56.3017V45.8295C473.71 45.8295 470.44 47.5794 468.498 50.4928L477.211 56.3017ZM487.009 56.3017L496.685 60.3087C498.023 57.0774 497.66 53.3913 495.717 50.4834C493.773 47.5754 490.507 45.8295 487.009 45.8295V56.3017ZM454.139 44.4493L443.988 41.8757C443.194 45.0075 443.89 48.3304 445.874 50.8803C447.858 53.4302 450.908 54.9215 454.139 54.9215V44.4493ZM478.081 44.4493V54.9215C481.293 54.9215 484.328 53.4471 486.313 50.9217C488.299 48.3964 489.015 45.0995 488.257 41.9778L478.081 44.4493ZM460.934 23.4309L469.356 29.6555L477.415 18.7512L468.994 12.5266L460.572 6.30205L452.513 17.2063L460.934 23.4309ZM468.994 12.5266V22.9989H480.214V12.5266V2.05443H468.994V12.5266ZM480.214 12.5266L472.48 5.46555L462.524 16.3698L470.258 23.4309L477.992 30.492L487.948 19.5877L480.214 12.5266ZM470.258 23.4309V12.9587H460.934V23.4309V33.9031H470.258V23.4309ZM466.307 69.4184V58.9462C459.349 58.9462 455.05 54.2944 455.05 48.3211H444.578H434.105C434.105 66.3686 448.296 79.8906 466.307 79.8906V69.4184ZM444.578 48.3211H455.05C455.05 42.2727 459.426 37.6959 466.07 37.6959V27.2237V16.7515C448.219 16.7515 434.105 30.3485 434.105 48.3211H444.578ZM466.07 27.2237V37.6959C472.793 37.6959 477.169 42.2722 477.169 48.4001H487.642H498.114C498.114 30.3489 484.001 16.7515 466.07 16.7515V27.2237ZM487.642 48.4001H477.169C477.169 48.5686 477.16 48.9295 477.133 49.3446C477.12 49.541 477.105 49.7132 477.091 49.8494C477.076 49.9972 477.068 50.0402 477.075 49.9971L487.405 51.7188L497.734 53.4404C498.022 51.7114 498.114 49.5818 498.114 48.4001H487.642ZM487.405 51.7188V41.2465H454.06V51.7188V62.191H487.405V51.7188ZM454.06 51.7188L443.853 54.0635C446.298 64.7064 455.304 71.91 466.465 71.91V61.4378V50.9656C465.494 50.9656 465.063 50.6925 464.901 50.5641C464.734 50.4317 464.438 50.1241 464.266 49.3741L454.06 51.7188ZM466.465 61.4378V71.91C473.997 71.91 481.602 68.5946 485.925 62.1107L477.211 56.3017L468.498 50.4928C468.623 50.3049 468.614 50.4237 468.234 50.6089C467.868 50.7867 467.27 50.9656 466.465 50.9656V61.4378ZM477.211 56.3017V66.7739H487.009V56.3017V45.8295H477.211V56.3017ZM487.009 56.3017L477.334 52.2948C475.824 55.9407 471.925 58.9462 466.307 58.9462V69.4184V79.8906C479.812 79.8906 491.715 72.308 496.685 60.3087L487.009 56.3017ZM466.07 35.2043V24.7321C455.452 24.7321 446.593 31.5995 443.988 41.8757L454.139 44.4493L464.29 47.0228C464.452 46.3817 464.714 46.1136 464.866 45.9956C465.018 45.8777 465.361 45.6766 466.07 45.6766V35.2043ZM454.139 44.4493V54.9215H478.081V44.4493V33.977H454.139V44.4493ZM478.081 44.4493L488.257 41.9778C485.741 31.6167 476.688 24.7321 466.07 24.7321V35.2043V45.6766C466.808 45.6766 467.2 45.8916 467.386 46.0357C467.57 46.1781 467.784 46.4256 467.904 46.9207L478.081 44.4493ZM533.069 68.4702H522.597C522.597 74.2539 527.286 78.9425 533.069 78.9425V68.4702ZM533.069 28.1719V17.6997C527.286 17.6997 522.597 22.3882 522.597 28.1719H533.069ZM541.919 28.1719H552.391C552.391 22.3882 547.703 17.6997 541.919 17.6997V28.1719ZM541.919 68.4702V78.9425C547.703 78.9425 552.391 74.2539 552.391 68.4702H541.919ZM537.494 21.6925V11.2203C538.687 11.2203 539.95 11.7086 540.909 12.6677C541.868 13.6269 542.356 14.8891 542.356 16.0824H531.884H521.412C521.412 25.0267 528.55 32.1648 537.494 32.1648V21.6925ZM531.884 16.0824H542.356C542.356 17.1871 541.901 18.4854 540.872 19.5038C539.859 20.5073 538.588 20.9444 537.494 20.9444V10.4722V-9.53674e-07C528.647 -9.53674e-07 521.412 6.96202 521.412 16.0824H531.884ZM537.494 10.4722V20.9444C536.507 20.9444 535.256 20.5541 534.222 19.5396C533.171 18.5095 532.711 17.1913 532.711 16.0824H543.183H553.656C553.656 6.86642 546.323 -9.53674e-07 537.494 -9.53674e-07V10.4722ZM543.183 16.0824H532.711C532.711 14.8847 533.204 13.603 534.185 12.6317C535.166 11.6597 536.408 11.2203 537.494 11.2203V21.6925V32.1648C546.421 32.1648 553.656 25.1228 553.656 16.0824H543.183ZM533.069 68.4702H543.541V28.1719H533.069H522.597V68.4702H533.069ZM533.069 28.1719V38.6441H541.919V28.1719V17.6997H533.069V28.1719ZM541.919 28.1719H531.447V68.4702H541.919H552.391V28.1719H541.919ZM541.919 68.4702V57.998H533.069V68.4702V78.9425H541.919V68.4702ZM552.588 68.4702H542.116C542.116 74.2539 546.804 78.9425 552.588 78.9425V68.4702ZM552.588 28.1719V17.6997C546.804 17.6997 542.116 22.3882 542.116 28.1719H552.588ZM561.438 28.1719H571.91C571.91 22.3882 567.222 17.6997 561.438 17.6997V28.1719ZM561.438 33.3079H550.966C550.966 37.7322 553.746 41.6791 557.912 43.1687C562.078 44.6584 566.73 43.3693 569.536 39.9482L561.438 33.3079ZM595.415 59.9365H605.887C605.887 54.1528 601.199 49.4642 595.415 49.4642V59.9365ZM595.415 68.4702V78.9425C601.199 78.9425 605.887 74.2539 605.887 68.4702H595.415ZM561.438 68.4702V78.9425C567.222 78.9425 571.91 74.2539 571.91 68.4702H561.438ZM552.588 68.4702H563.06V28.1719H552.588H542.116V68.4702H552.588ZM552.588 28.1719V38.6441H561.438V28.1719V17.6997H552.588V28.1719ZM561.438 28.1719H550.966V33.3079H561.438H571.91V28.1719H561.438ZM561.438 33.3079L569.536 39.9482C570.604 38.645 572.178 37.6959 575.029 37.6959V27.2237V16.7515C566.501 16.7515 558.751 20.0693 553.34 26.6677L561.438 33.3079ZM575.029 27.2237V37.6959C577.456 37.6959 578.656 38.4549 579.216 39.0107C579.768 39.5583 580.518 40.721 580.518 43.106H590.99H601.462C601.462 35.93 599.012 29.1515 593.973 24.1483C588.943 19.1531 582.162 16.7515 575.029 16.7515V27.2237ZM590.99 43.106H580.518V56.2227H590.99H601.462V43.106H590.99ZM590.99 56.2227H580.518C580.518 59.3947 581.479 63.184 584.428 66.2273C587.422 69.3156 591.274 70.4087 594.625 70.4087V59.9365V49.4642C595.684 49.4642 597.719 49.8462 599.468 51.6505C601.173 53.4098 601.462 55.3422 601.462 56.2227H590.99ZM594.625 59.9365V70.4087H595.415V59.9365V49.4642H594.625V59.9365ZM595.415 59.9365H584.943V68.4702H595.415H605.887V59.9365H595.415ZM595.415 68.4702V57.998H592.886V68.4702V78.9425H595.415V68.4702ZM592.886 68.4702V57.998C592.445 57.998 592.115 57.9699 591.883 57.9368C591.65 57.9037 591.531 57.8679 591.502 57.8585C591.476 57.8498 591.54 57.868 591.662 57.9394C591.788 58.0126 591.948 58.1254 592.114 58.2842C592.281 58.4437 592.418 58.615 592.522 58.7782C592.624 58.9389 592.672 59.0574 592.688 59.103C592.704 59.1454 592.684 59.1048 592.661 58.9558C592.638 58.8056 592.612 58.5582 592.612 58.1981H582.14H571.668C571.668 63.4459 573.156 69.135 577.638 73.4214C582.042 77.6321 587.726 78.9425 592.886 78.9425V68.4702ZM582.14 58.1981H592.612V46.0296H582.14H571.668V58.1981H582.14ZM582.14 46.0296H592.612C592.612 40.6862 590.862 35.3435 586.912 31.2812C582.931 27.1883 577.578 25.2852 572.105 25.2852V35.7575V46.2297C572.445 46.2297 572.519 46.2855 572.412 46.2432C572.36 46.2231 572.28 46.1851 572.183 46.121C572.085 46.0566 571.987 45.9765 571.897 45.8834C571.806 45.7905 571.737 45.699 571.688 45.6199C571.639 45.5413 571.617 45.4883 571.612 45.4739C571.601 45.4434 571.668 45.6061 571.668 46.0296H582.14ZM572.105 35.7575V25.2852C566.584 25.2852 561.149 27.1315 557.046 31.1479C552.924 35.183 550.966 40.6094 550.966 46.1876H561.438H571.91C571.91 45.8238 571.971 45.7052 571.949 45.7598C571.94 45.7842 571.916 45.8368 571.87 45.9061C571.824 45.9758 571.766 46.0479 571.697 46.1154C571.628 46.1828 571.562 46.2329 571.507 46.2671C571.454 46.3009 571.425 46.3112 571.433 46.3083C571.445 46.3036 571.648 46.2297 572.105 46.2297V35.7575ZM561.438 46.1876H550.966V68.4702H561.438H571.91V46.1876H561.438ZM561.438 68.4702V57.998H552.588V68.4702V78.9425H561.438V68.4702ZM604.537 36.2316H615.009C615.009 30.4479 610.321 25.7593 604.537 25.7593V36.2316ZM597.742 36.2316H587.269C587.269 42.0152 591.958 46.7038 597.742 46.7038V36.2316ZM597.742 28.1719V17.6997C591.958 17.6997 587.269 22.3882 587.269 28.1719H597.742ZM605.011 17.2676V6.79541C599.227 6.79541 594.539 11.484 594.539 17.2676H605.011ZM613.387 17.2676H623.859C623.859 11.484 619.17 6.79541 613.387 6.79541V17.2676ZM613.387 28.1719H602.915C602.915 33.9555 607.603 38.6441 613.387 38.6441V28.1719ZM623.343 28.1719H633.815C633.815 22.3882 629.127 17.6997 623.343 17.6997V28.1719ZM623.343 36.2316V46.7038C629.127 46.7038 633.815 42.0152 633.815 36.2316H623.343ZM613.387 36.2316V25.7593C607.603 25.7593 602.915 30.4479 602.915 36.2316H613.387ZM623.343 60.3315H633.815C633.815 54.5479 629.127 49.8593 623.343 49.8593V60.3315ZM623.343 68.4702V78.9425C629.127 78.9425 633.815 74.2539 633.815 68.4702H623.343ZM618.049 68.4702V57.998C615.303 57.998 614.828 57.308 615.103 57.5613C615.226 57.6753 615.249 57.7674 615.21 57.6644C615.155 57.5199 615.009 57.0379 615.009 56.0647H604.537H594.065C594.065 62.1525 595.932 68.3739 600.905 72.959C605.743 77.42 612.023 78.9425 618.049 78.9425V68.4702ZM604.537 56.0647H615.009V36.2316H604.537H594.065V56.0647H604.537ZM604.537 36.2316V25.7593H597.742V36.2316V46.7038H604.537V36.2316ZM597.742 36.2316H608.214V28.1719H597.742H587.269V36.2316H597.742ZM597.742 28.1719V38.6441H601.85V28.1719V17.6997H597.742V28.1719ZM601.85 28.1719V38.6441C604.689 38.6441 608.517 37.8556 611.606 34.7669C614.695 31.6783 615.483 27.8496 615.483 25.0112H605.011H594.539C594.539 24.2273 594.774 21.9789 596.796 19.957C598.818 17.935 601.066 17.6997 601.85 17.6997V28.1719ZM605.011 25.0112H615.483V17.2676H605.011H594.539V25.0112H605.011ZM605.011 17.2676V27.7399H613.387V17.2676V6.79541H605.011V17.2676ZM613.387 17.2676H602.915V28.1719H613.387H623.859V17.2676H613.387ZM613.387 28.1719V38.6441H623.343V28.1719V17.6997H613.387V28.1719ZM623.343 28.1719H612.871V36.2316H623.343H633.815V28.1719H623.343ZM623.343 36.2316V25.7593H613.387V36.2316V46.7038H623.343V36.2316ZM613.387 36.2316H602.915V54.6424H613.387H623.859V36.2316H613.387ZM613.387 54.6424H602.915C602.915 58.6315 604.21 63.0158 607.7 66.3705C611.138 69.6745 615.481 70.8038 619.313 70.8038V60.3315V49.8593C619.432 49.8593 620.811 49.9218 622.214 51.2702C623.67 52.6692 623.859 54.209 623.859 54.6424H613.387ZM619.313 60.3315V70.8038H623.343V60.3315V49.8593H619.313V60.3315ZM623.343 60.3315H612.871V68.4702H623.343H633.815V60.3315H623.343ZM623.343 68.4702V57.998H618.049V68.4702V78.9425H623.343V68.4702ZM670.824 51.7188V62.191C675.944 62.191 680.312 58.49 681.154 53.4404L670.824 51.7188ZM637.479 51.7188V41.2465C634.29 41.2465 631.274 42.7001 629.287 45.1952C627.3 47.6903 626.559 50.9549 627.273 54.0635L637.479 51.7188ZM660.631 56.3017V45.8295C657.13 45.8295 653.86 47.5794 651.918 50.4928L660.631 56.3017ZM670.429 56.3017L680.105 60.3087C681.443 57.0774 681.08 53.3913 679.136 50.4834C677.193 47.5754 673.927 45.8295 670.429 45.8295V56.3017ZM637.558 44.4493L627.407 41.8757C626.613 45.0075 627.309 48.3304 629.294 50.8803C631.278 53.4302 634.328 54.9215 637.558 54.9215V44.4493ZM661.5 44.4493V54.9215C664.713 54.9215 667.747 53.4471 669.733 50.9217C671.718 48.3964 672.435 45.0995 671.677 41.9778L661.5 44.4493ZM649.727 69.4184V58.9462C642.769 58.9462 638.47 54.2944 638.47 48.3211H627.997H617.525C617.525 66.3686 631.715 79.8906 649.727 79.8906V69.4184ZM627.997 48.3211H638.47C638.47 42.2727 642.846 37.6959 649.49 37.6959V27.2237V16.7515C631.639 16.7515 617.525 30.3485 617.525 48.3211H627.997ZM649.49 27.2237V37.6959C656.212 37.6959 660.589 42.2722 660.589 48.4001H671.061H681.534C681.534 30.3489 667.42 16.7515 649.49 16.7515V27.2237ZM671.061 48.4001H660.589C660.589 48.5686 660.58 48.9295 660.552 49.3446C660.539 49.541 660.525 49.7132 660.511 49.8494C660.496 49.9972 660.487 50.0402 660.495 49.9971L670.824 51.7188L681.154 53.4404C681.442 51.7114 681.534 49.5818 681.534 48.4001H671.061ZM670.824 51.7188V41.2465H637.479V51.7188V62.191H670.824V51.7188ZM637.479 51.7188L627.273 54.0635C629.718 64.7064 638.724 71.91 649.885 71.91V61.4378V50.9656C648.914 50.9656 648.482 50.6925 648.32 50.5641C648.153 50.4317 647.858 50.1241 647.686 49.3741L637.479 51.7188ZM649.885 61.4378V71.91C657.417 71.91 665.022 68.5946 669.345 62.1107L660.631 56.3017L651.918 50.4928C652.043 50.3049 652.034 50.4237 651.654 50.6089C651.288 50.7867 650.689 50.9656 649.885 50.9656V61.4378ZM660.631 56.3017V66.7739H670.429V56.3017V45.8295H660.631V56.3017ZM670.429 56.3017L660.754 52.2948C659.244 55.9407 655.344 58.9462 649.727 58.9462V69.4184V79.8906C663.232 79.8906 675.135 72.308 680.105 60.3087L670.429 56.3017ZM649.49 35.2043V24.7321C638.871 24.7321 630.013 31.5995 627.407 41.8757L637.558 44.4493L647.71 47.0228C647.872 46.3817 648.134 46.1136 648.286 45.9956C648.438 45.8777 648.781 45.6766 649.49 45.6766V35.2043ZM637.558 44.4493V54.9215H661.5V44.4493V33.977H637.558V44.4493ZM661.5 44.4493L671.677 41.9778C669.161 31.6167 660.108 24.7321 649.49 24.7321V35.2043V45.6766C650.228 45.6766 650.62 45.8916 650.806 46.0357C650.99 46.1781 651.204 46.4256 651.324 46.9207L661.5 44.4493ZM674.678 68.4702L664.405 66.4403C663.797 69.514 664.598 72.6982 666.587 75.1189C668.576 77.5396 671.545 78.9425 674.678 78.9425V68.4702ZM681.157 35.6784L691.431 37.7084C692.279 33.4177 690.371 29.0519 686.646 26.7597L681.157 35.6784ZM690.086 29.2781L679.643 30.0613C680.019 35.0729 683.902 39.1109 688.896 39.6824L690.086 29.2781ZM716.32 32.2807H726.792C726.792 26.9578 722.799 22.4817 717.511 21.8764L716.32 32.2807ZM716.32 34.4142L724.889 40.4333C726.128 38.6704 726.792 36.5685 726.792 34.4142H716.32ZM717.821 59.9365H728.293C728.293 54.1528 723.605 49.4642 717.821 49.4642V59.9365ZM717.821 68.4702V78.9425C723.605 78.9425 728.293 74.2539 728.293 68.4702H717.821ZM703.756 39.4712L713.027 44.3422C714.62 41.3093 714.629 37.6888 713.051 34.6479C711.474 31.6069 708.508 29.5301 705.111 29.087L703.756 39.4712ZM689.217 37.5748L690.572 27.1906C685.068 26.4727 679.96 30.1738 678.928 35.6274L689.217 37.5748ZM683.37 68.4702V78.9425C688.403 78.9425 692.724 75.3625 693.66 70.4176L683.37 68.4702ZM674.678 68.4702L684.952 70.5002L691.431 37.7084L681.157 35.6784L670.884 33.6485L664.405 66.4403L674.678 68.4702ZM681.157 35.6784L686.646 26.7597C687.755 27.4423 688.311 28.5649 688.311 29.6732H677.839H667.367C667.367 35.6806 670.451 41.3861 675.669 44.5972L681.157 35.6784ZM677.839 29.6732H688.311C688.311 30.3801 688.02 31.7361 686.812 32.921C685.617 34.0937 684.344 34.2982 683.844 34.2982V23.826V13.3538C679.71 13.3538 675.433 14.7436 672.144 17.9707C668.843 21.21 667.367 25.4896 667.367 29.6732H677.839ZM683.844 23.826V34.2982C683.414 34.2982 682.321 34.1281 681.238 33.1543C680.151 32.1776 679.71 30.9548 679.643 30.0613L690.086 29.2781L700.529 28.4949C700.225 24.4408 698.481 20.4919 695.241 17.5793C692.005 14.6696 687.909 13.3538 683.844 13.3538V23.826ZM690.086 29.2781L688.896 39.6824L715.129 42.685L716.32 32.2807L717.511 21.8764L691.277 18.8738L690.086 29.2781ZM716.32 32.2807H705.848V34.4142H716.32H726.792V32.2807H716.32ZM716.32 34.4142L707.75 28.3951C702.738 35.5309 698.578 43.6719 698.578 51.9558H709.05H719.523C719.523 50.2837 720.577 46.5722 724.889 40.4333L716.32 34.4142ZM709.05 51.9558H698.578C698.578 56.2543 699.73 61.0472 703.195 64.8729C706.786 68.8377 711.634 70.4087 716.241 70.4087V59.9365V49.4642C716.244 49.4642 716.575 49.4654 717.097 49.6737C717.648 49.8933 718.231 50.2741 718.718 50.8122C719.714 51.9118 719.523 52.7144 719.523 51.9558H709.05ZM716.241 59.9365V70.4087H717.821V59.9365V49.4642H716.241V59.9365ZM717.821 59.9365H707.349V68.4702H717.821H728.293V59.9365H717.821ZM717.821 68.4702V57.998H715.451V68.4702V78.9425H717.821V68.4702ZM715.451 68.4702V57.998C712.464 57.998 711.579 57.171 711.418 57.0062C711.223 56.8082 710.436 55.8697 710.436 52.983H699.963H689.491C689.491 59.7363 691.43 66.5415 696.47 71.6771C701.543 76.8459 708.402 78.9425 715.451 78.9425V68.4702ZM699.963 52.983H710.436C710.436 50.8768 711.118 47.9743 713.027 44.3422L703.756 39.4712L694.486 34.6003C691.495 40.2921 689.491 46.5555 689.491 52.983H699.963ZM703.756 39.4712L705.111 29.087L690.572 27.1906L689.217 37.5748L687.863 47.9591L702.402 49.8555L703.756 39.4712ZM689.217 37.5748L678.928 35.6274L673.08 66.5228L683.37 68.4702L693.66 70.4176L699.507 39.5222L689.217 37.5748ZM683.37 68.4702V57.998H674.678V68.4702V78.9425H683.37V68.4702ZM755.579 33.9401L747.371 40.4442C750.139 43.9368 754.814 45.2953 759.022 43.8299C763.231 42.3646 766.051 38.3964 766.051 33.9401H755.579ZM755.579 28.1719V17.6997C749.795 17.6997 745.106 22.3882 745.106 28.1719H755.579ZM764.428 28.1719H774.901C774.901 22.3882 770.212 17.6997 764.428 17.6997V28.1719ZM768.853 59.9365H779.326C779.326 54.1528 774.637 49.4642 768.853 49.4642V59.9365ZM768.853 68.4702V78.9425C774.637 78.9425 779.326 74.2539 779.326 68.4702H768.853ZM756.132 62.0699L766.208 59.2181C765.121 55.3769 761.944 52.4878 758.018 51.7689C754.091 51.05 750.097 52.6262 747.719 55.8331L756.132 62.0699ZM741.435 69.4184V58.9462C736.47 58.9462 732.074 55.1984 732.074 48.3211H721.602H711.129C711.129 65.4647 723.643 79.8906 741.435 79.8906V69.4184ZM721.602 48.3211H732.074C732.074 41.4438 736.47 37.6959 741.435 37.6959V27.2237V16.7515C723.643 16.7515 711.129 31.1774 711.129 48.3211H721.602ZM741.435 27.2237V37.6959C744.137 37.6959 746.023 38.7432 747.371 40.4442L755.579 33.9401L763.786 27.436C758.497 20.7613 750.584 16.7515 741.435 16.7515V27.2237ZM755.579 33.9401H766.051V28.1719H755.579H745.106V33.9401H755.579ZM755.579 28.1719V38.6441H764.428V28.1719V17.6997H755.579V28.1719ZM764.428 28.1719H753.956V56.2227H764.428H774.901V28.1719H764.428ZM764.428 56.2227H753.956C753.956 59.3969 754.92 63.2253 757.934 66.2862C760.975 69.3741 764.847 70.4087 768.142 70.4087V59.9365V49.4642C769.066 49.4642 771.082 49.7877 772.859 51.5915C774.608 53.3684 774.901 55.34 774.901 56.2227H764.428ZM768.142 59.9365V70.4087H768.853V59.9365V49.4642H768.142V59.9365ZM768.853 59.9365H758.381V68.4702H768.853H779.326V59.9365H768.853ZM768.853 68.4702V57.998H766.325V68.4702V78.9425H768.853V68.4702ZM766.325 68.4702V57.998C765.627 57.998 765.219 57.9271 765.039 57.8833C764.869 57.8419 764.956 57.8384 765.181 57.9803C765.423 58.1328 765.693 58.3714 765.916 58.678C766.133 58.9755 766.202 59.195 766.208 59.2181L756.132 62.0699L746.055 64.9217C747.296 69.3074 749.951 73.1395 754.016 75.7007C757.882 78.1362 762.248 78.9425 766.325 78.9425V68.4702ZM756.132 62.0699L747.719 55.8331C746.248 57.817 744.201 58.9462 741.435 58.9462V69.4184V79.8906C750.995 79.8906 759.22 75.4888 764.544 68.3067L756.132 62.0699ZM743.173 60.8847V71.3569C756.242 71.3569 766.051 61.0407 766.051 48.3211H755.579H745.106C745.106 49.2239 744.797 49.7018 744.572 49.9305C744.361 50.1457 743.965 50.4124 743.173 50.4124V60.8847ZM755.579 48.3211H766.051C766.051 35.6015 756.242 25.2852 743.173 25.2852V35.7575V46.2297C743.965 46.2297 744.361 46.4965 744.572 46.7116C744.797 46.9403 745.106 47.4182 745.106 48.3211H755.579ZM743.173 35.7575V25.2852C730.069 25.2852 720.216 35.5571 720.216 48.3211H730.688H741.161C741.161 47.42 741.468 46.9513 741.688 46.7282C741.895 46.5189 742.31 46.2297 743.173 46.2297V35.7575ZM730.688 48.3211H720.216C720.216 61.085 730.069 71.3569 743.173 71.3569V60.8847V50.4124C742.31 50.4124 741.895 50.1232 741.688 49.9139C741.468 49.6909 741.161 49.2221 741.161 48.3211H730.688ZM807.514 33.624L799.574 40.4523C802.429 43.7726 807.049 44.9655 811.155 43.4428C815.261 41.92 817.986 38.0032 817.986 33.624H807.514ZM807.514 28.1719V17.6997C801.73 17.6997 797.042 22.3882 797.042 28.1719H807.514ZM816.364 28.1719H826.836C826.836 22.3882 822.147 17.6997 816.364 17.6997V28.1719ZM775.828 70.2876V59.8154C772.72 59.8154 769.773 61.1961 767.783 63.584C765.793 65.972 764.967 69.1204 765.528 72.1776L775.828 70.2876ZM784.915 70.2876L794.763 66.7256C793.263 62.5784 789.325 59.8154 784.915 59.8154V70.2876ZM807.514 61.0427H817.986C817.986 56.6447 815.238 52.7153 811.107 51.2063C806.976 49.6972 802.343 50.93 799.508 54.2923L807.514 61.0427ZM793.291 67.443V56.9708C787.884 56.9708 783.93 53.1563 783.93 47.3729H773.458H762.986C762.986 64.5042 776.099 77.9152 793.291 77.9152V67.443ZM773.458 47.3729H783.93C783.93 41.5348 787.938 37.6959 793.291 37.6959V27.2237V16.7515C776.045 16.7515 762.986 30.2962 762.986 47.3729H773.458ZM793.291 27.2237V37.6959C796.117 37.6959 798.134 38.7775 799.574 40.4523L807.514 33.624L815.454 26.7957C810.099 20.5689 802.317 16.7515 793.291 16.7515V27.2237ZM807.514 33.624H817.986V28.1719H807.514H797.042V33.624H807.514ZM807.514 28.1719V38.6441H816.364V28.1719V17.6997H807.514V28.1719ZM816.364 28.1719H805.892V64.1243H816.364H826.836V28.1719H816.364ZM816.364 64.1243H805.892C805.892 67.8413 804.696 70.0852 803.361 71.3946C802.007 72.7227 799.618 73.9593 795.661 73.9593V84.4315V94.9038C804.19 94.9038 812.151 92.1105 818.027 86.3469C823.923 80.5646 826.836 72.6549 826.836 64.1243H816.364ZM795.661 84.4315V73.9593C788.889 73.9593 786.554 70.7166 786.129 68.3976L775.828 70.2876L765.528 72.1776C768.263 87.0842 781.731 94.9038 795.661 94.9038V84.4315ZM775.828 70.2876V80.7598H784.915V70.2876V59.8154H775.828V70.2876ZM784.915 70.2876L775.067 73.8496C778.415 83.1054 787.81 86.9231 795.74 86.9231V76.4509V65.9787C794.73 65.9787 794.188 65.736 794.067 65.6665C793.957 65.6043 794.45 65.8598 794.763 66.7256L784.915 70.2876ZM795.74 76.4509V86.9231C801.584 86.9231 807.371 84.9943 811.717 80.628C816.062 76.2621 817.986 70.4439 817.986 64.5194H807.514H797.042C797.042 65.2516 796.926 65.654 796.868 65.8095C796.815 65.9503 796.797 65.9279 796.871 65.8536C796.945 65.7794 796.979 65.7858 796.87 65.827C796.747 65.8738 796.395 65.9787 795.74 65.9787V76.4509ZM807.514 64.5194H817.986V61.0427H807.514H797.042V64.5194H807.514ZM807.514 61.0427L799.508 54.2923C798.15 55.9024 796.209 56.9708 793.291 56.9708V67.443V77.9152C802.225 77.9152 810.082 74.2426 815.52 67.7931L807.514 61.0427ZM795.029 58.9883V69.4605C807.187 69.4605 817.986 60.5048 817.986 47.3729H807.514H797.042C797.042 47.602 796.999 47.7221 796.975 47.7771C796.948 47.8377 796.903 47.9119 796.81 47.998C796.643 48.1532 796.12 48.516 795.029 48.516V58.9883ZM807.514 47.3729H817.986C817.986 34.3311 807.284 25.2062 795.029 25.2062V35.6784V46.1507C796.074 46.1507 796.59 46.5017 796.774 46.6744C796.876 46.7703 796.932 46.8591 796.967 46.9376C796.999 47.0106 797.042 47.1428 797.042 47.3729H807.514ZM795.029 35.6784V25.2062C782.775 25.2062 772.073 34.3311 772.073 47.3729H782.545H793.017C793.017 47.1428 793.06 47.0106 793.092 46.9376C793.126 46.8591 793.183 46.7703 793.285 46.6744C793.469 46.5017 793.985 46.1507 795.029 46.1507V35.6784ZM782.545 47.3729H772.073C772.073 60.5048 782.872 69.4605 795.029 69.4605V58.9883V48.516C793.938 48.516 793.416 48.1532 793.249 47.998C793.156 47.9119 793.11 47.8377 793.084 47.7771C793.06 47.7221 793.017 47.602 793.017 47.3729H782.545ZM826.757 68.4702H816.285C816.285 74.2539 820.973 78.9425 826.757 78.9425V68.4702ZM826.757 28.1719V17.6997C820.973 17.6997 816.285 22.3882 816.285 28.1719H826.757ZM835.607 28.1719H846.079C846.079 22.3882 841.39 17.6997 835.607 17.6997V28.1719ZM835.607 68.4702V78.9425C841.39 78.9425 846.079 74.2539 846.079 68.4702H835.607ZM831.182 21.6925V11.2203C832.375 11.2203 833.637 11.7086 834.597 12.6677C835.556 13.6269 836.044 14.8891 836.044 16.0824H825.572H815.099C815.099 25.0267 822.238 32.1648 831.182 32.1648V21.6925ZM825.572 16.0824H836.044C836.044 17.1871 835.588 18.4854 834.56 19.5038C833.547 20.5073 832.275 20.9444 831.182 20.9444V10.4722V-9.53674e-07C822.335 -9.53674e-07 815.099 6.96202 815.099 16.0824H825.572ZM831.182 10.4722V20.9444C830.195 20.9444 828.944 20.5541 827.909 19.5396C826.859 18.5095 826.399 17.1913 826.399 16.0824H836.871H847.343C847.343 6.86642 840.011 -9.53674e-07 831.182 -9.53674e-07V10.4722ZM836.871 16.0824H826.399C826.399 14.8847 826.892 13.603 827.873 12.6317C828.854 11.6597 830.096 11.2203 831.182 11.2203V21.6925V32.1648C840.109 32.1648 847.343 25.1228 847.343 16.0824H836.871ZM826.757 68.4702H837.229V28.1719H826.757H816.285V68.4702H826.757ZM826.757 28.1719V38.6441H835.607V28.1719V17.6997H826.757V28.1719ZM835.607 28.1719H825.135V68.4702H835.607H846.079V28.1719H835.607ZM835.607 68.4702V57.998H826.757V68.4702V78.9425H835.607V68.4702ZM843.282 68.4702L833.009 66.4403C832.401 69.514 833.202 72.6982 835.191 75.1189C837.181 77.5396 840.149 78.9425 843.282 78.9425V68.4702ZM849.762 35.6784L860.035 37.7084C860.883 33.4177 858.975 29.0519 855.25 26.7597L849.762 35.6784ZM858.691 29.2781L848.248 30.0613C848.624 35.0729 852.507 39.1109 857.5 39.6824L858.691 29.2781ZM884.924 32.2807H895.396C895.396 26.9578 891.403 22.4817 886.115 21.8764L884.924 32.2807ZM884.924 34.4142L893.494 40.4333C894.732 38.6704 895.396 36.5685 895.396 34.4142H884.924ZM886.425 59.9365H896.898C896.898 54.1528 892.209 49.4642 886.425 49.4642V59.9365ZM886.425 68.4702V78.9425C892.209 78.9425 896.898 74.2539 896.898 68.4702H886.425ZM872.36 39.4712L881.631 44.3422C883.224 41.3093 883.234 37.6888 881.656 34.6479C880.078 31.6069 877.112 29.5301 873.715 29.087L872.36 39.4712ZM857.821 37.5748L859.176 27.1906C853.672 26.4727 848.564 30.1738 847.532 35.6274L857.821 37.5748ZM851.974 68.4702V78.9425C857.007 78.9425 861.328 75.3625 862.264 70.4176L851.974 68.4702ZM843.282 68.4702L853.556 70.5002L860.035 37.7084L849.762 35.6784L839.488 33.6485L833.009 66.4403L843.282 68.4702ZM849.762 35.6784L855.25 26.7597C856.359 27.4423 856.915 28.5649 856.915 29.6732H846.443H835.971C835.971 35.6806 839.055 41.3861 844.273 44.5972L849.762 35.6784ZM846.443 29.6732H856.915C856.915 30.3801 856.625 31.7361 855.417 32.921C854.222 34.0937 852.948 34.2982 852.448 34.2982V23.826V13.3538C848.314 13.3538 844.038 14.7436 840.749 17.9707C837.447 21.21 835.971 25.4896 835.971 29.6732H846.443ZM852.448 23.826V34.2982C852.018 34.2982 850.925 34.1281 849.842 33.1543C848.756 32.1776 848.315 30.9548 848.248 30.0613L858.691 29.2781L869.133 28.4949C868.829 24.4408 867.085 20.4919 863.845 17.5793C860.609 14.6696 856.513 13.3538 852.448 13.3538V23.826ZM858.691 29.2781L857.5 39.6824L883.733 42.685L884.924 32.2807L886.115 21.8764L859.881 18.8738L858.691 29.2781ZM884.924 32.2807H874.452V34.4142H884.924H895.396V32.2807H884.924ZM884.924 34.4142L876.354 28.3951C871.342 35.5309 867.182 43.6719 867.182 51.9558H877.655H888.127C888.127 50.2837 889.182 46.5722 893.494 40.4333L884.924 34.4142ZM877.655 51.9558H867.182C867.182 56.2543 868.334 61.0472 871.799 64.8729C875.391 68.8377 880.239 70.4087 884.845 70.4087V59.9365V49.4642C884.848 49.4642 885.179 49.4654 885.701 49.6737C886.252 49.8933 886.835 50.2741 887.322 50.8122C888.318 51.9118 888.127 52.7144 888.127 51.9558H877.655ZM884.845 59.9365V70.4087H886.425V59.9365V49.4642H884.845V59.9365ZM886.425 59.9365H875.953V68.4702H886.425H896.898V59.9365H886.425ZM886.425 68.4702V57.998H884.055V68.4702V78.9425H886.425V68.4702ZM884.055 68.4702V57.998C881.069 57.998 880.184 57.171 880.022 57.0062C879.828 56.8082 879.04 55.8697 879.04 52.983H868.568H858.095C858.095 59.7363 860.034 66.5415 865.074 71.6771C870.147 76.8459 877.006 78.9425 884.055 78.9425V68.4702ZM868.568 52.983H879.04C879.04 50.8768 879.722 47.9743 881.631 44.3422L872.36 39.4712L863.09 34.6003C860.099 40.2921 858.095 46.5555 858.095 52.983H868.568ZM872.36 39.4712L873.715 29.087L859.176 27.1906L857.821 37.5748L856.467 47.9591L871.006 49.8555L872.36 39.4712ZM857.821 37.5748L847.532 35.6274L841.685 66.5228L851.974 68.4702L862.264 70.4176L868.111 39.5222L857.821 37.5748ZM851.974 68.4702V57.998H843.282V68.4702V78.9425H851.974V68.4702ZM86.1925 135.72V146.192C89.2856 146.192 92.2205 144.825 94.2103 142.457C96.2001 140.089 97.0411 136.962 96.5079 133.915L86.1925 135.72ZM71.3174 135.72L61.3313 138.874C62.7071 143.23 66.7486 146.192 71.3174 146.192V135.72ZM71.3174 151.47V140.998C66.7486 140.998 62.7071 143.96 61.3313 148.317L71.3174 151.47ZM86.1925 151.47L96.5079 153.275C97.0411 150.229 96.2001 147.102 94.2103 144.734C92.2205 142.365 89.2856 140.998 86.1925 140.998V151.47ZM53.8174 176.97V166.498C39.8954 166.498 30.1647 156.608 30.1647 143.595H19.6924H9.22022C9.22022 168.582 28.7395 187.442 53.8174 187.442V176.97ZM19.6924 143.595H30.1647C30.1647 130.582 39.8954 120.692 53.8174 120.692V110.22V99.748C28.7395 99.748 9.22022 118.608 9.22022 143.595H19.6924ZM53.8174 110.22V120.692C65.9011 120.692 74.2198 128.056 75.877 137.525L86.1925 135.72L96.5079 133.915C92.9151 113.385 74.9838 99.748 53.8174 99.748V110.22ZM86.1925 135.72V125.248H71.3174V135.72V146.192H86.1925V135.72ZM71.3174 135.72L81.3036 132.567C77.54 120.649 66.2869 113.248 53.8174 113.248V123.72V134.192C58.098 134.192 60.5948 136.542 61.3313 138.874L71.3174 135.72ZM53.8174 123.72V113.248C36.697 113.248 23.5952 126.649 23.5952 143.595H34.0674H44.5397C44.5397 138.042 48.4379 134.192 53.8174 134.192V123.72ZM34.0674 143.595H23.5952C23.5952 160.542 36.697 173.942 53.8174 173.942V163.47V152.998C48.4379 152.998 44.5397 149.149 44.5397 143.595H34.0674ZM53.8174 163.47V173.942C66.2868 173.942 77.54 166.542 81.3036 154.624L71.3174 151.47L61.3313 148.317C60.5948 150.649 58.098 152.998 53.8174 152.998V163.47ZM71.3174 151.47V161.942H86.1925V151.47V140.998H71.3174V151.47ZM86.1925 151.47L75.877 149.665C74.2198 159.135 65.9011 166.498 53.8174 166.498V176.97V187.442C74.9838 187.442 92.9151 173.806 96.5079 153.275L86.1925 151.47ZM128.891 176.97V166.498C114.969 166.498 105.238 156.608 105.238 143.595H94.7657H84.2935C84.2935 168.582 103.813 187.442 128.891 187.442V176.97ZM94.7657 143.595H105.238C105.238 130.582 114.969 120.692 128.891 120.692V110.22V99.748C103.813 99.748 84.2935 118.608 84.2935 143.595H94.7657ZM128.891 110.22V120.692C142.713 120.692 152.543 130.607 152.543 143.595H163.016H173.488C173.488 118.583 153.818 99.748 128.891 99.748V110.22ZM163.016 143.595H152.543C152.543 156.583 142.713 166.498 128.891 166.498V176.97V187.442C153.818 187.442 173.488 168.607 173.488 143.595H163.016ZM128.891 163.47V173.942C146.098 173.942 158.988 160.453 158.988 143.595H148.516H138.043C138.043 149.237 134.183 152.998 128.891 152.998V163.47ZM148.516 143.595H158.988C158.988 126.737 146.098 113.248 128.891 113.248V123.72V134.192C134.183 134.192 138.043 137.953 138.043 143.595H148.516ZM128.891 123.72V113.248C111.77 113.248 98.6685 126.649 98.6685 143.595H109.141H119.613C119.613 138.042 123.511 134.192 128.891 134.192V123.72ZM109.141 143.595H98.6685C98.6685 160.542 111.77 173.942 128.891 173.942V163.47V152.998C123.511 152.998 119.613 149.149 119.613 143.595H109.141ZM175.667 175.47H165.195C165.195 181.254 169.883 185.942 175.667 185.942V175.47ZM175.667 111.72V101.248C169.883 101.248 165.195 105.937 165.195 111.72H175.667ZM189.667 111.72H200.139C200.139 105.937 195.451 101.248 189.667 101.248V111.72ZM189.667 119.095H179.195C179.195 123.512 181.967 127.455 186.123 128.95C190.28 130.444 194.927 129.17 197.741 125.765L189.667 119.095ZM230.167 121.845L220.865 126.656C222.579 129.969 225.924 132.12 229.649 132.305C233.373 132.489 236.915 130.679 238.947 127.552L230.167 121.845ZM283.292 161.97H293.764C293.764 156.187 289.076 151.498 283.292 151.498V161.97ZM283.292 175.47V185.942C289.076 185.942 293.764 181.254 293.764 175.47H283.292ZM232.917 175.47V185.942C238.701 185.942 243.389 181.254 243.389 175.47H232.917ZM218.917 175.47H208.445C208.445 181.254 213.133 185.942 218.917 185.942V175.47ZM189.667 175.47V185.942C195.451 185.942 200.139 181.254 200.139 175.47H189.667ZM175.667 175.47H186.139V111.72H175.667H165.195V175.47H175.667ZM175.667 111.72V122.192H189.667V111.72V101.248H175.667V111.72ZM189.667 111.72H179.195V119.095H189.667H200.139V111.72H189.667ZM189.667 119.095L197.741 125.765C200.357 122.598 204.056 120.692 209.417 120.692V110.22V99.748C198.278 99.748 188.478 104.092 181.593 112.426L189.667 119.095ZM209.417 110.22V120.692C215.621 120.692 219.13 123.302 220.865 126.656L230.167 121.845L239.469 117.034C233.704 105.889 222.463 99.748 209.417 99.748V110.22ZM230.167 121.845L238.947 127.552C241.744 123.249 246.06 120.692 252.667 120.692V110.22V99.748C239.525 99.748 228.34 105.441 221.387 116.138L230.167 121.845ZM252.667 110.22V120.692C257.319 120.692 260.373 122.207 262.253 124.116C264.148 126.039 265.695 129.223 265.695 134.095H276.167H286.639C286.639 124.593 283.499 115.839 277.175 109.418C270.836 102.984 262.14 99.748 252.667 99.748V110.22ZM276.167 134.095H265.695V156.095H276.167H286.639V134.095H276.167ZM276.167 156.095H265.695C265.695 160.098 266.981 164.438 270.34 167.797C273.699 171.156 278.039 172.442 282.042 172.442V161.97V151.498C282.42 151.498 283.822 151.659 285.15 152.987C286.478 154.315 286.639 155.718 286.639 156.095H276.167ZM282.042 161.97V172.442H283.292V161.97V151.498H282.042V161.97ZM283.292 161.97H272.82V175.47H283.292H293.764V161.97H283.292ZM283.292 175.47V164.998H279.167V175.47V185.942H283.292V175.47ZM279.167 175.47V164.998C275.249 164.998 273.997 164.013 273.733 163.761C273.548 163.585 272.639 162.643 272.639 159.22H262.167H251.695C251.695 166.422 253.723 173.606 259.257 178.898C264.713 184.115 271.961 185.942 279.167 185.942V175.47ZM262.167 159.22H272.639V138.22H262.167H251.695V159.22H262.167ZM262.167 138.22H272.639C272.639 131.636 270.534 125.225 265.859 120.401C261.149 115.541 254.753 113.248 248.042 113.248V123.72V134.192C249.956 134.192 250.622 134.774 250.819 134.977C251.05 135.216 251.695 136.054 251.695 138.22H262.167ZM248.042 123.72V113.248C241.234 113.248 234.7 115.507 229.811 120.252C224.891 125.028 222.445 131.542 222.445 138.47H232.917H243.389C243.389 136.524 244.006 135.662 244.398 135.282C244.821 134.871 245.85 134.192 248.042 134.192V123.72ZM232.917 138.47H222.445V175.47H232.917H243.389V138.47H232.917ZM232.917 175.47V164.998H218.917V175.47V185.942H232.917V175.47ZM218.917 175.47H229.389V138.22H218.917H208.445V175.47H218.917ZM218.917 138.22H229.389C229.389 131.636 227.284 125.225 222.609 120.401C217.899 115.541 211.503 113.248 204.792 113.248V123.72V134.192C206.706 134.192 207.372 134.774 207.569 134.977C207.8 135.216 208.445 136.054 208.445 138.22H218.917ZM204.792 123.72V113.248C197.984 113.248 191.45 115.507 186.561 120.252C181.641 125.028 179.195 131.542 179.195 138.47H189.667H200.139C200.139 136.524 200.756 135.662 201.148 135.282C201.571 134.871 202.6 134.192 204.792 134.192V123.72ZM189.667 138.47H179.195V175.47H189.667H200.139V138.47H189.667ZM189.667 175.47V164.998H175.667V175.47V185.942H189.667V175.47ZM352.279 176.97V166.498C338.357 166.498 328.627 156.608 328.627 143.595H318.154H307.682C307.682 168.582 327.201 187.442 352.279 187.442V176.97ZM318.154 143.595H328.627C328.627 130.582 338.357 120.692 352.279 120.692V110.22V99.748C327.201 99.748 307.682 118.608 307.682 143.595H318.154ZM352.279 110.22V120.692C366.102 120.692 375.932 130.607 375.932 143.595H386.404H396.877C396.877 118.583 377.207 99.748 352.279 99.748V110.22ZM386.404 143.595H375.932C375.932 156.583 366.102 166.498 352.279 166.498V176.97V187.442C377.207 187.442 396.877 168.607 396.877 143.595H386.404ZM352.279 163.47V173.942C369.487 173.942 382.377 160.453 382.377 143.595H371.904H361.432C361.432 149.237 357.572 152.998 352.279 152.998V163.47ZM371.904 143.595H382.377C382.377 126.737 369.487 113.248 352.279 113.248V123.72V134.192C357.572 134.192 361.432 137.953 361.432 143.595H371.904ZM352.279 123.72V113.248C335.159 113.248 322.057 126.649 322.057 143.595H332.529H343.002C343.002 138.042 346.9 134.192 352.279 134.192V123.72ZM332.529 143.595H322.057C322.057 160.542 335.159 173.942 352.279 173.942V163.47V152.998C346.9 152.998 343.002 149.149 343.002 143.595H332.529ZM428.597 175.47H418.125C418.125 181.254 422.813 185.942 428.597 185.942V175.47ZM428.597 111.72V101.248C422.813 101.248 418.125 105.937 418.125 111.72H428.597ZM442.597 111.72H453.069C453.069 105.937 448.38 101.248 442.597 101.248V111.72ZM442.597 119.095H432.125C432.125 123.512 434.896 127.455 439.053 128.95C443.21 130.444 447.857 129.17 450.67 125.765L442.597 119.095ZM483.097 121.845L473.795 126.656C475.508 129.969 478.854 132.12 482.578 132.305C486.303 132.489 489.845 130.679 491.877 127.552L483.097 121.845ZM536.222 161.97H546.694C546.694 156.187 542.005 151.498 536.222 151.498V161.97ZM536.222 175.47V185.942C542.005 185.942 546.694 181.254 546.694 175.47H536.222ZM485.847 175.47V185.942C491.63 185.942 496.319 181.254 496.319 175.47H485.847ZM471.847 175.47H461.375C461.375 181.254 466.063 185.942 471.847 185.942V175.47ZM442.597 175.47V185.942C448.38 185.942 453.069 181.254 453.069 175.47H442.597ZM428.597 175.47H439.069V111.72H428.597H418.125V175.47H428.597ZM428.597 111.72V122.192H442.597V111.72V101.248H428.597V111.72ZM442.597 111.72H432.125V119.095H442.597H453.069V111.72H442.597ZM442.597 119.095L450.67 125.765C453.286 122.598 456.986 120.692 462.347 120.692V110.22V99.748C451.208 99.748 441.407 104.092 434.523 112.426L442.597 119.095ZM462.347 110.22V120.692C468.551 120.692 472.06 123.302 473.795 126.656L483.097 121.845L492.398 117.034C486.634 105.889 475.393 99.748 462.347 99.748V110.22ZM483.097 121.845L491.877 127.552C494.674 123.249 498.989 120.692 505.597 120.692V110.22V99.748C492.454 99.748 481.269 105.441 474.316 116.138L483.097 121.845ZM505.597 110.22V120.692C510.249 120.692 513.302 122.207 515.183 124.116C517.077 126.039 518.625 129.223 518.625 134.095H529.097H539.569C539.569 124.593 536.429 115.839 530.104 109.418C523.766 102.984 515.07 99.748 505.597 99.748V110.22ZM529.097 134.095H518.625V156.095H529.097H539.569V134.095H529.097ZM529.097 156.095H518.625C518.625 160.098 519.911 164.438 523.27 167.797C526.629 171.156 530.969 172.442 534.972 172.442V161.97V151.498C535.349 151.498 536.752 151.659 538.08 152.987C539.408 154.315 539.569 155.718 539.569 156.095H529.097ZM534.972 161.97V172.442H536.222V161.97V151.498H534.972V161.97ZM536.222 161.97H525.75V175.47H536.222H546.694V161.97H536.222ZM536.222 175.47V164.998H532.097V175.47V185.942H536.222V175.47ZM532.097 175.47V164.998C528.178 164.998 526.926 164.013 526.663 163.761C526.478 163.585 525.569 162.643 525.569 159.22H515.097H504.625C504.625 166.422 506.653 173.606 512.187 178.898C517.642 184.115 524.89 185.942 532.097 185.942V175.47ZM515.097 159.22H525.569V138.22H515.097H504.625V159.22H515.097ZM515.097 138.22H525.569C525.569 131.636 523.464 125.225 518.789 120.401C514.079 115.541 507.683 113.248 500.972 113.248V123.72V134.192C502.886 134.192 503.552 134.774 503.749 134.977C503.98 135.216 504.625 136.054 504.625 138.22H515.097ZM500.972 123.72V113.248C494.164 113.248 487.63 115.507 482.741 120.252C477.82 125.028 475.375 131.542 475.375 138.47H485.847H496.319C496.319 136.524 496.936 135.662 497.328 135.282C497.751 134.871 498.78 134.192 500.972 134.192V123.72ZM485.847 138.47H475.375V175.47H485.847H496.319V138.47H485.847ZM485.847 175.47V164.998H471.847V175.47V185.942H485.847V175.47ZM471.847 175.47H482.319V138.22H471.847H461.375V175.47H471.847ZM471.847 138.22H482.319C482.319 131.636 480.214 125.225 475.539 120.401C470.829 115.541 464.432 113.248 457.722 113.248V123.72V134.192C459.636 134.192 460.302 134.774 460.499 134.977C460.73 135.216 461.375 136.054 461.375 138.22H471.847ZM457.722 123.72V113.248C450.914 113.248 444.38 115.507 439.491 120.252C434.57 125.028 432.125 131.542 432.125 138.47H442.597H453.069C453.069 136.524 453.686 135.662 454.078 135.282C454.501 134.871 455.53 134.192 457.722 134.192V123.72ZM442.597 138.47H432.125V175.47H442.597H453.069V138.47H442.597ZM442.597 175.47V164.998H428.597V175.47V185.942H442.597V175.47ZM544.787 111.72V101.248C539.004 101.248 534.315 105.937 534.315 111.72H544.787ZM558.787 111.72H569.259C569.259 105.937 564.571 101.248 558.787 101.248V111.72ZM589.537 111.72V101.248C583.754 101.248 579.065 105.937 579.065 111.72H589.537ZM603.537 111.72H614.009C614.009 105.937 609.321 101.248 603.537 101.248V111.72ZM610.662 161.97H621.134C621.134 156.187 616.446 151.498 610.662 151.498V161.97ZM610.662 175.47V185.942C616.446 185.942 621.134 181.254 621.134 175.47H610.662ZM590.662 166.22L600.534 162.724C599.223 159.023 595.952 156.366 592.061 155.842C588.17 155.317 584.312 157.014 582.069 160.235L590.662 166.22ZM569.162 176.97V166.498C564.232 166.498 560.951 164.902 558.922 162.858C556.888 160.809 555.259 157.45 555.259 152.345H544.787H534.315C534.315 162.116 537.561 171.069 544.058 177.614C550.56 184.164 559.468 187.442 569.162 187.442V176.97ZM544.787 152.345H555.259V111.72H544.787H534.315V152.345H544.787ZM544.787 111.72V122.192H558.787V111.72V101.248H544.787V111.72ZM558.787 111.72H548.315V148.22H558.787H569.259V111.72H558.787ZM558.787 148.22H548.315C548.315 155.055 550.552 161.634 555.336 166.561C560.15 171.521 566.709 173.942 573.662 173.942V163.47V152.998C571.615 152.998 570.737 152.357 570.364 151.973C569.96 151.557 569.259 150.511 569.259 148.22H558.787ZM573.662 163.47V173.942C580.747 173.942 587.475 171.572 592.483 166.678C597.51 161.764 600.009 155.075 600.009 147.97H589.537H579.065C579.065 150.115 578.377 151.177 577.842 151.7C577.287 152.243 576.078 152.998 573.662 152.998V163.47ZM589.537 147.97H600.009V111.72H589.537H579.065V147.97H589.537ZM589.537 111.72V122.192H603.537V111.72V101.248H589.537V111.72ZM603.537 111.72H593.065V156.095H603.537H614.009V111.72H603.537ZM603.537 156.095H593.065C593.065 160.098 594.351 164.438 597.71 167.797C601.069 171.156 605.41 172.442 609.412 172.442V161.97V151.498C609.79 151.498 611.192 151.659 612.52 152.987C613.848 154.315 614.009 155.718 614.009 156.095H603.537ZM609.412 161.97V172.442H610.662V161.97V151.498H609.412V161.97ZM610.662 161.97H600.19V175.47H610.662H621.134V161.97H610.662ZM610.662 175.47V164.998H606.537V175.47V185.942H610.662V175.47ZM606.537 175.47V164.998C603.636 164.998 602.176 164.428 601.566 164.069C601.124 163.809 600.809 163.503 600.534 162.724L590.662 166.22L580.791 169.716C582.64 174.938 586.075 179.256 590.946 182.122C595.648 184.887 601.064 185.942 606.537 185.942V175.47ZM590.662 166.22L582.069 160.235C579.292 164.222 575.24 166.498 569.162 166.498V176.97V187.442C581.585 187.442 592.282 182.218 599.256 172.205L590.662 166.22ZM620.857 175.47H610.385C610.385 181.254 615.074 185.942 620.857 185.942V175.47ZM620.857 111.72V101.248C615.074 101.248 610.385 105.937 610.385 111.72H620.857ZM634.857 111.72H645.33C645.33 105.937 640.641 101.248 634.857 101.248V111.72ZM634.857 119.845H624.385C624.385 124.269 627.166 128.216 631.331 129.706C635.497 131.196 640.15 129.907 642.955 126.485L634.857 119.845ZM688.607 161.97H699.08C699.08 156.187 694.391 151.498 688.607 151.498V161.97ZM688.607 175.47V185.942C694.391 185.942 699.08 181.254 699.08 175.47H688.607ZM634.857 175.47V185.942C640.641 185.942 645.33 181.254 645.33 175.47H634.857ZM620.857 175.47H631.33V111.72H620.857H610.385V175.47H620.857ZM620.857 111.72V122.192H634.857V111.72V101.248H620.857V111.72ZM634.857 111.72H624.385V119.845H634.857H645.33V111.72H634.857ZM634.857 119.845L642.955 126.485C645.909 122.883 650.196 120.692 656.357 120.692V110.22V99.748C644.519 99.748 634.056 104.307 626.76 113.205L634.857 119.845ZM656.357 110.22V120.692C661.567 120.692 665.089 122.371 667.276 124.542C669.454 126.705 671.135 130.178 671.135 135.345H681.607H692.08C692.08 125.387 688.699 116.298 682.033 109.68C675.376 103.069 666.273 99.748 656.357 99.748V110.22ZM681.607 135.345H671.135V156.095H681.607H692.08V135.345H681.607ZM681.607 156.095H671.135C671.135 159.934 672.292 164.264 675.603 167.68C678.959 171.142 683.34 172.442 687.357 172.442V161.97V151.498C687.75 151.498 689.256 151.673 690.643 153.104C691.986 154.489 692.08 155.882 692.08 156.095H681.607ZM687.357 161.97V172.442H688.607V161.97V151.498H687.357V161.97ZM688.607 161.97H678.135V175.47H688.607H699.08V161.97H688.607ZM688.607 175.47V164.998H684.607V175.47V185.942H688.607V175.47ZM684.607 175.47V164.998C680.689 164.998 679.437 164.013 679.173 163.761C678.989 163.585 678.08 162.643 678.08 159.22H667.607H657.135C657.135 166.422 659.164 173.606 664.698 178.898C670.153 184.115 677.401 185.942 684.607 185.942V175.47ZM667.607 159.22H678.08V139.97H667.607H657.135V159.22H667.607ZM667.607 139.97H678.08C678.08 132.833 675.755 125.996 670.787 120.888C665.789 115.749 658.976 113.248 651.732 113.248V123.72V134.192C654.114 134.192 655.239 134.942 655.772 135.49C656.335 136.069 657.135 137.357 657.135 139.97H667.607ZM651.732 123.72V113.248C644.349 113.248 637.362 115.704 632.173 120.783C626.964 125.882 624.385 132.826 624.385 140.22H634.857H645.33C645.33 137.74 646.126 136.434 646.823 135.751C647.54 135.049 648.991 134.192 651.732 134.192V123.72ZM634.857 140.22H624.385V175.47H634.857H645.33V140.22H634.857ZM634.857 175.47V164.998H620.857V175.47V185.942H634.857V175.47ZM748.619 120.845L740.412 127.349C743.179 130.842 747.854 132.2 752.063 130.735C756.271 129.27 759.091 125.302 759.091 120.845H748.619ZM748.619 85.4702V74.998C742.836 74.998 738.147 79.6866 738.147 85.4702H748.619ZM762.619 85.4702H773.091C773.091 79.6866 768.403 74.998 762.619 74.998V85.4702ZM769.619 161.97H780.091C780.091 156.187 775.403 151.498 769.619 151.498V161.97ZM769.619 175.47V185.942C775.403 185.942 780.091 181.254 780.091 175.47H769.619ZM749.494 165.345L759.571 162.493C758.484 158.652 755.307 155.763 751.38 155.044C747.453 154.325 743.459 155.901 741.082 159.108L749.494 165.345ZM726.244 176.97V166.498C714.658 166.498 705.341 157.462 705.341 143.595H694.869H684.397C684.397 167.728 701.831 187.442 726.244 187.442V176.97ZM694.869 143.595H705.341C705.341 129.728 714.658 120.692 726.244 120.692V110.22V99.748C701.831 99.748 684.397 119.462 684.397 143.595H694.869ZM726.244 110.22V120.692C732.396 120.692 737.132 123.211 740.412 127.349L748.619 120.845L756.827 114.341C749.606 105.229 738.843 99.748 726.244 99.748V110.22ZM748.619 120.845H759.091V85.4702H748.619H738.147V120.845H748.619ZM748.619 85.4702V95.9425H762.619V85.4702V74.998H748.619V85.4702ZM762.619 85.4702H752.147V156.095H762.619H773.091V85.4702H762.619ZM762.619 156.095H752.147C752.147 159.936 753.307 164.305 756.688 167.739C760.097 171.201 764.51 172.442 768.494 172.442V161.97V151.498C768.729 151.498 770.204 151.615 771.613 153.045C772.994 154.448 773.091 155.879 773.091 156.095H762.619ZM768.494 161.97V172.442H769.619V161.97V151.498H768.494V161.97ZM769.619 161.97H759.147V175.47H769.619H780.091V161.97H769.619ZM769.619 175.47V164.998H765.619V175.47V185.942H769.619V175.47ZM765.619 175.47V164.998C762.555 164.998 761.107 164.376 760.561 164.032C760.214 163.813 759.86 163.514 759.571 162.493L749.494 165.345L739.418 168.197C741.004 173.801 744.337 178.565 749.396 181.752C754.256 184.814 759.933 185.942 765.619 185.942V175.47ZM749.494 165.345L741.082 159.108C737.634 163.759 732.597 166.498 726.244 166.498V176.97V187.442C739.391 187.442 750.605 181.431 757.907 171.582L749.494 165.345ZM728.994 163.47V173.942C746.202 173.942 759.091 160.453 759.091 143.595H748.619H738.147C738.147 149.237 734.287 152.998 728.994 152.998V163.47ZM748.619 143.595H759.091C759.091 126.737 746.202 113.248 728.994 113.248V123.72V134.192C734.287 134.192 738.147 137.953 738.147 143.595H748.619ZM728.994 123.72V113.248C711.705 113.248 698.772 126.693 698.772 143.595H709.244H719.716C719.716 137.998 723.533 134.192 728.994 134.192V123.72ZM709.244 143.595H698.772C698.772 160.498 711.705 173.942 728.994 173.942V163.47V152.998C723.533 152.998 719.716 149.193 719.716 143.595H709.244ZM810.898 176.97V166.498C796.976 166.498 787.245 156.608 787.245 143.595H776.773H766.3C766.3 168.582 785.82 187.442 810.898 187.442V176.97ZM776.773 143.595H787.245C787.245 130.582 796.975 120.692 810.898 120.692V110.22V99.748C785.82 99.748 766.3 118.608 766.3 143.595H776.773ZM810.898 110.22V120.692C824.72 120.692 834.55 130.607 834.55 143.595H845.023H855.495C855.495 118.583 835.825 99.748 810.898 99.748V110.22ZM845.023 143.595H834.55C834.55 156.583 824.72 166.498 810.898 166.498V176.97V187.442C835.825 187.442 855.495 168.607 855.495 143.595H845.023ZM810.898 163.47V173.942C828.105 173.942 840.995 160.453 840.995 143.595H830.523H820.05C820.05 149.237 816.19 152.998 810.898 152.998V163.47ZM830.523 143.595H840.995C840.995 126.737 828.105 113.248 810.898 113.248V123.72V134.192C816.19 134.192 820.05 137.953 820.05 143.595H830.523ZM810.898 123.72V113.248C793.777 113.248 780.675 126.649 780.675 143.595H791.148H801.62C801.62 138.042 805.518 134.192 810.898 134.192V123.72ZM791.148 143.595H780.675C780.675 160.542 793.777 173.942 810.898 173.942V163.47V152.998C805.518 152.998 801.62 149.149 801.62 143.595H791.148ZM859.424 149.345L848.954 149.581C849.082 155.271 853.732 159.817 859.424 159.817V149.345ZM858.549 110.47H848.077C848.077 110.549 848.078 110.627 848.079 110.706L858.549 110.47ZM858.549 89.2202V78.748C852.765 78.748 848.077 83.4366 848.077 89.2202H858.549ZM873.424 89.2202H883.896C883.896 83.4366 879.208 78.748 873.424 78.748V89.2202ZM873.424 110.47L883.893 110.706C883.895 110.627 883.896 110.549 883.896 110.47H873.424ZM872.549 149.345V159.817C878.241 159.817 882.89 155.271 883.018 149.581L872.549 149.345ZM859.424 149.345L869.893 149.11L869.018 110.235L858.549 110.47L848.079 110.706L848.954 149.581L859.424 149.345ZM858.549 110.47H869.021V89.2202H858.549H848.077V110.47H858.549ZM858.549 89.2202V99.6924H873.424V89.2202V78.748H858.549V89.2202ZM873.424 89.2202H862.952V110.47H873.424H883.896V89.2202H873.424ZM873.424 110.47L862.954 110.235L862.079 149.11L872.549 149.345L883.018 149.581L883.893 110.706L873.424 110.47ZM872.549 149.345V138.873H859.424V149.345V159.817H872.549V149.345ZM865.924 176.47V165.998C865.868 165.998 865.918 165.99 866.037 166.038C866.152 166.085 866.29 166.168 866.42 166.297C866.55 166.426 866.646 166.574 866.706 166.719C866.735 166.789 866.752 166.851 866.762 166.898C866.771 166.945 866.771 166.971 866.771 166.97H856.299H845.827C845.827 178.219 854.731 186.942 865.924 186.942V176.47ZM856.299 166.97H866.771C866.771 166.969 866.771 166.989 866.764 167.027C866.757 167.064 866.743 167.112 866.721 167.167C866.674 167.28 866.598 167.402 866.487 167.514C866.376 167.626 866.247 167.71 866.12 167.763C865.989 167.818 865.91 167.817 865.924 167.817V157.345V146.873C854.551 146.873 845.827 155.901 845.827 166.97H856.299ZM865.924 157.345V167.817C865.938 167.817 865.859 167.818 865.727 167.763C865.601 167.71 865.472 167.626 865.36 167.514C865.25 167.402 865.173 167.28 865.127 167.167C865.104 167.112 865.091 167.064 865.084 167.027C865.077 166.989 865.077 166.969 865.077 166.97H875.549H886.021C886.021 155.901 877.297 146.873 865.924 146.873V157.345ZM875.549 166.97H865.077C865.077 166.971 865.077 166.945 865.086 166.898C865.095 166.851 865.112 166.789 865.141 166.719C865.201 166.574 865.298 166.426 865.428 166.297C865.558 166.168 865.695 166.085 865.811 166.038C865.93 165.99 865.98 165.998 865.924 165.998V176.47V186.942C877.117 186.942 886.021 178.219 886.021 166.97H875.549Z" fill="white" mask="url(#path-1-outside-1_3_58)"/>
</g>
<defs>
<filter id="filter0_d_3_58" x="0" y="0" width="900.823" height="189.254" filterUnits="userSpaceOnUse" color-interpolation-filters="sRGB">
<feFlood flood-opacity="0" result="BackgroundImageFix"/>
<feColorMatrix in="SourceAlpha" type="matrix" values="0 0 0 0 0 0 0 0 0 0 0 0 0 0 0 0 0 0 127 0" result="hardAlpha"/>
<feOffset dx="3.92517" dy="1.81162"/>
<feComposite in2="hardAlpha" operator="out"/>
<feColorMatrix type="matrix" values="0 0 0 0 0.0135968 0 0 0 0 0.0135968 0 0 0 0 0.0135968 0 0 0 0.1 0"/>
<feBlend mode="normal" in2="BackgroundImageFix" result="effect1_dropShadow_3_58"/>
<feBlend mode="normal" in="SourceGraphic" in2="effect1_dropShadow_3_58" result="shape"/>
</filter>
</defs>
</svg>
