<svg width="933" height="143" viewBox="0 0 933 143" fill="none" xmlns="http://www.w3.org/2000/svg">
<g filter="url(#filter0_d_68_8)">
<mask id="path-1-outside-1_68_8" maskUnits="userSpaceOnUse" x="-0.119934" y="-0.7229" width="928" height="131" fill="black">
<rect fill="white" x="-0.119934" y="-0.7229" width="928" height="131"/>
<path d="M51.6105 112.844C31.8956 112.844 17.2727 100.31 17.2727 84.2508H38.032C38.032 90.1261 44.1684 94.8263 51.8716 94.8263C58.7914 94.8263 64.5361 91.1706 64.5361 86.0787C64.5361 71.978 18.7089 78.1144 18.7089 47.563C18.7089 30.5899 32.9401 19.6228 51.0882 19.6228C69.7585 19.6228 83.9898 31.3733 83.9898 47.0407H63.2305C63.2305 41.6877 57.8774 37.6403 50.9577 37.6403C44.6907 37.6403 39.4682 40.7738 39.4682 45.8657C39.4682 60.0969 85.2954 52.3938 85.2954 83.7286C85.2954 101.354 70.5419 112.844 51.6105 112.844ZM129.159 112.844C108.661 112.844 93.2546 97.8292 93.2546 77.9839C93.2546 58.1385 108.661 43.1239 129.159 43.1239C149.657 43.1239 165.064 58.1385 165.064 77.9839C165.064 97.8292 149.657 112.844 129.159 112.844ZM129.159 94.4346C138.559 94.4346 145.479 87.3843 145.479 77.9839C145.479 68.5834 138.559 61.5331 129.159 61.5331C119.759 61.5331 112.839 68.5834 112.839 77.9839C112.839 87.3843 119.759 94.4346 129.159 94.4346ZM176.611 111.277V17.2726H195.673V51.3493C200.765 46.1268 207.685 43.1239 215.78 43.1239C234.189 43.1239 247.898 58.1385 247.898 77.9839C247.898 97.8292 234.189 112.844 215.78 112.844C207.685 112.844 200.765 109.841 195.673 104.618V111.277H176.611ZM211.993 94.4346C221.394 94.4346 228.314 87.3843 228.314 77.9839C228.314 68.5834 221.394 61.5331 211.993 61.5331C202.593 61.5331 195.673 68.5834 195.673 77.9839C195.673 87.3843 202.593 94.4346 211.993 94.4346ZM252.619 111.277L262.803 59.9663C259.148 57.4857 256.928 53.0466 256.928 48.2158C256.928 41.1654 261.889 36.3347 269.331 36.3347C276.382 36.3347 281.212 40.7738 281.996 46.649L323.123 51.3493V55.9189C315.942 65.8416 312.156 74.4587 312.156 81.7701C312.156 88.951 315.681 92.8679 322.339 92.8679H325.212V111.277H320.642C302.102 111.277 292.571 101.093 292.571 84.1203C292.571 78.3755 293.746 72.6308 296.488 66.7555L280.168 64.536L271.42 111.277H252.619ZM366.06 112.844C345.431 112.844 330.025 97.8292 330.025 77.9839C330.025 58.1385 345.431 43.1239 365.93 43.1239C386.297 43.1239 401.834 58.0079 401.834 78.245C401.834 79.9423 401.704 82.5535 401.312 84.1203H350.393C352.482 91.6928 358.488 96.5236 366.452 96.5236C372.719 96.5236 377.941 93.7818 380.422 90.2567H400.79C395.828 103.705 382.511 112.844 366.06 112.844ZM365.93 59.4441C358.357 59.4441 352.612 64.1443 350.523 71.4558H381.467C379.378 64.1443 373.502 59.4441 365.93 59.4441ZM473.414 112.844C452.915 112.844 437.509 97.8292 437.509 77.9839C437.509 58.1385 452.915 43.1239 473.414 43.1239C493.912 43.1239 509.318 58.1385 509.318 77.9839C509.318 97.8292 493.912 112.844 473.414 112.844ZM473.414 94.4346C482.814 94.4346 489.734 87.3843 489.734 77.9839C489.734 68.5834 482.814 61.5331 473.414 61.5331C464.013 61.5331 457.093 68.5834 457.093 77.9839C457.093 87.3843 464.013 94.4346 473.414 94.4346ZM593.553 112.844C566.396 112.844 545.898 92.7373 545.898 66.2333C545.898 39.7293 566.396 19.6228 593.553 19.6228C616.793 19.6228 635.333 34.5068 639.38 55.5272H617.837C614.443 45.7351 605.042 39.0765 593.553 39.0765C578.277 39.0765 566.657 50.6965 566.657 66.2333C566.657 81.7701 578.277 93.3901 593.553 93.3901C605.042 93.3901 614.443 86.7315 617.837 76.9394H639.38C635.333 97.9598 616.793 112.844 593.553 112.844ZM694.789 112.844C667.632 112.844 647.134 92.7373 647.134 66.2333C647.134 39.7293 667.632 19.6228 694.789 19.6228C721.946 19.6228 742.444 39.7293 742.444 66.2333C742.444 92.7373 721.946 112.844 694.789 112.844ZM694.789 93.3901C710.065 93.3901 721.685 81.7701 721.685 66.2333C721.685 50.6965 710.065 39.0765 694.789 39.0765C679.514 39.0765 667.894 50.6965 667.894 66.2333C667.894 81.7701 679.514 93.3901 694.789 93.3901ZM755.232 111.277V21.1895H815.029V40.2515H775.469V56.4412H810.721V75.5032H775.469V92.2151H815.682V111.277H755.232ZM828.801 111.277V21.1895H864.313C890.556 21.1895 910.271 40.5126 910.271 66.2333C910.271 91.954 890.556 111.277 864.313 111.277H828.801ZM863.791 40.2515H849.038V92.2151H863.791C878.545 92.2151 889.512 80.9868 889.512 66.2333C889.512 51.4798 878.545 40.2515 863.791 40.2515Z"/>
</mask>
<path d="M51.6105 112.844C31.8956 112.844 17.2727 100.31 17.2727 84.2508H38.032C38.032 90.1261 44.1684 94.8263 51.8716 94.8263C58.7914 94.8263 64.5361 91.1706 64.5361 86.0787C64.5361 71.978 18.7089 78.1144 18.7089 47.563C18.7089 30.5899 32.9401 19.6228 51.0882 19.6228C69.7585 19.6228 83.9898 31.3733 83.9898 47.0407H63.2305C63.2305 41.6877 57.8774 37.6403 50.9577 37.6403C44.6907 37.6403 39.4682 40.7738 39.4682 45.8657C39.4682 60.0969 85.2954 52.3938 85.2954 83.7286C85.2954 101.354 70.5419 112.844 51.6105 112.844ZM129.159 112.844C108.661 112.844 93.2546 97.8292 93.2546 77.9839C93.2546 58.1385 108.661 43.1239 129.159 43.1239C149.657 43.1239 165.064 58.1385 165.064 77.9839C165.064 97.8292 149.657 112.844 129.159 112.844ZM129.159 94.4346C138.559 94.4346 145.479 87.3843 145.479 77.9839C145.479 68.5834 138.559 61.5331 129.159 61.5331C119.759 61.5331 112.839 68.5834 112.839 77.9839C112.839 87.3843 119.759 94.4346 129.159 94.4346ZM176.611 111.277V17.2726H195.673V51.3493C200.765 46.1268 207.685 43.1239 215.78 43.1239C234.189 43.1239 247.898 58.1385 247.898 77.9839C247.898 97.8292 234.189 112.844 215.78 112.844C207.685 112.844 200.765 109.841 195.673 104.618V111.277H176.611ZM211.993 94.4346C221.394 94.4346 228.314 87.3843 228.314 77.9839C228.314 68.5834 221.394 61.5331 211.993 61.5331C202.593 61.5331 195.673 68.5834 195.673 77.9839C195.673 87.3843 202.593 94.4346 211.993 94.4346ZM252.619 111.277L262.803 59.9663C259.148 57.4857 256.928 53.0466 256.928 48.2158C256.928 41.1654 261.889 36.3347 269.331 36.3347C276.382 36.3347 281.212 40.7738 281.996 46.649L323.123 51.3493V55.9189C315.942 65.8416 312.156 74.4587 312.156 81.7701C312.156 88.951 315.681 92.8679 322.339 92.8679H325.212V111.277H320.642C302.102 111.277 292.571 101.093 292.571 84.1203C292.571 78.3755 293.746 72.6308 296.488 66.7555L280.168 64.536L271.42 111.277H252.619ZM366.06 112.844C345.431 112.844 330.025 97.8292 330.025 77.9839C330.025 58.1385 345.431 43.1239 365.93 43.1239C386.297 43.1239 401.834 58.0079 401.834 78.245C401.834 79.9423 401.704 82.5535 401.312 84.1203H350.393C352.482 91.6928 358.488 96.5236 366.452 96.5236C372.719 96.5236 377.941 93.7818 380.422 90.2567H400.79C395.828 103.705 382.511 112.844 366.06 112.844ZM365.93 59.4441C358.357 59.4441 352.612 64.1443 350.523 71.4558H381.467C379.378 64.1443 373.502 59.4441 365.93 59.4441ZM473.414 112.844C452.915 112.844 437.509 97.8292 437.509 77.9839C437.509 58.1385 452.915 43.1239 473.414 43.1239C493.912 43.1239 509.318 58.1385 509.318 77.9839C509.318 97.8292 493.912 112.844 473.414 112.844ZM473.414 94.4346C482.814 94.4346 489.734 87.3843 489.734 77.9839C489.734 68.5834 482.814 61.5331 473.414 61.5331C464.013 61.5331 457.093 68.5834 457.093 77.9839C457.093 87.3843 464.013 94.4346 473.414 94.4346ZM593.553 112.844C566.396 112.844 545.898 92.7373 545.898 66.2333C545.898 39.7293 566.396 19.6228 593.553 19.6228C616.793 19.6228 635.333 34.5068 639.38 55.5272H617.837C614.443 45.7351 605.042 39.0765 593.553 39.0765C578.277 39.0765 566.657 50.6965 566.657 66.2333C566.657 81.7701 578.277 93.3901 593.553 93.3901C605.042 93.3901 614.443 86.7315 617.837 76.9394H639.38C635.333 97.9598 616.793 112.844 593.553 112.844ZM694.789 112.844C667.632 112.844 647.134 92.7373 647.134 66.2333C647.134 39.7293 667.632 19.6228 694.789 19.6228C721.946 19.6228 742.444 39.7293 742.444 66.2333C742.444 92.7373 721.946 112.844 694.789 112.844ZM694.789 93.3901C710.065 93.3901 721.685 81.7701 721.685 66.2333C721.685 50.6965 710.065 39.0765 694.789 39.0765C679.514 39.0765 667.894 50.6965 667.894 66.2333C667.894 81.7701 679.514 93.3901 694.789 93.3901ZM755.232 111.277V21.1895H815.029V40.2515H775.469V56.4412H810.721V75.5032H775.469V92.2151H815.682V111.277H755.232ZM828.801 111.277V21.1895H864.313C890.556 21.1895 910.271 40.5126 910.271 66.2333C910.271 91.954 890.556 111.277 864.313 111.277H828.801ZM863.791 40.2515H849.038V92.2151H863.791C878.545 92.2151 889.512 80.9868 889.512 66.2333C889.512 51.4798 878.545 40.2515 863.791 40.2515Z" fill="#004F94"/>
<path d="M17.2727 84.2508V66.9781C7.73326 66.9781 -2.66109e-06 74.7114 -2.66109e-06 84.2508H17.2727ZM38.032 84.2508H55.3048C55.3048 74.7114 47.5715 66.9781 38.032 66.9781V84.2508ZM83.9898 47.0407V64.3135C93.5292 64.3135 101.263 56.5802 101.263 47.0407H83.9898ZM63.2305 47.0407H45.9577C45.9577 56.5802 53.691 64.3135 63.2305 64.3135L63.2305 47.0407ZM51.6105 112.844V95.5711C38.4912 95.5711 34.5455 88.0714 34.5455 84.2508H17.2727H-2.66109e-06C-2.66109e-06 112.548 25.3001 130.117 51.6105 130.117V112.844ZM17.2727 84.2508V101.524H38.032V84.2508V66.9781H17.2727V84.2508ZM38.032 84.2508H20.7593C20.7593 103.684 39.2192 112.099 51.8716 112.099V94.8263V77.5536C51.4199 77.5536 51.7421 77.3991 52.5555 78.0211C53.4125 78.6765 55.3048 80.7479 55.3048 84.2508H38.032ZM51.8716 94.8263V112.099C58.1687 112.099 64.8359 110.469 70.4502 106.687C76.1608 102.839 81.8088 95.8313 81.8088 86.0787H64.5361H47.2633C47.2633 81.418 50.039 78.784 51.1473 78.0373C52.1593 77.3554 52.4942 77.5536 51.8716 77.5536V94.8263ZM64.5361 86.0787H81.8088C81.8088 70.8624 68.7446 64.5342 64.3154 62.5909C61.2848 61.2612 58.0341 60.1817 55.3378 59.3121C52.3755 58.3567 49.9407 57.6096 47.3761 56.7036C42.1373 54.8528 39.1676 53.2466 37.5459 51.7589C36.6517 50.9385 35.9816 50.1433 35.9816 47.563H18.7089H1.43618C1.43618 60.2583 6.49452 70.1529 14.1929 77.2152C21.1637 83.6101 29.6509 87.0795 35.8689 89.2762C39.0327 90.3939 42.3263 91.4134 44.7344 92.19C47.4084 93.0524 49.1701 93.6701 50.4358 94.2255C54.5992 96.0521 47.2633 94.2447 47.2633 86.0787H64.5361ZM18.7089 47.563H35.9816C35.9816 44.3187 37.1731 42.1481 39.1617 40.4881C41.4021 38.618 45.3869 36.8955 51.0882 36.8955V19.6228V2.35003C26.4539 2.35003 1.43618 18.2599 1.43618 47.563H18.7089ZM51.0882 19.6228V36.8955C56.8662 36.8955 61.0576 38.7105 63.5008 40.7408C65.8125 42.6619 66.7171 44.8027 66.7171 47.0407H83.9898H101.263C101.263 18.9787 76.1672 2.35003 51.0882 2.35003V19.6228ZM83.9898 47.0407V29.768H63.2305V47.0407V64.3135H83.9898V47.0407ZM63.2305 47.0407H80.5032C80.5032 28.0986 62.7863 20.3676 50.9577 20.3676V37.6403V54.913C51.1746 54.913 50.4235 54.9899 49.2118 54.0654C47.8646 53.0375 45.9577 50.6094 45.9577 47.0407H63.2305ZM50.9577 37.6403V20.3676C45.1886 20.3676 38.7214 21.7736 33.1533 25.5582C27.2283 29.5853 22.1955 36.596 22.1955 45.8657H39.4682H56.7409C56.7409 47.6629 56.2495 49.507 55.3118 51.1186C54.4158 52.6587 53.3397 53.6073 52.5724 54.1289C51.1822 55.0737 50.4598 54.913 50.9577 54.913V37.6403ZM39.4682 45.8657H22.1955C22.1955 61.3237 35.5247 67.4869 40.0533 69.3513C43.11 70.6096 46.3839 71.6066 49.0685 72.4008C52.0236 73.275 54.4483 73.9565 56.9828 74.7905C62.1791 76.5004 65.0134 78.0089 66.5145 79.3738C67.2527 80.0451 68.0227 80.8171 68.0227 83.7286H85.2954H102.568C102.568 70.9726 97.6097 60.957 89.7553 53.815C82.6638 47.3666 74.0413 44.0361 67.7808 41.976C64.587 40.9251 61.2832 39.9889 58.868 39.2744C56.1822 38.4799 54.4438 37.9172 53.2042 37.4069C49.1402 35.7338 56.7409 37.5232 56.7409 45.8657H39.4682ZM85.2954 83.7286H68.0227C68.0227 87.3174 66.6851 89.7902 64.4559 91.6588C61.9847 93.7304 57.6824 95.5711 51.6105 95.5711V112.844V130.117C77.1017 130.117 102.568 113.623 102.568 83.7286H85.2954ZM129.159 112.844V95.5711C117.735 95.5711 110.527 87.8308 110.527 77.9839H93.2546H75.9818C75.9818 107.828 99.5869 130.117 129.159 130.117V112.844ZM93.2546 77.9839H110.527C110.527 68.1369 117.735 60.3966 129.159 60.3966V43.1239V25.8511C99.5869 25.8511 75.9818 48.1401 75.9818 77.9839H93.2546ZM129.159 43.1239V60.3966C140.583 60.3966 147.791 68.1369 147.791 77.9839H165.064H182.336C182.336 48.1401 158.731 25.8511 129.159 25.8511V43.1239ZM165.064 77.9839H147.791C147.791 87.8308 140.583 95.5711 129.159 95.5711V112.844V130.117C158.731 130.117 182.336 107.828 182.336 77.9839H165.064ZM129.159 94.4346V111.707C148.28 111.707 162.752 96.7413 162.752 77.9839H145.479H128.207C128.207 78.2016 128.17 78.2154 128.221 78.0881C128.271 77.963 128.377 77.7767 128.563 77.5892C128.749 77.4006 128.954 77.2737 129.123 77.2042C129.296 77.1333 129.333 77.1619 129.159 77.1619V94.4346ZM145.479 77.9839H162.752C162.752 59.2264 148.28 44.2603 129.159 44.2603V61.5331V78.8058C129.333 78.8058 129.296 78.8344 129.123 78.7635C128.954 78.694 128.749 78.5671 128.563 78.3785C128.377 78.191 128.271 78.0047 128.221 77.8796C128.17 77.7523 128.207 77.7661 128.207 77.9839H145.479ZM129.159 61.5331V44.2603C110.038 44.2603 95.5661 59.2264 95.5661 77.9839H112.839H130.112C130.112 77.7661 130.148 77.7523 130.097 77.8796C130.047 78.0047 129.941 78.191 129.755 78.3785C129.569 78.5671 129.364 78.694 129.195 78.7635C129.022 78.8344 128.985 78.8058 129.159 78.8058V61.5331ZM112.839 77.9839H95.5661C95.5661 96.7413 110.038 111.707 129.159 111.707V94.4346V77.1619C128.985 77.1619 129.022 77.1333 129.195 77.2042C129.364 77.2737 129.569 77.4006 129.755 77.5892C129.941 77.7767 130.047 77.9631 130.097 78.0881C130.148 78.2154 130.112 78.2016 130.112 77.9839H112.839ZM176.611 111.277H159.338C159.338 120.817 167.072 128.55 176.611 128.55V111.277ZM176.611 17.2726V-8.27759e-05C167.072 -8.27759e-05 159.338 7.73318 159.338 17.2726H176.611ZM195.673 17.2726H212.946C212.946 7.73318 205.213 -8.27759e-05 195.673 -8.27759e-05V17.2726ZM195.673 51.3493H178.4C178.4 58.3752 182.656 64.7011 189.164 67.3487C195.672 69.9963 203.136 68.438 208.04 63.4074L195.673 51.3493ZM195.673 104.618L208.04 92.5604C203.136 87.5298 195.672 85.9714 189.164 88.619C182.656 91.2666 178.4 97.5925 178.4 104.618H195.673ZM195.673 111.277V128.55C205.213 128.55 212.946 120.817 212.946 111.277H195.673ZM176.611 111.277H193.884V17.2726H176.611H159.338V111.277H176.611ZM176.611 17.2726V34.5454H195.673V17.2726V-8.27759e-05H176.611V17.2726ZM195.673 17.2726H178.4V51.3493H195.673H212.946V17.2726H195.673ZM195.673 51.3493L208.04 63.4074C209.79 61.6128 212.209 60.3966 215.78 60.3966V43.1239V25.8511C203.16 25.8511 191.74 30.6408 183.306 39.2912L195.673 51.3493ZM215.78 43.1239V60.3966C223.302 60.3966 230.625 66.2726 230.625 77.9839H247.898H265.171C265.171 50.0043 245.075 25.8511 215.78 25.8511V43.1239ZM247.898 77.9839H230.625C230.625 89.6951 223.302 95.5711 215.78 95.5711V112.844V130.117C245.075 130.117 265.171 105.963 265.171 77.9839H247.898ZM215.78 112.844V95.5711C212.209 95.5711 209.79 94.3549 208.04 92.5604L195.673 104.618L183.306 116.677C191.74 125.327 203.16 130.117 215.78 130.117V112.844ZM195.673 104.618H178.4V111.277H195.673H212.946V104.618H195.673ZM195.673 111.277V94.0044H176.611V111.277V128.55H195.673V111.277ZM211.993 94.4346V111.707C231.115 111.707 245.586 96.7413 245.586 77.9839H228.314H211.041C211.041 78.2016 211.004 78.2154 211.055 78.0881C211.105 77.9631 211.211 77.7767 211.397 77.5892C211.583 77.4006 211.788 77.2737 211.958 77.2042C212.13 77.1333 212.167 77.1619 211.993 77.1619V94.4346ZM228.314 77.9839H245.586C245.586 59.2264 231.115 44.2603 211.993 44.2603V61.5331V78.8058C212.167 78.8058 212.13 78.8344 211.958 78.7635C211.788 78.694 211.583 78.5671 211.397 78.3785C211.211 78.191 211.105 78.0047 211.055 77.8796C211.004 77.7523 211.041 77.7661 211.041 77.9839H228.314ZM211.993 61.5331V44.2603C192.872 44.2603 178.4 59.2264 178.4 77.9839H195.673H212.946C212.946 77.7661 212.983 77.7523 212.932 77.8796C212.882 78.0047 212.775 78.191 212.59 78.3785C212.403 78.5671 212.199 78.694 212.029 78.7635C211.856 78.8344 211.82 78.8058 211.993 78.8058V61.5331ZM195.673 77.9839H178.4C178.4 96.7413 192.872 111.707 211.993 111.707V94.4346V77.1619C211.82 77.1619 211.856 77.1333 212.029 77.2042C212.199 77.2737 212.403 77.4006 212.59 77.5892C212.775 77.7767 212.882 77.9631 212.932 78.0881C212.983 78.2154 212.946 78.2016 212.946 77.9839H195.673ZM252.619 111.277L235.677 107.915C234.671 112.986 235.989 118.242 239.27 122.238C242.551 126.234 247.449 128.55 252.619 128.55V111.277ZM262.803 59.9663L279.746 63.3289C281.096 56.5231 278.243 49.5696 272.502 45.6736L262.803 59.9663ZM281.996 46.649L264.875 48.9319C265.921 56.7795 272.169 62.9111 280.035 63.8101L281.996 46.649ZM323.123 51.3493H340.396C340.396 42.5686 333.808 35.1853 325.084 34.1882L323.123 51.3493ZM323.123 55.9189L337.116 66.0454C339.248 63.0993 340.396 59.5555 340.396 55.9189H323.123ZM325.212 92.8679H342.485C342.485 83.3284 334.751 75.5952 325.212 75.5952V92.8679ZM325.212 111.277V128.55C334.751 128.55 342.485 120.817 342.485 111.277H325.212ZM296.488 66.7555L312.14 74.0599C314.462 69.0846 314.28 63.3018 311.651 58.4821C309.021 53.6625 304.256 50.3803 298.816 49.6404L296.488 66.7555ZM280.168 64.536L282.496 47.4208C273.375 46.1804 264.883 52.3107 263.19 61.3586L280.168 64.536ZM271.42 111.277V128.55C279.734 128.55 286.869 122.627 288.398 114.455L271.42 111.277ZM252.619 111.277L269.562 114.64L279.746 63.3289L262.803 59.9663L245.861 56.6038L235.677 107.915L252.619 111.277ZM262.803 59.9663L272.502 45.6736C273.302 46.2162 273.734 46.8273 273.944 47.2477C274.154 47.6675 274.201 48.0005 274.201 48.2158H256.928H239.655C239.655 58.1415 244.213 68.2254 253.105 74.2591L262.803 59.9663ZM256.928 48.2158H274.201C274.201 48.8851 273.874 50.5775 272.316 52.0767C270.809 53.5273 269.395 53.6074 269.331 53.6074V36.3347V19.0619C261.825 19.0619 254.21 21.5574 248.361 27.186C242.462 32.8632 239.655 40.4961 239.655 48.2158H256.928ZM269.331 36.3347V53.6074C269.15 53.6074 268.078 53.5044 266.879 52.4931C265.691 51.4918 265.035 50.1343 264.875 48.9319L281.996 46.649L299.117 44.3662C297.115 29.3532 284.465 19.0619 269.331 19.0619V36.3347ZM281.996 46.649L280.035 63.8101L321.162 68.5103L323.123 51.3493L325.084 34.1882L283.957 29.488L281.996 46.649ZM323.123 51.3493H305.85V55.9189H323.123H340.396V51.3493H323.123ZM323.123 55.9189L309.13 45.7925C301.292 56.6232 294.883 68.9278 294.883 81.7701H312.156H329.428C329.428 79.9896 330.592 75.06 337.116 66.0454L323.123 55.9189ZM312.156 81.7701H294.883C294.883 87.9509 296.394 95.5235 301.995 101.658C307.836 108.055 315.588 110.141 322.339 110.141V92.8679V75.5952C322.432 75.5952 325.093 75.7219 327.506 78.3654C329.68 80.7465 329.428 82.7703 329.428 81.7701H312.156ZM322.339 92.8679V110.141H325.212V92.8679V75.5952H322.339V92.8679ZM325.212 92.8679H307.939V111.277H325.212H342.485V92.8679H325.212ZM325.212 111.277V94.0044H320.642V111.277V128.55H325.212V111.277ZM320.642 111.277V94.0044C314.454 94.0044 312.373 92.3516 311.825 91.8074C311.286 91.2716 309.844 89.4423 309.844 84.1203H292.571H275.299C275.299 95.7713 278.622 107.52 287.483 116.32C296.336 125.111 308.291 128.55 320.642 128.55V111.277ZM292.571 84.1203H309.844C309.844 80.8654 310.48 77.6174 312.14 74.0599L296.488 66.7555L280.836 59.4512C277.012 67.6443 275.299 75.8857 275.299 84.1203H292.571ZM296.488 66.7555L298.816 49.6404L282.496 47.4208L280.168 64.536L277.84 81.6512L294.161 83.8707L296.488 66.7555ZM280.168 64.536L263.19 61.3586L254.442 108.1L271.42 111.277L288.398 114.455L297.146 67.7134L280.168 64.536ZM271.42 111.277V94.0044H252.619V111.277V128.55H271.42V111.277ZM401.312 84.1203V101.393C409.238 101.393 416.147 95.9988 418.069 88.3095L401.312 84.1203ZM350.393 84.1203V66.8475C345.001 66.8475 339.918 69.3658 336.651 73.6558C333.384 77.9459 332.308 83.5155 333.742 88.7136L350.393 84.1203ZM380.422 90.2567V72.9839C374.801 72.9839 369.531 75.7193 366.296 80.3163L380.422 90.2567ZM400.79 90.2567L416.995 96.2352C418.95 90.9356 418.19 85.0147 414.96 80.3804C411.73 75.7461 406.439 72.9839 400.79 72.9839V90.2567ZM350.523 71.4558L333.915 66.7106C332.426 71.9221 333.47 77.5303 336.734 81.8573C339.998 86.1844 345.103 88.7285 350.523 88.7285V71.4558ZM381.467 71.4558V88.7285C386.887 88.7285 391.992 86.1844 395.256 81.8573C398.52 77.5303 399.564 71.9221 398.075 66.7106L381.467 71.4558ZM366.06 112.844V95.5711C354.463 95.5711 347.298 87.7901 347.298 77.9839H330.025H312.752C312.752 107.868 336.4 130.117 366.06 130.117V112.844ZM330.025 77.9839H347.298C347.298 68.1369 354.505 60.3966 365.93 60.3966V43.1239V25.8511C336.358 25.8511 312.752 48.1401 312.752 77.9839H330.025ZM365.93 43.1239V60.3966C377.222 60.3966 384.561 68.0052 384.561 78.245H401.834H419.107C419.107 48.0107 395.372 25.8511 365.93 25.8511V43.1239ZM401.834 78.245H384.561C384.561 78.7051 384.542 79.3371 384.498 79.9068C384.477 80.1831 384.456 80.3595 384.446 80.4367C384.43 80.5505 384.451 80.3469 384.555 79.931L401.312 84.1203L418.069 88.3095C419.013 84.535 419.107 80.0971 419.107 78.245H401.834ZM401.312 84.1203V66.8475H350.393V84.1203V101.393H401.312V84.1203ZM350.393 84.1203L333.742 88.7136C337.802 103.432 350.365 113.796 366.452 113.796V96.5236V79.2509C366.218 79.2509 366.199 79.2175 366.333 79.2622C366.471 79.3081 366.662 79.401 366.851 79.5491C367.038 79.6952 367.138 79.8272 367.169 79.8752C367.197 79.9185 367.126 79.8255 367.044 79.5269L350.393 84.1203ZM366.452 96.5236V113.796C377.264 113.796 388.259 109.134 394.548 100.197L380.422 90.2567L366.296 80.3163C366.701 79.7405 367.062 79.4134 367.252 79.2611C367.447 79.1038 367.547 79.0622 367.518 79.0762C367.448 79.109 367.085 79.2509 366.452 79.2509V96.5236ZM380.422 90.2567V107.529H400.79V90.2567V72.9839H380.422V90.2567ZM400.79 90.2567L384.585 84.2781C382.366 90.2908 375.994 95.5711 366.06 95.5711V112.844V130.117C389.028 130.117 409.29 117.118 416.995 96.2352L400.79 90.2567ZM365.93 59.4441V42.1714C350.007 42.1714 337.942 52.6156 333.915 66.7106L350.523 71.4558L367.132 76.201C367.213 75.9148 367.28 75.8291 367.248 75.8795C367.212 75.9343 367.099 76.0869 366.879 76.2609C366.654 76.4381 366.402 76.5712 366.169 76.6503C365.938 76.7286 365.837 76.7168 365.93 76.7168V59.4441ZM350.523 71.4558V88.7285H381.467V71.4558V54.183H350.523V71.4558ZM381.467 71.4558L398.075 66.7106C393.999 52.446 381.684 42.1714 365.93 42.1714V59.4441V76.7168C366.024 76.7168 365.944 76.7291 365.748 76.6628C365.549 76.5961 365.329 76.4818 365.127 76.3245C364.928 76.1693 364.819 76.0279 364.777 75.9642C364.737 75.9036 364.79 75.9625 364.858 76.201L381.467 71.4558ZM473.414 112.844V95.5711C461.989 95.5711 454.782 87.8308 454.782 77.9839H437.509H420.236C420.236 107.828 443.841 130.117 473.414 130.117V112.844ZM437.509 77.9839H454.782C454.782 68.1369 461.989 60.3966 473.414 60.3966V43.1239V25.8511C443.841 25.8511 420.236 48.1401 420.236 77.9839H437.509ZM473.414 43.1239V60.3966C484.838 60.3966 492.045 68.1369 492.045 77.9839H509.318H526.591C526.591 48.1401 502.986 25.8511 473.414 25.8511V43.1239ZM509.318 77.9839H492.045C492.045 87.8308 484.838 95.5711 473.414 95.5711V112.844V130.117C502.986 130.117 526.591 107.828 526.591 77.9839H509.318ZM473.414 94.4346V111.707C492.535 111.707 507.007 96.7413 507.007 77.9839H489.734H472.461C472.461 78.2016 472.424 78.2154 472.475 78.0881C472.525 77.963 472.632 77.7767 472.817 77.5892C473.004 77.4006 473.208 77.2737 473.378 77.2042C473.551 77.1333 473.587 77.1619 473.414 77.1619V94.4346ZM489.734 77.9839H507.007C507.007 59.2264 492.535 44.2603 473.414 44.2603V61.5331V78.8058C473.587 78.8058 473.551 78.8344 473.378 78.7635C473.208 78.694 473.004 78.5671 472.817 78.3785C472.632 78.191 472.525 78.0047 472.475 77.8796C472.424 77.7523 472.461 77.7661 472.461 77.9839H489.734ZM473.414 61.5331V44.2603C454.292 44.2603 439.821 59.2264 439.821 77.9839H457.093H474.366C474.366 77.7661 474.403 77.7523 474.352 77.8796C474.302 78.0047 474.196 78.191 474.01 78.3785C473.824 78.5671 473.619 78.694 473.449 78.7635C473.277 78.8344 473.24 78.8058 473.414 78.8058V61.5331ZM457.093 77.9839H439.821C439.821 96.7413 454.292 111.707 473.414 111.707V94.4346V77.1619C473.24 77.1619 473.277 77.1333 473.449 77.2042C473.619 77.2737 473.824 77.4006 474.01 77.5892C474.196 77.7767 474.302 77.9631 474.352 78.0881C474.403 78.2154 474.366 78.2016 474.366 77.9839H457.093ZM639.38 55.5272V72.8C644.533 72.8 649.417 70.4992 652.698 66.5258C655.98 62.5525 657.315 57.3216 656.341 52.2614L639.38 55.5272ZM617.837 55.5272L601.517 61.1848C603.928 68.1377 610.478 72.8 617.837 72.8V55.5272ZM617.837 76.9394V59.6666C610.478 59.6666 603.928 64.3289 601.517 71.2818L617.837 76.9394ZM639.38 76.9394L656.341 80.2052C657.315 75.145 655.98 69.9141 652.698 65.9408C649.417 61.9674 644.533 59.6666 639.38 59.6666V76.9394ZM593.553 112.844V95.5711C575.587 95.5711 563.17 82.8529 563.17 66.2333H545.898H528.625C528.625 102.622 557.205 130.117 593.553 130.117V112.844ZM545.898 66.2333H563.17C563.17 49.6137 575.587 36.8955 593.553 36.8955V19.6228V2.35003C557.205 2.35003 528.625 29.8448 528.625 66.2333H545.898ZM593.553 19.6228V36.8955C609.186 36.8955 620.061 46.5476 622.419 58.7931L639.38 55.5272L656.341 52.2614C650.604 22.466 624.399 2.35003 593.553 2.35003V19.6228ZM639.38 55.5272V38.2545H617.837V55.5272V72.8H639.38V55.5272ZM617.837 55.5272L634.157 49.8697C628.195 32.6696 611.908 21.8037 593.553 21.8037V39.0765V56.3492C598.177 56.3492 600.691 58.8006 601.517 61.1848L617.837 55.5272ZM593.553 39.0765V21.8037C568.628 21.8037 549.384 41.2672 549.384 66.2333H566.657H583.93C583.93 60.1257 587.926 56.3492 593.553 56.3492V39.0765ZM566.657 66.2333H549.384C549.384 91.1994 568.628 110.663 593.553 110.663V93.3901V76.1174C587.926 76.1174 583.93 72.3409 583.93 66.2333H566.657ZM593.553 93.3901V110.663C611.908 110.663 628.195 99.797 634.157 82.5969L617.837 76.9394L601.517 71.2818C600.691 73.666 598.177 76.1174 593.553 76.1174V93.3901ZM617.837 76.9394V94.2121H639.38V76.9394V59.6666H617.837V76.9394ZM639.38 76.9394L622.419 73.6735C620.061 85.919 609.186 95.5711 593.553 95.5711V112.844V130.117C624.399 130.117 650.604 110.001 656.341 80.2052L639.38 76.9394ZM694.789 112.844V95.5711C676.823 95.5711 664.407 82.8529 664.407 66.2333H647.134H629.861C629.861 102.622 658.442 130.117 694.789 130.117V112.844ZM647.134 66.2333H664.407C664.407 49.6137 676.823 36.8955 694.789 36.8955V19.6228V2.35003C658.442 2.35003 629.861 29.8448 629.861 66.2333H647.134ZM694.789 19.6228V36.8955C712.755 36.8955 725.172 49.6137 725.172 66.2333H742.444H759.717C759.717 29.8448 731.137 2.35003 694.789 2.35003V19.6228ZM742.444 66.2333H725.172C725.172 82.8529 712.755 95.5711 694.789 95.5711V112.844V130.117C731.137 130.117 759.717 102.622 759.717 66.2333H742.444ZM694.789 93.3901V110.663C719.714 110.663 738.958 91.1994 738.958 66.2333H721.685H704.412C704.412 72.3409 700.416 76.1174 694.789 76.1174V93.3901ZM721.685 66.2333H738.958C738.958 41.2672 719.714 21.8037 694.789 21.8037V39.0765V56.3492C700.416 56.3492 704.412 60.1257 704.412 66.2333H721.685ZM694.789 39.0765V21.8037C669.864 21.8037 650.621 41.2672 650.621 66.2333H667.894H685.166C685.166 60.1257 689.163 56.3492 694.789 56.3492V39.0765ZM667.894 66.2333H650.621C650.621 91.1994 669.864 110.663 694.789 110.663V93.3901V76.1174C689.163 76.1174 685.166 72.3409 685.166 66.2333H667.894ZM755.232 111.277H737.959C737.959 120.817 745.693 128.55 755.232 128.55V111.277ZM755.232 21.1895V3.91677C745.693 3.91677 737.959 11.65 737.959 21.1895H755.232ZM815.029 21.1895H832.302C832.302 11.65 824.569 3.91677 815.029 3.91677V21.1895ZM815.029 40.2515V57.5242C824.569 57.5242 832.302 49.791 832.302 40.2515H815.029ZM775.469 40.2515V22.9788C765.93 22.9788 758.196 30.712 758.196 40.2515H775.469ZM775.469 56.4412H758.196C758.196 65.9806 765.93 73.7139 775.469 73.7139V56.4412ZM810.721 56.4412H827.994C827.994 46.9017 820.26 39.1684 810.721 39.1684V56.4412ZM810.721 75.5032V92.7759C820.26 92.7759 827.994 85.0426 827.994 75.5032H810.721ZM775.469 75.5032V58.2305C765.93 58.2305 758.196 65.9637 758.196 75.5032H775.469ZM775.469 92.2151H758.196C758.196 101.755 765.93 109.488 775.469 109.488V92.2151ZM815.682 92.2151H832.955C832.955 82.6756 825.222 74.9424 815.682 74.9424V92.2151ZM815.682 111.277V128.55C825.222 128.55 832.955 120.817 832.955 111.277H815.682ZM755.232 111.277H772.505V21.1895H755.232H737.959V111.277H755.232ZM755.232 21.1895V38.4622H815.029V21.1895V3.91677H755.232V21.1895ZM815.029 21.1895H797.757V40.2515H815.029H832.302V21.1895H815.029ZM815.029 40.2515V22.9788H775.469V40.2515V57.5242H815.029V40.2515ZM775.469 40.2515H758.196V56.4412H775.469H792.742V40.2515H775.469ZM775.469 56.4412V73.7139H810.721V56.4412V39.1684H775.469V56.4412ZM810.721 56.4412H793.448V75.5032H810.721H827.994V56.4412H810.721ZM810.721 75.5032V58.2305H775.469V75.5032V92.7759H810.721V75.5032ZM775.469 75.5032H758.196V92.2151H775.469H792.742V75.5032H775.469ZM775.469 92.2151V109.488H815.682V92.2151V74.9424H775.469V92.2151ZM815.682 92.2151H798.409V111.277H815.682H832.955V92.2151H815.682ZM815.682 111.277V94.0044H755.232V111.277V128.55H815.682V111.277ZM828.801 111.277H811.528C811.528 120.817 819.261 128.55 828.801 128.55V111.277ZM828.801 21.1895V3.91677C819.261 3.91677 811.528 11.65 811.528 21.1895H828.801ZM849.038 40.2515V22.9788C839.498 22.9788 831.765 30.712 831.765 40.2515H849.038ZM849.038 92.2151H831.765C831.765 101.755 839.498 109.488 849.038 109.488V92.2151ZM828.801 111.277H846.073V21.1895H828.801H811.528V111.277H828.801ZM828.801 21.1895V38.4622H864.313V21.1895V3.91677H828.801V21.1895ZM864.313 21.1895V38.4622C881.345 38.4622 892.998 50.3774 892.998 66.2333H910.271H927.544C927.544 30.6478 899.767 3.91677 864.313 3.91677V21.1895ZM910.271 66.2333H892.998C892.998 82.0891 881.345 94.0044 864.313 94.0044V111.277V128.55C899.767 128.55 927.544 101.819 927.544 66.2333H910.271ZM864.313 111.277V94.0044H828.801V111.277V128.55H864.313V111.277ZM863.791 40.2515V22.9788H849.038V40.2515V57.5242H863.791V40.2515ZM849.038 40.2515H831.765V92.2151H849.038H866.31V40.2515H849.038ZM849.038 92.2151V109.488H863.791V92.2151V74.9424H849.038V92.2151ZM863.791 92.2151V109.488C888.313 109.488 906.785 90.2953 906.785 66.2333H889.512H872.239C872.239 71.6783 868.776 74.9424 863.791 74.9424V92.2151ZM889.512 66.2333H906.785C906.785 42.1713 888.313 22.9788 863.791 22.9788V40.2515V57.5242C868.776 57.5242 872.239 60.7883 872.239 66.2333H889.512Z" fill="white" mask="url(#path-1-outside-1_68_8)"/>
</g>
<defs>
<filter id="filter0_d_68_8" x="0" y="0" width="932.726" height="142.207" filterUnits="userSpaceOnUse" color-interpolation-filters="sRGB">
<feFlood flood-opacity="0" result="BackgroundImageFix"/>
<feColorMatrix in="SourceAlpha" type="matrix" values="0 0 0 0 0 0 0 0 0 0 0 0 0 0 0 0 0 0 127 0" result="hardAlpha"/>
<feOffset dx="5.18182" dy="12.0909"/>
<feComposite in2="hardAlpha" operator="out"/>
<feColorMatrix type="matrix" values="0 0 0 0 0 0 0 0 0 0 0 0 0 0 0 0 0 0 0.25 0"/>
<feBlend mode="normal" in2="BackgroundImageFix" result="effect1_dropShadow_68_8"/>
<feBlend mode="normal" in="SourceGraphic" in2="effect1_dropShadow_68_8" result="shape"/>
</filter>
</defs>
</svg>
