<svg width="489" height="159" viewBox="0 0 489 159" fill="none" xmlns="http://www.w3.org/2000/svg">
<g filter="url(#filter0_d_109_254)">
<mask id="path-1-outside-1_109_254" maskUnits="userSpaceOnUse" x="-0.214966" y="-0.505859" width="486" height="153" fill="black">
<rect fill="white" x="-0.214966" y="-0.505859" width="486" height="153"/>
<path d="M52.7 71.4541C40.94 71.4541 32.14 63.7741 32.14 53.9341H44.86C44.86 57.5341 48.38 60.4141 52.86 60.4141C57.02 60.4141 60.3 58.0941 60.3 54.9741C60.3 51.3741 55.34 49.3741 49.66 48.0141C41.26 46.0141 33.02 41.2941 33.02 31.2941C33.02 21.2141 41.42 14.3341 52.54 14.3341C63.74 14.3341 72.22 21.5341 72.22 31.1341H59.5C59.5 27.8541 56.46 25.3741 52.38 25.3741C48.7 25.3741 45.74 27.3741 45.74 30.3341C45.74 33.8541 50.22 35.8541 55.66 37.1341C64.46 39.2941 73.02 43.4541 73.02 53.7741C73.02 64.2541 64.22 71.4541 52.7 71.4541ZM86.1594 24.4941C82.0794 24.4941 78.9594 21.4541 78.9594 17.2941C78.9594 13.2141 82.0794 10.1741 86.1594 10.1741C90.3194 10.1741 93.4394 13.2141 93.4394 17.2941C93.4394 21.4541 90.3194 24.4941 86.1594 24.4941ZM80.3194 70.4941V29.6941H91.9994V70.4941H80.3194ZM131.169 29.6941H142.849V66.0941C142.849 78.4941 134.449 86.6541 121.809 86.6541C111.329 86.6541 103.889 81.1341 101.329 72.2541H113.409C114.849 74.5741 118.049 76.0141 121.809 76.0141C127.489 76.0141 131.169 72.0141 131.169 66.0141V64.7341C128.129 68.0941 123.889 70.0941 118.849 70.0941C107.569 70.0941 99.1694 61.1341 99.1694 49.3741C99.1694 37.6141 107.569 28.7341 118.849 28.7341C123.889 28.7341 128.129 30.7341 131.169 34.0941V29.6941ZM121.169 59.4541C126.929 59.4541 131.169 55.1341 131.169 49.3741C131.169 43.6941 126.929 39.2941 121.169 39.2941C115.409 39.2941 111.169 43.6941 111.169 49.3741C111.169 55.1341 115.409 59.4541 121.169 59.4541ZM196.676 59.2141H197.476V70.4941H194.196C188.436 70.4941 184.596 68.4941 182.836 64.5741C179.716 68.8141 175.076 71.4541 169.396 71.4541C158.196 71.4541 149.716 62.2541 149.716 50.0941C149.716 37.9341 158.196 28.7341 169.396 28.7341C174.436 28.7341 178.676 30.8141 181.716 34.1741V29.6941H193.396V55.9341C193.396 58.0141 194.596 59.2141 196.676 59.2141ZM171.716 60.1741C177.476 60.1741 181.716 55.8541 181.716 50.0941C181.716 44.3341 177.476 40.0141 171.716 40.0141C166.036 40.0141 161.796 44.3341 161.796 50.0941C161.796 55.8541 166.036 60.1741 171.716 60.1741ZM263.901 59.2141H264.701V70.4941H261.421C253.181 70.4941 248.941 66.4141 248.941 58.4941V48.1741C248.941 43.2141 245.821 40.0141 241.101 40.0141C236.061 40.0141 232.621 43.2941 232.621 48.3341V70.4941H220.941V29.6941H232.621V34.1741C235.741 30.5741 239.981 28.7341 245.021 28.7341C254.381 28.7341 260.621 34.8941 260.621 44.2541V55.9341C260.621 58.0141 261.821 59.2141 263.901 59.2141ZM289.916 71.4541C277.356 71.4541 267.916 62.2541 267.916 50.0941C267.916 37.9341 277.356 28.7341 289.916 28.7341C302.476 28.7341 311.916 37.9341 311.916 50.0941C311.916 62.2541 302.476 71.4541 289.916 71.4541ZM289.916 60.1741C295.676 60.1741 299.916 55.8541 299.916 50.0941C299.916 44.3341 295.676 40.0141 289.916 40.0141C284.156 40.0141 279.916 44.3341 279.916 50.0941C279.916 55.8541 284.156 60.1741 289.916 60.1741ZM341.399 29.6941C342.599 40.1741 357.079 39.7741 357.079 54.6541C357.079 64.5741 350.759 71.4541 340.119 71.4541C333.959 71.4541 328.679 69.1341 324.999 65.4541L322.999 70.4941H310.999L328.039 29.6941H341.399ZM337.879 60.1741C342.119 60.1741 345.079 57.9341 345.079 54.4141C345.079 49.4541 338.119 47.6141 334.519 42.0141L328.919 55.8541C330.839 58.4941 334.119 60.1741 337.879 60.1741ZM387.103 29.6941C388.303 40.1741 402.783 39.7741 402.783 54.6541C402.783 64.5741 396.463 71.4541 385.823 71.4541C379.663 71.4541 374.383 69.1341 370.703 65.4541L368.703 70.4941H356.703L373.743 29.6941H387.103ZM383.583 60.1741C387.823 60.1741 390.783 57.9341 390.783 54.4141C390.783 49.4541 383.823 47.6141 380.223 42.0141L374.623 55.8541C376.543 58.4941 379.823 60.1741 383.583 60.1741ZM453.864 59.2141H454.664V70.4941H451.384C445.624 70.4941 441.784 68.4941 440.024 64.5741C436.904 68.8141 432.264 71.4541 426.584 71.4541C415.384 71.4541 406.904 62.2541 406.904 50.0941C406.904 37.9341 415.384 28.7341 426.584 28.7341C431.624 28.7341 435.864 30.8141 438.904 34.1741V29.6941H450.584V55.9341C450.584 58.0141 451.784 59.2141 453.864 59.2141ZM428.904 60.1741C434.664 60.1741 438.904 55.8541 438.904 50.0941C438.904 44.3341 434.664 40.0141 428.904 40.0141C423.224 40.0141 418.984 44.3341 418.984 50.0941C418.984 55.8541 423.224 60.1741 428.904 60.1741ZM52.8938 129.214H54.6538V140.494H51.8538C40.4938 140.494 34.6538 134.254 34.6538 123.854C34.6538 120.414 35.3738 116.814 37.0538 113.214L27.0538 111.934L21.6938 140.494H10.1738L16.4138 109.054C14.1738 107.454 12.8138 104.734 12.8138 101.854C12.8138 97.5341 15.8538 94.5741 20.4138 94.5741C24.7338 94.5741 27.7738 97.2941 28.1738 100.894L53.3738 103.774V106.574C48.9738 112.654 46.6538 117.934 46.6538 122.414C46.6538 126.814 48.8138 129.214 52.8938 129.214ZM101.603 120.254C101.603 121.294 101.523 122.894 101.283 123.854H70.0832C71.3632 128.414 74.9632 131.294 79.9232 131.294C83.7632 131.294 86.9632 129.694 88.4832 127.534H100.963C97.9232 135.774 89.7632 141.454 79.6832 141.454C67.0432 141.454 57.6032 132.254 57.6032 120.094C57.6032 107.934 67.0432 98.7341 79.6032 98.7341C92.0832 98.7341 101.603 107.854 101.603 120.254ZM79.6032 108.814C75.0432 108.814 71.5232 111.614 70.1632 116.094H89.0432C87.8432 111.614 84.0832 108.814 79.6032 108.814ZM153.004 129.214H153.804V140.494H150.524C144.764 140.494 140.924 138.494 139.164 134.574C136.044 138.814 131.404 141.454 125.724 141.454C114.524 141.454 106.044 132.254 106.044 120.094C106.044 107.934 114.524 98.7341 125.724 98.7341C130.764 98.7341 135.004 100.814 138.044 104.174V82.8941H149.724V125.934C149.724 128.014 150.924 129.214 153.004 129.214ZM128.044 130.174C133.804 130.174 138.044 125.854 138.044 120.094C138.044 114.334 133.804 110.014 128.044 110.014C122.364 110.014 118.124 114.334 118.124 120.094C118.124 125.854 122.364 130.174 128.044 130.174ZM201.681 120.254C201.681 121.294 201.601 122.894 201.361 123.854H170.161C171.441 128.414 175.041 131.294 180.001 131.294C183.841 131.294 187.041 129.694 188.561 127.534H201.041C198.001 135.774 189.841 141.454 179.761 141.454C167.121 141.454 157.681 132.254 157.681 120.094C157.681 107.934 167.121 98.7341 179.681 98.7341C192.161 98.7341 201.681 107.854 201.681 120.254ZM179.681 108.814C175.121 108.814 171.601 111.614 170.241 116.094H189.121C187.921 111.614 184.161 108.814 179.681 108.814ZM252.181 99.6941C253.381 110.174 267.861 109.774 267.861 124.654C267.861 134.574 261.541 141.454 250.901 141.454C244.741 141.454 239.461 139.134 235.781 135.454L233.781 140.494H221.781L238.821 99.6941H252.181ZM248.661 130.174C252.901 130.174 255.861 127.934 255.861 124.414C255.861 119.454 248.901 117.614 245.301 112.014L239.701 125.854C241.621 128.494 244.901 130.174 248.661 130.174ZM293.822 141.454C281.262 141.454 271.822 132.254 271.822 120.094C271.822 107.934 281.262 98.7341 293.822 98.7341C306.382 98.7341 315.822 107.934 315.822 120.094C315.822 132.254 306.382 141.454 293.822 141.454ZM293.822 130.174C299.582 130.174 303.822 125.854 303.822 120.094C303.822 114.334 299.582 110.014 293.822 110.014C288.062 110.014 283.822 114.334 283.822 120.094C283.822 125.854 288.062 130.174 293.822 130.174ZM342.338 141.454C329.778 141.454 320.338 132.254 320.338 120.094C320.338 107.934 329.778 98.7341 342.338 98.7341C353.298 98.7341 362.018 105.854 363.858 115.774H351.458C349.858 112.334 346.418 110.014 342.338 110.014C336.578 110.014 332.338 114.334 332.338 120.094C332.338 125.854 336.578 130.174 342.338 130.174C346.418 130.174 349.858 127.854 351.458 124.414H363.858C362.018 134.334 353.298 141.454 342.338 141.454ZM376.472 94.4941C372.392 94.4941 369.272 91.4541 369.272 87.2941C369.272 83.2141 372.392 80.1741 376.472 80.1741C380.632 80.1741 383.752 83.2141 383.752 87.2941C383.752 91.4541 380.632 94.4941 376.472 94.4941ZM370.632 140.494V99.6941H382.312V140.494H370.632ZM436.442 129.214H437.242V140.494H433.962C428.202 140.494 424.362 138.494 422.602 134.574C419.482 138.814 414.842 141.454 409.162 141.454C397.962 141.454 389.482 132.254 389.482 120.094C389.482 107.934 397.962 98.7341 409.162 98.7341C414.202 98.7341 418.442 100.814 421.482 104.174V99.6941H433.162V125.934C433.162 128.014 434.362 129.214 436.442 129.214ZM411.482 130.174C417.242 130.174 421.482 125.854 421.482 120.094C421.482 114.334 417.242 110.014 411.482 110.014C405.802 110.014 401.562 114.334 401.562 120.094C401.562 125.854 405.802 130.174 411.482 130.174ZM472.793 129.214H475.353V140.494H472.153C465.993 140.494 460.553 138.654 455.993 135.454C452.873 137.534 449.513 139.214 445.833 140.494L441.353 131.134C443.833 130.174 446.233 128.894 448.393 127.454C444.313 121.294 442.073 113.294 442.073 104.254C442.073 90.0141 448.713 81.9341 458.713 81.9341C468.313 81.9341 474.633 89.2141 474.633 101.614C474.633 110.894 471.193 120.014 465.113 127.214C467.433 128.494 469.993 129.214 472.793 129.214ZM458.473 93.2141C455.833 93.2141 454.073 96.4141 454.073 103.374C454.073 109.054 455.193 114.254 457.273 118.494C460.633 113.534 462.553 107.694 462.553 101.614C462.553 96.1741 461.033 93.2141 458.473 93.2141Z"/>
</mask>
<path d="M52.7 71.4541C40.94 71.4541 32.14 63.7741 32.14 53.9341H44.86C44.86 57.5341 48.38 60.4141 52.86 60.4141C57.02 60.4141 60.3 58.0941 60.3 54.9741C60.3 51.3741 55.34 49.3741 49.66 48.0141C41.26 46.0141 33.02 41.2941 33.02 31.2941C33.02 21.2141 41.42 14.3341 52.54 14.3341C63.74 14.3341 72.22 21.5341 72.22 31.1341H59.5C59.5 27.8541 56.46 25.3741 52.38 25.3741C48.7 25.3741 45.74 27.3741 45.74 30.3341C45.74 33.8541 50.22 35.8541 55.66 37.1341C64.46 39.2941 73.02 43.4541 73.02 53.7741C73.02 64.2541 64.22 71.4541 52.7 71.4541ZM86.1594 24.4941C82.0794 24.4941 78.9594 21.4541 78.9594 17.2941C78.9594 13.2141 82.0794 10.1741 86.1594 10.1741C90.3194 10.1741 93.4394 13.2141 93.4394 17.2941C93.4394 21.4541 90.3194 24.4941 86.1594 24.4941ZM80.3194 70.4941V29.6941H91.9994V70.4941H80.3194ZM131.169 29.6941H142.849V66.0941C142.849 78.4941 134.449 86.6541 121.809 86.6541C111.329 86.6541 103.889 81.1341 101.329 72.2541H113.409C114.849 74.5741 118.049 76.0141 121.809 76.0141C127.489 76.0141 131.169 72.0141 131.169 66.0141V64.7341C128.129 68.0941 123.889 70.0941 118.849 70.0941C107.569 70.0941 99.1694 61.1341 99.1694 49.3741C99.1694 37.6141 107.569 28.7341 118.849 28.7341C123.889 28.7341 128.129 30.7341 131.169 34.0941V29.6941ZM121.169 59.4541C126.929 59.4541 131.169 55.1341 131.169 49.3741C131.169 43.6941 126.929 39.2941 121.169 39.2941C115.409 39.2941 111.169 43.6941 111.169 49.3741C111.169 55.1341 115.409 59.4541 121.169 59.4541ZM196.676 59.2141H197.476V70.4941H194.196C188.436 70.4941 184.596 68.4941 182.836 64.5741C179.716 68.8141 175.076 71.4541 169.396 71.4541C158.196 71.4541 149.716 62.2541 149.716 50.0941C149.716 37.9341 158.196 28.7341 169.396 28.7341C174.436 28.7341 178.676 30.8141 181.716 34.1741V29.6941H193.396V55.9341C193.396 58.0141 194.596 59.2141 196.676 59.2141ZM171.716 60.1741C177.476 60.1741 181.716 55.8541 181.716 50.0941C181.716 44.3341 177.476 40.0141 171.716 40.0141C166.036 40.0141 161.796 44.3341 161.796 50.0941C161.796 55.8541 166.036 60.1741 171.716 60.1741ZM263.901 59.2141H264.701V70.4941H261.421C253.181 70.4941 248.941 66.4141 248.941 58.4941V48.1741C248.941 43.2141 245.821 40.0141 241.101 40.0141C236.061 40.0141 232.621 43.2941 232.621 48.3341V70.4941H220.941V29.6941H232.621V34.1741C235.741 30.5741 239.981 28.7341 245.021 28.7341C254.381 28.7341 260.621 34.8941 260.621 44.2541V55.9341C260.621 58.0141 261.821 59.2141 263.901 59.2141ZM289.916 71.4541C277.356 71.4541 267.916 62.2541 267.916 50.0941C267.916 37.9341 277.356 28.7341 289.916 28.7341C302.476 28.7341 311.916 37.9341 311.916 50.0941C311.916 62.2541 302.476 71.4541 289.916 71.4541ZM289.916 60.1741C295.676 60.1741 299.916 55.8541 299.916 50.0941C299.916 44.3341 295.676 40.0141 289.916 40.0141C284.156 40.0141 279.916 44.3341 279.916 50.0941C279.916 55.8541 284.156 60.1741 289.916 60.1741ZM341.399 29.6941C342.599 40.1741 357.079 39.7741 357.079 54.6541C357.079 64.5741 350.759 71.4541 340.119 71.4541C333.959 71.4541 328.679 69.1341 324.999 65.4541L322.999 70.4941H310.999L328.039 29.6941H341.399ZM337.879 60.1741C342.119 60.1741 345.079 57.9341 345.079 54.4141C345.079 49.4541 338.119 47.6141 334.519 42.0141L328.919 55.8541C330.839 58.4941 334.119 60.1741 337.879 60.1741ZM387.103 29.6941C388.303 40.1741 402.783 39.7741 402.783 54.6541C402.783 64.5741 396.463 71.4541 385.823 71.4541C379.663 71.4541 374.383 69.1341 370.703 65.4541L368.703 70.4941H356.703L373.743 29.6941H387.103ZM383.583 60.1741C387.823 60.1741 390.783 57.9341 390.783 54.4141C390.783 49.4541 383.823 47.6141 380.223 42.0141L374.623 55.8541C376.543 58.4941 379.823 60.1741 383.583 60.1741ZM453.864 59.2141H454.664V70.4941H451.384C445.624 70.4941 441.784 68.4941 440.024 64.5741C436.904 68.8141 432.264 71.4541 426.584 71.4541C415.384 71.4541 406.904 62.2541 406.904 50.0941C406.904 37.9341 415.384 28.7341 426.584 28.7341C431.624 28.7341 435.864 30.8141 438.904 34.1741V29.6941H450.584V55.9341C450.584 58.0141 451.784 59.2141 453.864 59.2141ZM428.904 60.1741C434.664 60.1741 438.904 55.8541 438.904 50.0941C438.904 44.3341 434.664 40.0141 428.904 40.0141C423.224 40.0141 418.984 44.3341 418.984 50.0941C418.984 55.8541 423.224 60.1741 428.904 60.1741ZM52.8938 129.214H54.6538V140.494H51.8538C40.4938 140.494 34.6538 134.254 34.6538 123.854C34.6538 120.414 35.3738 116.814 37.0538 113.214L27.0538 111.934L21.6938 140.494H10.1738L16.4138 109.054C14.1738 107.454 12.8138 104.734 12.8138 101.854C12.8138 97.5341 15.8538 94.5741 20.4138 94.5741C24.7338 94.5741 27.7738 97.2941 28.1738 100.894L53.3738 103.774V106.574C48.9738 112.654 46.6538 117.934 46.6538 122.414C46.6538 126.814 48.8138 129.214 52.8938 129.214ZM101.603 120.254C101.603 121.294 101.523 122.894 101.283 123.854H70.0832C71.3632 128.414 74.9632 131.294 79.9232 131.294C83.7632 131.294 86.9632 129.694 88.4832 127.534H100.963C97.9232 135.774 89.7632 141.454 79.6832 141.454C67.0432 141.454 57.6032 132.254 57.6032 120.094C57.6032 107.934 67.0432 98.7341 79.6032 98.7341C92.0832 98.7341 101.603 107.854 101.603 120.254ZM79.6032 108.814C75.0432 108.814 71.5232 111.614 70.1632 116.094H89.0432C87.8432 111.614 84.0832 108.814 79.6032 108.814ZM153.004 129.214H153.804V140.494H150.524C144.764 140.494 140.924 138.494 139.164 134.574C136.044 138.814 131.404 141.454 125.724 141.454C114.524 141.454 106.044 132.254 106.044 120.094C106.044 107.934 114.524 98.7341 125.724 98.7341C130.764 98.7341 135.004 100.814 138.044 104.174V82.8941H149.724V125.934C149.724 128.014 150.924 129.214 153.004 129.214ZM128.044 130.174C133.804 130.174 138.044 125.854 138.044 120.094C138.044 114.334 133.804 110.014 128.044 110.014C122.364 110.014 118.124 114.334 118.124 120.094C118.124 125.854 122.364 130.174 128.044 130.174ZM201.681 120.254C201.681 121.294 201.601 122.894 201.361 123.854H170.161C171.441 128.414 175.041 131.294 180.001 131.294C183.841 131.294 187.041 129.694 188.561 127.534H201.041C198.001 135.774 189.841 141.454 179.761 141.454C167.121 141.454 157.681 132.254 157.681 120.094C157.681 107.934 167.121 98.7341 179.681 98.7341C192.161 98.7341 201.681 107.854 201.681 120.254ZM179.681 108.814C175.121 108.814 171.601 111.614 170.241 116.094H189.121C187.921 111.614 184.161 108.814 179.681 108.814ZM252.181 99.6941C253.381 110.174 267.861 109.774 267.861 124.654C267.861 134.574 261.541 141.454 250.901 141.454C244.741 141.454 239.461 139.134 235.781 135.454L233.781 140.494H221.781L238.821 99.6941H252.181ZM248.661 130.174C252.901 130.174 255.861 127.934 255.861 124.414C255.861 119.454 248.901 117.614 245.301 112.014L239.701 125.854C241.621 128.494 244.901 130.174 248.661 130.174ZM293.822 141.454C281.262 141.454 271.822 132.254 271.822 120.094C271.822 107.934 281.262 98.7341 293.822 98.7341C306.382 98.7341 315.822 107.934 315.822 120.094C315.822 132.254 306.382 141.454 293.822 141.454ZM293.822 130.174C299.582 130.174 303.822 125.854 303.822 120.094C303.822 114.334 299.582 110.014 293.822 110.014C288.062 110.014 283.822 114.334 283.822 120.094C283.822 125.854 288.062 130.174 293.822 130.174ZM342.338 141.454C329.778 141.454 320.338 132.254 320.338 120.094C320.338 107.934 329.778 98.7341 342.338 98.7341C353.298 98.7341 362.018 105.854 363.858 115.774H351.458C349.858 112.334 346.418 110.014 342.338 110.014C336.578 110.014 332.338 114.334 332.338 120.094C332.338 125.854 336.578 130.174 342.338 130.174C346.418 130.174 349.858 127.854 351.458 124.414H363.858C362.018 134.334 353.298 141.454 342.338 141.454ZM376.472 94.4941C372.392 94.4941 369.272 91.4541 369.272 87.2941C369.272 83.2141 372.392 80.1741 376.472 80.1741C380.632 80.1741 383.752 83.2141 383.752 87.2941C383.752 91.4541 380.632 94.4941 376.472 94.4941ZM370.632 140.494V99.6941H382.312V140.494H370.632ZM436.442 129.214H437.242V140.494H433.962C428.202 140.494 424.362 138.494 422.602 134.574C419.482 138.814 414.842 141.454 409.162 141.454C397.962 141.454 389.482 132.254 389.482 120.094C389.482 107.934 397.962 98.7341 409.162 98.7341C414.202 98.7341 418.442 100.814 421.482 104.174V99.6941H433.162V125.934C433.162 128.014 434.362 129.214 436.442 129.214ZM411.482 130.174C417.242 130.174 421.482 125.854 421.482 120.094C421.482 114.334 417.242 110.014 411.482 110.014C405.802 110.014 401.562 114.334 401.562 120.094C401.562 125.854 405.802 130.174 411.482 130.174ZM472.793 129.214H475.353V140.494H472.153C465.993 140.494 460.553 138.654 455.993 135.454C452.873 137.534 449.513 139.214 445.833 140.494L441.353 131.134C443.833 130.174 446.233 128.894 448.393 127.454C444.313 121.294 442.073 113.294 442.073 104.254C442.073 90.0141 448.713 81.9341 458.713 81.9341C468.313 81.9341 474.633 89.2141 474.633 101.614C474.633 110.894 471.193 120.014 465.113 127.214C467.433 128.494 469.993 129.214 472.793 129.214ZM458.473 93.2141C455.833 93.2141 454.073 96.4141 454.073 103.374C454.073 109.054 455.193 114.254 457.273 118.494C460.633 113.534 462.553 107.694 462.553 101.614C462.553 96.1741 461.033 93.2141 458.473 93.2141Z" fill="#004F94"/>
<path d="M32.14 53.9341V43.7604C26.5212 43.7604 21.9663 48.3154 21.9663 53.9341H32.14ZM44.86 53.9341H55.0337C55.0337 48.3154 50.4788 43.7604 44.86 43.7604V53.9341ZM49.66 48.0141L52.029 38.1201L52.0165 38.1171L49.66 48.0141ZM72.22 31.1341V41.3078C77.8388 41.3078 82.3937 36.7529 82.3937 31.1341H72.22ZM59.5 31.1341H49.3263C49.3263 36.7529 53.8813 41.3078 59.5 41.3078V31.1341ZM55.66 37.1341L58.0852 27.2537C58.0536 27.2459 58.0219 27.2383 57.9902 27.2309L55.66 37.1341ZM52.7 71.4541V61.2804C45.0448 61.2804 42.3137 56.7524 42.3137 53.9341H32.14H21.9663C21.9663 70.7959 36.8352 81.6279 52.7 81.6279V71.4541ZM32.14 53.9341V64.1078H44.86V53.9341V43.7604H32.14V53.9341ZM44.86 53.9341H34.6863C34.6863 65.0251 44.8371 70.5878 52.86 70.5878V60.4141V50.2404C52.7577 50.2404 53.0734 50.204 53.5955 50.6282C54.1529 51.0811 55.0337 52.2121 55.0337 53.9341H44.86ZM52.86 60.4141V70.5878C56.7372 70.5878 60.77 69.5199 64.1056 67.1053C67.5205 64.6333 70.4737 60.4403 70.4737 54.9741H60.3H50.1263C50.1263 52.6279 51.4395 51.155 52.1744 50.623C52.8301 50.1484 53.1429 50.2404 52.86 50.2404V60.4141ZM60.3 54.9741H70.4737C70.4737 47.6769 65.2554 43.6001 62.1771 41.832C58.9189 39.9607 55.0925 38.8536 52.029 38.1201L49.66 48.0141L47.291 57.9082C48.5062 58.1992 49.5469 58.4927 50.4075 58.7889C51.2916 59.0932 51.8038 59.3389 52.043 59.4762C52.3208 59.6358 51.9215 59.4712 51.3928 58.7886C51.1046 58.4165 50.7735 57.8831 50.5191 57.1863C50.2597 56.4759 50.1263 55.7203 50.1263 54.9741H60.3ZM49.66 48.0141L52.0165 38.1171C48.6622 37.3185 46.2403 36.1613 44.8314 34.9472C43.7527 34.0176 43.1937 33.0654 43.1937 31.2941H33.02H22.8463C22.8463 39.5229 26.4074 45.9306 31.5487 50.3611C36.3597 54.5069 42.2579 56.7098 47.3036 57.9112L49.66 48.0141ZM33.02 31.2941H43.1937C43.1937 28.2811 45.472 24.5078 52.54 24.5078V14.3341V4.16043C37.3681 4.16043 22.8463 14.1472 22.8463 31.2941H33.02ZM52.54 14.3341V24.5078C59.7071 24.5078 62.0463 28.6173 62.0463 31.1341H72.22H82.3937C82.3937 14.4509 67.773 4.16043 52.54 4.16043V14.3341ZM72.22 31.1341V20.9604H59.5V31.1341V41.3078H72.22V31.1341ZM59.5 31.1341H69.6737C69.6737 20.348 59.9842 15.2004 52.38 15.2004V25.3741V35.5478C52.3727 35.5478 52.2459 35.5469 52.0219 35.4729C51.8013 35.4 51.4548 35.2447 51.0616 34.9258C50.2017 34.2284 49.3263 32.8712 49.3263 31.1341H59.5ZM52.38 25.3741V15.2004C48.8067 15.2004 44.951 16.1565 41.7084 18.5074C38.3128 20.9692 35.5663 25.0817 35.5663 30.3341H45.74H55.9137C55.9137 31.3462 55.6469 32.3619 55.1561 33.2465C54.6829 34.0991 54.1031 34.6536 53.6517 34.9809C53.2065 35.3037 52.8455 35.4389 52.6599 35.4934C52.5605 35.5227 52.488 35.5358 52.4449 35.5418C52.4227 35.5449 52.4065 35.5464 52.396 35.5471C52.3856 35.5478 52.3803 35.5478 52.38 35.5478V25.3741ZM45.74 30.3341H35.5663C35.5663 37.2047 40.1646 41.3055 43.355 43.2552C46.5481 45.2066 50.2859 46.3212 53.3299 47.0374L55.66 37.1341L57.9902 27.2309C56.884 26.9706 55.9653 26.7054 55.2317 26.4438C54.4762 26.1744 54.0913 25.9702 53.9651 25.8931C53.815 25.8013 54.2601 26.0319 54.7858 26.7633C55.0659 27.1529 55.3613 27.676 55.5817 28.3283C55.805 28.9892 55.9137 29.6731 55.9137 30.3341H45.74ZM55.66 37.1341L53.2348 47.0146C57.1408 47.9733 59.7633 49.1177 61.2726 50.3289C61.9342 50.8598 62.2636 51.3113 62.4503 51.6837C62.6262 52.0346 62.8463 52.6508 62.8463 53.7741H73.02H83.1937C83.1937 45.2713 79.4454 38.8232 74.0074 34.4594C69.0368 30.4705 62.9793 28.455 58.0852 27.2537L55.66 37.1341ZM73.02 53.7741H62.8463C62.8463 57.1926 60.1618 61.2804 52.7 61.2804V71.4541V81.6279C68.2783 81.6279 83.1937 71.3157 83.1937 53.7741H73.02ZM80.3194 70.4941H70.1457C70.1457 76.1129 74.7006 80.6678 80.3194 80.6678V70.4941ZM80.3194 29.6941V19.5204C74.7006 19.5204 70.1457 24.0754 70.1457 29.6941H80.3194ZM91.9994 29.6941H102.173C102.173 24.0754 97.6182 19.5204 91.9994 19.5204V29.6941ZM91.9994 70.4941V80.6678C97.6182 80.6678 102.173 76.1129 102.173 70.4941H91.9994ZM86.1594 24.4941V14.3204C86.7038 14.3204 87.5097 14.5521 88.1953 15.2323C88.8924 15.924 89.1331 16.7508 89.1331 17.2941H78.9594H68.7857C68.7857 27.1474 76.5354 34.6678 86.1594 34.6678V24.4941ZM78.9594 17.2941H89.1331C89.1331 17.9302 88.8544 18.7771 88.1669 19.454C87.491 20.1194 86.7008 20.3478 86.1594 20.3478V10.1741V0.000430107C76.6111 0.000430107 68.7857 7.44607 68.7857 17.2941H78.9594ZM86.1594 10.1741V20.3478C85.7091 20.3478 84.9395 20.1551 84.25 19.4815C83.548 18.7957 83.2657 17.9336 83.2657 17.2941H93.4394H103.613C103.613 7.37274 95.713 0.000430107 86.1594 0.000430107V10.1741ZM93.4394 17.2941H83.2657C83.2657 16.7477 83.5098 15.9054 84.2215 15.2047C84.9207 14.5162 85.7064 14.3204 86.1594 14.3204V24.4941V34.6678C95.7889 34.6678 103.613 27.2211 103.613 17.2941H93.4394ZM80.3194 70.4941H90.4931V29.6941H80.3194H70.1457V70.4941H80.3194ZM80.3194 29.6941V39.8678H91.9994V29.6941V19.5204H80.3194V29.6941ZM91.9994 29.6941H81.8257V70.4941H91.9994H102.173V29.6941H91.9994ZM91.9994 70.4941V60.3204H80.3194V70.4941V80.6678H91.9994V70.4941ZM131.169 29.6941V19.5204C125.551 19.5204 120.996 24.0754 120.996 29.6941H131.169ZM142.849 29.6941H153.023C153.023 24.0754 148.468 19.5204 142.849 19.5204V29.6941ZM101.329 72.2541V62.0804C98.1327 62.0804 95.1219 63.5829 93.2 66.1372C91.278 68.6916 90.6683 72.0008 91.5538 75.0723L101.329 72.2541ZM113.409 72.2541L122.053 66.8889C120.198 63.899 116.928 62.0804 113.409 62.0804V72.2541ZM131.169 64.7341H141.343C141.343 60.5266 138.753 56.7531 134.827 55.2405C130.9 53.728 126.448 54.7884 123.625 57.9085L131.169 64.7341ZM131.169 34.0941L123.625 40.9198C126.448 44.0399 130.9 45.1003 134.827 43.5877C138.753 42.0752 141.343 38.3017 141.343 34.0941H131.169ZM131.169 29.6941V39.8678H142.849V29.6941V19.5204H131.169V29.6941ZM142.849 29.6941H132.676V66.0941H142.849H153.023V29.6941H142.849ZM142.849 66.0941H132.676C132.676 69.9273 131.429 72.3134 129.965 73.7417C128.477 75.1939 125.912 76.4804 121.809 76.4804V86.6541V96.8279C130.347 96.8279 138.302 94.0344 144.174 88.3065C150.07 82.5549 153.023 74.661 153.023 66.0941H142.849ZM121.809 86.6541V76.4804C115.425 76.4804 112.292 73.5534 111.105 69.436L101.329 72.2541L91.5538 75.0723C95.4868 88.7149 107.234 96.8279 121.809 96.8279V86.6541ZM101.329 72.2541V82.4278H113.409V72.2541V62.0804H101.329V72.2541ZM113.409 72.2541L104.765 77.6194C108.712 83.9771 115.971 86.1879 121.809 86.1879V76.0141V65.8404C121.19 65.8404 120.892 65.7166 120.901 65.7205C120.915 65.727 121.053 65.7898 121.26 65.9604C121.471 66.1334 121.769 66.4314 122.053 66.8889L113.409 72.2541ZM121.809 76.0141V86.1879C127.147 86.1879 132.298 84.2412 136.064 80.1983C139.762 76.2277 141.343 71.0858 141.343 66.0141H131.169H120.996C120.996 66.4784 120.925 66.6862 120.921 66.6967C120.921 66.6976 120.98 66.5388 121.175 66.33C121.375 66.1152 121.611 65.9633 121.81 65.8816C121.999 65.8041 122.029 65.8404 121.809 65.8404V76.0141ZM131.169 66.0141H141.343V64.7341H131.169H120.996V66.0141H131.169ZM131.169 64.7341L123.625 57.9085C122.509 59.1427 121.007 59.9204 118.849 59.9204V70.0941V80.2679C126.772 80.2679 133.75 77.0456 138.714 71.5598L131.169 64.7341ZM118.849 70.0941V59.9204C113.712 59.9204 109.343 56.0539 109.343 49.3741H99.1694H88.9957C88.9957 66.2144 101.427 80.2679 118.849 80.2679V70.0941ZM99.1694 49.3741H109.343C109.343 42.7475 113.662 38.9078 118.849 38.9078V28.7341V18.5604C101.477 18.5604 88.9957 32.4808 88.9957 49.3741H99.1694ZM118.849 28.7341V38.9078C121.007 38.9078 122.509 39.6856 123.625 40.9198L131.169 34.0941L138.714 27.2685C133.75 21.7827 126.772 18.5604 118.849 18.5604V28.7341ZM131.169 34.0941H141.343V29.6941H131.169H120.996V34.0941H131.169ZM121.169 59.4541V69.6278C132.655 69.6278 141.343 60.6455 141.343 49.3741H131.169H120.996C120.996 49.4691 120.987 49.5304 120.981 49.5619C120.975 49.5935 120.971 49.6015 120.975 49.5907C120.986 49.5641 121.021 49.4962 121.095 49.4205C121.131 49.3849 121.169 49.3535 121.208 49.3277C121.246 49.3018 121.28 49.2853 121.303 49.2757C121.326 49.2661 121.333 49.2664 121.316 49.2696C121.3 49.2728 121.252 49.2804 121.169 49.2804V59.4541ZM131.169 49.3741H141.343C141.343 38.2363 132.708 29.1204 121.169 29.1204V39.2941V49.4678C121.24 49.4678 121.278 49.4745 121.287 49.4762C121.296 49.4781 121.286 49.4768 121.261 49.4667C121.237 49.4566 121.206 49.4407 121.172 49.4175C121.137 49.3944 121.105 49.3673 121.076 49.3377C121.015 49.2755 120.987 49.2214 120.979 49.2015C120.97 49.1792 120.996 49.2274 120.996 49.3741H131.169ZM121.169 39.2941V29.1204C109.631 29.1204 100.996 38.2363 100.996 49.3741H111.169H121.343C121.343 49.2274 121.369 49.1792 121.36 49.2015C121.352 49.2214 121.324 49.2755 121.263 49.3377C121.234 49.3673 121.202 49.3944 121.167 49.4175C121.133 49.4407 121.102 49.4566 121.077 49.4667C121.053 49.4768 121.043 49.4781 121.052 49.4762C121.061 49.4745 121.099 49.4678 121.169 49.4678V39.2941ZM111.169 49.3741H100.996C100.996 60.6455 109.684 69.6278 121.169 69.6278V59.4541V49.2804C121.087 49.2804 121.039 49.2728 121.023 49.2696C121.006 49.2664 121.012 49.2661 121.036 49.2757C121.059 49.2853 121.093 49.3018 121.131 49.3277C121.17 49.3535 121.208 49.3849 121.243 49.4205C121.318 49.4962 121.353 49.5641 121.364 49.5907C121.368 49.6015 121.364 49.5935 121.358 49.5619C121.352 49.5304 121.343 49.4691 121.343 49.3741H111.169ZM197.476 59.2141H207.65C207.65 53.5954 203.095 49.0404 197.476 49.0404V59.2141ZM197.476 70.4941V80.6678C203.095 80.6678 207.65 76.1129 207.65 70.4941H197.476ZM182.836 64.5741L192.117 60.4071C190.636 57.1065 187.512 54.8412 183.915 54.4577C180.317 54.0743 176.786 55.6303 174.642 58.5444L182.836 64.5741ZM181.716 34.1741L174.172 40.9998C176.995 44.1199 181.447 45.1803 185.374 43.6677C189.3 42.1552 191.89 38.3817 191.89 34.1741H181.716ZM181.716 29.6941V19.5204C176.098 19.5204 171.543 24.0754 171.543 29.6941H181.716ZM193.396 29.6941H203.57C203.57 24.0754 199.015 19.5204 193.396 19.5204V29.6941ZM196.676 59.2141V69.3879H197.476V59.2141V49.0404H196.676V59.2141ZM197.476 59.2141H187.303V70.4941H197.476H207.65V59.2141H197.476ZM197.476 70.4941V60.3204H194.196V70.4941V80.6678H197.476V70.4941ZM194.196 70.4941V60.3204C192.424 60.3204 191.76 60.0037 191.717 59.9817C191.717 59.9815 191.817 60.0372 191.941 60.1685C191.998 60.2283 192.043 60.2868 192.076 60.3363C192.108 60.3852 192.12 60.4124 192.117 60.4071L182.836 64.5741L173.555 68.7412C177.533 77.5999 186.057 80.6678 194.196 80.6678V70.4941ZM182.836 64.5741L174.642 58.5444C173.289 60.3836 171.595 61.2804 169.396 61.2804V71.4541V81.6279C178.557 81.6279 186.144 77.2447 191.031 70.6039L182.836 64.5741ZM169.396 71.4541V61.2804C164.582 61.2804 159.89 57.4348 159.89 50.0941H149.716H139.543C139.543 67.0735 151.81 81.6279 169.396 81.6279V71.4541ZM149.716 50.0941H159.89C159.89 42.7535 164.582 38.9078 169.396 38.9078V28.7341V18.5604C151.81 18.5604 139.543 33.1148 139.543 50.0941H149.716ZM169.396 28.7341V38.9078C171.435 38.9078 172.975 39.6762 174.172 40.9998L181.716 34.1741L189.26 27.3485C184.378 21.9521 177.437 18.5604 169.396 18.5604V28.7341ZM181.716 34.1741H191.89V29.6941H181.716H171.543V34.1741H181.716ZM181.716 29.6941V39.8678H193.396V29.6941V19.5204H181.716V29.6941ZM193.396 29.6941H183.223V55.9341H193.396H203.57V29.6941H193.396ZM193.396 55.9341H183.223C183.223 58.9124 184.117 62.6026 187.062 65.548C190.008 68.4934 193.698 69.3879 196.676 69.3879V59.2141V49.0404C197.575 49.0404 199.625 49.3348 201.45 51.1602C203.276 52.9856 203.57 55.0359 203.57 55.9341H193.396ZM171.716 60.1741V70.3479C183.202 70.3479 191.89 61.3655 191.89 50.0941H181.716H171.543C171.543 50.1891 171.534 50.2504 171.528 50.2819C171.522 50.3135 171.517 50.3215 171.522 50.3107C171.532 50.2841 171.568 50.2162 171.642 50.1405C171.678 50.1049 171.716 50.0735 171.754 50.0477C171.793 50.0218 171.826 50.0053 171.85 49.9957C171.873 49.9861 171.88 49.9864 171.863 49.9896C171.847 49.9928 171.799 50.0004 171.716 50.0004V60.1741ZM181.716 50.0941H191.89C191.89 38.8228 183.202 29.8404 171.716 29.8404V40.0141V50.1879C171.799 50.1879 171.847 50.1955 171.863 50.1987C171.88 50.2019 171.873 50.2022 171.85 50.1926C171.826 50.183 171.793 50.1665 171.754 50.1406C171.716 50.1148 171.678 50.0834 171.642 50.0477C171.568 49.9721 171.532 49.9042 171.522 49.8776C171.517 49.8668 171.522 49.8748 171.528 49.9064C171.534 49.9379 171.543 49.9992 171.543 50.0941H181.716ZM171.716 40.0141V29.8404C160.257 29.8404 151.623 38.8772 151.623 50.0941H161.796H171.97C171.97 49.9101 172.002 49.8464 171.993 49.8692C171.985 49.8902 171.953 49.9538 171.88 50.0273C171.807 50.1015 171.726 50.1526 171.66 50.1798C171.63 50.1923 171.614 50.1952 171.618 50.1945C171.621 50.1938 171.652 50.1879 171.716 50.1879V40.0141ZM161.796 50.0941H151.623C151.623 61.311 160.257 70.3479 171.716 70.3479V60.1741V50.0004C171.652 50.0004 171.621 49.9945 171.618 49.9938C171.614 49.9931 171.63 49.996 171.66 50.0085C171.726 50.0357 171.807 50.0868 171.88 50.1609C171.953 50.2345 171.985 50.298 171.993 50.319C172.002 50.3418 171.97 50.2781 171.97 50.0941H161.796ZM264.701 59.2141H274.874C274.874 53.5954 270.319 49.0404 264.701 49.0404V59.2141ZM264.701 70.4941V80.6678C270.319 80.6678 274.874 76.1129 274.874 70.4941H264.701ZM232.621 70.4941V80.6678C238.239 80.6678 242.794 76.1129 242.794 70.4941H232.621ZM220.941 70.4941H210.767C210.767 76.1129 215.322 80.6678 220.941 80.6678V70.4941ZM220.941 29.6941V19.5204C215.322 19.5204 210.767 24.0754 210.767 29.6941H220.941ZM232.621 29.6941H242.794C242.794 24.0754 238.239 19.5204 232.621 19.5204V29.6941ZM232.621 34.1741H222.447C222.447 38.4214 225.085 42.2218 229.065 43.7062C233.044 45.1907 237.527 44.0468 240.309 40.8372L232.621 34.1741ZM263.901 59.2141V69.3879H264.701V59.2141V49.0404H263.901V59.2141ZM264.701 59.2141H254.527V70.4941H264.701H274.874V59.2141H264.701ZM264.701 70.4941V60.3204H261.421V70.4941V80.6678H264.701V70.4941ZM261.421 70.4941V60.3204C258.845 60.3204 258.678 59.6842 259.143 60.1313C259.347 60.3273 259.378 60.4719 259.329 60.3349C259.264 60.1492 259.114 59.5915 259.114 58.4941H248.941H238.767C238.767 64.2031 240.323 70.2623 245.038 74.797C249.683 79.2641 255.756 80.6678 261.421 80.6678V70.4941ZM248.941 58.4941H259.114V48.1741H248.941H238.767V58.4941H248.941ZM248.941 48.1741H259.114C259.114 43.5433 257.623 38.8088 254.112 35.1703C250.57 31.499 245.832 29.8404 241.101 29.8404V40.0141V50.1879C241.128 50.1879 240.927 50.1911 240.581 50.0547C240.224 49.9136 239.823 49.6651 239.469 49.298C238.699 48.4995 238.767 47.845 238.767 48.1741H248.941ZM241.101 40.0141V29.8404C236.347 29.8404 231.544 31.4231 227.875 34.993C224.177 38.5925 222.447 43.4229 222.447 48.3341H232.621H242.794C242.794 48.2355 242.81 48.366 242.7 48.6441C242.586 48.9315 242.38 49.2698 242.066 49.5752C241.378 50.2451 240.814 50.1879 241.101 50.1879V40.0141ZM232.621 48.3341H222.447V70.4941H232.621H242.794V48.3341H232.621ZM232.621 70.4941V60.3204H220.941V70.4941V80.6678H232.621V70.4941ZM220.941 70.4941H231.114V29.6941H220.941H210.767V70.4941H220.941ZM220.941 29.6941V39.8678H232.621V29.6941V19.5204H220.941V29.6941ZM232.621 29.6941H222.447V34.1741H232.621H242.794V29.6941H232.621ZM232.621 34.1741L240.309 40.8372C241.343 39.6434 242.689 38.9078 245.021 38.9078V28.7341V18.5604C237.272 18.5604 230.138 21.5049 224.932 27.5111L232.621 34.1741ZM245.021 28.7341V38.9078C247.426 38.9078 248.612 39.6574 249.163 40.2044C249.706 40.7433 250.447 41.8908 250.447 44.2541H260.621H270.794C270.794 37.2574 268.415 30.645 263.498 25.7638C258.589 20.8909 251.975 18.5604 245.021 18.5604V28.7341ZM260.621 44.2541H250.447V55.9341H260.621H270.794V44.2541H260.621ZM260.621 55.9341H250.447C250.447 58.9124 251.341 62.6026 254.287 65.548C257.232 68.4934 260.922 69.3879 263.901 69.3879V59.2141V49.0404C264.799 49.0404 266.849 49.3348 268.675 51.1602C270.5 52.9856 270.794 55.0359 270.794 55.9341H260.621ZM289.916 71.4541V61.2804C282.7 61.2804 278.089 56.365 278.089 50.0941H267.916H257.742C257.742 68.1432 272.011 81.6279 289.916 81.6279V71.4541ZM267.916 50.0941H278.089C278.089 43.8232 282.7 38.9078 289.916 38.9078V28.7341V18.5604C272.011 18.5604 257.742 32.045 257.742 50.0941H267.916ZM289.916 28.7341V38.9078C297.131 38.9078 301.742 43.8232 301.742 50.0941H311.916H322.089C322.089 32.045 307.82 18.5604 289.916 18.5604V28.7341ZM311.916 50.0941H301.742C301.742 56.365 297.131 61.2804 289.916 61.2804V71.4541V81.6279C307.82 81.6279 322.089 68.1432 322.089 50.0941H311.916ZM289.916 60.1741V70.3479C301.401 70.3479 310.089 61.3655 310.089 50.0941H299.916H289.742C289.742 50.1891 289.733 50.2504 289.727 50.2819C289.721 50.3135 289.717 50.3215 289.721 50.3107C289.732 50.2841 289.767 50.2162 289.842 50.1405C289.877 50.1049 289.915 50.0735 289.954 50.0477C289.993 50.0218 290.026 50.0053 290.049 49.9957C290.073 49.9861 290.079 49.9864 290.062 49.9896C290.046 49.9928 289.999 50.0004 289.916 50.0004V60.1741ZM299.916 50.0941H310.089C310.089 38.8228 301.401 29.8404 289.916 29.8404V40.0141V50.1879C289.999 50.1879 290.046 50.1955 290.062 50.1987C290.079 50.2019 290.073 50.2022 290.049 50.1926C290.026 50.183 289.993 50.1665 289.954 50.1406C289.915 50.1148 289.877 50.0834 289.842 50.0477C289.767 49.9721 289.732 49.9042 289.721 49.8776C289.717 49.8668 289.721 49.8748 289.727 49.9064C289.733 49.9379 289.742 49.9992 289.742 50.0941H299.916ZM289.916 40.0141V29.8404C278.43 29.8404 269.742 38.8228 269.742 50.0941H279.916H290.089C290.089 49.9992 290.098 49.9379 290.104 49.9064C290.11 49.8748 290.115 49.8668 290.11 49.8776C290.1 49.9042 290.064 49.9721 289.99 50.0477C289.954 50.0834 289.916 50.1148 289.878 50.1406C289.839 50.1665 289.805 50.183 289.782 50.1926C289.759 50.2022 289.752 50.2019 289.769 50.1987C289.785 50.1955 289.833 50.1879 289.916 50.1879V40.0141ZM279.916 50.0941H269.742C269.742 61.3655 278.43 70.3479 289.916 70.3479V60.1741V50.0004C289.833 50.0004 289.785 49.9928 289.769 49.9896C289.752 49.9864 289.759 49.9861 289.782 49.9957C289.805 50.0053 289.839 50.0218 289.878 50.0477C289.916 50.0735 289.954 50.1049 289.99 50.1405C290.064 50.2162 290.1 50.2841 290.11 50.3107C290.115 50.3215 290.11 50.3135 290.104 50.2819C290.098 50.2504 290.089 50.1891 290.089 50.0941H279.916ZM341.399 29.6941L351.507 28.5368C350.919 23.3993 346.57 19.5204 341.399 19.5204V29.6941ZM324.999 65.4541L332.193 58.2602C329.772 55.8386 326.294 54.7978 322.94 55.491C319.586 56.1842 316.806 58.5183 315.543 61.7016L324.999 65.4541ZM322.999 70.4941V80.6678C327.17 80.6678 330.918 78.1229 332.456 74.2467L322.999 70.4941ZM310.999 70.4941L301.612 66.5733C300.3 69.7136 300.645 73.3016 302.532 76.134C304.419 78.9663 307.596 80.6678 310.999 80.6678V70.4941ZM328.039 29.6941V19.5204C323.935 19.5204 320.233 21.9863 318.652 25.7733L328.039 29.6941ZM334.519 42.0141L343.077 36.5126C341.022 33.3151 337.355 31.5302 333.57 31.8848C329.786 32.2394 326.514 34.6744 325.088 38.1982L334.519 42.0141ZM328.919 55.8541L319.488 52.0382C318.171 55.2935 318.626 58.998 320.692 61.838L328.919 55.8541ZM341.399 29.6941L331.292 30.8515C332.473 41.1655 340.937 46.5173 343.265 48.4131C344.943 49.779 345.7 50.5828 346.153 51.3131C346.481 51.8431 346.906 52.7348 346.906 54.6541H357.079H367.253C367.253 49.1335 365.867 44.4952 363.444 40.5877C361.144 36.8805 358.206 34.3393 356.114 32.6352C350.902 28.391 351.526 28.7028 351.507 28.5368L341.399 29.6941ZM357.079 54.6541H346.906C346.906 57.4389 346.055 58.9093 345.335 59.6418C344.647 60.3413 343.187 61.2804 340.119 61.2804V71.4541V81.6279C347.692 81.6279 354.712 79.127 359.844 73.9065C364.944 68.719 367.253 61.7894 367.253 54.6541H357.079ZM340.119 71.4541V61.2804C336.577 61.2804 333.909 59.9761 332.193 58.2602L324.999 65.4541L317.806 72.648C323.45 78.2922 331.342 81.6279 340.119 81.6279V71.4541ZM324.999 65.4541L315.543 61.7016L313.543 66.7416L322.999 70.4941L332.456 74.2467L334.456 69.2067L324.999 65.4541ZM322.999 70.4941V60.3204H310.999V70.4941V80.6678H322.999V70.4941ZM310.999 70.4941L320.387 74.4149L337.427 33.6149L328.039 29.6941L318.652 25.7733L301.612 66.5733L310.999 70.4941ZM328.039 29.6941V39.8678H341.399V29.6941V19.5204H328.039V29.6941ZM337.879 60.1741V70.3479C341.691 70.3479 345.884 69.3469 349.363 66.6074C353.062 63.6949 355.253 59.3191 355.253 54.4141H345.079H334.906C334.906 53.8391 335.034 53.1029 335.406 52.3403C335.776 51.5823 336.283 51.0088 336.776 50.6209C337.715 49.8814 338.308 50.0004 337.879 50.0004V60.1741ZM345.079 54.4141H355.253C355.253 46.5755 349.441 42.0835 347.566 40.5593C344.626 38.1693 343.759 37.5724 343.077 36.5126L334.519 42.0141L325.962 47.5157C327.527 49.9505 329.346 51.8033 330.902 53.1962C332.294 54.4427 334.026 55.7747 334.733 56.349C335.761 57.1851 335.869 57.3744 335.758 57.2245C335.476 56.8434 334.906 55.8168 334.906 54.4141H345.079ZM334.519 42.0141L325.088 38.1982L319.488 52.0382L328.919 55.8541L338.35 59.6701L343.95 45.8301L334.519 42.0141ZM328.919 55.8541L320.692 61.838C324.66 67.2951 331.1 70.3479 337.879 70.3479V60.1741V50.0004C337.139 50.0004 337.018 49.6932 337.147 49.8703L328.919 55.8541ZM387.103 29.6941L397.21 28.5368C396.622 23.3993 392.274 19.5204 387.103 19.5204V29.6941ZM370.703 65.4541L377.896 58.2602C375.475 55.8386 371.997 54.7978 368.643 55.491C365.289 56.1842 362.509 58.5183 361.246 61.7016L370.703 65.4541ZM368.703 70.4941V80.6678C372.873 80.6678 376.621 78.1229 378.159 74.2467L368.703 70.4941ZM356.703 70.4941L347.315 66.5733C346.003 69.7136 346.349 73.3016 348.235 76.134C350.122 78.9663 353.299 80.6678 356.703 80.6678V70.4941ZM373.743 29.6941V19.5204C369.638 19.5204 365.936 21.9863 364.355 25.7733L373.743 29.6941ZM380.223 42.0141L388.78 36.5126C386.725 33.3151 383.058 31.5302 379.273 31.8848C375.489 32.2394 372.217 34.6744 370.792 38.1982L380.223 42.0141ZM374.623 55.8541L365.192 52.0382C363.874 55.2935 364.329 58.998 366.395 61.838L374.623 55.8541ZM387.103 29.6941L376.995 30.8515C378.176 41.1655 386.64 46.5173 388.968 48.4131C390.646 49.779 391.403 50.5828 391.856 51.3131C392.184 51.8431 392.609 52.7348 392.609 54.6541H402.783H412.956C412.956 49.1335 411.571 44.4952 409.147 40.5877C406.847 36.8805 403.909 34.3393 401.817 32.6352C396.605 28.391 397.229 28.7028 397.21 28.5368L387.103 29.6941ZM402.783 54.6541H392.609C392.609 57.4389 391.758 58.9093 391.038 59.6418C390.35 60.3413 388.89 61.2804 385.823 61.2804V71.4541V81.6279C393.395 81.6279 400.415 79.127 405.547 73.9065C410.647 68.719 412.956 61.7894 412.956 54.6541H402.783ZM385.823 71.4541V61.2804C382.28 61.2804 379.612 59.9761 377.896 58.2602L370.703 65.4541L363.509 72.648C369.153 78.2922 377.045 81.6279 385.823 81.6279V71.4541ZM370.703 65.4541L361.246 61.7016L359.246 66.7416L368.703 70.4941L378.159 74.2467L380.159 69.2067L370.703 65.4541ZM368.703 70.4941V60.3204H356.703V70.4941V80.6678H368.703V70.4941ZM356.703 70.4941L366.09 74.4149L383.13 33.6149L373.743 29.6941L364.355 25.7733L347.315 66.5733L356.703 70.4941ZM373.743 29.6941V39.8678H387.103V29.6941V19.5204H373.743V29.6941ZM383.583 60.1741V70.3479C387.394 70.3479 391.587 69.3469 395.066 66.6074C398.765 63.6949 400.956 59.3191 400.956 54.4141H390.783H380.609C380.609 53.8391 380.737 53.1029 381.109 52.3403C381.479 51.5823 381.986 51.0088 382.479 50.6209C383.418 49.8814 384.011 50.0004 383.583 50.0004V60.1741ZM390.783 54.4141H400.956C400.956 46.5755 395.145 42.0835 393.269 40.5593C390.329 38.1693 389.462 37.5724 388.78 36.5126L380.223 42.0141L371.665 47.5157C373.23 49.9505 375.049 51.8033 376.605 53.1962C377.997 54.4427 379.729 55.7747 380.436 56.349C381.464 57.1851 381.573 57.3744 381.462 57.2245C381.179 56.8434 380.609 55.8168 380.609 54.4141H390.783ZM380.223 42.0141L370.792 38.1982L365.192 52.0382L374.623 55.8541L384.053 59.6701L389.653 45.8301L380.223 42.0141ZM374.623 55.8541L366.395 61.838C370.363 67.2951 376.803 70.3479 383.583 70.3479V60.1741V50.0004C382.842 50.0004 382.722 49.6932 382.85 49.8703L374.623 55.8541ZM454.664 59.2141H464.837C464.837 53.5954 460.283 49.0404 454.664 49.0404V59.2141ZM454.664 70.4941V80.6678C460.283 80.6678 464.837 76.1129 464.837 70.4941H454.664ZM440.024 64.5741L449.305 60.4071C447.823 57.1065 444.7 54.8412 441.102 54.4577C437.504 54.0743 433.974 55.6303 431.829 58.5444L440.024 64.5741ZM438.904 34.1741L431.36 40.9998C434.183 44.1199 438.635 45.1803 442.561 43.6677C446.487 42.1552 449.077 38.3817 449.077 34.1741H438.904ZM438.904 29.6941V19.5204C433.285 19.5204 428.73 24.0754 428.73 29.6941H438.904ZM450.584 29.6941H460.758C460.758 24.0754 456.203 19.5204 450.584 19.5204V29.6941ZM453.864 59.2141V69.3879H454.664V59.2141V49.0404H453.864V59.2141ZM454.664 59.2141H444.49V70.4941H454.664H464.837V59.2141H454.664ZM454.664 70.4941V60.3204H451.384V70.4941V80.6678H454.664V70.4941ZM451.384 70.4941V60.3204C449.611 60.3204 448.947 60.0037 448.905 59.9817C448.904 59.9815 449.005 60.0372 449.129 60.1685C449.185 60.2283 449.23 60.2868 449.263 60.3363C449.295 60.3852 449.307 60.4124 449.305 60.4071L440.024 64.5741L430.743 68.7412C434.72 77.5999 443.245 80.6678 451.384 80.6678V70.4941ZM440.024 64.5741L431.829 58.5444C430.476 60.3836 428.783 61.2804 426.584 61.2804V71.4541V81.6279C435.745 81.6279 443.331 77.2447 448.218 70.6039L440.024 64.5741ZM426.584 71.4541V61.2804C421.77 61.2804 417.077 57.4348 417.077 50.0941H406.904H396.73C396.73 67.0735 408.998 81.6279 426.584 81.6279V71.4541ZM406.904 50.0941H417.077C417.077 42.7535 421.77 38.9078 426.584 38.9078V28.7341V18.5604C408.998 18.5604 396.73 33.1148 396.73 50.0941H406.904ZM426.584 28.7341V38.9078C428.623 38.9078 430.162 39.6762 431.36 40.9998L438.904 34.1741L446.448 27.3485C441.566 21.9521 434.625 18.5604 426.584 18.5604V28.7341ZM438.904 34.1741H449.077V29.6941H438.904H428.73V34.1741H438.904ZM438.904 29.6941V39.8678H450.584V29.6941V19.5204H438.904V29.6941ZM450.584 29.6941H440.41V55.9341H450.584H460.758V29.6941H450.584ZM450.584 55.9341H440.41C440.41 58.9124 441.304 62.6026 444.25 65.548C447.195 68.4934 450.885 69.3879 453.864 69.3879V59.2141V49.0404C454.762 49.0404 456.812 49.3348 458.638 51.1602C460.463 52.9856 460.758 55.0359 460.758 55.9341H450.584ZM428.904 60.1741V70.3479C440.389 70.3479 449.077 61.3655 449.077 50.0941H438.904H428.73C428.73 50.1891 428.721 50.2504 428.715 50.2819C428.709 50.3135 428.705 50.3215 428.709 50.3107C428.72 50.2841 428.755 50.2162 428.83 50.1405C428.865 50.1049 428.903 50.0735 428.942 50.0477C428.981 50.0218 429.014 50.0053 429.037 49.9957C429.061 49.9861 429.067 49.9864 429.051 49.9896C429.034 49.9928 428.987 50.0004 428.904 50.0004V60.1741ZM438.904 50.0941H449.077C449.077 38.8228 440.389 29.8404 428.904 29.8404V40.0141V50.1879C428.987 50.1879 429.034 50.1955 429.051 50.1987C429.067 50.2019 429.061 50.2022 429.037 50.1926C429.014 50.183 428.981 50.1665 428.942 50.1406C428.903 50.1148 428.865 50.0834 428.83 50.0477C428.755 49.9721 428.72 49.9042 428.709 49.8776C428.705 49.8668 428.709 49.8748 428.715 49.9064C428.721 49.9379 428.73 49.9992 428.73 50.0941H438.904ZM428.904 40.0141V29.8404C417.444 29.8404 408.81 38.8772 408.81 50.0941H418.984H429.158C429.158 49.9101 429.19 49.8464 429.18 49.8692C429.172 49.8902 429.14 49.9538 429.068 50.0273C428.995 50.1015 428.913 50.1526 428.847 50.1798C428.817 50.1923 428.802 50.1952 428.805 50.1945C428.809 50.1938 428.84 50.1879 428.904 50.1879V40.0141ZM418.984 50.0941H408.81C408.81 61.311 417.444 70.3479 428.904 70.3479V60.1741V50.0004C428.84 50.0004 428.809 49.9945 428.805 49.9938C428.802 49.9931 428.817 49.996 428.847 50.0085C428.913 50.0357 428.995 50.0868 429.068 50.1609C429.14 50.2345 429.172 50.298 429.18 50.319C429.19 50.3418 429.158 50.2781 429.158 50.0941H418.984ZM54.6538 129.214H64.8275C64.8275 123.595 60.2726 119.04 54.6538 119.04V129.214ZM54.6538 140.494V150.668C60.2726 150.668 64.8275 146.113 64.8275 140.494H54.6538ZM37.0538 113.214L46.273 117.516C47.6466 114.573 47.5322 111.151 45.9653 108.306C44.3983 105.461 41.5672 103.535 38.3455 103.123L37.0538 113.214ZM27.0538 111.934L28.3455 101.843C23.0002 101.159 18.0487 104.761 17.0546 110.058L27.0538 111.934ZM21.6938 140.494V150.668C26.5889 150.668 30.79 147.182 31.6929 142.371L21.6938 140.494ZM10.1738 140.494L0.194722 138.514C-0.398136 141.501 0.378312 144.596 2.31076 146.95C4.24322 149.304 7.12843 150.668 10.1738 150.668V140.494ZM16.4138 109.054L26.3928 111.035C27.1712 107.113 25.5805 103.099 22.3271 100.775L16.4138 109.054ZM28.1738 100.894L18.0623 102.018C18.5865 106.735 22.3029 110.463 27.0186 111.002L28.1738 100.894ZM53.3738 103.774H63.5475C63.5475 98.6023 59.6674 94.2535 54.529 93.6662L53.3738 103.774ZM53.3738 106.574L61.6157 112.539C62.8714 110.803 63.5475 108.716 63.5475 106.574H53.3738ZM52.8938 129.214V139.388H54.6538V129.214V119.04H52.8938V129.214ZM54.6538 129.214H44.4801V140.494H54.6538H64.8275V129.214H54.6538ZM54.6538 140.494V130.32H51.8538V140.494V150.668H54.6538V140.494ZM51.8538 140.494V130.32C47.9888 130.32 46.5969 129.287 46.1626 128.855C45.7332 128.429 44.8275 127.19 44.8275 123.854H34.6538H24.4801C24.4801 130.918 26.4943 137.999 31.825 143.293C37.1507 148.582 44.3587 150.668 51.8538 150.668V140.494ZM34.6538 123.854H44.8275C44.8275 121.864 45.237 119.737 46.273 117.516L37.0538 113.214L27.8345 108.912C25.5106 113.892 24.4801 118.964 24.4801 123.854H34.6538ZM37.0538 113.214L38.3455 103.123L28.3455 101.843L27.0538 111.934L25.7621 122.026L35.7621 123.306L37.0538 113.214ZM27.0538 111.934L17.0546 110.058L11.6946 138.618L21.6938 140.494L31.6929 142.371L37.0529 113.811L27.0538 111.934ZM21.6938 140.494V130.32H10.1738V140.494V150.668H21.6938V140.494ZM10.1738 140.494L20.1528 142.475L26.3928 111.035L16.4138 109.054L6.43472 107.074L0.194722 138.514L10.1738 140.494ZM16.4138 109.054L22.3271 100.775C22.6333 100.994 22.7942 101.226 22.8734 101.384C22.9529 101.543 22.9875 101.699 22.9875 101.854H12.8138H2.64007C2.64007 107.84 5.44413 113.721 10.5004 117.333L16.4138 109.054ZM12.8138 101.854H22.9875C22.9875 102.165 22.8246 103.091 21.9586 103.925C21.1223 104.729 20.3632 104.748 20.4138 104.748V94.5741V84.4004C15.9044 84.4004 11.3453 85.8989 7.84899 89.2638C4.32298 92.6572 2.64007 97.2236 2.64007 101.854H12.8138ZM20.4138 94.5741V104.748C20.4226 104.748 20.2924 104.748 20.0632 104.669C19.8338 104.589 19.5386 104.441 19.2337 104.186C18.5801 103.639 18.1525 102.829 18.0623 102.018L28.1738 100.894L38.2853 99.7706C37.2474 90.4298 29.3032 84.4004 20.4138 84.4004V94.5741ZM28.1738 100.894L27.0186 111.002L52.2186 113.882L53.3738 103.774L54.529 93.6662L29.329 90.7862L28.1738 100.894ZM53.3738 103.774H43.2001V106.574H53.3738H63.5475V103.774H53.3738ZM53.3738 106.574L45.1319 100.61C40.3448 107.224 36.4801 114.676 36.4801 122.414H46.6538H56.8275C56.8275 121.192 57.6027 118.084 61.6157 112.539L53.3738 106.574ZM46.6538 122.414H36.4801C36.4801 126.14 37.3908 130.666 40.7306 134.324C44.2116 138.136 48.8383 139.388 52.8938 139.388V129.214V119.04C52.8692 119.04 54.376 119.092 55.7569 120.604C56.9968 121.962 56.8275 123.088 56.8275 122.414H46.6538ZM101.283 123.854V134.028C105.952 134.028 110.021 130.851 111.153 126.322L101.283 123.854ZM70.0832 123.854V113.68C66.899 113.68 63.8986 115.171 61.9752 117.709C60.0519 120.246 59.4275 123.538 60.288 126.604L70.0832 123.854ZM88.4832 127.534V117.36C85.1723 117.36 82.0684 118.972 80.163 121.679L88.4832 127.534ZM100.963 127.534L110.508 131.056C111.66 127.934 111.212 124.447 109.31 121.717C107.407 118.987 104.29 117.36 100.963 117.36V127.534ZM70.1632 116.094L60.4281 113.139C59.4923 116.222 60.072 119.566 61.9909 122.154C63.9099 124.742 66.9413 126.268 70.1632 126.268V116.094ZM89.0432 116.094V126.268C92.2059 126.268 95.1888 124.797 97.1142 122.288C99.0397 119.779 99.6888 116.517 98.8704 113.462L89.0432 116.094ZM101.603 120.254H91.4295C91.4295 120.545 91.4172 120.943 91.3894 121.304C91.3759 121.479 91.3626 121.596 91.3548 121.653C91.344 121.731 91.3543 121.622 91.4132 121.387L101.283 123.854L111.153 126.322C111.718 124.061 111.777 121.385 111.777 120.254H101.603ZM101.283 123.854V113.68H70.0832V123.854V134.028H101.283V123.854ZM70.0832 123.854L60.288 126.604C62.7714 135.451 70.2971 141.468 79.9232 141.468V131.294V121.12C79.7958 121.12 79.7097 121.111 79.6604 121.104C79.6114 121.096 79.5946 121.09 79.6042 121.093C79.6141 121.096 79.6429 121.107 79.6848 121.128C79.7267 121.15 79.7729 121.179 79.8192 121.215C79.8654 121.25 79.9038 121.286 79.9334 121.318C79.9628 121.35 79.978 121.372 79.9817 121.378C79.9854 121.384 79.9747 121.368 79.9557 121.326C79.9366 121.283 79.9082 121.211 79.8783 121.105L70.0832 123.854ZM79.9232 131.294V141.468C86.2543 141.468 92.9504 138.864 96.8033 133.389L88.4832 127.534L80.163 121.679C80.4053 121.335 80.6226 121.141 80.7336 121.053C80.8473 120.963 80.896 120.947 80.8538 120.967C80.7612 121.009 80.4464 121.12 79.9232 121.12V131.294ZM88.4832 127.534V137.708H100.963V127.534V117.36H88.4832V127.534ZM100.963 127.534L91.4183 124.013C89.9731 127.93 85.86 131.28 79.6832 131.28V141.454V151.628C93.6663 151.628 105.873 143.618 110.508 131.056L100.963 127.534ZM79.6832 141.454V131.28C72.363 131.28 67.7769 126.341 67.7769 120.094H57.6032H47.4295C47.4295 138.167 61.7233 151.628 79.6832 151.628V141.454ZM57.6032 120.094H67.7769C67.7769 113.823 72.3878 108.908 79.6032 108.908V98.7341V88.5604C61.6986 88.5604 47.4295 102.045 47.4295 120.094H57.6032ZM79.6032 98.7341V108.908C86.7379 108.908 91.4295 113.743 91.4295 120.254H101.603H111.777C111.777 101.966 97.4285 88.5604 79.6032 88.5604V98.7341ZM79.6032 108.814V98.6404C70.1802 98.6404 62.975 104.749 60.4281 113.139L70.1632 116.094L79.8982 119.049C79.9692 118.815 80.0357 118.71 80.0466 118.694C80.0558 118.68 80.0227 118.732 79.9292 118.805C79.8335 118.879 79.7245 118.936 79.6274 118.968C79.5319 119 79.5119 118.988 79.6032 118.988V108.814ZM70.1632 116.094V126.268H89.0432V116.094V105.92H70.1632V116.094ZM89.0432 116.094L98.8704 113.462C96.4685 104.495 88.6476 98.6404 79.6032 98.6404V108.814V118.988C79.6593 118.988 79.6501 118.996 79.5931 118.977C79.536 118.958 79.4586 118.921 79.3786 118.86C79.298 118.798 79.2422 118.733 79.2105 118.685C79.1784 118.637 79.1925 118.639 79.2159 118.726L89.0432 116.094ZM153.804 129.214H163.978C163.978 123.595 159.423 119.04 153.804 119.04V129.214ZM153.804 140.494V150.668C159.423 150.668 163.978 146.113 163.978 140.494H153.804ZM139.164 134.574L148.446 130.407C146.964 127.106 143.84 124.841 140.243 124.458C136.645 124.074 133.114 125.63 130.97 128.544L139.164 134.574ZM138.044 104.174L130.5 111C133.323 114.12 137.775 115.18 141.702 113.668C145.628 112.155 148.218 108.382 148.218 104.174H138.044ZM138.044 82.8941V72.7204C132.426 72.7204 127.871 77.2754 127.871 82.8941H138.044ZM149.724 82.8941H159.898C159.898 77.2754 155.343 72.7204 149.724 72.7204V82.8941ZM153.004 129.214V139.388H153.804V129.214V119.04H153.004V129.214ZM153.804 129.214H143.631V140.494H153.804H163.978V129.214H153.804ZM153.804 140.494V130.32H150.524V140.494V150.668H153.804V140.494ZM150.524 140.494V130.32C148.752 130.32 148.088 130.004 148.046 129.982C148.045 129.981 148.145 130.037 148.269 130.168C148.326 130.228 148.371 130.287 148.404 130.336C148.436 130.385 148.448 130.412 148.446 130.407L139.164 134.574L129.883 138.741C133.861 147.6 142.386 150.668 150.524 150.668V140.494ZM139.164 134.574L130.97 128.544C129.617 130.384 127.923 131.28 125.724 131.28V141.454V151.628C134.885 151.628 142.472 147.245 147.359 140.604L139.164 134.574ZM125.724 141.454V131.28C120.911 131.28 116.218 127.435 116.218 120.094H106.044H95.8707C95.8707 137.074 108.138 151.628 125.724 151.628V141.454ZM106.044 120.094H116.218C116.218 112.754 120.911 108.908 125.724 108.908V98.7341V88.5604C108.138 88.5604 95.8707 103.115 95.8707 120.094H106.044ZM125.724 98.7341V108.908C127.763 108.908 129.303 109.676 130.5 111L138.044 104.174L145.589 97.3485C140.706 91.9521 133.765 88.5604 125.724 88.5604V98.7341ZM138.044 104.174H148.218V82.8941H138.044H127.871V104.174H138.044ZM138.044 82.8941V93.0678H149.724V82.8941V72.7204H138.044V82.8941ZM149.724 82.8941H139.551V125.934H149.724H159.898V82.8941H149.724ZM149.724 125.934H139.551C139.551 128.912 140.445 132.603 143.391 135.548C146.336 138.493 150.026 139.388 153.004 139.388V129.214V119.04C153.903 119.04 155.953 119.335 157.778 121.16C159.604 122.986 159.898 125.036 159.898 125.934H149.724ZM128.044 130.174V140.348C139.53 140.348 148.218 131.365 148.218 120.094H138.044H127.871C127.871 120.189 127.862 120.25 127.856 120.282C127.85 120.313 127.846 120.321 127.85 120.311C127.861 120.284 127.896 120.216 127.97 120.141C128.006 120.105 128.044 120.074 128.083 120.048C128.121 120.022 128.155 120.005 128.178 119.996C128.201 119.986 128.208 119.986 128.191 119.99C128.175 119.993 128.127 120 128.044 120V130.174ZM138.044 120.094H148.218C148.218 108.823 139.53 99.8404 128.044 99.8404V110.014V120.188C128.127 120.188 128.175 120.195 128.191 120.199C128.208 120.202 128.201 120.202 128.178 120.193C128.155 120.183 128.121 120.166 128.083 120.141C128.044 120.115 128.006 120.083 127.97 120.048C127.896 119.972 127.861 119.904 127.85 119.878C127.846 119.867 127.85 119.875 127.856 119.906C127.862 119.938 127.871 119.999 127.871 120.094H138.044ZM128.044 110.014V99.8404C116.585 99.8404 107.951 108.877 107.951 120.094H118.124H128.298C128.298 119.91 128.33 119.846 128.321 119.869C128.313 119.89 128.281 119.954 128.209 120.027C128.136 120.101 128.054 120.153 127.988 120.18C127.958 120.192 127.942 120.195 127.946 120.194C127.949 120.194 127.981 120.188 128.044 120.188V110.014ZM118.124 120.094H107.951C107.951 131.311 116.585 140.348 128.044 140.348V130.174V120C127.981 120 127.949 119.995 127.946 119.994C127.942 119.993 127.958 119.996 127.988 120.008C128.054 120.036 128.136 120.087 128.209 120.161C128.281 120.235 128.313 120.298 128.321 120.319C128.33 120.342 128.298 120.278 128.298 120.094H118.124ZM201.361 123.854V134.028C206.03 134.028 210.099 130.851 211.231 126.322L201.361 123.854ZM170.161 123.854V113.68C166.977 113.68 163.977 115.171 162.053 117.709C160.13 120.246 159.506 123.538 160.366 126.604L170.161 123.854ZM188.561 127.534V117.36C185.25 117.36 182.147 118.972 180.241 121.679L188.561 127.534ZM201.041 127.534L210.586 131.056C211.738 127.934 211.29 124.447 209.388 121.717C207.485 118.987 204.368 117.36 201.041 117.36V127.534ZM170.241 116.094L160.506 113.139C159.57 116.222 160.15 119.566 162.069 122.154C163.988 124.742 167.019 126.268 170.241 126.268V116.094ZM189.121 116.094V126.268C192.284 126.268 195.267 124.797 197.192 122.288C199.118 119.779 199.767 116.517 198.949 113.462L189.121 116.094ZM201.681 120.254H191.508C191.508 120.545 191.495 120.943 191.468 121.304C191.454 121.479 191.441 121.596 191.433 121.653C191.422 121.731 191.432 121.622 191.491 121.387L201.361 123.854L211.231 126.322C211.796 124.061 211.855 121.385 211.855 120.254H201.681ZM201.361 123.854V113.68H170.161V123.854V134.028H201.361V123.854ZM170.161 123.854L160.366 126.604C162.85 135.451 170.375 141.468 180.001 141.468V131.294V121.12C179.874 121.12 179.788 121.111 179.739 121.104C179.69 121.096 179.673 121.09 179.682 121.093C179.692 121.096 179.721 121.107 179.763 121.128C179.805 121.15 179.851 121.179 179.897 121.215C179.944 121.25 179.982 121.286 180.011 121.318C180.041 121.35 180.056 121.372 180.06 121.378C180.063 121.384 180.053 121.368 180.034 121.326C180.015 121.283 179.986 121.211 179.956 121.105L170.161 123.854ZM180.001 131.294V141.468C186.332 141.468 193.029 138.864 196.881 133.389L188.561 127.534L180.241 121.679C180.483 121.335 180.701 121.141 180.812 121.053C180.925 120.963 180.974 120.947 180.932 120.967C180.839 121.009 180.525 121.12 180.001 121.12V131.294ZM188.561 127.534V137.708H201.041V127.534V117.36H188.561V127.534ZM201.041 127.534L191.496 124.013C190.051 127.93 185.938 131.28 179.761 131.28V141.454V151.628C193.744 151.628 205.951 143.618 210.586 131.056L201.041 127.534ZM179.761 141.454V131.28C172.441 131.28 167.855 126.341 167.855 120.094H157.681H147.508C147.508 138.167 161.801 151.628 179.761 151.628V141.454ZM157.681 120.094H167.855C167.855 113.823 172.466 108.908 179.681 108.908V98.7341V88.5604C161.777 88.5604 147.508 102.045 147.508 120.094H157.681ZM179.681 98.7341V108.908C186.816 108.908 191.508 113.743 191.508 120.254H201.681H211.855C211.855 101.966 197.507 88.5604 179.681 88.5604V98.7341ZM179.681 108.814V98.6404C170.258 98.6404 163.053 104.749 160.506 113.139L170.241 116.094L179.976 119.049C180.047 118.815 180.114 118.71 180.125 118.694C180.134 118.68 180.101 118.732 180.007 118.805C179.912 118.879 179.803 118.936 179.706 118.968C179.61 119 179.59 118.988 179.681 118.988V108.814ZM170.241 116.094V126.268H189.121V116.094V105.92H170.241V116.094ZM189.121 116.094L198.949 113.462C196.547 104.495 188.726 98.6404 179.681 98.6404V108.814V118.988C179.737 118.988 179.728 118.996 179.671 118.977C179.614 118.958 179.537 118.921 179.457 118.86C179.376 118.798 179.32 118.733 179.289 118.685C179.257 118.637 179.271 118.639 179.294 118.726L189.121 116.094ZM252.181 99.6941L262.288 98.5368C261.7 93.3993 257.352 89.5204 252.181 89.5204V99.6941ZM235.781 135.454L242.975 128.26C240.553 125.839 237.075 124.798 233.721 125.491C230.368 126.184 227.587 128.518 226.324 131.702L235.781 135.454ZM233.781 140.494V150.668C237.951 150.668 241.699 148.123 243.237 144.247L233.781 140.494ZM221.781 140.494L212.393 136.573C211.081 139.714 211.427 143.302 213.313 146.134C215.2 148.966 218.378 150.668 221.781 150.668V140.494ZM238.821 99.6941V89.5204C234.717 89.5204 231.014 91.9863 229.433 95.7733L238.821 99.6941ZM245.301 112.014L253.859 106.513C251.803 103.315 248.136 101.53 244.352 101.885C240.567 102.239 237.296 104.674 235.87 108.198L245.301 112.014ZM239.701 125.854L230.27 122.038C228.953 125.293 229.407 128.998 231.473 131.838L239.701 125.854ZM252.181 99.6941L242.073 100.852C243.254 111.165 251.718 116.517 254.047 118.413C255.724 119.779 256.481 120.583 256.934 121.313C257.263 121.843 257.687 122.735 257.687 124.654H267.861H278.034C278.034 119.134 276.649 114.495 274.225 110.588C271.925 106.88 268.987 104.339 266.895 102.635C261.683 98.391 262.307 98.7028 262.288 98.5368L252.181 99.6941ZM267.861 124.654H257.687C257.687 127.439 256.836 128.909 256.116 129.642C255.428 130.341 253.968 131.28 250.901 131.28V141.454V151.628C258.473 151.628 265.493 149.127 270.626 143.907C275.725 138.719 278.034 131.789 278.034 124.654H267.861ZM250.901 141.454V131.28C247.358 131.28 244.69 129.976 242.975 128.26L235.781 135.454L228.587 142.648C234.231 148.292 242.123 151.628 250.901 151.628V141.454ZM235.781 135.454L226.324 131.702L224.324 136.742L233.781 140.494L243.237 144.247L245.237 139.207L235.781 135.454ZM233.781 140.494V130.32H221.781V140.494V150.668H233.781V140.494ZM221.781 140.494L231.169 144.415L248.209 103.615L238.821 99.6941L229.433 95.7733L212.393 136.573L221.781 140.494ZM238.821 99.6941V109.868H252.181V99.6941V89.5204H238.821V99.6941ZM248.661 130.174V140.348C252.472 140.348 256.665 139.347 260.145 136.607C263.843 133.695 266.034 129.319 266.034 124.414H255.861H245.687C245.687 123.839 245.816 123.103 246.187 122.34C246.557 121.582 247.064 121.009 247.557 120.621C248.496 119.881 249.089 120 248.661 120V130.174ZM255.861 124.414H266.034C266.034 116.575 260.223 112.083 258.347 110.559C255.407 108.169 254.54 107.572 253.859 106.513L245.301 112.014L236.743 117.516C238.308 119.951 240.127 121.803 241.683 123.196C243.075 124.443 244.807 125.775 245.514 126.349C246.542 127.185 246.651 127.374 246.54 127.225C246.258 126.843 245.687 125.817 245.687 124.414H255.861ZM245.301 112.014L235.87 108.198L230.27 122.038L239.701 125.854L249.132 129.67L254.732 115.83L245.301 112.014ZM239.701 125.854L231.473 131.838C235.442 137.295 241.881 140.348 248.661 140.348V130.174V120C247.92 120 247.8 119.693 247.929 119.87L239.701 125.854ZM293.822 141.454V131.28C286.607 131.28 281.996 126.365 281.996 120.094H271.822H261.648C261.648 138.143 275.917 151.628 293.822 151.628V141.454ZM271.822 120.094H281.996C281.996 113.823 286.607 108.908 293.822 108.908V98.7341V88.5604C275.917 88.5604 261.648 102.045 261.648 120.094H271.822ZM293.822 98.7341V108.908C301.037 108.908 305.648 113.823 305.648 120.094H315.822H325.996C325.996 102.045 311.727 88.5604 293.822 88.5604V98.7341ZM315.822 120.094H305.648C305.648 126.365 301.037 131.28 293.822 131.28V141.454V151.628C311.727 151.628 325.996 138.143 325.996 120.094H315.822ZM293.822 130.174V140.348C305.308 140.348 313.996 131.365 313.996 120.094H303.822H293.648C293.648 120.189 293.64 120.25 293.634 120.282C293.628 120.313 293.623 120.321 293.627 120.311C293.638 120.284 293.673 120.216 293.748 120.141C293.783 120.105 293.821 120.074 293.86 120.048C293.899 120.022 293.932 120.005 293.955 119.996C293.979 119.986 293.985 119.986 293.969 119.99C293.952 119.993 293.905 120 293.822 120V130.174ZM303.822 120.094H313.996C313.996 108.823 305.308 99.8404 293.822 99.8404V110.014V120.188C293.905 120.188 293.952 120.195 293.969 120.199C293.985 120.202 293.979 120.202 293.955 120.193C293.932 120.183 293.899 120.166 293.86 120.141C293.821 120.115 293.783 120.083 293.748 120.048C293.673 119.972 293.638 119.904 293.627 119.878C293.623 119.867 293.628 119.875 293.634 119.906C293.64 119.938 293.648 119.999 293.648 120.094H303.822ZM293.822 110.014V99.8404C282.336 99.8404 273.648 108.823 273.648 120.094H283.822H293.996C293.996 119.999 294.004 119.938 294.01 119.906C294.016 119.875 294.021 119.867 294.016 119.878C294.006 119.904 293.971 119.972 293.896 120.048C293.861 120.083 293.822 120.115 293.784 120.141C293.745 120.166 293.712 120.183 293.688 120.193C293.665 120.202 293.659 120.202 293.675 120.199C293.692 120.195 293.739 120.188 293.822 120.188V110.014ZM283.822 120.094H273.648C273.648 131.365 282.336 140.348 293.822 140.348V130.174V120C293.739 120 293.692 119.993 293.675 119.99C293.659 119.986 293.665 119.986 293.688 119.996C293.712 120.005 293.745 120.022 293.784 120.048C293.822 120.074 293.861 120.105 293.896 120.141C293.971 120.216 294.006 120.284 294.016 120.311C294.021 120.321 294.016 120.313 294.01 120.282C294.004 120.25 293.996 120.189 293.996 120.094H283.822ZM363.858 115.774V125.948C366.881 125.948 369.747 124.603 371.68 122.279C373.613 119.955 374.412 116.891 373.861 113.919L363.858 115.774ZM351.458 115.774L342.233 120.065C343.902 123.653 347.5 125.948 351.458 125.948V115.774ZM351.458 124.414V114.24C347.5 114.24 343.902 116.535 342.233 120.124L351.458 124.414ZM363.858 124.414L373.861 126.27C374.412 123.297 373.613 120.234 371.68 117.909C369.747 115.585 366.881 114.24 363.858 114.24V124.414ZM342.338 141.454V131.28C335.122 131.28 330.511 126.365 330.511 120.094H320.338H310.164C310.164 138.143 324.433 151.628 342.338 151.628V141.454ZM320.338 120.094H330.511C330.511 113.823 335.122 108.908 342.338 108.908V98.7341V88.5604C324.433 88.5604 310.164 102.045 310.164 120.094H320.338ZM342.338 98.7341V108.908C348.744 108.908 352.971 112.867 353.854 117.63L363.858 115.774L373.861 113.919C371.064 98.8417 357.851 88.5604 342.338 88.5604V98.7341ZM363.858 115.774V105.6H351.458V115.774V125.948H363.858V115.774ZM351.458 115.774L360.682 111.484C357.44 104.513 350.438 99.8404 342.338 99.8404V110.014V120.188C342.389 120.188 342.401 120.194 342.385 120.19C342.371 120.186 342.349 120.177 342.323 120.16C342.271 120.127 342.243 120.086 342.233 120.065L351.458 115.774ZM342.338 110.014V99.8404C330.852 99.8404 322.164 108.823 322.164 120.094H332.338H342.511C342.511 119.999 342.52 119.938 342.526 119.906C342.532 119.875 342.536 119.867 342.532 119.878C342.521 119.904 342.486 119.972 342.411 120.048C342.376 120.083 342.338 120.115 342.299 120.141C342.261 120.166 342.227 120.183 342.204 120.193C342.18 120.202 342.174 120.202 342.191 120.199C342.207 120.195 342.255 120.188 342.338 120.188V110.014ZM332.338 120.094H322.164C322.164 131.365 330.852 140.348 342.338 140.348V130.174V120C342.255 120 342.207 119.993 342.191 119.99C342.174 119.986 342.18 119.986 342.204 119.996C342.227 120.005 342.261 120.022 342.299 120.048C342.338 120.074 342.376 120.105 342.411 120.141C342.486 120.216 342.521 120.284 342.532 120.311C342.536 120.321 342.532 120.313 342.526 120.282C342.52 120.25 342.511 120.189 342.511 120.094H332.338ZM342.338 130.174V140.348C350.438 140.348 357.44 135.675 360.682 128.705L351.458 124.414L342.233 120.124C342.243 120.102 342.271 120.062 342.323 120.028C342.349 120.012 342.371 120.003 342.385 119.998C342.401 119.994 342.389 120 342.338 120V130.174ZM351.458 124.414V134.588H363.858V124.414V114.24H351.458V124.414ZM363.858 124.414L353.854 122.559C352.971 127.322 348.744 131.28 342.338 131.28V141.454V151.628C357.851 151.628 371.064 141.347 373.861 126.27L363.858 124.414ZM370.632 140.494H360.458C360.458 146.113 365.013 150.668 370.632 150.668V140.494ZM370.632 99.6941V89.5204C365.013 89.5204 360.458 94.0754 360.458 99.6941H370.632ZM382.312 99.6941H392.486C392.486 94.0754 387.931 89.5204 382.312 89.5204V99.6941ZM382.312 140.494V150.668C387.931 150.668 392.486 146.113 392.486 140.494H382.312ZM376.472 94.4941V84.3204C377.016 84.3204 377.822 84.5521 378.508 85.2323C379.205 85.924 379.446 86.7508 379.446 87.2941H369.272H359.098C359.098 97.1474 366.848 104.668 376.472 104.668V94.4941ZM369.272 87.2941H379.446C379.446 87.9302 379.167 88.7771 378.479 89.454C377.803 90.1194 377.013 90.3478 376.472 90.3478V80.1741V70.0004C366.924 70.0004 359.098 77.4461 359.098 87.2941H369.272ZM376.472 80.1741V90.3478C376.022 90.3478 375.252 90.1551 374.562 89.4815C373.86 88.7957 373.578 87.9336 373.578 87.2941H383.752H393.926C393.926 77.3727 386.025 70.0004 376.472 70.0004V80.1741ZM383.752 87.2941H373.578C373.578 86.7477 373.822 85.9054 374.534 85.2047C375.233 84.5162 376.019 84.3204 376.472 84.3204V94.4941V104.668C386.101 104.668 393.926 97.2211 393.926 87.2941H383.752ZM370.632 140.494H380.806V99.6941H370.632H360.458V140.494H370.632ZM370.632 99.6941V109.868H382.312V99.6941V89.5204H370.632V99.6941ZM382.312 99.6941H372.138V140.494H382.312H392.486V99.6941H382.312ZM382.312 140.494V130.32H370.632V140.494V150.668H382.312V140.494ZM437.242 129.214H447.416C447.416 123.595 442.861 119.04 437.242 119.04V129.214ZM437.242 140.494V150.668C442.861 150.668 447.416 146.113 447.416 140.494H437.242ZM422.602 134.574L431.883 130.407C430.401 127.106 427.278 124.841 423.68 124.458C420.083 124.074 416.552 125.63 414.408 128.544L422.602 134.574ZM421.482 104.174L413.938 111C416.761 114.12 421.213 115.18 425.139 113.668C429.066 112.155 431.656 108.382 431.656 104.174H421.482ZM421.482 99.6941V89.5204C415.863 89.5204 411.308 94.0754 411.308 99.6941H421.482ZM433.162 99.6941H443.336C443.336 94.0754 438.781 89.5204 433.162 89.5204V99.6941ZM436.442 129.214V139.388H437.242V129.214V119.04H436.442V129.214ZM437.242 129.214H427.068V140.494H437.242H447.416V129.214H437.242ZM437.242 140.494V130.32H433.962V140.494V150.668H437.242V140.494ZM433.962 140.494V130.32C432.189 130.32 431.525 130.004 431.483 129.982C431.483 129.981 431.583 130.037 431.707 130.168C431.763 130.228 431.808 130.287 431.841 130.336C431.874 130.385 431.885 130.412 431.883 130.407L422.602 134.574L413.321 138.741C417.298 147.6 425.823 150.668 433.962 150.668V140.494ZM422.602 134.574L414.408 128.544C413.054 130.384 411.361 131.28 409.162 131.28V141.454V151.628C418.323 151.628 425.91 147.245 430.796 140.604L422.602 134.574ZM409.162 141.454V131.28C404.348 131.28 399.656 127.435 399.656 120.094H389.482H379.308C379.308 137.074 391.576 151.628 409.162 151.628V141.454ZM389.482 120.094H399.656C399.656 112.754 404.348 108.908 409.162 108.908V98.7341V88.5604C391.576 88.5604 379.308 103.115 379.308 120.094H389.482ZM409.162 98.7341V108.908C411.201 108.908 412.74 109.676 413.938 111L421.482 104.174L429.026 97.3485C424.144 91.9521 417.203 88.5604 409.162 88.5604V98.7341ZM421.482 104.174H431.656V99.6941H421.482H411.308V104.174H421.482ZM421.482 99.6941V109.868H433.162V99.6941V89.5204H421.482V99.6941ZM433.162 99.6941H422.988V125.934H433.162H443.336V99.6941H433.162ZM433.162 125.934H422.988C422.988 128.912 423.883 132.603 426.828 135.548C429.773 138.493 433.464 139.388 436.442 139.388V129.214V119.04C437.34 119.04 439.39 119.335 441.216 121.16C443.041 122.986 443.336 125.036 443.336 125.934H433.162ZM411.482 130.174V140.348C422.968 140.348 431.656 131.365 431.656 120.094H421.482H411.308C411.308 120.189 411.3 120.25 411.294 120.282C411.288 120.313 411.283 120.321 411.287 120.311C411.298 120.284 411.333 120.216 411.408 120.141C411.443 120.105 411.481 120.074 411.52 120.048C411.559 120.022 411.592 120.005 411.615 119.996C411.639 119.986 411.645 119.986 411.629 119.99C411.612 119.993 411.565 120 411.482 120V130.174ZM421.482 120.094H431.656C431.656 108.823 422.968 99.8404 411.482 99.8404V110.014V120.188C411.565 120.188 411.612 120.195 411.629 120.199C411.645 120.202 411.639 120.202 411.615 120.193C411.592 120.183 411.559 120.166 411.52 120.141C411.481 120.115 411.443 120.083 411.408 120.048C411.333 119.972 411.298 119.904 411.287 119.878C411.283 119.867 411.288 119.875 411.294 119.906C411.3 119.938 411.308 119.999 411.308 120.094H421.482ZM411.482 110.014V99.8404C400.023 99.8404 391.388 108.877 391.388 120.094H401.562H411.736C411.736 119.91 411.768 119.846 411.759 119.869C411.75 119.89 411.718 119.954 411.646 120.027C411.573 120.101 411.491 120.153 411.426 120.18C411.395 120.192 411.38 120.195 411.383 120.194C411.387 120.194 411.418 120.188 411.482 120.188V110.014ZM401.562 120.094H391.388C391.388 131.311 400.023 140.348 411.482 140.348V130.174V120C411.418 120 411.387 119.995 411.383 119.994C411.38 119.993 411.395 119.996 411.426 120.008C411.491 120.036 411.573 120.087 411.646 120.161C411.718 120.235 411.75 120.298 411.759 120.319C411.768 120.342 411.736 120.278 411.736 120.094H401.562ZM475.353 129.214H485.527C485.527 123.595 480.972 119.04 475.353 119.04V129.214ZM475.353 140.494V150.668C480.972 150.668 485.527 146.113 485.527 140.494H475.353ZM455.993 135.454L461.837 127.126C458.403 124.716 453.841 124.662 450.35 126.989L455.993 135.454ZM445.833 140.494L436.656 144.886C438.893 149.559 444.283 151.805 449.175 150.103L445.833 140.494ZM441.353 131.134L437.681 121.646C435.037 122.67 432.941 124.749 431.896 127.384C430.851 130.019 430.953 132.97 432.176 135.526L441.353 131.134ZM448.393 127.454L454.037 135.919C458.702 132.809 459.971 126.511 456.875 121.836L448.393 127.454ZM465.113 127.214L457.34 120.65C455.374 122.979 454.555 126.066 455.109 129.062C455.662 132.059 457.53 134.65 460.198 136.122L465.113 127.214ZM457.273 118.494L448.139 122.975C449.737 126.231 452.947 128.391 456.565 128.643C460.183 128.896 463.662 127.203 465.696 124.2L457.273 118.494ZM472.793 129.214V139.388H475.353V129.214V119.04H472.793V129.214ZM475.353 129.214H465.179V140.494H475.353H485.527V129.214H475.353ZM475.353 140.494V130.32H472.153V140.494V150.668H475.353V140.494ZM472.153 140.494V130.32C468.119 130.32 464.713 129.145 461.837 127.126L455.993 135.454L450.149 143.782C456.393 148.164 463.868 150.668 472.153 150.668V140.494ZM455.993 135.454L450.35 126.989C447.946 128.591 445.36 129.887 442.491 130.885L445.833 140.494L449.175 150.103C453.667 148.541 457.8 146.477 461.637 143.919L455.993 135.454ZM445.833 140.494L455.01 136.102L450.53 126.742L441.353 131.134L432.176 135.526L436.656 144.886L445.833 140.494ZM441.353 131.134L445.026 140.622C448.262 139.369 451.318 137.731 454.037 135.919L448.393 127.454L442.75 118.989C441.148 120.057 439.405 120.979 437.681 121.646L441.353 131.134ZM448.393 127.454L456.875 121.836C454.084 117.622 452.247 111.661 452.247 104.254H442.073H431.899C431.899 114.928 434.542 124.966 439.911 133.072L448.393 127.454ZM442.073 104.254H452.247C452.247 98.5728 453.586 95.4209 454.72 93.9397C455.627 92.7564 456.748 92.1078 458.713 92.1078V81.9341V71.7604C450.679 71.7604 443.48 75.1519 438.566 81.5686C433.88 87.6874 431.899 95.6955 431.899 104.254H442.073ZM458.713 81.9341V92.1078C460.732 92.1078 461.735 92.7614 462.425 93.5982C463.292 94.6488 464.459 97.0406 464.459 101.614H474.633H484.807C484.807 93.7877 482.815 86.3395 478.121 80.6501C473.251 74.7469 466.294 71.7604 458.713 71.7604V81.9341ZM474.633 101.614H464.459C464.459 108.397 461.932 115.212 457.34 120.65L465.113 127.214L472.886 133.778C480.454 124.816 484.807 113.392 484.807 101.614H474.633ZM465.113 127.214L460.198 136.122C463.93 138.181 468.17 139.388 472.793 139.388V129.214V119.04C471.816 119.04 470.937 118.808 470.028 118.306L465.113 127.214ZM458.473 93.2141V83.0404C451.95 83.0404 447.889 87.4225 446.044 91.4243C444.374 95.0467 443.899 99.3016 443.899 103.374H454.073H464.247C464.247 102.042 464.333 101.095 464.433 100.47C464.538 99.8191 464.629 99.7127 464.522 99.944C464.417 100.171 463.967 101.055 462.839 101.914C461.587 102.868 460.021 103.388 458.473 103.388V93.2141ZM454.073 103.374H443.899C443.899 110.339 445.266 117.118 448.139 122.975L457.273 118.494L466.407 114.013C465.12 111.391 464.247 107.769 464.247 103.374H454.073ZM457.273 118.494L465.696 124.2C470.123 117.665 472.727 109.857 472.727 101.614H462.553H452.379C452.379 105.532 451.143 109.403 448.85 112.788L457.273 118.494ZM462.553 101.614H472.727C472.727 98.2021 472.29 94.3074 470.598 90.8758C468.696 87.0162 464.661 83.0404 458.473 83.0404V93.2141V103.388C457.022 103.388 455.506 102.927 454.239 102.012C453.074 101.173 452.537 100.257 452.348 99.8725C452.161 99.4938 452.19 99.393 452.254 99.761C452.315 100.105 452.379 100.707 452.379 101.614H462.553Z" fill="white" mask="url(#path-1-outside-1_109_254)"/>
</g>
<defs>
<filter id="filter0_d_109_254" x="0" y="0" width="488.579" height="158.75" filterUnits="userSpaceOnUse" color-interpolation-filters="sRGB">
<feFlood flood-opacity="0" result="BackgroundImageFix"/>
<feColorMatrix in="SourceAlpha" type="matrix" values="0 0 0 0 0 0 0 0 0 0 0 0 0 0 0 0 0 0 127 0" result="hardAlpha"/>
<feOffset dx="3.05211" dy="7.1216"/>
<feComposite in2="hardAlpha" operator="out"/>
<feColorMatrix type="matrix" values="0 0 0 0 0 0 0 0 0 0 0 0 0 0 0 0 0 0 0.25 0"/>
<feBlend mode="normal" in2="BackgroundImageFix" result="effect1_dropShadow_109_254"/>
<feBlend mode="normal" in="SourceGraphic" in2="effect1_dropShadow_109_254" result="shape"/>
</filter>
</defs>
</svg>
