<svg width="402" height="509" viewBox="0 0 402 509" fill="none" xmlns="http://www.w3.org/2000/svg">
<g filter="url(#filter0_d_84_94)">
<path d="M369.512 272.904C398.162 262.807 420.554 237.798 425.798 205.709C433.448 158.9 401.704 114.748 354.887 107.097C322.804 101.854 291.969 115.119 273.276 139.063C263.178 110.413 238.169 88.0223 206.086 82.7793C159.269 75.1284 115.122 106.879 107.472 153.688C102.228 185.777 115.493 216.612 139.438 235.305C110.789 245.395 88.398 270.404 83.1539 302.493C75.5043 349.302 107.248 393.454 154.065 401.105C186.147 406.348 216.983 393.083 235.675 369.146C245.774 397.789 270.783 420.18 302.866 425.423C349.683 433.074 393.83 401.323 401.48 354.514C406.724 322.425 393.459 291.59 369.512 272.904ZM248.959 287.86C243.493 272.362 233.665 258.695 220.704 248.586C236.211 243.121 249.877 233.294 259.993 220.341C265.459 235.84 275.286 249.507 288.246 259.623C272.741 265.081 259.075 274.908 248.959 287.86Z" fill="#AECC1C"/>
<path d="M357.217 92.8444C411.905 101.782 448.986 153.359 440.05 208.038C435.202 237.705 417.804 262.173 394.2 276.936C411.878 298.443 420.58 327.178 415.732 356.844C406.796 411.523 355.226 448.612 300.537 439.675C270.874 434.828 246.405 417.429 231.641 393.829C210.133 411.501 181.398 420.205 151.735 415.358C97.0465 406.42 59.9659 354.844 68.9015 300.164C73.7495 270.498 91.1463 246.028 114.75 231.268C97.0747 209.759 88.3715 181.025 93.2196 151.358C102.156 96.6788 153.726 59.5897 208.415 68.5269C238.077 73.3744 262.546 90.7726 277.309 114.376C298.818 96.6998 327.554 87.9968 357.217 92.8444ZM255.959 245.029C252.607 247.783 249.08 250.319 245.402 252.619C248.157 255.97 250.693 259.496 252.993 263.173C256.345 260.42 259.871 257.884 263.549 255.585C260.794 252.233 258.259 248.707 255.959 245.029Z" stroke="white" stroke-width="28.8829"/>
</g>
<defs>
<filter id="filter0_d_84_94" x="53.1292" y="52.7544" width="414.494" height="414.493" filterUnits="userSpaceOnUse" color-interpolation-filters="sRGB">
<feFlood flood-opacity="0" result="BackgroundImageFix"/>
<feColorMatrix in="SourceAlpha" type="matrix" values="0 0 0 0 0 0 0 0 0 0 0 0 0 0 0 0 0 0 127 0" result="hardAlpha"/>
<feOffset dx="11.8006" dy="11.8006"/>
<feComposite in2="hardAlpha" operator="out"/>
<feColorMatrix type="matrix" values="0 0 0 0 0 0 0 0 0 0 0 0 0 0 0 0 0 0 0.25 0"/>
<feBlend mode="normal" in2="BackgroundImageFix" result="effect1_dropShadow_84_94"/>
<feBlend mode="normal" in="SourceGraphic" in2="effect1_dropShadow_84_94" result="shape"/>
</filter>
</defs>
</svg>
