<svg width="897" height="101" viewBox="0 0 897 101" fill="none" xmlns="http://www.w3.org/2000/svg">
<g filter="url(#filter0_d_84_53)">
<mask id="path-1-outside-1_84_53" maskUnits="userSpaceOnUse" x="-0.210236" y="-0.842773" width="894" height="95" fill="black">
<rect fill="white" x="-0.210236" y="-0.842773" width="894" height="95"/>
<path d="M29.9374 69.08C18.6329 69.08 10.1737 61.6975 10.1737 52.2386H22.401C22.401 55.6992 25.7847 58.4676 30.0912 58.4676C34.0901 58.4676 37.243 56.2375 37.243 53.2384C37.243 49.7778 32.4751 47.8553 27.0151 46.5479C18.9405 44.6254 11.0196 40.0882 11.0196 30.4755C11.0196 20.7859 19.0943 14.1724 29.7836 14.1724C40.5498 14.1724 48.7013 21.0936 48.7013 30.3217H36.474C36.474 27.1688 33.5517 24.7848 29.6298 24.7848C26.0923 24.7848 23.247 26.7074 23.247 29.5527C23.247 32.9364 27.5534 34.8589 32.7827 36.0893C41.2419 38.1657 49.4703 42.1645 49.4703 52.0848C49.4703 62.1589 41.0112 69.08 29.9374 69.08ZM62.1008 23.9389C58.1788 23.9389 55.1797 21.0167 55.1797 17.0178C55.1797 13.0958 58.1788 10.1736 62.1008 10.1736C66.0997 10.1736 69.0988 13.0958 69.0988 17.0178C69.0988 21.0167 66.0997 23.9389 62.1008 23.9389ZM56.487 68.1572V28.9375H67.7146V68.1572H56.487ZM105.367 28.9375H116.595V63.9276C116.595 75.8474 108.52 83.6913 96.37 83.6913C86.2959 83.6913 79.1441 78.3851 76.6832 69.8491H88.2953C89.6796 72.0792 92.7556 73.4634 96.37 73.4634C101.83 73.4634 105.367 69.6184 105.367 63.8507V62.6203C102.445 65.8502 98.3694 67.7727 93.5246 67.7727C82.6815 67.7727 74.6069 59.1598 74.6069 47.8553C74.6069 36.5507 82.6815 28.0147 93.5246 28.0147C98.3694 28.0147 102.445 29.9372 105.367 33.1671V28.9375ZM95.7548 57.5448C101.292 57.5448 105.367 53.3922 105.367 47.8553C105.367 42.3953 101.292 38.1657 95.7548 38.1657C90.2179 38.1657 86.1421 42.3953 86.1421 47.8553C86.1421 53.3922 90.2179 57.5448 95.7548 57.5448ZM168.337 57.3141H169.106V68.1572H165.953C160.416 68.1572 156.725 66.2347 155.033 62.4665C152.034 66.5423 147.574 69.08 142.114 69.08C131.348 69.08 123.196 60.2364 123.196 48.5474C123.196 36.8583 131.348 28.0147 142.114 28.0147C146.959 28.0147 151.034 30.0141 153.957 33.244V28.9375H165.184V54.1612C165.184 56.1606 166.338 57.3141 168.337 57.3141ZM144.344 58.2369C149.881 58.2369 153.957 54.0843 153.957 48.5474C153.957 43.0105 149.881 38.8578 144.344 38.8578C138.884 38.8578 134.808 43.0105 134.808 48.5474C134.808 54.0843 138.884 58.2369 144.344 58.2369ZM232.958 57.3141H233.727V68.1572H230.574C222.653 68.1572 218.577 64.2353 218.577 56.622V46.7017C218.577 41.9338 215.578 38.8578 211.041 38.8578C206.196 38.8578 202.889 42.0107 202.889 46.8555V68.1572H191.662V28.9375H202.889V33.244C205.888 29.7834 209.964 28.0147 214.809 28.0147C223.806 28.0147 229.805 33.9361 229.805 42.9336V54.1612C229.805 56.1606 230.958 57.3141 232.958 57.3141ZM257.965 69.08C245.892 69.08 236.817 60.2364 236.817 48.5474C236.817 36.8583 245.892 28.0147 257.965 28.0147C270.039 28.0147 279.113 36.8583 279.113 48.5474C279.113 60.2364 270.039 69.08 257.965 69.08ZM257.965 58.2369C263.502 58.2369 267.578 54.0843 267.578 48.5474C267.578 43.0105 263.502 38.8578 257.965 38.8578C252.428 38.8578 248.352 43.0105 248.352 48.5474C248.352 54.0843 252.428 58.2369 257.965 58.2369ZM307.455 28.9375C308.608 39.0116 322.527 38.6271 322.527 52.9307C322.527 62.4665 316.452 69.08 306.224 69.08C300.303 69.08 295.227 66.8499 291.69 63.3124L289.767 68.1572H278.232L294.612 28.9375H307.455ZM304.071 58.2369C308.147 58.2369 310.992 56.0837 310.992 52.7C310.992 47.9322 304.302 46.1634 300.841 40.7803L295.458 54.0843C297.304 56.622 300.457 58.2369 304.071 58.2369ZM351.388 28.9375C352.541 39.0116 366.46 38.6271 366.46 52.9307C366.46 62.4665 360.385 69.08 350.157 69.08C344.236 69.08 339.16 66.8499 335.623 63.3124L333.7 68.1572H322.165L338.545 28.9375H351.388ZM348.004 58.2369C352.08 58.2369 354.925 56.0837 354.925 52.7C354.925 47.9322 348.235 46.1634 344.774 40.7803L339.391 54.0843C341.237 56.622 344.39 58.2369 348.004 58.2369ZM415.563 57.3141H416.332V68.1572H413.179C407.642 68.1572 403.951 66.2347 402.259 62.4665C399.26 66.5423 394.8 69.08 389.34 69.08C378.574 69.08 370.422 60.2364 370.422 48.5474C370.422 36.8583 378.574 28.0147 389.34 28.0147C394.185 28.0147 398.26 30.0141 401.183 33.244V28.9375H412.41V54.1612C412.41 56.1606 413.564 57.3141 415.563 57.3141ZM391.57 58.2369C397.107 58.2369 401.183 54.0843 401.183 48.5474C401.183 43.0105 397.107 38.8578 391.57 38.8578C386.11 38.8578 382.034 43.0105 382.034 48.5474C382.034 54.0843 386.11 58.2369 391.57 58.2369ZM477.338 57.3141H479.03V68.1572H476.339C465.419 68.1572 459.805 62.1589 459.805 52.1617C459.805 48.855 460.497 45.3944 462.112 41.9338L452.499 40.7034L447.347 68.1572H436.273L442.271 37.935C440.118 36.3969 438.811 33.7823 438.811 31.0138C438.811 26.8612 441.733 24.0158 446.116 24.0158C450.269 24.0158 453.191 26.6305 453.576 30.091L477.8 32.8595V35.551C473.57 41.3955 471.34 46.471 471.34 50.7775C471.34 55.0071 473.416 57.3141 477.338 57.3141ZM524.161 48.7012C524.161 49.7009 524.084 51.2389 523.854 52.1617H493.862C495.092 56.5451 498.553 59.3136 503.321 59.3136C507.012 59.3136 510.088 57.7755 511.549 55.6992H523.546C520.624 63.62 512.78 69.08 503.09 69.08C490.94 69.08 481.865 60.2364 481.865 48.5474C481.865 36.8583 490.94 28.0147 503.013 28.0147C515.01 28.0147 524.161 36.7814 524.161 48.7012ZM503.013 37.7043C498.63 37.7043 495.246 40.3958 493.939 44.7023H512.088C510.934 40.3958 507.32 37.7043 503.013 37.7043ZM573.572 57.3141H574.341V68.1572H571.188C565.651 68.1572 561.959 66.2347 560.268 62.4665C557.268 66.5423 552.808 69.08 547.348 69.08C536.582 69.08 528.43 60.2364 528.43 48.5474C528.43 36.8583 536.582 28.0147 547.348 28.0147C552.193 28.0147 556.269 30.0141 559.191 33.244V12.7882H570.419V54.1612C570.419 56.1606 571.572 57.3141 573.572 57.3141ZM549.578 58.2369C555.115 58.2369 559.191 54.0843 559.191 48.5474C559.191 43.0105 555.115 38.8578 549.578 38.8578C544.118 38.8578 540.043 43.0105 540.043 48.5474C540.043 54.0843 544.118 58.2369 549.578 58.2369ZM620.363 48.7012C620.363 49.7009 620.286 51.2389 620.055 52.1617H590.064C591.294 56.5451 594.755 59.3136 599.523 59.3136C603.214 59.3136 606.29 57.7755 607.751 55.6992H619.748C616.826 63.62 608.982 69.08 599.292 69.08C587.142 69.08 578.067 60.2364 578.067 48.5474C578.067 36.8583 587.142 28.0147 599.215 28.0147C611.212 28.0147 620.363 36.7814 620.363 48.7012ZM599.215 37.7043C594.832 37.7043 591.448 40.3958 590.141 44.7023H608.29C607.136 40.3958 603.522 37.7043 599.215 37.7043ZM668.906 28.9375C670.06 39.0116 683.979 38.6271 683.979 52.9307C683.979 62.4665 677.904 69.08 667.676 69.08C661.755 69.08 656.679 66.8499 653.142 63.3124L651.219 68.1572H639.684L656.064 28.9375H668.906ZM665.523 58.2369C669.599 58.2369 672.444 56.0837 672.444 52.7C672.444 47.9322 665.753 46.1634 662.293 40.7803L656.91 54.0843C658.755 56.622 661.908 58.2369 665.523 58.2369ZM708.935 69.08C696.861 69.08 687.787 60.2364 687.787 48.5474C687.787 36.8583 696.861 28.0147 708.935 28.0147C721.008 28.0147 730.083 36.8583 730.083 48.5474C730.083 60.2364 721.008 69.08 708.935 69.08ZM708.935 58.2369C714.472 58.2369 718.548 54.0843 718.548 48.5474C718.548 43.0105 714.472 38.8578 708.935 38.8578C703.398 38.8578 699.322 43.0105 699.322 48.5474C699.322 54.0843 703.398 58.2369 708.935 58.2369ZM755.571 69.08C743.498 69.08 734.423 60.2364 734.423 48.5474C734.423 36.8583 743.498 28.0147 755.571 28.0147C766.107 28.0147 774.489 34.8589 776.258 44.3947H764.338C762.8 41.0879 759.493 38.8578 755.571 38.8578C750.034 38.8578 745.959 43.0105 745.959 48.5474C745.959 54.0843 750.034 58.2369 755.571 58.2369C759.493 58.2369 762.8 56.0068 764.338 52.7H776.258C774.489 62.2358 766.107 69.08 755.571 69.08ZM788.384 23.9389C784.462 23.9389 781.462 21.0167 781.462 17.0178C781.462 13.0958 784.462 10.1736 788.384 10.1736C792.382 10.1736 795.382 13.0958 795.382 17.0178C795.382 21.0167 792.382 23.9389 788.384 23.9389ZM782.77 68.1572V28.9375H793.997V68.1572H782.77ZM846.031 57.3141H846.8V68.1572H843.647C838.11 68.1572 834.419 66.2347 832.727 62.4665C829.728 66.5423 825.267 69.08 819.807 69.08C809.041 69.08 800.89 60.2364 800.89 48.5474C800.89 36.8583 809.041 28.0147 819.807 28.0147C824.652 28.0147 828.728 30.0141 831.65 33.244V28.9375H842.878V54.1612C842.878 56.1606 844.031 57.3141 846.031 57.3141ZM822.038 58.2369C827.575 58.2369 831.65 54.0843 831.65 48.5474C831.65 43.0105 827.575 38.8578 822.038 38.8578C816.578 38.8578 812.502 43.0105 812.502 48.5474C812.502 54.0843 816.578 58.2369 822.038 58.2369ZM880.974 57.3141H883.435V68.1572H880.359C874.438 68.1572 869.208 66.3885 864.825 63.3124C861.826 65.3119 858.596 66.9268 855.058 68.1572L850.752 59.1598C853.136 58.2369 855.443 57.0065 857.519 55.6223C853.597 49.7009 851.444 42.0107 851.444 33.3209C851.444 19.6324 857.827 11.8654 867.44 11.8654C876.668 11.8654 882.743 18.8634 882.743 30.7831C882.743 39.7037 879.436 48.4705 873.592 55.3916C875.822 56.622 878.283 57.3141 880.974 57.3141ZM867.209 22.7085C864.671 22.7085 862.979 25.7845 862.979 32.475C862.979 37.935 864.056 42.9336 866.055 47.0093C869.285 42.2414 871.131 36.6276 871.131 30.7831C871.131 25.5538 869.67 22.7085 867.209 22.7085Z"/>
</mask>
<path d="M29.9374 69.08C18.6329 69.08 10.1737 61.6975 10.1737 52.2386H22.401C22.401 55.6992 25.7847 58.4676 30.0912 58.4676C34.0901 58.4676 37.243 56.2375 37.243 53.2384C37.243 49.7778 32.4751 47.8553 27.0151 46.5479C18.9405 44.6254 11.0196 40.0882 11.0196 30.4755C11.0196 20.7859 19.0943 14.1724 29.7836 14.1724C40.5498 14.1724 48.7013 21.0936 48.7013 30.3217H36.474C36.474 27.1688 33.5517 24.7848 29.6298 24.7848C26.0923 24.7848 23.247 26.7074 23.247 29.5527C23.247 32.9364 27.5534 34.8589 32.7827 36.0893C41.2419 38.1657 49.4703 42.1645 49.4703 52.0848C49.4703 62.1589 41.0112 69.08 29.9374 69.08ZM62.1008 23.9389C58.1788 23.9389 55.1797 21.0167 55.1797 17.0178C55.1797 13.0958 58.1788 10.1736 62.1008 10.1736C66.0997 10.1736 69.0988 13.0958 69.0988 17.0178C69.0988 21.0167 66.0997 23.9389 62.1008 23.9389ZM56.487 68.1572V28.9375H67.7146V68.1572H56.487ZM105.367 28.9375H116.595V63.9276C116.595 75.8474 108.52 83.6913 96.37 83.6913C86.2959 83.6913 79.1441 78.3851 76.6832 69.8491H88.2953C89.6796 72.0792 92.7556 73.4634 96.37 73.4634C101.83 73.4634 105.367 69.6184 105.367 63.8507V62.6203C102.445 65.8502 98.3694 67.7727 93.5246 67.7727C82.6815 67.7727 74.6069 59.1598 74.6069 47.8553C74.6069 36.5507 82.6815 28.0147 93.5246 28.0147C98.3694 28.0147 102.445 29.9372 105.367 33.1671V28.9375ZM95.7548 57.5448C101.292 57.5448 105.367 53.3922 105.367 47.8553C105.367 42.3953 101.292 38.1657 95.7548 38.1657C90.2179 38.1657 86.1421 42.3953 86.1421 47.8553C86.1421 53.3922 90.2179 57.5448 95.7548 57.5448ZM168.337 57.3141H169.106V68.1572H165.953C160.416 68.1572 156.725 66.2347 155.033 62.4665C152.034 66.5423 147.574 69.08 142.114 69.08C131.348 69.08 123.196 60.2364 123.196 48.5474C123.196 36.8583 131.348 28.0147 142.114 28.0147C146.959 28.0147 151.034 30.0141 153.957 33.244V28.9375H165.184V54.1612C165.184 56.1606 166.338 57.3141 168.337 57.3141ZM144.344 58.2369C149.881 58.2369 153.957 54.0843 153.957 48.5474C153.957 43.0105 149.881 38.8578 144.344 38.8578C138.884 38.8578 134.808 43.0105 134.808 48.5474C134.808 54.0843 138.884 58.2369 144.344 58.2369ZM232.958 57.3141H233.727V68.1572H230.574C222.653 68.1572 218.577 64.2353 218.577 56.622V46.7017C218.577 41.9338 215.578 38.8578 211.041 38.8578C206.196 38.8578 202.889 42.0107 202.889 46.8555V68.1572H191.662V28.9375H202.889V33.244C205.888 29.7834 209.964 28.0147 214.809 28.0147C223.806 28.0147 229.805 33.9361 229.805 42.9336V54.1612C229.805 56.1606 230.958 57.3141 232.958 57.3141ZM257.965 69.08C245.892 69.08 236.817 60.2364 236.817 48.5474C236.817 36.8583 245.892 28.0147 257.965 28.0147C270.039 28.0147 279.113 36.8583 279.113 48.5474C279.113 60.2364 270.039 69.08 257.965 69.08ZM257.965 58.2369C263.502 58.2369 267.578 54.0843 267.578 48.5474C267.578 43.0105 263.502 38.8578 257.965 38.8578C252.428 38.8578 248.352 43.0105 248.352 48.5474C248.352 54.0843 252.428 58.2369 257.965 58.2369ZM307.455 28.9375C308.608 39.0116 322.527 38.6271 322.527 52.9307C322.527 62.4665 316.452 69.08 306.224 69.08C300.303 69.08 295.227 66.8499 291.69 63.3124L289.767 68.1572H278.232L294.612 28.9375H307.455ZM304.071 58.2369C308.147 58.2369 310.992 56.0837 310.992 52.7C310.992 47.9322 304.302 46.1634 300.841 40.7803L295.458 54.0843C297.304 56.622 300.457 58.2369 304.071 58.2369ZM351.388 28.9375C352.541 39.0116 366.46 38.6271 366.46 52.9307C366.46 62.4665 360.385 69.08 350.157 69.08C344.236 69.08 339.16 66.8499 335.623 63.3124L333.7 68.1572H322.165L338.545 28.9375H351.388ZM348.004 58.2369C352.08 58.2369 354.925 56.0837 354.925 52.7C354.925 47.9322 348.235 46.1634 344.774 40.7803L339.391 54.0843C341.237 56.622 344.39 58.2369 348.004 58.2369ZM415.563 57.3141H416.332V68.1572H413.179C407.642 68.1572 403.951 66.2347 402.259 62.4665C399.26 66.5423 394.8 69.08 389.34 69.08C378.574 69.08 370.422 60.2364 370.422 48.5474C370.422 36.8583 378.574 28.0147 389.34 28.0147C394.185 28.0147 398.26 30.0141 401.183 33.244V28.9375H412.41V54.1612C412.41 56.1606 413.564 57.3141 415.563 57.3141ZM391.57 58.2369C397.107 58.2369 401.183 54.0843 401.183 48.5474C401.183 43.0105 397.107 38.8578 391.57 38.8578C386.11 38.8578 382.034 43.0105 382.034 48.5474C382.034 54.0843 386.11 58.2369 391.57 58.2369ZM477.338 57.3141H479.03V68.1572H476.339C465.419 68.1572 459.805 62.1589 459.805 52.1617C459.805 48.855 460.497 45.3944 462.112 41.9338L452.499 40.7034L447.347 68.1572H436.273L442.271 37.935C440.118 36.3969 438.811 33.7823 438.811 31.0138C438.811 26.8612 441.733 24.0158 446.116 24.0158C450.269 24.0158 453.191 26.6305 453.576 30.091L477.8 32.8595V35.551C473.57 41.3955 471.34 46.471 471.34 50.7775C471.34 55.0071 473.416 57.3141 477.338 57.3141ZM524.161 48.7012C524.161 49.7009 524.084 51.2389 523.854 52.1617H493.862C495.092 56.5451 498.553 59.3136 503.321 59.3136C507.012 59.3136 510.088 57.7755 511.549 55.6992H523.546C520.624 63.62 512.78 69.08 503.09 69.08C490.94 69.08 481.865 60.2364 481.865 48.5474C481.865 36.8583 490.94 28.0147 503.013 28.0147C515.01 28.0147 524.161 36.7814 524.161 48.7012ZM503.013 37.7043C498.63 37.7043 495.246 40.3958 493.939 44.7023H512.088C510.934 40.3958 507.32 37.7043 503.013 37.7043ZM573.572 57.3141H574.341V68.1572H571.188C565.651 68.1572 561.959 66.2347 560.268 62.4665C557.268 66.5423 552.808 69.08 547.348 69.08C536.582 69.08 528.43 60.2364 528.43 48.5474C528.43 36.8583 536.582 28.0147 547.348 28.0147C552.193 28.0147 556.269 30.0141 559.191 33.244V12.7882H570.419V54.1612C570.419 56.1606 571.572 57.3141 573.572 57.3141ZM549.578 58.2369C555.115 58.2369 559.191 54.0843 559.191 48.5474C559.191 43.0105 555.115 38.8578 549.578 38.8578C544.118 38.8578 540.043 43.0105 540.043 48.5474C540.043 54.0843 544.118 58.2369 549.578 58.2369ZM620.363 48.7012C620.363 49.7009 620.286 51.2389 620.055 52.1617H590.064C591.294 56.5451 594.755 59.3136 599.523 59.3136C603.214 59.3136 606.29 57.7755 607.751 55.6992H619.748C616.826 63.62 608.982 69.08 599.292 69.08C587.142 69.08 578.067 60.2364 578.067 48.5474C578.067 36.8583 587.142 28.0147 599.215 28.0147C611.212 28.0147 620.363 36.7814 620.363 48.7012ZM599.215 37.7043C594.832 37.7043 591.448 40.3958 590.141 44.7023H608.29C607.136 40.3958 603.522 37.7043 599.215 37.7043ZM668.906 28.9375C670.06 39.0116 683.979 38.6271 683.979 52.9307C683.979 62.4665 677.904 69.08 667.676 69.08C661.755 69.08 656.679 66.8499 653.142 63.3124L651.219 68.1572H639.684L656.064 28.9375H668.906ZM665.523 58.2369C669.599 58.2369 672.444 56.0837 672.444 52.7C672.444 47.9322 665.753 46.1634 662.293 40.7803L656.91 54.0843C658.755 56.622 661.908 58.2369 665.523 58.2369ZM708.935 69.08C696.861 69.08 687.787 60.2364 687.787 48.5474C687.787 36.8583 696.861 28.0147 708.935 28.0147C721.008 28.0147 730.083 36.8583 730.083 48.5474C730.083 60.2364 721.008 69.08 708.935 69.08ZM708.935 58.2369C714.472 58.2369 718.548 54.0843 718.548 48.5474C718.548 43.0105 714.472 38.8578 708.935 38.8578C703.398 38.8578 699.322 43.0105 699.322 48.5474C699.322 54.0843 703.398 58.2369 708.935 58.2369ZM755.571 69.08C743.498 69.08 734.423 60.2364 734.423 48.5474C734.423 36.8583 743.498 28.0147 755.571 28.0147C766.107 28.0147 774.489 34.8589 776.258 44.3947H764.338C762.8 41.0879 759.493 38.8578 755.571 38.8578C750.034 38.8578 745.959 43.0105 745.959 48.5474C745.959 54.0843 750.034 58.2369 755.571 58.2369C759.493 58.2369 762.8 56.0068 764.338 52.7H776.258C774.489 62.2358 766.107 69.08 755.571 69.08ZM788.384 23.9389C784.462 23.9389 781.462 21.0167 781.462 17.0178C781.462 13.0958 784.462 10.1736 788.384 10.1736C792.382 10.1736 795.382 13.0958 795.382 17.0178C795.382 21.0167 792.382 23.9389 788.384 23.9389ZM782.77 68.1572V28.9375H793.997V68.1572H782.77ZM846.031 57.3141H846.8V68.1572H843.647C838.11 68.1572 834.419 66.2347 832.727 62.4665C829.728 66.5423 825.267 69.08 819.807 69.08C809.041 69.08 800.89 60.2364 800.89 48.5474C800.89 36.8583 809.041 28.0147 819.807 28.0147C824.652 28.0147 828.728 30.0141 831.65 33.244V28.9375H842.878V54.1612C842.878 56.1606 844.031 57.3141 846.031 57.3141ZM822.038 58.2369C827.575 58.2369 831.65 54.0843 831.65 48.5474C831.65 43.0105 827.575 38.8578 822.038 38.8578C816.578 38.8578 812.502 43.0105 812.502 48.5474C812.502 54.0843 816.578 58.2369 822.038 58.2369ZM880.974 57.3141H883.435V68.1572H880.359C874.438 68.1572 869.208 66.3885 864.825 63.3124C861.826 65.3119 858.596 66.9268 855.058 68.1572L850.752 59.1598C853.136 58.2369 855.443 57.0065 857.519 55.6223C853.597 49.7009 851.444 42.0107 851.444 33.3209C851.444 19.6324 857.827 11.8654 867.44 11.8654C876.668 11.8654 882.743 18.8634 882.743 30.7831C882.743 39.7037 879.436 48.4705 873.592 55.3916C875.822 56.622 878.283 57.3141 880.974 57.3141ZM867.209 22.7085C864.671 22.7085 862.979 25.7845 862.979 32.475C862.979 37.935 864.056 42.9336 866.055 47.0093C869.285 42.2414 871.131 36.6276 871.131 30.7831C871.131 25.5538 869.67 22.7085 867.209 22.7085Z" fill="#004F94"/>
<path d="M10.1737 52.2386V42.0649C4.55492 42.0649 -1.43051e-06 46.6198 -1.43051e-06 52.2386H10.1737ZM22.401 52.2386H32.5747C32.5747 46.6198 28.0198 42.0649 22.401 42.0649V52.2386ZM27.0151 46.5479L29.3841 36.6539L29.3716 36.6509L27.0151 46.5479ZM48.7013 30.3217V40.4954C54.3201 40.4954 58.875 35.9405 58.875 30.3217H48.7013ZM36.474 30.3217H26.3003C26.3003 35.9405 30.8552 40.4954 36.474 40.4954V30.3217ZM32.7827 36.0893L35.2079 26.2089C35.1763 26.2011 35.1446 26.1935 35.1129 26.1861L32.7827 36.0893ZM29.9374 69.08V58.9063C22.7377 58.9063 20.3474 54.6758 20.3474 52.2386H10.1737H-1.43051e-06C-1.43051e-06 68.7192 14.5281 79.2538 29.9374 79.2538V69.08ZM10.1737 52.2386V62.4123H22.401V52.2386V42.0649H10.1737V52.2386ZM22.401 52.2386H12.2273C12.2273 63.1901 22.2417 68.6414 30.0912 68.6414V58.4676V48.2939C30.1026 48.2939 30.1912 48.2956 30.3464 48.3484C30.4964 48.3993 30.7476 48.5119 31.0466 48.7549C31.6599 49.2531 32.5747 50.4468 32.5747 52.2386H22.401ZM30.0912 58.4676V68.6414C33.8878 68.6414 37.8485 67.5958 41.1323 65.2188C44.4953 62.7844 47.4167 58.6441 47.4167 53.2383H37.243H27.0693C27.0693 50.8317 28.4143 49.3061 29.2011 48.7366C29.9086 48.2244 30.2935 48.2939 30.0912 48.2939V58.4676ZM37.243 53.2383H47.4167C47.4167 46.0108 42.2464 41.9883 39.2436 40.2636C36.061 38.4356 32.3376 37.361 29.3841 36.6539L27.0151 46.5479L24.6461 56.442C25.8063 56.7198 26.7937 56.9986 27.6054 57.278C28.4406 57.5654 28.9081 57.7921 29.1095 57.9078C29.3495 58.0456 28.9193 57.8567 28.3692 57.1464C28.0703 56.7604 27.7308 56.2123 27.4707 55.5C27.2057 54.774 27.0693 54.0019 27.0693 53.2383H37.243ZM27.0151 46.5479L29.3716 36.6509C26.1799 35.891 23.9192 34.7989 22.6307 33.6886C21.6725 32.8628 21.1933 32.0531 21.1933 30.4755H11.0196H0.845914C0.845914 38.5106 4.3272 44.7758 9.34803 49.1025C14.0386 53.1445 19.7756 55.2823 24.6587 56.445L27.0151 46.5479ZM11.0196 30.4755H21.1933C21.1933 28.6684 21.8616 27.3989 22.9995 26.4273C24.2524 25.3575 26.4956 24.3461 29.7836 24.3461V14.1724V3.99872C15.0423 3.99872 0.845914 13.719 0.845914 30.4755H11.0196ZM29.7836 14.1724V24.3461C36.5169 24.3461 38.5276 28.1768 38.5276 30.3217H48.7013H58.875C58.875 14.0103 44.5827 3.99872 29.7836 3.99872V14.1724ZM48.7013 30.3217V20.148H36.474V30.3217V40.4954H48.7013V30.3217ZM36.474 30.3217H46.6477C46.6477 19.6626 37.076 14.6111 29.6298 14.6111V24.7848V34.9585C29.5774 34.9585 28.9397 34.9421 28.1142 34.2726C27.2051 33.5353 26.3003 32.1223 26.3003 30.3217H36.474ZM29.6298 24.7848V14.6111C26.1277 14.6111 22.3363 15.5478 19.1402 17.865C15.791 20.2931 13.0732 24.3576 13.0732 29.5527H23.247H33.4207C33.4207 31.9025 32.1255 33.583 31.0834 34.3385C30.615 34.6781 30.2264 34.8266 30.0099 34.8902C29.7869 34.9558 29.6575 34.9585 29.6298 34.9585V24.7848ZM23.247 29.5527H13.0732C13.0732 36.3551 17.6281 40.4025 20.7488 42.3095C23.8722 44.2183 27.514 45.3012 30.4525 45.9926L32.7827 36.0893L35.1129 26.1861C34.0594 25.9382 33.191 25.6871 32.5033 25.4419C31.7937 25.1889 31.4503 25.0033 31.3589 24.9474C31.2437 24.877 31.717 25.1316 32.2623 25.8902C32.9004 26.7778 33.4207 28.0704 33.4207 29.5527H23.247ZM32.7827 36.0893L30.3575 45.9698C34.0931 46.8867 36.5475 47.9699 37.9313 49.0804C38.5301 49.5609 38.8074 49.9522 38.9577 50.2519C39.0972 50.5302 39.2966 51.0614 39.2966 52.0848H49.4703H59.644C59.644 43.7819 55.9786 37.4739 50.6661 33.2108C45.8209 29.3227 39.9315 27.3683 35.2079 26.2089L32.7827 36.0893ZM49.4703 52.0848H39.2966C39.2966 55.0973 36.9529 58.9063 29.9374 58.9063V69.08V79.2538C45.0694 79.2538 59.644 69.2205 59.644 52.0848H49.4703ZM56.487 68.1572H46.3133C46.3133 73.776 50.8682 78.3309 56.487 78.3309V68.1572ZM56.487 28.9375V18.7638C50.8682 18.7638 46.3133 23.3187 46.3133 28.9375H56.487ZM67.7146 28.9375H77.8883C77.8883 23.3187 73.3334 18.7638 67.7146 18.7638V28.9375ZM67.7146 68.1572V78.3309C73.3334 78.3309 77.8883 73.776 77.8883 68.1572H67.7146ZM62.1008 23.9389V13.7652C62.7242 13.7652 63.5998 14.0263 64.3353 14.7561C65.0824 15.4974 65.3534 16.3939 65.3534 17.0178H55.1797H45.006C45.006 26.7099 52.6348 34.1126 62.1008 34.1126V23.9389ZM55.1797 17.0178H65.3534C65.3534 17.7329 65.0445 18.6487 64.307 19.3748C63.5811 20.0894 62.7212 20.3473 62.1008 20.3473V10.1736V-0.000155449C52.7105 -0.000155449 45.006 7.32774 45.006 17.0178H55.1797ZM62.1008 10.1736V20.3473C61.57 20.3473 60.7298 20.1251 59.9899 19.4023C59.2376 18.6673 58.9251 17.7362 58.9251 17.0178H69.0988H79.2725C79.2725 7.25441 71.4932 -0.000155449 62.1008 -0.000155449V10.1736ZM69.0988 17.0178H58.9251C58.9251 16.3908 59.1994 15.4788 59.9615 14.7285C60.7111 13.9904 61.5672 13.7652 62.1008 13.7652V23.9389V34.1126C71.5692 34.1126 79.2725 26.7836 79.2725 17.0178H69.0988ZM56.487 68.1572H66.6607V28.9375H56.487H46.3133V68.1572H56.487ZM56.487 28.9375V39.1112H67.7146V28.9375V18.7638H56.487V28.9375ZM67.7146 28.9375H57.5409V68.1572H67.7146H77.8883V28.9375H67.7146ZM67.7146 68.1572V57.9835H56.487V68.1572V78.3309H67.7146V68.1572ZM105.367 28.9375V18.7638C99.7487 18.7638 95.1937 23.3187 95.1937 28.9375H105.367ZM116.595 28.9375H126.769C126.769 23.3187 122.214 18.7638 116.595 18.7638V28.9375ZM76.6832 69.8491V59.6753C73.4865 59.6753 70.4758 61.1778 68.5538 63.7322C66.6318 66.2865 66.0221 69.5957 66.9076 72.6672L76.6832 69.8491ZM88.2953 69.8491L96.9393 64.4838C95.0835 61.4939 91.8144 59.6753 88.2953 59.6753V69.8491ZM105.367 62.6203H115.541C115.541 58.4128 112.951 54.6393 109.025 53.1267C105.099 51.6142 100.646 52.6746 97.8233 55.7946L105.367 62.6203ZM105.367 33.1671L97.8233 39.9928C100.646 43.1128 105.099 44.1732 109.025 42.6607C112.951 41.1481 115.541 37.3746 115.541 33.1671H105.367ZM105.367 28.9375V39.1112H116.595V28.9375V18.7638H105.367V28.9375ZM116.595 28.9375H106.421V63.9276H116.595H126.769V28.9375H116.595ZM116.595 63.9276H106.421C106.421 67.5207 105.256 69.7077 103.935 70.997C102.589 72.3101 100.227 73.5176 96.37 73.5176V83.6913V93.865C104.663 93.865 112.414 91.1506 118.143 85.5618C123.897 79.9492 126.769 72.2543 126.769 63.9276H116.595ZM96.37 83.6913V73.5176C90.3917 73.5176 87.5467 70.8044 86.4588 67.0309L76.6832 69.8491L66.9076 72.6672C70.7415 85.9658 82.2001 93.865 96.37 93.865V83.6913ZM76.6832 69.8491V80.0228H88.2953V69.8491V59.6753H76.6832V69.8491ZM88.2953 69.8491L79.6513 75.2143C83.5417 81.4821 90.6772 83.6371 96.37 83.6371V73.4634V63.2897C95.8234 63.2897 95.593 63.1798 95.658 63.2089C95.7018 63.2286 96.345 63.5263 96.9393 64.4838L88.2953 69.8491ZM96.37 73.4634V83.6371C101.598 83.6371 106.658 81.7293 110.361 77.7541C113.996 73.8512 115.541 68.8062 115.541 63.8507H105.367H95.1937C95.1937 64.2569 95.1315 64.4115 95.1446 64.3747C95.1611 64.3285 95.2456 64.1285 95.4716 63.8858C95.7032 63.6371 95.9775 63.4586 96.2212 63.3587C96.4547 63.263 96.5344 63.2897 96.37 63.2897V73.4634ZM105.367 63.8507H115.541V62.6203H105.367H95.1937V63.8507H105.367ZM105.367 62.6203L97.8233 55.7946C96.8243 56.8987 95.4865 57.599 93.5246 57.599V67.7727V77.9464C101.252 77.9464 108.066 74.8016 112.912 69.446L105.367 62.6203ZM93.5246 67.7727V57.599C88.8242 57.599 84.7806 54.0795 84.7806 47.8553H74.6069H64.4332C64.4332 64.24 76.5389 77.9464 93.5246 77.9464V67.7727ZM74.6069 47.8553H84.7806C84.7806 41.6841 88.7738 38.1884 93.5246 38.1884V28.0147V17.841C76.5893 17.841 64.4332 31.4174 64.4332 47.8553H74.6069ZM93.5246 28.0147V38.1884C95.4865 38.1884 96.8243 38.8887 97.8233 39.9928L105.367 33.1671L112.912 26.3414C108.066 20.9858 101.252 17.841 93.5246 17.841V28.0147ZM105.367 33.1671H115.541V28.9375H105.367H95.1937V33.1671H105.367ZM95.7548 57.5448V67.7185C107.017 67.7185 115.541 58.9035 115.541 47.8553H105.367H95.1937C95.1937 47.9835 95.172 47.9917 95.2021 47.9167C95.2316 47.843 95.2942 47.7333 95.4035 47.6228C95.5133 47.5117 95.6338 47.437 95.7337 47.396C95.8355 47.3543 95.8571 47.3711 95.7548 47.3711V57.5448ZM105.367 47.8553H115.541C115.541 36.9374 107.07 27.992 95.7548 27.992V38.1657V48.3394C95.8319 48.3394 95.7965 48.3515 95.6921 48.3081C95.5912 48.2663 95.4803 48.1948 95.3837 48.0965C95.2881 47.9993 95.233 47.9033 95.2061 47.8364C95.1783 47.7673 95.1937 47.7635 95.1937 47.8553H105.367ZM95.7548 38.1657V27.992C84.4395 27.992 75.9684 36.9374 75.9684 47.8553H86.1421H96.3158C96.3158 47.7635 96.3312 47.7673 96.3034 47.8364C96.2765 47.9033 96.2214 47.9993 96.1259 48.0965C96.0292 48.1948 95.9184 48.2663 95.8174 48.3081C95.713 48.3515 95.6777 48.3394 95.7548 48.3394V38.1657ZM86.1421 47.8553H75.9684C75.9684 58.9035 84.4922 67.7185 95.7548 67.7185V57.5448V47.3711C95.6524 47.3711 95.674 47.3543 95.7758 47.396C95.8757 47.437 95.9962 47.5117 96.1061 47.6228C96.2153 47.7333 96.2779 47.843 96.3075 47.9167C96.3376 47.9917 96.3158 47.9835 96.3158 47.8553H86.1421ZM169.106 57.3141H179.28C179.28 51.6953 174.725 47.1404 169.106 47.1404V57.3141ZM169.106 68.1572V78.3309C174.725 78.3309 179.28 73.776 179.28 68.1572H169.106ZM155.033 62.4665L164.314 58.2995C162.832 54.9989 159.709 52.7336 156.111 52.3501C152.514 51.9666 148.983 53.5227 146.839 56.4368L155.033 62.4665ZM153.957 33.244L146.412 40.0697C149.235 43.1897 153.688 44.2501 157.614 42.7376C161.54 41.225 164.13 37.4515 164.13 33.244H153.957ZM153.957 28.9375V18.7638C148.338 18.7638 143.783 23.3187 143.783 28.9375H153.957ZM165.184 28.9375H175.358C175.358 23.3187 170.803 18.7638 165.184 18.7638V28.9375ZM168.337 57.3141V67.4878H169.106V57.3141V47.1404H168.337V57.3141ZM169.106 57.3141H158.932V68.1572H169.106H179.28V57.3141H169.106ZM169.106 68.1572V57.9835H165.953V68.1572V78.3309H169.106V68.1572ZM165.953 68.1572V57.9835C164.292 57.9835 163.721 57.6861 163.752 57.7025C163.789 57.7215 163.921 57.801 164.072 57.961C164.223 58.1212 164.296 58.2592 164.314 58.2995L155.033 62.4665L145.752 66.6336C149.661 75.3404 158.037 78.3309 165.953 78.3309V68.1572ZM155.033 62.4665L146.839 56.4368C145.606 58.1117 144.093 58.9063 142.114 58.9063V69.08V79.2538C151.055 79.2538 158.462 74.9729 163.227 68.4963L155.033 62.4665ZM142.114 69.08V58.9063C137.734 58.9063 133.37 55.417 133.37 48.5474H123.196H113.022C113.022 65.0557 124.961 79.2538 142.114 79.2538V69.08ZM123.196 48.5474H133.37C133.37 41.6777 137.734 38.1884 142.114 38.1884V28.0147V17.841C124.961 17.841 113.022 32.039 113.022 48.5474H123.196ZM142.114 28.0147V38.1884C143.958 38.1884 145.333 38.8762 146.412 40.0697L153.957 33.244L161.501 26.4183C156.736 21.1521 149.959 17.841 142.114 17.841V28.0147ZM153.957 33.244H164.13V28.9375H153.957H143.783V33.244H153.957ZM153.957 28.9375V39.1112H165.184V28.9375V18.7638H153.957V28.9375ZM165.184 28.9375H155.01V54.1612H165.184H175.358V28.9375H165.184ZM165.184 54.1612H155.01C155.01 57.0992 155.893 60.7576 158.817 63.6813C161.741 66.605 165.399 67.4878 168.337 67.4878V57.3141V47.1404C169.276 47.1404 171.358 47.4464 173.205 49.2935C175.052 51.1406 175.358 53.2226 175.358 54.1612H165.184ZM144.344 58.2369V68.4107C155.606 68.4107 164.13 59.5956 164.13 48.5474H153.957H143.783C143.783 48.6756 143.761 48.6838 143.791 48.6088C143.821 48.5351 143.883 48.4254 143.993 48.3149C144.102 48.2038 144.223 48.1291 144.323 48.0881C144.425 48.0464 144.446 48.0632 144.344 48.0632V58.2369ZM153.957 48.5474H164.13C164.13 37.4991 155.606 28.6841 144.344 28.6841V38.8578V49.0315C144.446 49.0315 144.425 49.0483 144.323 49.0066C144.223 48.9657 144.102 48.8909 143.993 48.7798C143.883 48.6693 143.821 48.5596 143.791 48.486C143.761 48.411 143.783 48.4191 143.783 48.5474H153.957ZM144.344 38.8578V28.6841C133.105 28.6841 124.634 37.5536 124.634 48.5474H134.808H144.982C144.982 48.4191 145.004 48.4077 144.976 48.4776C144.948 48.5456 144.889 48.651 144.783 48.7594C144.675 48.8684 144.553 48.9474 144.44 48.9938C144.326 49.0413 144.279 49.0315 144.344 49.0315V38.8578ZM134.808 48.5474H124.634C124.634 59.5412 133.105 68.4107 144.344 68.4107V58.2369V48.0632C144.279 48.0632 144.326 48.0534 144.44 48.1009C144.553 48.1473 144.675 48.2263 144.783 48.3353C144.889 48.4437 144.948 48.5491 144.976 48.6171C145.004 48.687 144.982 48.6756 144.982 48.5474H134.808ZM233.727 57.3141H243.9C243.9 51.6953 239.346 47.1404 233.727 47.1404V57.3141ZM233.727 68.1572V78.3309C239.346 78.3309 243.9 73.776 243.9 68.1572H233.727ZM202.889 68.1572V78.3309C208.508 78.3309 213.063 73.776 213.063 68.1572H202.889ZM191.662 68.1572H181.488C181.488 73.776 186.043 78.3309 191.662 78.3309V68.1572ZM191.662 28.9375V18.7638C186.043 18.7638 181.488 23.3187 181.488 28.9375H191.662ZM202.889 28.9375H213.063C213.063 23.3187 208.508 18.7638 202.889 18.7638V28.9375ZM202.889 33.244H192.716C192.716 37.4913 195.354 41.2916 199.333 42.7761C203.313 44.2605 207.796 43.1167 210.577 39.9071L202.889 33.244ZM232.958 57.3141V67.4878H233.727V57.3141V47.1404H232.958V57.3141ZM233.727 57.3141H223.553V68.1572H233.727H243.9V57.3141H233.727ZM233.727 68.1572V57.9835H230.574V68.1572V78.3309H233.727V68.1572ZM230.574 68.1572V57.9835C229.405 57.9835 228.766 57.8357 228.505 57.7508C228.285 57.6791 228.421 57.6843 228.657 57.9117C228.902 58.1467 228.963 58.3398 228.935 58.2607C228.89 58.133 228.751 57.6426 228.751 56.622H218.577H208.403C208.403 62.1776 209.919 68.1206 214.553 72.5775C219.117 76.9667 225.069 78.3309 230.574 78.3309V68.1572ZM218.577 56.622H228.751V46.7017H218.577H208.403V56.622H218.577ZM218.577 46.7017H228.751C228.751 42.1669 227.289 37.5114 223.832 33.928C220.343 30.3116 215.681 28.6841 211.041 28.6841V38.8578V49.0315C210.938 49.0315 210.044 48.942 209.189 48.0556C208.365 47.2022 208.403 46.4686 208.403 46.7017H218.577ZM211.041 38.8578V28.6841C206.385 28.6841 201.664 30.235 198.053 33.7488C194.412 37.292 192.716 42.0419 192.716 46.8555H202.889H213.063C213.063 46.8057 213.07 46.9807 212.944 47.2982C212.815 47.6249 212.586 47.9975 212.244 48.331C211.498 49.057 210.852 49.0315 211.041 49.0315V38.8578ZM202.889 46.8555H192.716V68.1572H202.889H213.063V46.8555H202.889ZM202.889 68.1572V57.9835H191.662V68.1572V78.3309H202.889V68.1572ZM191.662 68.1572H201.835V28.9375H191.662H181.488V68.1572H191.662ZM191.662 28.9375V39.1112H202.889V28.9375V18.7638H191.662V28.9375ZM202.889 28.9375H192.716V33.244H202.889H213.063V28.9375H202.889ZM202.889 33.244L210.577 39.9071C211.491 38.8527 212.673 38.1884 214.809 38.1884V28.0147V17.841C207.256 17.841 200.286 20.7141 195.201 26.5809L202.889 33.244ZM214.809 28.0147V38.1884C217.033 38.1884 218.068 38.8783 218.514 39.3204C218.951 39.7543 219.631 40.7515 219.631 42.9336H229.805H239.978C239.978 36.1181 237.66 29.6559 232.848 24.8798C228.045 20.1118 221.582 17.841 214.809 17.841V28.0147ZM229.805 42.9336H219.631V54.1612H229.805H239.978V42.9336H229.805ZM229.805 54.1612H219.631C219.631 57.0992 220.514 60.7576 223.438 63.6813C226.361 66.605 230.02 67.4878 232.958 67.4878V57.3141V47.1404C233.896 47.1404 235.978 47.4464 237.825 49.2935C239.672 51.1406 239.978 53.2226 239.978 54.1612H229.805ZM257.965 69.08V58.9063C251.236 58.9063 246.991 54.3473 246.991 48.5474H236.817H226.643C226.643 66.1255 240.547 79.2538 257.965 79.2538V69.08ZM236.817 48.5474H246.991C246.991 42.7475 251.236 38.1884 257.965 38.1884V28.0147V17.841C240.547 17.841 226.643 30.9692 226.643 48.5474H236.817ZM257.965 28.0147V38.1884C264.694 38.1884 268.939 42.7475 268.939 48.5474H279.113H289.287C289.287 30.9692 275.383 17.841 257.965 17.841V28.0147ZM279.113 48.5474H268.939C268.939 54.3473 264.694 58.9063 257.965 58.9063V69.08V79.2538C275.383 79.2538 289.287 66.1255 289.287 48.5474H279.113ZM257.965 58.2369V68.4107C269.228 68.4107 277.751 59.5956 277.751 48.5474H267.578H257.404C257.404 48.6756 257.382 48.6838 257.412 48.6088C257.442 48.5351 257.505 48.4254 257.614 48.3149C257.724 48.2038 257.844 48.1291 257.944 48.0881C258.046 48.0464 258.067 48.0632 257.965 48.0632V58.2369ZM267.578 48.5474H277.751C277.751 37.4991 269.228 28.6841 257.965 28.6841V38.8578V49.0315C258.067 49.0315 258.046 49.0483 257.944 49.0066C257.844 48.9657 257.724 48.8909 257.614 48.7798C257.505 48.6693 257.442 48.5596 257.412 48.486C257.382 48.411 257.404 48.4191 257.404 48.5474H267.578ZM257.965 38.8578V28.6841C246.703 28.6841 238.179 37.4991 238.179 48.5474H248.352H258.526C258.526 48.4191 258.548 48.411 258.518 48.486C258.488 48.5596 258.426 48.6693 258.316 48.7798C258.207 48.8909 258.086 48.9657 257.986 49.0066C257.884 49.0483 257.863 49.0315 257.965 49.0315V38.8578ZM248.352 48.5474H238.179C238.179 59.5956 246.703 68.4107 257.965 68.4107V58.2369V48.0632C257.863 48.0632 257.884 48.0464 257.986 48.0881C258.086 48.1291 258.207 48.2038 258.316 48.3149C258.426 48.4254 258.488 48.5351 258.518 48.6088C258.548 48.6838 258.526 48.6756 258.526 48.5474H248.352ZM307.455 28.9375L317.562 27.7801C316.974 22.6427 312.626 18.7638 307.455 18.7638V28.9375ZM291.69 63.3124L298.884 56.1185C296.462 53.6969 292.985 52.6561 289.631 53.3493C286.277 54.0425 283.497 56.3766 282.234 59.5599L291.69 63.3124ZM289.767 68.1572V78.3309C293.938 78.3309 297.686 75.786 299.224 71.9098L289.767 68.1572ZM278.232 68.1572L268.844 64.2364C267.533 67.3767 267.878 70.9647 269.765 73.7971C271.651 76.6294 274.829 78.3309 278.232 78.3309V68.1572ZM294.612 28.9375V18.7638C290.508 18.7638 286.806 21.2297 285.224 25.0167L294.612 28.9375ZM300.841 40.7803L309.399 35.2788C307.344 32.0812 303.677 30.2964 299.892 30.651C296.107 31.0056 292.836 33.4406 291.41 36.9643L300.841 40.7803ZM295.458 54.0843L286.027 50.2683C284.71 53.5236 285.165 57.2281 287.23 60.0682L295.458 54.0843ZM307.455 28.9375L297.347 30.0949C298.505 40.2059 306.818 45.4601 309 47.2369C310.604 48.5434 311.289 49.2825 311.689 49.9268C311.964 50.3709 312.354 51.1555 312.354 52.9307H322.527H332.701C332.701 47.5542 331.351 43.0229 328.98 39.2014C326.734 35.5801 323.867 33.1037 321.848 31.4591C319.415 29.4783 318.602 28.9318 317.804 28.0588C317.552 27.7832 317.512 27.6811 317.532 27.7227C317.567 27.792 317.57 27.8436 317.562 27.7801L307.455 28.9375ZM322.527 52.9307H312.354C312.354 55.5233 311.564 56.8311 310.956 57.4489C310.381 58.0338 309.086 58.9063 306.224 58.9063V69.08V79.2538C313.591 79.2538 320.447 76.8195 325.466 71.7137C330.453 66.6408 332.701 59.8739 332.701 52.9307H322.527ZM306.224 69.08V58.9063C302.921 58.9063 300.457 57.6919 298.884 56.1185L291.69 63.3124L284.496 70.5063C289.998 76.0079 297.685 79.2538 306.224 79.2538V69.08ZM291.69 63.3124L282.234 59.5599L280.311 64.4047L289.767 68.1572L299.224 71.9098L301.146 67.065L291.69 63.3124ZM289.767 68.1572V57.9835H278.232V68.1572V78.3309H289.767V68.1572ZM278.232 68.1572L287.62 72.078L304 32.8583L294.612 28.9375L285.224 25.0167L268.844 64.2364L278.232 68.1572ZM294.612 28.9375V39.1112H307.455V28.9375V18.7638H294.612V28.9375ZM304.071 58.2369V68.4107C307.8 68.4107 311.924 67.4314 315.354 64.7306C319.004 61.8569 321.166 57.5368 321.166 52.7H310.992H300.819C300.819 52.0909 300.954 51.3237 301.339 50.5339C301.722 49.7485 302.249 49.1514 302.766 48.7441C303.755 47.9659 304.418 48.0632 304.071 48.0632V58.2369ZM310.992 52.7H321.166C321.166 44.9574 315.422 40.5313 313.631 39.076C310.776 36.755 310.011 36.2301 309.399 35.2788L300.841 40.7803L292.283 46.2818C293.814 48.6625 295.59 50.4701 297.101 51.8228C298.448 53.0291 300.133 54.3259 300.798 54.8657C301.784 55.6673 301.854 55.823 301.716 55.636C301.406 55.2178 300.819 54.1507 300.819 52.7H310.992ZM300.841 40.7803L291.41 36.9643L286.027 50.2683L295.458 54.0843L304.889 57.9003L310.272 44.5963L300.841 40.7803ZM295.458 54.0843L287.23 60.0682C291.125 65.4229 297.437 68.4107 304.071 68.4107V58.2369V48.0632C303.476 48.0632 303.483 47.8211 303.686 48.1004L295.458 54.0843ZM351.388 28.9375L361.495 27.7801C360.907 22.6427 356.559 18.7638 351.388 18.7638V28.9375ZM335.623 63.3124L342.817 56.1185C340.395 53.6969 336.918 52.6561 333.564 53.3493C330.21 54.0425 327.43 56.3766 326.167 59.5599L335.623 63.3124ZM333.7 68.1572V78.3309C337.871 78.3309 341.619 75.786 343.157 71.9098L333.7 68.1572ZM322.165 68.1572L312.777 64.2364C311.466 67.3767 311.811 70.9647 313.698 73.7971C315.584 76.6294 318.762 78.3309 322.165 78.3309V68.1572ZM338.545 28.9375V18.7638C334.441 18.7638 330.739 21.2297 329.157 25.0167L338.545 28.9375ZM344.774 40.7803L353.332 35.2788C351.277 32.0812 347.61 30.2964 343.825 30.651C340.04 31.0056 336.769 33.4406 335.343 36.9643L344.774 40.7803ZM339.391 54.0843L329.96 50.2683C328.643 53.5236 329.098 57.2281 331.163 60.0682L339.391 54.0843ZM351.388 28.9375L341.28 30.0949C342.438 40.2059 350.75 45.4601 352.932 47.2369C354.537 48.5434 355.222 49.2825 355.622 49.9268C355.897 50.3709 356.287 51.1555 356.287 52.9307H366.46H376.634C376.634 47.5542 375.284 43.0229 372.913 39.2014C370.667 35.5801 367.8 33.1037 365.781 31.4591C363.348 29.4783 362.535 28.9318 361.737 28.0588C361.485 27.7832 361.445 27.6811 361.465 27.7227C361.5 27.792 361.503 27.8436 361.495 27.7801L351.388 28.9375ZM366.46 52.9307H356.287C356.287 55.5233 355.497 56.8311 354.889 57.4489C354.314 58.0338 353.019 58.9063 350.157 58.9063V69.08V79.2538C357.524 79.2538 364.38 76.8195 369.399 71.7137C374.386 66.6408 376.634 59.8739 376.634 52.9307H366.46ZM350.157 69.08V58.9063C346.854 58.9063 344.39 57.6919 342.817 56.1185L335.623 63.3124L328.429 70.5063C333.931 76.0079 341.618 79.2538 350.157 79.2538V69.08ZM335.623 63.3124L326.167 59.5599L324.244 64.4047L333.7 68.1572L343.157 71.9098L345.079 67.065L335.623 63.3124ZM333.7 68.1572V57.9835H322.165V68.1572V78.3309H333.7V68.1572ZM322.165 68.1572L331.553 72.078L347.933 32.8583L338.545 28.9375L329.157 25.0167L312.777 64.2364L322.165 68.1572ZM338.545 28.9375V39.1112H351.388V28.9375V18.7638H338.545V28.9375ZM348.004 58.2369V68.4107C351.733 68.4107 355.857 67.4314 359.287 64.7306C362.936 61.8569 365.099 57.5368 365.099 52.7H354.925H344.751C344.751 52.0909 344.887 51.3237 345.272 50.5339C345.655 49.7485 346.182 49.1514 346.699 48.7441C347.688 47.9659 348.351 48.0632 348.004 48.0632V58.2369ZM354.925 52.7H365.099C365.099 44.9574 359.355 40.5313 357.564 39.076C354.709 36.755 353.944 36.2301 353.332 35.2788L344.774 40.7803L336.216 46.2818C337.747 48.6625 339.523 50.4701 341.034 51.8228C342.381 53.0291 344.066 54.3259 344.731 54.8657C345.717 55.6673 345.787 55.823 345.648 55.636C345.339 55.2178 344.751 54.1507 344.751 52.7H354.925ZM344.774 40.7803L335.343 36.9643L329.96 50.2683L339.391 54.0843L348.822 57.9003L354.205 44.5963L344.774 40.7803ZM339.391 54.0843L331.163 60.0682C335.058 65.4229 341.37 68.4107 348.004 68.4107V58.2369V48.0632C347.409 48.0632 347.416 47.8211 347.619 48.1004L339.391 54.0843ZM416.332 57.3141H426.506C426.506 51.6953 421.951 47.1404 416.332 47.1404V57.3141ZM416.332 68.1572V78.3309C421.951 78.3309 426.506 73.776 426.506 68.1572H416.332ZM402.259 62.4665L411.54 58.2995C410.058 54.9989 406.935 52.7336 403.337 52.3501C399.74 51.9666 396.209 53.5227 394.065 56.4368L402.259 62.4665ZM401.183 33.244L393.638 40.0697C396.461 43.1897 400.914 44.2501 404.84 42.7376C408.766 41.225 411.356 37.4515 411.356 33.244H401.183ZM401.183 28.9375V18.7638C395.564 18.7638 391.009 23.3187 391.009 28.9375H401.183ZM412.41 28.9375H422.584C422.584 23.3187 418.029 18.7638 412.41 18.7638V28.9375ZM415.563 57.3141V67.4878H416.332V57.3141V47.1404H415.563V57.3141ZM416.332 57.3141H406.158V68.1572H416.332H426.506V57.3141H416.332ZM416.332 68.1572V57.9835H413.179V68.1572V78.3309H416.332V68.1572ZM413.179 68.1572V57.9835C411.518 57.9835 410.947 57.6861 410.978 57.7025C411.015 57.7215 411.147 57.801 411.298 57.961C411.449 58.1212 411.522 58.2592 411.54 58.2995L402.259 62.4665L392.978 66.6336C396.887 75.3404 405.263 78.3309 413.179 78.3309V68.1572ZM402.259 62.4665L394.065 56.4368C392.832 58.1117 391.319 58.9063 389.34 58.9063V69.08V79.2538C398.281 79.2538 405.688 74.9729 410.453 68.4963L402.259 62.4665ZM389.34 69.08V58.9063C384.96 58.9063 380.596 55.417 380.596 48.5474H370.422H360.248C360.248 65.0557 372.187 79.2538 389.34 79.2538V69.08ZM370.422 48.5474H380.596C380.596 41.6777 384.96 38.1884 389.34 38.1884V28.0147V17.841C372.187 17.841 360.248 32.039 360.248 48.5474H370.422ZM389.34 28.0147V38.1884C391.184 38.1884 392.559 38.8762 393.638 40.0697L401.183 33.244L408.727 26.4183C403.962 21.1521 397.186 17.841 389.34 17.841V28.0147ZM401.183 33.244H411.356V28.9375H401.183H391.009V33.244H401.183ZM401.183 28.9375V39.1112H412.41V28.9375V18.7638H401.183V28.9375ZM412.41 28.9375H402.236V54.1612H412.41H422.584V28.9375H412.41ZM412.41 54.1612H402.236C402.236 57.0992 403.119 60.7576 406.043 63.6813C408.967 66.605 412.625 67.4878 415.563 67.4878V57.3141V47.1404C416.502 47.1404 418.584 47.4464 420.431 49.2935C422.278 51.1406 422.584 53.2226 422.584 54.1612H412.41ZM391.57 58.2369V68.4107C402.832 68.4107 411.356 59.5956 411.356 48.5474H401.183H391.009C391.009 48.6756 390.987 48.6838 391.017 48.6088C391.047 48.5351 391.109 48.4254 391.219 48.3149C391.328 48.2038 391.449 48.1291 391.549 48.0881C391.651 48.0464 391.672 48.0632 391.57 48.0632V58.2369ZM401.183 48.5474H411.356C411.356 37.4991 402.832 28.6841 391.57 28.6841V38.8578V49.0315C391.672 49.0315 391.651 49.0483 391.549 49.0066C391.449 48.9657 391.328 48.8909 391.219 48.7798C391.109 48.6693 391.047 48.5596 391.017 48.486C390.987 48.411 391.009 48.4191 391.009 48.5474H401.183ZM391.57 38.8578V28.6841C380.331 28.6841 371.86 37.5536 371.86 48.5474H382.034H392.208C392.208 48.4191 392.23 48.4077 392.202 48.4776C392.174 48.5456 392.115 48.651 392.009 48.7594C391.901 48.8684 391.779 48.9474 391.666 48.9938C391.552 49.0413 391.505 49.0315 391.57 49.0315V38.8578ZM382.034 48.5474H371.86C371.86 59.5412 380.331 68.4107 391.57 68.4107V58.2369V48.0632C391.505 48.0632 391.552 48.0534 391.666 48.1009C391.779 48.1473 391.901 48.2263 392.009 48.3353C392.115 48.4437 392.174 48.5491 392.202 48.6171C392.23 48.687 392.208 48.6756 392.208 48.5474H382.034ZM479.03 57.3141H489.204C489.204 51.6953 484.649 47.1404 479.03 47.1404V57.3141ZM479.03 68.1572V78.3309C484.649 78.3309 489.204 73.776 489.204 68.1572H479.03ZM462.112 41.9338L471.331 46.2362C472.705 43.2929 472.59 39.8707 471.023 37.0257C469.456 34.1807 466.625 32.2548 463.404 31.8425L462.112 41.9338ZM452.499 40.7034L453.791 30.612C448.446 29.9278 443.494 33.5304 442.5 38.8268L452.499 40.7034ZM447.347 68.1572V78.3309C452.242 78.3309 456.443 74.8449 457.346 70.0338L447.347 68.1572ZM436.273 68.1572L426.294 66.1767C425.701 69.1637 426.478 72.2593 428.41 74.613C430.342 76.9667 433.228 78.3309 436.273 78.3309V68.1572ZM442.271 37.935L452.25 39.9155C453.029 35.994 451.438 31.9801 448.185 29.6563L442.271 37.935ZM453.576 30.091L443.464 31.2145C443.989 35.9319 447.705 39.66 452.421 40.1989L453.576 30.091ZM477.8 32.8595H487.974C487.974 27.6876 484.093 23.3388 478.955 22.7516L477.8 32.8595ZM477.8 35.551L486.042 41.5156C487.297 39.7803 487.974 37.693 487.974 35.551H477.8ZM477.338 57.3141V67.4878H479.03V57.3141V47.1404H477.338V57.3141ZM479.03 57.3141H468.857V68.1572H479.03H489.204V57.3141H479.03ZM479.03 68.1572V57.9835H476.339V68.1572V78.3309H479.03V68.1572ZM476.339 68.1572V57.9835C472.694 57.9835 471.468 57.01 471.146 56.6895C470.828 56.3739 469.979 55.2964 469.979 52.1617H459.805H449.631C449.631 59.0242 451.589 65.9445 456.808 71.1273C462.022 76.3053 469.064 78.3309 476.339 78.3309V68.1572ZM459.805 52.1617H469.979C469.979 50.305 470.36 48.3168 471.331 46.2362L462.112 41.9338L452.893 37.6315C450.634 42.472 449.631 47.405 449.631 52.1617H459.805ZM462.112 41.9338L463.404 31.8425L453.791 30.612L452.499 40.7034L451.208 50.7948L460.82 52.0252L462.112 41.9338ZM452.499 40.7034L442.5 38.8268L437.348 66.2806L447.347 68.1572L457.346 70.0338L462.498 42.58L452.499 40.7034ZM447.347 68.1572V57.9835H436.273V68.1572V78.3309H447.347V68.1572ZM436.273 68.1572L446.252 70.1378L452.25 39.9155L442.271 37.935L432.292 35.9544L426.294 66.1767L436.273 68.1572ZM442.271 37.935L448.185 29.6563C448.534 29.906 448.73 30.1795 448.833 30.386C448.937 30.593 448.985 30.8034 448.985 31.0138H438.811H428.637C428.637 36.8885 431.388 42.664 436.358 46.2137L442.271 37.935ZM438.811 31.0138H448.985C448.985 31.4081 448.792 32.4049 447.875 33.2879C446.987 34.1423 446.154 34.1895 446.116 34.1895V24.0158V13.8421C441.695 13.8421 437.21 15.312 433.765 18.6272C430.291 21.9711 428.637 26.4669 428.637 31.0138H438.811ZM446.116 24.0158V34.1895C446.027 34.1895 445.426 34.1402 444.729 33.5571C444.023 32.9663 443.562 32.0956 443.464 31.2145L453.576 30.091L463.687 28.9675C462.665 19.7661 454.839 13.8421 446.116 13.8421V24.0158ZM453.576 30.091L452.421 40.1989L476.645 42.9674L477.8 32.8595L478.955 22.7516L454.731 19.9831L453.576 30.091ZM477.8 32.8595H467.626V35.551H477.8H487.974V32.8595H477.8ZM477.8 35.551L469.558 29.5865C464.941 35.9658 461.166 43.2133 461.166 50.7775H471.34H481.514C481.514 49.7287 482.199 46.8252 486.042 41.5156L477.8 35.551ZM471.34 50.7775H461.166C461.166 54.418 462.056 58.8783 465.355 62.4917C468.796 66.2597 473.362 67.4878 477.338 67.4878V57.3141V47.1404C477.393 47.1404 478.96 47.2151 480.382 48.7721C481.662 50.1746 481.514 51.3666 481.514 50.7775H471.34ZM523.854 52.1617V62.3354C528.522 62.3354 532.591 59.1582 533.724 54.6292L523.854 52.1617ZM493.862 52.1617V41.988C490.678 41.988 487.677 43.4788 485.754 46.0163C483.831 48.5539 483.206 51.8456 484.067 54.9112L493.862 52.1617ZM511.549 55.6992V45.5255C508.238 45.5255 505.135 47.1366 503.229 49.8443L511.549 55.6992ZM523.546 55.6992L533.091 59.2206C534.242 56.0991 533.795 52.6117 531.893 49.882C529.99 47.1524 526.873 45.5255 523.546 45.5255V55.6992ZM493.939 44.7023L484.204 41.747C483.268 44.8299 483.848 48.1739 485.767 50.7619C487.686 53.3499 490.717 54.876 493.939 54.876V44.7023ZM512.088 44.7023V54.876C515.25 54.876 518.233 53.4051 520.159 50.896C522.084 48.3869 522.733 45.125 521.915 42.07L512.088 44.7023ZM524.161 48.7012H513.987C513.987 48.9722 513.976 49.3444 513.95 49.68C513.938 49.8427 513.926 49.9466 513.919 49.9921C513.91 50.0591 513.922 49.9392 513.984 49.6942L523.854 52.1617L533.724 54.6292C534.279 52.406 534.335 49.7921 534.335 48.7012H524.161ZM523.854 52.1617V41.988H493.862V52.1617V62.3354H523.854V52.1617ZM493.862 52.1617L484.067 54.9112C486.501 63.5817 493.887 69.4873 503.321 69.4873V59.3136V49.1399C503.118 49.1399 503.07 49.1114 503.136 49.1326C503.205 49.1551 503.328 49.2099 503.461 49.3121C503.593 49.4134 503.672 49.5131 503.707 49.5662C503.739 49.6154 503.704 49.5799 503.657 49.4122L493.862 52.1617ZM503.321 59.3136V69.4873C509.503 69.4873 516.075 66.9456 519.869 61.5541L511.549 55.6992L503.229 49.8443C503.486 49.4791 503.722 49.2654 503.855 49.1601C503.991 49.0525 504.066 49.0213 504.052 49.0275C504.016 49.0438 503.77 49.1399 503.321 49.1399V59.3136ZM511.549 55.6992V65.8729H523.546V55.6992V45.5255H511.549V55.6992ZM523.546 55.6992L514.001 52.1778C512.674 55.7759 508.877 58.9063 503.09 58.9063V69.08V79.2538C516.683 79.2538 528.574 71.4642 533.091 59.2206L523.546 55.6992ZM503.09 69.08V58.9063C496.26 58.9063 492.039 54.3233 492.039 48.5474H481.865H471.692C471.692 66.1495 485.62 79.2538 503.09 79.2538V69.08ZM481.865 48.5474H492.039C492.039 42.7475 496.284 38.1884 503.013 38.1884V28.0147V17.841C485.595 17.841 471.692 30.9692 471.692 48.5474H481.865ZM503.013 28.0147V38.1884C509.665 38.1884 513.987 42.6699 513.987 48.7012H524.161H534.335C534.335 30.893 520.355 17.841 503.013 17.841V28.0147ZM503.013 37.7043V27.5306C493.767 27.5306 486.698 33.5308 484.204 41.747L493.939 44.7023L503.674 47.6576C503.732 47.467 503.78 47.4008 503.768 47.419C503.754 47.4398 503.693 47.5219 503.569 47.619C503.442 47.7178 503.297 47.7935 503.162 47.8389C503.028 47.8837 502.966 47.878 503.013 47.878V37.7043ZM493.939 44.7023V54.876H512.088V44.7023V34.5286H493.939V44.7023ZM512.088 44.7023L521.915 42.07C519.559 33.2762 511.884 27.5306 503.013 27.5306V37.7043V47.878C503.026 47.878 502.975 47.8792 502.879 47.8473C502.784 47.8155 502.67 47.7596 502.558 47.6741C502.446 47.5881 502.362 47.4931 502.307 47.4107C502.252 47.3277 502.249 47.2906 502.26 47.3346L512.088 44.7023ZM574.341 57.3141H584.514C584.514 51.6953 579.959 47.1404 574.341 47.1404V57.3141ZM574.341 68.1572V78.3309C579.959 78.3309 584.514 73.776 584.514 68.1572H574.341ZM560.268 62.4665L569.549 58.2995C568.067 54.9989 564.944 52.7336 561.346 52.3501C557.748 51.9666 554.218 53.5227 552.073 56.4368L560.268 62.4665ZM559.191 33.244L551.647 40.0697C554.47 43.1897 558.922 44.2501 562.848 42.7376C566.775 41.225 569.365 37.4515 569.365 33.244H559.191ZM559.191 12.7882V2.61449C553.572 2.61449 549.017 7.16942 549.017 12.7882H559.191ZM570.419 12.7882H580.592C580.592 7.16942 576.037 2.61449 570.419 2.61449V12.7882ZM573.572 57.3141V67.4878H574.341V57.3141V47.1404H573.572V57.3141ZM574.341 57.3141H564.167V68.1572H574.341H584.514V57.3141H574.341ZM574.341 68.1572V57.9835H571.188V68.1572V78.3309H574.341V68.1572ZM571.188 68.1572V57.9835C569.527 57.9835 568.955 57.6861 568.987 57.7025C569.023 57.7215 569.155 57.801 569.306 57.961C569.458 58.1212 569.531 58.2592 569.549 58.2995L560.268 62.4665L550.986 66.6336C554.896 75.3404 563.272 78.3309 571.188 78.3309V68.1572ZM560.268 62.4665L552.073 56.4368C550.841 58.1117 549.327 58.9063 547.348 58.9063V69.08V79.2538C556.289 79.2538 563.696 74.9729 568.462 68.4963L560.268 62.4665ZM547.348 69.08V58.9063C542.968 58.9063 538.604 55.417 538.604 48.5474H528.43H518.257C518.257 65.0557 530.196 79.2538 547.348 79.2538V69.08ZM528.43 48.5474H538.604C538.604 41.6777 542.968 38.1884 547.348 38.1884V28.0147V17.841C530.196 17.841 518.257 32.039 518.257 48.5474H528.43ZM547.348 28.0147V38.1884C549.192 38.1884 550.567 38.8762 551.647 40.0697L559.191 33.244L566.735 26.4183C561.97 21.1521 555.194 17.841 547.348 17.841V28.0147ZM559.191 33.244H569.365V12.7882H559.191H549.017V33.244H559.191ZM559.191 12.7882V22.9619H570.419V12.7882V2.61449H559.191V12.7882ZM570.419 12.7882H560.245V54.1612H570.419H580.592V12.7882H570.419ZM570.419 54.1612H560.245C560.245 57.0992 561.128 60.7576 564.051 63.6813C566.975 66.605 570.634 67.4878 573.572 67.4878V57.3141V47.1404C574.51 47.1404 576.592 47.4464 578.439 49.2935C580.286 51.1406 580.592 53.2226 580.592 54.1612H570.419ZM549.578 58.2369V68.4107C560.841 68.4107 569.365 59.5956 569.365 48.5474H559.191H549.017C549.017 48.6756 548.996 48.6838 549.026 48.6088C549.055 48.5351 549.118 48.4254 549.227 48.3149C549.337 48.2038 549.457 48.1291 549.557 48.0881C549.659 48.0464 549.681 48.0632 549.578 48.0632V58.2369ZM559.191 48.5474H569.365C569.365 37.4991 560.841 28.6841 549.578 28.6841V38.8578V49.0315C549.681 49.0315 549.659 49.0483 549.557 49.0066C549.457 48.9657 549.337 48.8909 549.227 48.7798C549.118 48.6693 549.055 48.5596 549.026 48.486C548.996 48.411 549.017 48.4191 549.017 48.5474H559.191ZM549.578 38.8578V28.6841C538.339 28.6841 529.869 37.5536 529.869 48.5474H540.043H550.216C550.216 48.4191 550.238 48.4077 550.21 48.4776C550.183 48.5456 550.124 48.651 550.017 48.7594C549.91 48.8684 549.787 48.9474 549.675 48.9938C549.56 49.0413 549.514 49.0315 549.578 49.0315V38.8578ZM540.043 48.5474H529.869C529.869 59.5412 538.339 68.4107 549.578 68.4107V58.2369V48.0632C549.514 48.0632 549.56 48.0534 549.675 48.1009C549.787 48.1473 549.91 48.2263 550.017 48.3353C550.124 48.4437 550.183 48.5491 550.21 48.6171C550.238 48.687 550.216 48.6756 550.216 48.5474H540.043ZM620.055 52.1617V62.3354C624.724 62.3354 628.793 59.1582 629.925 54.6292L620.055 52.1617ZM590.064 52.1617V41.988C586.88 41.988 583.879 43.4788 581.956 46.0163C580.033 48.5539 579.408 51.8456 580.269 54.9112L590.064 52.1617ZM607.751 55.6992V45.5255C604.44 45.5255 601.337 47.1366 599.431 49.8443L607.751 55.6992ZM619.748 55.6992L629.293 59.2206C630.444 56.0991 629.997 52.6117 628.094 49.882C626.192 47.1524 623.075 45.5255 619.748 45.5255V55.6992ZM590.141 44.7023L580.406 41.747C579.47 44.8299 580.05 48.1739 581.969 50.7619C583.888 53.3499 586.919 54.876 590.141 54.876V44.7023ZM608.29 44.7023V54.876C611.452 54.876 614.435 53.4051 616.361 50.896C618.286 48.3869 618.935 45.125 618.117 42.07L608.29 44.7023ZM620.363 48.7012H610.189C610.189 48.9722 610.178 49.3444 610.152 49.68C610.139 49.8427 610.127 49.9466 610.121 49.9921C610.112 50.0591 610.124 49.9392 610.186 49.6942L620.055 52.1617L629.925 54.6292C630.481 52.406 630.537 49.7921 630.537 48.7012H620.363ZM620.055 52.1617V41.988H590.064V52.1617V62.3354H620.055V52.1617ZM590.064 52.1617L580.269 54.9112C582.703 63.5817 590.089 69.4873 599.523 69.4873V59.3136V49.1399C599.32 49.1399 599.272 49.1114 599.337 49.1326C599.407 49.1551 599.53 49.2099 599.663 49.3121C599.795 49.4134 599.874 49.5131 599.909 49.5662C599.941 49.6154 599.906 49.5799 599.859 49.4122L590.064 52.1617ZM599.523 59.3136V69.4873C605.705 69.4873 612.277 66.9456 616.071 61.5541L607.751 55.6992L599.431 49.8443C599.688 49.4791 599.924 49.2654 600.057 49.1601C600.193 49.0525 600.268 49.0213 600.254 49.0275C600.218 49.0438 599.972 49.1399 599.523 49.1399V59.3136ZM607.751 55.6992V65.8729H619.748V55.6992V45.5255H607.751V55.6992ZM619.748 55.6992L610.203 52.1778C608.876 55.7759 605.079 58.9063 599.292 58.9063V69.08V79.2538C612.885 79.2538 624.776 71.4642 629.293 59.2206L619.748 55.6992ZM599.292 69.08V58.9063C592.462 58.9063 588.241 54.3233 588.241 48.5474H578.067H567.894C567.894 66.1495 581.822 79.2538 599.292 79.2538V69.08ZM578.067 48.5474H588.241C588.241 42.7475 592.486 38.1884 599.215 38.1884V28.0147V17.841C581.797 17.841 567.894 30.9692 567.894 48.5474H578.067ZM599.215 28.0147V38.1884C605.866 38.1884 610.189 42.6699 610.189 48.7012H620.363H630.537C630.537 30.893 616.557 17.841 599.215 17.841V28.0147ZM599.215 37.7043V27.5306C589.969 27.5306 582.9 33.5308 580.406 41.747L590.141 44.7023L599.876 47.6576C599.934 47.467 599.982 47.4008 599.97 47.419C599.956 47.4398 599.895 47.5219 599.771 47.619C599.643 47.7178 599.499 47.7935 599.364 47.8389C599.23 47.8837 599.168 47.878 599.215 47.878V37.7043ZM590.141 44.7023V54.876H608.29V44.7023V34.5286H590.141V44.7023ZM608.29 44.7023L618.117 42.07C615.761 33.2762 608.086 27.5306 599.215 27.5306V37.7043V47.878C599.228 47.878 599.177 47.8792 599.081 47.8473C598.985 47.8155 598.872 47.7596 598.76 47.6741C598.648 47.5881 598.564 47.4931 598.509 47.4107C598.454 47.3277 598.45 47.2906 598.462 47.3346L608.29 44.7023ZM668.906 28.9375L679.014 27.7801C678.426 22.6427 674.077 18.7638 668.906 18.7638V28.9375ZM653.142 63.3124L660.336 56.1185C657.914 53.6969 654.436 52.6561 651.082 53.3493C647.729 54.0425 644.949 56.3766 643.685 59.5599L653.142 63.3124ZM651.219 68.1572V78.3309C655.389 78.3309 659.137 75.786 660.676 71.9098L651.219 68.1572ZM639.684 68.1572L630.296 64.2364C628.985 67.3767 629.33 70.9647 631.217 73.7971C633.103 76.6294 636.281 78.3309 639.684 78.3309V68.1572ZM656.064 28.9375V18.7638C651.96 18.7638 648.258 21.2297 646.676 25.0167L656.064 28.9375ZM662.293 40.7803L670.851 35.2788C668.795 32.0812 665.129 30.2964 661.344 30.651C657.559 31.0056 654.288 33.4406 652.862 36.9643L662.293 40.7803ZM656.91 54.0843L647.479 50.2683C646.162 53.5236 646.616 57.2281 648.682 60.0682L656.91 54.0843ZM668.906 28.9375L658.799 30.0949C659.957 40.2059 668.269 45.4601 670.451 47.2369C672.056 48.5434 672.741 49.2825 673.141 49.9268C673.416 50.3709 673.805 51.1555 673.805 52.9307H683.979H694.153C694.153 47.5542 692.802 43.0229 690.432 39.2014C688.186 35.5801 685.319 33.1037 683.299 31.4591C680.867 29.4783 680.054 28.9318 679.255 28.0588C679.003 27.7832 678.963 27.6811 678.984 27.7227C679.019 27.792 679.021 27.8436 679.014 27.7801L668.906 28.9375ZM683.979 52.9307H673.805C673.805 55.5233 673.016 56.8311 672.408 57.4489C671.833 58.0338 670.537 58.9063 667.676 58.9063V69.08V79.2538C675.043 79.2538 681.898 76.8195 686.918 71.7137C691.905 66.6408 694.153 59.8739 694.153 52.9307H683.979ZM667.676 69.08V58.9063C664.372 58.9063 661.909 57.6919 660.336 56.1185L653.142 63.3124L645.948 70.5063C651.449 76.0079 659.137 79.2538 667.676 79.2538V69.08ZM653.142 63.3124L643.685 59.5599L641.763 64.4047L651.219 68.1572L660.676 71.9098L662.598 67.065L653.142 63.3124ZM651.219 68.1572V57.9835H639.684V68.1572V78.3309H651.219V68.1572ZM639.684 68.1572L649.072 72.078L665.452 32.8583L656.064 28.9375L646.676 25.0167L630.296 64.2364L639.684 68.1572ZM656.064 28.9375V39.1112H668.906V28.9375V18.7638H656.064V28.9375ZM665.523 58.2369V68.4107C669.252 68.4107 673.376 67.4314 676.806 64.7306C680.455 61.8569 682.618 57.5368 682.618 52.7H672.444H662.27C662.27 52.0909 662.406 51.3237 662.791 50.5339C663.174 49.7485 663.701 49.1514 664.218 48.7441C665.206 47.9659 665.869 48.0632 665.523 48.0632V58.2369ZM672.444 52.7H682.618C682.618 44.9574 676.873 40.5313 675.083 39.076C672.227 36.755 671.462 36.2301 670.851 35.2788L662.293 40.7803L653.735 46.2818C655.265 48.6625 657.042 50.4701 658.553 51.8228C659.9 53.0291 661.585 54.3259 662.249 54.8657C663.236 55.6673 663.306 55.823 663.167 55.636C662.858 55.2178 662.27 54.1507 662.27 52.7H672.444ZM662.293 40.7803L652.862 36.9643L647.479 50.2683L656.91 54.0843L666.341 57.9003L671.724 44.5963L662.293 40.7803ZM656.91 54.0843L648.682 60.0682C652.576 65.4229 658.889 68.4107 665.523 68.4107V58.2369V48.0632C664.928 48.0632 664.935 47.8211 665.138 48.1004L656.91 54.0843ZM708.935 69.08V58.9063C702.206 58.9063 697.961 54.3473 697.961 48.5474H687.787H677.613C677.613 66.1255 691.517 79.2538 708.935 79.2538V69.08ZM687.787 48.5474H697.961C697.961 42.7475 702.206 38.1884 708.935 38.1884V28.0147V17.841C691.517 17.841 677.613 30.9692 677.613 48.5474H687.787ZM708.935 28.0147V38.1884C715.664 38.1884 719.909 42.7475 719.909 48.5474H730.083H740.256C740.256 30.9692 726.353 17.841 708.935 17.841V28.0147ZM730.083 48.5474H719.909C719.909 54.3473 715.664 58.9063 708.935 58.9063V69.08V79.2538C726.353 79.2538 740.256 66.1255 740.256 48.5474H730.083ZM708.935 58.2369V68.4107C720.197 68.4107 728.721 59.5956 728.721 48.5474H718.548H708.374C708.374 48.6756 708.352 48.6838 708.382 48.6088C708.412 48.5351 708.474 48.4254 708.584 48.3149C708.693 48.2038 708.814 48.1291 708.914 48.0881C709.016 48.0464 709.037 48.0632 708.935 48.0632V58.2369ZM718.548 48.5474H728.721C728.721 37.4991 720.197 28.6841 708.935 28.6841V38.8578V49.0315C709.037 49.0315 709.016 49.0483 708.914 49.0066C708.814 48.9657 708.693 48.8909 708.584 48.7798C708.474 48.6693 708.412 48.5596 708.382 48.486C708.352 48.411 708.374 48.4191 708.374 48.5474H718.548ZM708.935 38.8578V28.6841C697.672 28.6841 689.148 37.4991 689.148 48.5474H699.322H709.496C709.496 48.4191 709.518 48.411 709.488 48.486C709.458 48.5596 709.395 48.6693 709.286 48.7798C709.176 48.8909 709.056 48.9657 708.956 49.0066C708.854 49.0483 708.832 49.0315 708.935 49.0315V38.8578ZM699.322 48.5474H689.148C689.148 59.5956 697.672 68.4107 708.935 68.4107V58.2369V48.0632C708.832 48.0632 708.854 48.0464 708.956 48.0881C709.056 48.1291 709.176 48.2038 709.286 48.3149C709.395 48.4254 709.458 48.5351 709.488 48.6088C709.518 48.6838 709.496 48.6756 709.496 48.5474H699.322ZM776.258 44.3947V54.5684C779.281 54.5684 782.147 53.224 784.08 50.8996C786.013 48.5752 786.812 45.5116 786.261 42.5393L776.258 44.3947ZM764.338 44.3947L755.113 48.6853C756.782 52.2735 760.381 54.5684 764.338 54.5684V44.3947ZM764.338 52.7V42.5263C760.381 42.5263 756.782 44.8212 755.113 48.4095L764.338 52.7ZM776.258 52.7L786.261 54.5555C786.812 51.5831 786.013 48.5195 784.08 46.1951C782.147 43.8707 779.281 42.5263 776.258 42.5263V52.7ZM755.571 69.08V58.9063C748.842 58.9063 744.597 54.3473 744.597 48.5474H734.423H724.25C724.25 66.1255 738.153 79.2538 755.571 79.2538V69.08ZM734.423 48.5474H744.597C744.597 42.7475 748.842 38.1884 755.571 38.1884V28.0147V17.841C738.153 17.841 724.25 30.9692 724.25 48.5474H734.423ZM755.571 28.0147V38.1884C761.554 38.1884 765.443 41.8713 766.255 46.2501L776.258 44.3947L786.261 42.5393C783.536 27.8465 770.66 17.841 755.571 17.841V28.0147ZM776.258 44.3947V34.221H764.338V44.3947V54.5684H776.258V44.3947ZM764.338 44.3947L773.563 40.1041C770.383 33.2667 763.514 28.6841 755.571 28.6841V38.8578V49.0315C755.583 49.0315 755.557 49.0325 755.506 49.0174C755.456 49.0027 755.4 48.9781 755.344 48.9423C755.231 48.8695 755.154 48.773 755.113 48.6853L764.338 44.3947ZM755.571 38.8578V28.6841C744.309 28.6841 735.785 37.4991 735.785 48.5474H745.959H756.132C756.132 48.4191 756.154 48.411 756.124 48.486C756.095 48.5596 756.032 48.6693 755.923 48.7798C755.813 48.8909 755.692 48.9657 755.592 49.0066C755.491 49.0483 755.469 49.0315 755.571 49.0315V38.8578ZM745.959 48.5474H735.785C735.785 59.5956 744.309 68.4107 755.571 68.4107V58.2369V48.0632C755.469 48.0632 755.491 48.0464 755.592 48.0881C755.692 48.1291 755.813 48.2038 755.923 48.3149C756.032 48.4254 756.095 48.5351 756.124 48.6088C756.154 48.6838 756.132 48.6756 756.132 48.5474H745.959ZM755.571 58.2369V68.4107C763.514 68.4107 770.383 63.828 773.563 56.9906L764.338 52.7L755.113 48.4095C755.154 48.3217 755.231 48.2252 755.344 48.1524C755.4 48.1166 755.456 48.092 755.506 48.0774C755.557 48.0622 755.583 48.0632 755.571 48.0632V58.2369ZM764.338 52.7V62.8737H776.258V52.7V42.5263H764.338V52.7ZM776.258 52.7L766.255 50.8446C765.443 55.2234 761.554 58.9063 755.571 58.9063V69.08V79.2538C770.66 79.2538 783.536 69.2482 786.261 54.5555L776.258 52.7ZM782.77 68.1572H772.596C772.596 73.776 777.151 78.3309 782.77 78.3309V68.1572ZM782.77 28.9375V18.7638C777.151 18.7638 772.596 23.3187 772.596 28.9375H782.77ZM793.997 28.9375H804.171C804.171 23.3187 799.616 18.7638 793.997 18.7638V28.9375ZM793.997 68.1572V78.3309C799.616 78.3309 804.171 73.776 804.171 68.1572H793.997ZM788.384 23.9389V13.7652C789.007 13.7652 789.883 14.0263 790.618 14.7561C791.365 15.4974 791.636 16.3939 791.636 17.0178H781.462H771.289C771.289 26.7099 778.918 34.1126 788.384 34.1126V23.9389ZM781.462 17.0178H791.636C791.636 17.7329 791.327 18.6487 790.59 19.3748C789.864 20.0894 789.004 20.3473 788.384 20.3473V10.1736V-0.000155449C778.993 -0.000155449 771.289 7.32774 771.289 17.0178H781.462ZM788.384 10.1736V20.3473C787.853 20.3473 787.013 20.1251 786.273 19.4023C785.52 18.6673 785.208 17.7362 785.208 17.0178H795.382H805.555C805.555 7.25441 797.776 -0.000155449 788.384 -0.000155449V10.1736ZM795.382 17.0178H785.208C785.208 16.3908 785.482 15.4788 786.244 14.7285C786.994 13.9904 787.85 13.7652 788.384 13.7652V23.9389V34.1126C797.852 34.1126 805.555 26.7836 805.555 17.0178H795.382ZM782.77 68.1572H792.944V28.9375H782.77H772.596V68.1572H782.77ZM782.77 28.9375V39.1112H793.997V28.9375V18.7638H782.77V28.9375ZM793.997 28.9375H783.824V68.1572H793.997H804.171V28.9375H793.997ZM793.997 68.1572V57.9835H782.77V68.1572V78.3309H793.997V68.1572ZM846.8 57.3141H856.974C856.974 51.6953 852.419 47.1404 846.8 47.1404V57.3141ZM846.8 68.1572V78.3309C852.419 78.3309 856.974 73.776 856.974 68.1572H846.8ZM832.727 62.4665L842.008 58.2995C840.526 54.9989 837.403 52.7336 833.805 52.3501C830.208 51.9666 826.677 53.5227 824.533 56.4368L832.727 62.4665ZM831.65 33.244L824.106 40.0697C826.929 43.1897 831.381 44.2501 835.308 42.7376C839.234 41.225 841.824 37.4515 841.824 33.244H831.65ZM831.65 28.9375V18.7638C826.032 18.7638 821.477 23.3187 821.477 28.9375H831.65ZM842.878 28.9375H853.052C853.052 23.3187 848.497 18.7638 842.878 18.7638V28.9375ZM846.031 57.3141V67.4878H846.8V57.3141V47.1404H846.031V57.3141ZM846.8 57.3141H836.626V68.1572H846.8H856.974V57.3141H846.8ZM846.8 68.1572V57.9835H843.647V68.1572V78.3309H846.8V68.1572ZM843.647 68.1572V57.9835C841.986 57.9835 841.415 57.6861 841.446 57.7025C841.482 57.7215 841.615 57.801 841.766 57.961C841.917 58.1212 841.99 58.2592 842.008 58.2995L832.727 62.4665L823.446 66.6336C827.355 75.3404 835.731 78.3309 843.647 78.3309V68.1572ZM832.727 62.4665L824.533 56.4368C823.3 58.1117 821.787 58.9063 819.807 58.9063V69.08V79.2538C828.748 79.2538 836.155 74.9729 840.921 68.4963L832.727 62.4665ZM819.807 69.08V58.9063C815.427 58.9063 811.063 55.417 811.063 48.5474H800.89H790.716C790.716 65.0557 802.655 79.2538 819.807 79.2538V69.08ZM800.89 48.5474H811.063C811.063 41.6777 815.427 38.1884 819.807 38.1884V28.0147V17.841C802.655 17.841 790.716 32.039 790.716 48.5474H800.89ZM819.807 28.0147V38.1884C821.651 38.1884 823.026 38.8762 824.106 40.0697L831.65 33.244L839.194 26.4183C834.43 21.1521 827.653 17.841 819.807 17.841V28.0147ZM831.65 33.244H841.824V28.9375H831.65H821.477V33.244H831.65ZM831.65 28.9375V39.1112H842.878V28.9375V18.7638H831.65V28.9375ZM842.878 28.9375H832.704V54.1612H842.878H853.052V28.9375H842.878ZM842.878 54.1612H832.704C832.704 57.0992 833.587 60.7576 836.511 63.6813C839.434 66.605 843.093 67.4878 846.031 67.4878V57.3141V47.1404C846.969 47.1404 849.051 47.4464 850.898 49.2935C852.746 51.1406 853.052 53.2226 853.052 54.1612H842.878ZM822.038 58.2369V68.4107C833.3 68.4107 841.824 59.5956 841.824 48.5474H831.65H821.477C821.477 48.6756 821.455 48.6838 821.485 48.6088C821.514 48.5351 821.577 48.4254 821.686 48.3149C821.796 48.2038 821.917 48.1291 822.017 48.0881C822.118 48.0464 822.14 48.0632 822.038 48.0632V58.2369ZM831.65 48.5474H841.824C841.824 37.4991 833.3 28.6841 822.038 28.6841V38.8578V49.0315C822.14 49.0315 822.118 49.0483 822.017 49.0066C821.917 48.9657 821.796 48.8909 821.686 48.7798C821.577 48.6693 821.514 48.5596 821.485 48.486C821.455 48.411 821.477 48.4191 821.477 48.5474H831.65ZM822.038 38.8578V28.6841C810.798 28.6841 802.328 37.5536 802.328 48.5474H812.502H822.676C822.676 48.4191 822.697 48.4077 822.669 48.4776C822.642 48.5456 822.583 48.651 822.476 48.7594C822.369 48.8684 822.246 48.9474 822.134 48.9938C822.019 49.0413 821.973 49.0315 822.038 49.0315V38.8578ZM812.502 48.5474H802.328C802.328 59.5412 810.798 68.4107 822.038 68.4107V58.2369V48.0632C821.973 48.0632 822.019 48.0534 822.134 48.1009C822.246 48.1473 822.369 48.2263 822.476 48.3353C822.583 48.4437 822.642 48.5491 822.669 48.6171C822.697 48.687 822.676 48.6756 822.676 48.5474H812.502ZM883.435 57.3141H893.609C893.609 51.6953 889.054 47.1404 883.435 47.1404V57.3141ZM883.435 68.1572V78.3309C889.054 78.3309 893.609 73.776 893.609 68.1572H883.435ZM864.825 63.3124L870.669 54.9847C867.234 52.5745 862.673 52.52 859.181 54.8474L864.825 63.3124ZM855.058 68.1572L845.882 72.5495C848.118 77.2219 853.508 79.468 858.401 77.7663L855.058 68.1572ZM850.752 59.1598L847.079 49.6721C844.436 50.6953 842.339 52.7747 841.295 55.4095C840.25 58.0443 840.352 60.9954 841.575 63.552L850.752 59.1598ZM857.519 55.6223L863.163 64.0873C867.828 60.9772 869.097 54.6789 866.001 50.0044L857.519 55.6223ZM873.592 55.3916L865.819 48.8277C863.852 51.156 863.034 54.2431 863.587 57.2399C864.141 60.2366 866.009 62.8273 868.677 64.2995L873.592 55.3916ZM866.055 47.0093L856.921 51.4901C858.519 54.7463 861.729 56.9059 865.347 57.1584C868.965 57.4108 872.444 55.718 874.478 52.7152L866.055 47.0093ZM880.974 57.3141V67.4878H883.435V57.3141V47.1404H880.974V57.3141ZM883.435 57.3141H873.261V68.1572H883.435H893.609V57.3141H883.435ZM883.435 68.1572V57.9835H880.359V68.1572V78.3309H883.435V68.1572ZM880.359 68.1572V57.9835C876.563 57.9835 873.368 56.8791 870.669 54.9847L864.825 63.3124L858.981 71.6402C865.048 75.8979 872.312 78.3309 880.359 78.3309V68.1572ZM864.825 63.3124L859.181 54.8474C856.899 56.3691 854.442 57.5999 851.716 58.5482L855.058 68.1572L858.401 77.7663C862.749 76.2537 866.752 74.2547 870.468 71.7775L864.825 63.3124ZM855.058 68.1572L864.235 63.7649L859.929 54.7675L850.752 59.1598L841.575 63.552L845.882 72.5495L855.058 68.1572ZM850.752 59.1598L854.425 68.6474C857.564 67.4321 860.528 65.8437 863.163 64.0873L857.519 55.6223L851.876 47.1573C850.358 48.1693 848.707 49.0418 847.079 49.6721L850.752 59.1598ZM857.519 55.6223L866.001 50.0044C863.368 46.0289 861.618 40.3773 861.618 33.3209H851.444H841.27C841.27 43.6442 843.826 53.3729 849.037 61.2402L857.519 55.6223ZM851.444 33.3209H861.618C861.618 27.9153 862.893 24.9795 863.914 23.6455C864.708 22.6094 865.668 22.0391 867.439 22.0391V11.8654V1.69167C859.599 1.69167 852.561 5.00491 847.76 11.2744C843.187 17.246 841.27 25.038 841.27 33.3209H851.444ZM867.439 11.8654V22.0391C869.272 22.0391 870.121 22.6221 870.704 23.3284C871.463 24.2485 872.569 26.4497 872.569 30.7831H882.743H892.917C892.917 23.1969 890.985 15.9392 886.4 10.3803C881.638 4.60765 874.835 1.69167 867.439 1.69167V11.8654ZM882.743 30.7831H872.569C872.569 37.2061 870.175 43.6686 865.819 48.8277L873.592 55.3916L881.365 61.9555C888.697 53.2723 892.917 42.2013 892.917 30.7831H882.743ZM873.592 55.3916L868.677 64.2995C872.318 66.3084 876.46 67.4878 880.974 67.4878V57.3141V47.1404C880.106 47.1404 879.325 46.9356 878.506 46.4837L873.592 55.3916ZM867.209 22.7085V12.5348C860.737 12.5348 856.719 16.8859 854.903 20.823C853.263 24.3807 852.806 28.5372 852.806 32.475H862.979H873.153C873.153 31.21 873.234 30.3214 873.327 29.7464C873.424 29.1447 873.503 29.0791 873.381 29.3427C873.262 29.6022 872.793 30.5096 871.645 31.3848C870.372 32.3549 868.783 32.8822 867.209 32.8822V22.7085ZM862.979 32.475H852.806C852.806 39.2196 854.129 45.797 856.921 51.4901L866.055 47.0093L875.189 42.5286C873.983 40.0701 873.153 36.6503 873.153 32.475H862.979ZM866.055 47.0093L874.478 52.7152C878.775 46.3727 881.304 38.7902 881.304 30.7831H871.131H860.957C860.957 34.4651 859.795 38.1102 857.632 41.3034L866.055 47.0093ZM871.131 30.7831H881.304C881.304 27.4765 880.882 23.663 879.218 20.2865C877.342 16.4819 873.347 12.5348 867.209 12.5348V22.7085V32.8822C865.733 32.8822 864.194 32.4138 862.908 31.4856C861.724 30.6317 861.17 29.6949 860.967 29.2832C860.767 28.877 860.785 28.7421 860.843 29.0697C860.896 29.3732 860.957 29.9289 860.957 30.7831H871.131Z" fill="white" mask="url(#path-1-outside-1_84_53)"/>
</g>
<defs>
<filter id="filter0_d_84_53" x="0" y="0" width="896.661" height="100.987" filterUnits="userSpaceOnUse" color-interpolation-filters="sRGB">
<feFlood flood-opacity="0" result="BackgroundImageFix"/>
<feColorMatrix in="SourceAlpha" type="matrix" values="0 0 0 0 0 0 0 0 0 0 0 0 0 0 0 0 0 0 127 0" result="hardAlpha"/>
<feOffset dx="3.05211" dy="7.1216"/>
<feComposite in2="hardAlpha" operator="out"/>
<feColorMatrix type="matrix" values="0 0 0 0 0 0 0 0 0 0 0 0 0 0 0 0 0 0 0.25 0"/>
<feBlend mode="normal" in2="BackgroundImageFix" result="effect1_dropShadow_84_53"/>
<feBlend mode="normal" in="SourceGraphic" in2="effect1_dropShadow_84_53" result="shape"/>
</filter>
</defs>
</svg>
