<svg width="1293" height="162" viewBox="0 0 1293 162" fill="none" xmlns="http://www.w3.org/2000/svg">
<g filter="url(#filter0_d_68_24)">
<mask id="path-1-outside-1_68_24" maskUnits="userSpaceOnUse" x="-0.173248" y="-0.613281" width="1287" height="149" fill="black">
<rect fill="white" x="-0.173248" y="-0.613281" width="1287" height="149"/>
<path d="M20.1729 125.387V20.1731H43.9603L87.7231 84.5211V20.1731H111.358V125.387H87.4181L43.8078 61.0387V125.387H20.1729ZM167.398 127.217C143.458 127.217 125.465 109.681 125.465 86.5034C125.465 63.3259 143.458 45.7903 167.398 45.7903C191.338 45.7903 209.331 63.3259 209.331 86.5034C209.331 109.681 191.338 127.217 167.398 127.217ZM167.398 105.716C178.377 105.716 186.459 97.4822 186.459 86.5034C186.459 75.5246 178.377 67.2905 167.398 67.2905C156.419 67.2905 148.338 75.5246 148.338 86.5034C148.338 97.4822 156.419 105.716 167.398 105.716ZM263.089 127.217C251.5 127.217 241.283 122.794 234.422 115.933L230.457 125.387H207.585L240.064 47.6201H265.528C267.816 67.5955 295.415 66.8331 295.415 95.195C295.415 114.103 283.369 127.217 263.089 127.217ZM272.543 94.7375C272.543 85.2836 259.277 81.9289 252.415 71.1026L241.741 97.4822C245.401 102.514 251.652 105.716 258.819 105.716C266.901 105.716 272.543 101.447 272.543 94.7375ZM350.201 127.217C338.612 127.217 328.396 122.794 321.534 115.933L317.569 125.387H294.697L327.176 47.6201H352.641C354.928 67.5955 382.527 66.8331 382.527 95.195C382.527 114.103 370.481 127.217 350.201 127.217ZM359.655 94.7375C359.655 85.2836 346.389 81.9289 339.527 71.1026L328.853 97.4822C332.513 102.514 338.765 105.716 345.931 105.716C354.013 105.716 359.655 101.447 359.655 94.7375ZM427.893 127.217C406.546 127.217 390.383 109.681 390.383 86.5034C390.383 63.3259 406.546 45.7903 427.893 45.7903C437.347 45.7903 445.429 49.2975 451.376 55.3968V47.6201H473.639V97.6347C473.639 101.599 475.926 103.887 479.89 103.887H481.415V125.387H475.163C464.49 125.387 457.475 121.88 453.968 114.865C447.716 122.49 438.72 127.217 427.893 127.217ZM432.316 105.716C443.294 105.716 451.376 97.4822 451.376 86.5034C451.376 75.5246 443.294 67.2905 432.316 67.2905C421.489 67.2905 413.408 75.5246 413.408 86.5034C413.408 97.4822 421.489 105.716 432.316 105.716ZM563.65 127.217C539.558 127.217 521.565 109.681 521.565 86.5034C521.565 63.3259 539.558 45.7903 563.498 45.7903C587.285 45.7903 605.431 63.1735 605.431 86.8084C605.431 88.7907 605.278 91.8403 604.821 93.6702H545.352C547.792 102.514 554.806 108.156 564.108 108.156C571.427 108.156 577.526 104.954 580.423 100.837H604.211C598.416 116.543 582.863 127.217 563.65 127.217ZM563.498 64.8508C554.654 64.8508 547.944 70.3402 545.505 78.8793H581.643C579.204 70.3402 572.342 64.8508 563.498 64.8508ZM658.742 127.217C647.153 127.217 636.936 122.794 630.075 115.933L626.11 125.387H603.238L635.717 47.6201H661.181C663.469 67.5955 691.068 66.8331 691.068 95.195C691.068 114.103 679.022 127.217 658.742 127.217ZM668.196 94.7375C668.196 85.2836 654.929 81.9289 648.068 71.1026L637.394 97.4822C641.053 102.514 647.305 105.716 654.472 105.716C662.554 105.716 668.196 101.447 668.196 94.7375ZM732.006 125.387C713.556 125.387 703.949 116.695 703.949 100.074V67.9004H692.361V47.6201H698.765C703.034 47.6201 705.169 45.4854 705.169 41.2158V27.1873H726.212V47.6201H743.138V67.9004H726.212V96.4149C726.212 101.904 729.567 105.106 735.361 105.106H743.138V125.387H732.006ZM751.616 125.387L763.51 65.4607C759.24 62.5635 756.648 57.3791 756.648 51.7372C756.648 43.5031 762.442 37.8612 771.134 37.8612C779.368 37.8612 785.01 43.0456 785.925 49.9074L833.957 55.3968V60.7337C825.57 72.3225 821.148 82.3864 821.148 90.9254C821.148 99.312 825.265 103.887 833.042 103.887H836.397V125.387H831.06C809.407 125.387 798.276 113.493 798.276 93.6702C798.276 86.9609 799.648 80.2516 802.85 73.3898L783.79 70.7976L773.574 125.387H751.616ZM874.04 127.217C856.809 127.217 845.373 115.628 845.373 97.9397V47.6201H867.636V91.2304C867.636 99.922 873.125 105.716 881.512 105.716C890.508 105.716 896.607 99.7695 896.607 90.9254V47.6201H918.87V97.6347C918.87 101.599 921.157 103.887 925.122 103.887H926.647V125.387H920.395C909.721 125.387 902.554 121.88 899.2 114.865C893.1 122.947 884.561 127.217 874.04 127.217ZM972.049 125.387C953.598 125.387 943.992 116.695 943.992 100.074V67.9004H932.403V47.6201H938.807C943.077 47.6201 945.212 45.4854 945.212 41.2158V27.1873H966.254V47.6201H983.18V67.9004H966.254V96.4149C966.254 101.904 969.609 105.106 975.403 105.106H983.18V125.387H972.049ZM1024.74 127.217C1007.51 127.217 996.07 115.628 996.07 97.9397V47.6201H1018.33V91.2304C1018.33 99.922 1023.82 105.716 1032.21 105.716C1041.2 105.716 1047.3 99.7695 1047.3 90.9254V47.6201H1069.57V97.6347C1069.57 101.599 1071.85 103.887 1075.82 103.887H1077.34V125.387H1071.09C1060.42 125.387 1053.25 121.88 1049.9 114.865C1043.8 122.947 1035.26 127.217 1024.74 127.217ZM1084.43 125.387L1096.32 65.4607C1092.05 62.5635 1089.46 57.3791 1089.46 51.7372C1089.46 43.5031 1095.26 37.8612 1103.95 37.8612C1112.18 37.8612 1117.82 43.0456 1118.74 49.9074L1166.77 55.3968V60.7337C1158.38 72.3225 1153.96 82.3864 1153.96 90.9254C1153.96 99.312 1158.08 103.887 1165.86 103.887H1169.21V125.387H1163.87C1142.22 125.387 1131.09 113.493 1131.09 93.6702C1131.09 86.9609 1132.46 80.2516 1135.66 73.3898L1116.6 70.7976L1106.39 125.387H1084.43ZM1212.65 127.217C1191.3 127.217 1175.14 109.681 1175.14 86.5034C1175.14 63.3259 1191.3 45.7903 1212.65 45.7903C1222.1 45.7903 1230.18 49.2975 1236.13 55.3968V47.6201H1258.39V97.6347C1258.39 101.599 1260.68 103.887 1264.64 103.887H1266.17V125.387H1259.92C1249.24 125.387 1242.23 121.88 1238.72 114.865C1232.47 122.49 1223.47 127.217 1212.65 127.217ZM1217.07 105.716C1228.05 105.716 1236.13 97.4822 1236.13 86.5034C1236.13 75.5246 1228.05 67.2905 1217.07 67.2905C1206.24 67.2905 1198.16 75.5246 1198.16 86.5034C1198.16 97.4822 1206.24 105.716 1217.07 105.716Z"/>
</mask>
<path d="M20.1729 125.387V20.1731H43.9603L87.7231 84.5211V20.1731H111.358V125.387H87.4181L43.8078 61.0387V125.387H20.1729ZM167.398 127.217C143.458 127.217 125.465 109.681 125.465 86.5034C125.465 63.3259 143.458 45.7903 167.398 45.7903C191.338 45.7903 209.331 63.3259 209.331 86.5034C209.331 109.681 191.338 127.217 167.398 127.217ZM167.398 105.716C178.377 105.716 186.459 97.4822 186.459 86.5034C186.459 75.5246 178.377 67.2905 167.398 67.2905C156.419 67.2905 148.338 75.5246 148.338 86.5034C148.338 97.4822 156.419 105.716 167.398 105.716ZM263.089 127.217C251.5 127.217 241.283 122.794 234.422 115.933L230.457 125.387H207.585L240.064 47.6201H265.528C267.816 67.5955 295.415 66.8331 295.415 95.195C295.415 114.103 283.369 127.217 263.089 127.217ZM272.543 94.7375C272.543 85.2836 259.277 81.9289 252.415 71.1026L241.741 97.4822C245.401 102.514 251.652 105.716 258.819 105.716C266.901 105.716 272.543 101.447 272.543 94.7375ZM350.201 127.217C338.612 127.217 328.396 122.794 321.534 115.933L317.569 125.387H294.697L327.176 47.6201H352.641C354.928 67.5955 382.527 66.8331 382.527 95.195C382.527 114.103 370.481 127.217 350.201 127.217ZM359.655 94.7375C359.655 85.2836 346.389 81.9289 339.527 71.1026L328.853 97.4822C332.513 102.514 338.765 105.716 345.931 105.716C354.013 105.716 359.655 101.447 359.655 94.7375ZM427.893 127.217C406.546 127.217 390.383 109.681 390.383 86.5034C390.383 63.3259 406.546 45.7903 427.893 45.7903C437.347 45.7903 445.429 49.2975 451.376 55.3968V47.6201H473.639V97.6347C473.639 101.599 475.926 103.887 479.89 103.887H481.415V125.387H475.163C464.49 125.387 457.475 121.88 453.968 114.865C447.716 122.49 438.72 127.217 427.893 127.217ZM432.316 105.716C443.294 105.716 451.376 97.4822 451.376 86.5034C451.376 75.5246 443.294 67.2905 432.316 67.2905C421.489 67.2905 413.408 75.5246 413.408 86.5034C413.408 97.4822 421.489 105.716 432.316 105.716ZM563.65 127.217C539.558 127.217 521.565 109.681 521.565 86.5034C521.565 63.3259 539.558 45.7903 563.498 45.7903C587.285 45.7903 605.431 63.1735 605.431 86.8084C605.431 88.7907 605.278 91.8403 604.821 93.6702H545.352C547.792 102.514 554.806 108.156 564.108 108.156C571.427 108.156 577.526 104.954 580.423 100.837H604.211C598.416 116.543 582.863 127.217 563.65 127.217ZM563.498 64.8508C554.654 64.8508 547.944 70.3402 545.505 78.8793H581.643C579.204 70.3402 572.342 64.8508 563.498 64.8508ZM658.742 127.217C647.153 127.217 636.936 122.794 630.075 115.933L626.11 125.387H603.238L635.717 47.6201H661.181C663.469 67.5955 691.068 66.8331 691.068 95.195C691.068 114.103 679.022 127.217 658.742 127.217ZM668.196 94.7375C668.196 85.2836 654.929 81.9289 648.068 71.1026L637.394 97.4822C641.053 102.514 647.305 105.716 654.472 105.716C662.554 105.716 668.196 101.447 668.196 94.7375ZM732.006 125.387C713.556 125.387 703.949 116.695 703.949 100.074V67.9004H692.361V47.6201H698.765C703.034 47.6201 705.169 45.4854 705.169 41.2158V27.1873H726.212V47.6201H743.138V67.9004H726.212V96.4149C726.212 101.904 729.567 105.106 735.361 105.106H743.138V125.387H732.006ZM751.616 125.387L763.51 65.4607C759.24 62.5635 756.648 57.3791 756.648 51.7372C756.648 43.5031 762.442 37.8612 771.134 37.8612C779.368 37.8612 785.01 43.0456 785.925 49.9074L833.957 55.3968V60.7337C825.57 72.3225 821.148 82.3864 821.148 90.9254C821.148 99.312 825.265 103.887 833.042 103.887H836.397V125.387H831.06C809.407 125.387 798.276 113.493 798.276 93.6702C798.276 86.9609 799.648 80.2516 802.85 73.3898L783.79 70.7976L773.574 125.387H751.616ZM874.04 127.217C856.809 127.217 845.373 115.628 845.373 97.9397V47.6201H867.636V91.2304C867.636 99.922 873.125 105.716 881.512 105.716C890.508 105.716 896.607 99.7695 896.607 90.9254V47.6201H918.87V97.6347C918.87 101.599 921.157 103.887 925.122 103.887H926.647V125.387H920.395C909.721 125.387 902.554 121.88 899.2 114.865C893.1 122.947 884.561 127.217 874.04 127.217ZM972.049 125.387C953.598 125.387 943.992 116.695 943.992 100.074V67.9004H932.403V47.6201H938.807C943.077 47.6201 945.212 45.4854 945.212 41.2158V27.1873H966.254V47.6201H983.18V67.9004H966.254V96.4149C966.254 101.904 969.609 105.106 975.403 105.106H983.18V125.387H972.049ZM1024.74 127.217C1007.51 127.217 996.07 115.628 996.07 97.9397V47.6201H1018.33V91.2304C1018.33 99.922 1023.82 105.716 1032.21 105.716C1041.2 105.716 1047.3 99.7695 1047.3 90.9254V47.6201H1069.57V97.6347C1069.57 101.599 1071.85 103.887 1075.82 103.887H1077.34V125.387H1071.09C1060.42 125.387 1053.25 121.88 1049.9 114.865C1043.8 122.947 1035.26 127.217 1024.74 127.217ZM1084.43 125.387L1096.32 65.4607C1092.05 62.5635 1089.46 57.3791 1089.46 51.7372C1089.46 43.5031 1095.26 37.8612 1103.95 37.8612C1112.18 37.8612 1117.82 43.0456 1118.74 49.9074L1166.77 55.3968V60.7337C1158.38 72.3225 1153.96 82.3864 1153.96 90.9254C1153.96 99.312 1158.08 103.887 1165.86 103.887H1169.21V125.387H1163.87C1142.22 125.387 1131.09 113.493 1131.09 93.6702C1131.09 86.9609 1132.46 80.2516 1135.66 73.3898L1116.6 70.7976L1106.39 125.387H1084.43ZM1212.65 127.217C1191.3 127.217 1175.14 109.681 1175.14 86.5034C1175.14 63.3259 1191.3 45.7903 1212.65 45.7903C1222.1 45.7903 1230.18 49.2975 1236.13 55.3968V47.6201H1258.39V97.6347C1258.39 101.599 1260.68 103.887 1264.64 103.887H1266.17V125.387H1259.92C1249.24 125.387 1242.23 121.88 1238.72 114.865C1232.47 122.49 1223.47 127.217 1212.65 127.217ZM1217.07 105.716C1228.05 105.716 1236.13 97.4822 1236.13 86.5034C1236.13 75.5246 1228.05 67.2905 1217.07 67.2905C1206.24 67.2905 1198.16 75.5246 1198.16 86.5034C1198.16 97.4822 1206.24 105.716 1217.07 105.716Z" fill="#FBB733"/>
<path d="M20.1729 125.387H1.04904e-05C1.04904e-05 136.528 9.03172 145.56 20.1729 145.56V125.387ZM20.1729 20.1731V0.000224113C9.03172 0.000224113 1.04904e-05 9.03193 1.04904e-05 20.1731H20.1729ZM43.9603 20.1731L60.6411 8.82861C56.8851 3.30592 50.6392 0.000224113 43.9603 0.000224113V20.1731ZM87.7231 84.5211L71.0423 95.8656C76.0221 103.188 85.1948 106.406 93.658 103.801C102.121 101.196 107.896 93.3762 107.896 84.5211H87.7231ZM87.7231 20.1731V0.000224113C76.5819 0.000224113 67.5502 9.03193 67.5502 20.1731H87.7231ZM111.358 20.1731H131.531C131.531 9.03193 122.499 0.000224113 111.358 0.000224113V20.1731ZM111.358 125.387V145.56C122.499 145.56 131.531 136.528 131.531 125.387H111.358ZM87.4181 125.387L70.719 136.704C74.4725 142.243 80.7277 145.56 87.4181 145.56V125.387ZM43.8078 61.0387L60.507 49.7213C55.5357 42.386 46.3596 39.1537 37.8886 41.7538C29.4175 44.3539 23.635 52.1776 23.635 61.0387H43.8078ZM43.8078 125.387V145.56C54.949 145.56 63.9807 136.528 63.9807 125.387H43.8078ZM20.1729 125.387H40.3458V20.1731H20.1729H1.04904e-05V125.387H20.1729ZM20.1729 20.1731V40.346H43.9603V20.1731V0.000224113H20.1729V20.1731ZM43.9603 20.1731L27.2796 31.5176L71.0423 95.8656L87.7231 84.5211L104.404 73.1767L60.6411 8.82861L43.9603 20.1731ZM87.7231 84.5211H107.896V20.1731H87.7231H67.5502V84.5211H87.7231ZM87.7231 20.1731V40.346H111.358V20.1731V0.000224113H87.7231V20.1731ZM111.358 20.1731H91.1851V125.387H111.358H131.531V20.1731H111.358ZM111.358 125.387V105.214H87.4181V125.387V145.56H111.358V125.387ZM87.4181 125.387L104.117 114.069L60.507 49.7213L43.8078 61.0387L27.1087 72.3561L70.719 136.704L87.4181 125.387ZM43.8078 61.0387H23.635V125.387H43.8078H63.9807V61.0387H43.8078ZM43.8078 125.387V105.214H20.1729V125.387V145.56H43.8078V125.387ZM167.398 127.217V107.044C154.056 107.044 145.638 98.0037 145.638 86.5034H125.465H105.292C105.292 121.358 132.861 147.389 167.398 147.389V127.217ZM125.465 86.5034H145.638C145.638 75.0031 154.056 65.9632 167.398 65.9632V45.7903V25.6175C132.861 25.6175 105.292 51.6488 105.292 86.5034H125.465ZM167.398 45.7903V65.9632C180.74 65.9632 189.158 75.0031 189.158 86.5034H209.331H229.504C229.504 51.6488 201.935 25.6175 167.398 25.6175V45.7903ZM209.331 86.5034H189.158C189.158 98.0037 180.74 107.044 167.398 107.044V127.217V147.389C201.935 147.389 229.504 121.358 229.504 86.5034H209.331ZM167.398 105.716V125.889C189.73 125.889 206.631 108.41 206.631 86.5034H186.459H166.286C166.286 86.7577 166.242 86.7739 166.302 86.6252C166.361 86.4791 166.485 86.2615 166.702 86.0425C166.919 85.8222 167.158 85.674 167.356 85.5928C167.558 85.5101 167.601 85.5435 167.398 85.5435V105.716ZM186.459 86.5034H206.631C206.631 64.5965 189.73 47.1176 167.398 47.1176V67.2905V87.4634C167.601 87.4634 167.558 87.4968 167.356 87.414C167.158 87.3328 166.919 87.1846 166.702 86.9644C166.485 86.7453 166.361 86.5277 166.302 86.3817C166.242 86.233 166.286 86.2491 166.286 86.5034H186.459ZM167.398 67.2905V47.1176C145.066 47.1176 128.165 64.5965 128.165 86.5034H148.338H168.511C168.511 86.2491 168.554 86.233 168.494 86.3817C168.435 86.5277 168.311 86.7453 168.095 86.9644C167.877 87.1846 167.638 87.3328 167.44 87.414C167.238 87.4968 167.195 87.4634 167.398 87.4634V67.2905ZM148.338 86.5034H128.165C128.165 108.41 145.066 125.889 167.398 125.889V105.716V85.5435C167.195 85.5435 167.238 85.5101 167.44 85.5928C167.638 85.674 167.877 85.8222 168.095 86.0425C168.311 86.2615 168.435 86.4791 168.494 86.6252C168.554 86.7739 168.511 86.7577 168.511 86.5034H148.338ZM234.422 115.933L248.686 101.668C243.933 96.9154 237.125 94.842 230.53 96.1389C223.934 97.4358 218.418 101.933 215.818 108.131L234.422 115.933ZM230.457 125.387V145.56C238.584 145.56 245.918 140.683 249.06 133.188L230.457 125.387ZM207.585 125.387L188.97 117.612C186.369 123.839 187.054 130.953 190.795 136.57C194.536 142.186 200.837 145.56 207.585 145.56V125.387ZM240.064 47.6201V27.4473C231.926 27.4473 224.585 32.3367 221.449 39.8458L240.064 47.6201ZM265.528 47.6201L285.57 45.3253C284.404 35.1385 275.782 27.4473 265.528 27.4473V47.6201ZM252.415 71.1026L269.454 60.3033C265.406 53.9173 258.127 50.3306 250.597 51.0117C243.068 51.6929 236.551 56.5274 233.715 63.5361L252.415 71.1026ZM241.741 97.4822L223.041 89.9157C220.429 96.3706 221.331 103.716 225.426 109.347L241.741 97.4822ZM263.089 127.217V107.044C256.591 107.044 251.585 104.567 248.686 101.668L234.422 115.933L220.157 130.197C230.982 141.022 246.409 147.389 263.089 147.389V127.217ZM234.422 115.933L215.818 108.131L211.854 117.585L230.457 125.387L249.06 133.188L253.025 123.734L234.422 115.933ZM230.457 125.387V105.214H207.585V125.387V145.56H230.457V125.387ZM207.585 125.387L226.199 133.161L258.678 55.3945L240.064 47.6201L221.449 39.8458L188.97 117.612L207.585 125.387ZM240.064 47.6201V67.793H265.528V47.6201V27.4473H240.064V47.6201ZM265.528 47.6201L245.486 49.915C247.782 69.9636 264.265 80.3818 268.591 83.9051C271.773 86.4957 273.132 87.9611 273.924 89.2386C274.47 90.1192 275.242 91.6749 275.242 95.195H295.415H315.588C315.588 84.5341 312.91 75.5494 308.21 67.9719C303.756 60.7914 298.072 55.8811 294.068 52.6201C289.244 48.6925 287.632 47.6089 286.049 45.8778C285.549 45.3313 285.469 45.1288 285.511 45.2113C285.58 45.3488 285.585 45.4511 285.57 45.3253L265.528 47.6201ZM295.415 95.195H275.242C275.242 100.336 273.676 102.929 272.472 104.154C271.331 105.314 268.762 107.044 263.089 107.044V127.217V147.389C277.695 147.389 291.289 142.563 301.242 132.439C311.131 122.38 315.588 108.962 315.588 95.195H295.415ZM272.543 94.7375H292.715C292.715 79.3283 281.239 70.58 277.732 67.7454C272.134 63.221 270.638 62.1724 269.454 60.3033L252.415 71.1026L235.376 81.9018C241.053 90.8592 249.621 96.901 252.371 99.124C254.35 100.723 254.473 101.016 254.186 100.631C253.545 99.7708 252.37 97.6278 252.37 94.7375H272.543ZM252.415 71.1026L233.715 63.5361L223.041 89.9157L241.741 97.4822L260.441 105.049L271.115 78.6691L252.415 71.1026ZM241.741 97.4822L225.426 109.347C233.148 119.965 245.665 125.889 258.819 125.889V105.716V85.5435C257.64 85.5435 257.653 85.0633 258.055 85.6171L241.741 97.4822ZM258.819 105.716V125.889C266.214 125.889 274.39 123.947 281.191 118.592C288.428 112.894 292.715 104.328 292.715 94.7375H272.543H252.37C252.37 93.5296 252.639 92.0085 253.402 90.4424C254.162 88.885 255.206 87.7011 256.232 86.8936C258.191 85.3505 259.506 85.5435 258.819 85.5435V105.716ZM321.534 115.933L335.798 101.668C331.045 96.9154 324.237 94.842 317.642 96.1389C311.046 97.4358 305.53 101.933 302.931 108.131L321.534 115.933ZM317.569 125.387V145.56C325.696 145.56 333.03 140.683 336.173 133.188L317.569 125.387ZM294.697 125.387L276.082 117.612C273.482 123.839 274.167 130.953 277.907 136.57C281.648 142.186 287.949 145.56 294.697 145.56V125.387ZM327.176 47.6201V27.4473C319.038 27.4473 311.697 32.3367 308.561 39.8458L327.176 47.6201ZM352.641 47.6201L372.682 45.3253C371.516 35.1385 362.894 27.4473 352.641 27.4473V47.6201ZM339.527 71.1026L356.566 60.3033C352.518 53.9173 345.24 50.3306 337.71 51.0117C330.18 51.6929 323.663 56.5274 320.827 63.5361L339.527 71.1026ZM328.853 97.4822L310.153 89.9157C307.541 96.3706 308.443 103.716 312.539 109.347L328.853 97.4822ZM350.201 127.217V107.044C343.703 107.044 338.697 104.567 335.798 101.668L321.534 115.933L307.27 130.197C318.094 141.022 333.521 147.389 350.201 147.389V127.217ZM321.534 115.933L302.931 108.131L298.966 117.585L317.569 125.387L336.173 133.188L340.137 123.734L321.534 115.933ZM317.569 125.387V105.214H294.697V125.387V145.56H317.569V125.387ZM294.697 125.387L313.311 133.161L345.79 55.3945L327.176 47.6201L308.561 39.8458L276.082 117.612L294.697 125.387ZM327.176 47.6201V67.793H352.641V47.6201V27.4473H327.176V47.6201ZM352.641 47.6201L332.599 49.915C334.894 69.9636 351.377 80.3818 355.704 83.9051C358.885 86.4957 360.244 87.9611 361.036 89.2386C361.583 90.1192 362.354 91.6749 362.354 95.195H382.527H402.7C402.7 84.5341 400.022 75.5494 395.322 67.9719C390.868 60.7914 385.184 55.8811 381.18 52.6201C376.357 48.6925 374.744 47.6089 373.161 45.8778C372.661 45.3313 372.582 45.1288 372.623 45.2113C372.692 45.3488 372.697 45.4511 372.682 45.3253L352.641 47.6201ZM382.527 95.195H362.354C362.354 100.336 360.788 102.929 359.584 104.154C358.444 105.314 355.874 107.044 350.201 107.044V127.217V147.389C364.807 147.389 378.402 142.563 388.355 132.439C398.243 122.38 402.7 108.962 402.7 95.195H382.527ZM359.655 94.7375H379.828C379.828 79.3283 368.352 70.58 364.844 67.7454C359.246 63.221 357.75 62.1724 356.566 60.3033L339.527 71.1026L322.488 81.9018C328.165 90.8592 336.733 96.901 339.484 99.124C341.462 100.723 341.585 101.016 341.298 100.631C340.657 99.7708 339.482 97.6278 339.482 94.7375H359.655ZM339.527 71.1026L320.827 63.5361L310.153 89.9157L328.853 97.4822L347.553 105.049L358.227 78.6691L339.527 71.1026ZM328.853 97.4822L312.539 109.347C320.26 119.965 332.777 125.889 345.931 125.889V105.716V85.5435C344.752 85.5435 344.765 85.0633 345.168 85.6171L328.853 97.4822ZM345.931 105.716V125.889C353.326 125.889 361.502 123.947 368.303 118.592C375.54 112.894 379.828 104.328 379.828 94.7375H359.655H339.482C339.482 93.5296 339.751 92.0085 340.515 90.4424C341.274 88.885 342.318 87.7011 343.344 86.8936C345.304 85.3505 346.618 85.5435 345.931 85.5435V105.716ZM451.376 55.3968L436.932 69.4795C442.661 75.3547 451.377 77.1747 458.978 74.0826C466.578 70.9905 471.549 63.6025 471.549 55.3968H451.376ZM451.376 47.6201V27.4473C440.235 27.4473 431.203 36.479 431.203 47.6201H451.376ZM473.639 47.6201H493.811C493.811 36.479 484.78 27.4473 473.639 27.4473V47.6201ZM481.415 103.887H501.588C501.588 92.7454 492.556 83.7137 481.415 83.7137V103.887ZM481.415 125.387V145.56C492.556 145.56 501.588 136.528 501.588 125.387H481.415ZM453.968 114.865L472.011 105.844C468.954 99.7293 463.008 95.5792 456.214 94.8179C449.421 94.0567 442.704 96.7879 438.369 102.074L453.968 114.865ZM427.893 127.217V107.044C419.209 107.044 410.555 100.125 410.555 86.5034H390.383H370.21C370.21 119.237 393.883 147.389 427.893 147.389V127.217ZM390.383 86.5034H410.555C410.555 72.882 419.209 65.9632 427.893 65.9632V45.7903V25.6175C393.883 25.6175 370.21 53.7699 370.21 86.5034H390.383ZM427.893 45.7903V65.9632C432.063 65.9632 434.889 67.3836 436.932 69.4795L451.376 55.3968L465.82 41.3141C455.969 31.2113 442.632 25.6175 427.893 25.6175V45.7903ZM451.376 55.3968H471.549V47.6201H451.376H431.203V55.3968H451.376ZM451.376 47.6201V67.793H473.639V47.6201V27.4473H451.376V47.6201ZM473.639 47.6201H453.466V97.6347H473.639H493.811V47.6201H473.639ZM473.639 97.6347H453.466C453.466 103.46 455.216 110.714 461.013 116.512C466.811 122.309 474.065 124.059 479.89 124.059V103.887V83.7137C481.751 83.7137 485.88 84.3205 489.542 87.983C493.205 91.6455 493.811 95.7737 493.811 97.6347H473.639ZM479.89 103.887V124.059H481.415V103.887V83.7137H479.89V103.887ZM481.415 103.887H461.242V125.387H481.415H501.588V103.887H481.415ZM481.415 125.387V105.214H475.163V125.387V145.56H481.415V125.387ZM475.163 125.387V105.214C471.898 105.214 470.79 104.659 470.861 104.694C470.938 104.732 471.203 104.885 471.51 105.191C471.816 105.497 471.971 105.763 472.011 105.844L453.968 114.865L435.925 123.887C444.053 140.142 459.973 145.56 475.163 145.56V125.387ZM453.968 114.865L438.369 102.074C435.736 105.286 432.349 107.044 427.893 107.044V127.217V147.389C445.091 147.389 459.697 139.693 469.567 127.657L453.968 114.865ZM432.316 105.716V125.889C454.647 125.889 471.549 108.41 471.549 86.5034H451.376H431.203C431.203 86.7577 431.16 86.7739 431.22 86.6252C431.278 86.4791 431.402 86.2615 431.619 86.0425C431.837 85.8222 432.076 85.674 432.274 85.5928C432.476 85.5101 432.518 85.5435 432.316 85.5435V105.716ZM451.376 86.5034H471.549C471.549 64.5965 454.647 47.1176 432.316 47.1176V67.2905V87.4634C432.518 87.4634 432.476 87.4968 432.274 87.414C432.076 87.3328 431.837 87.1846 431.619 86.9644C431.402 86.7453 431.278 86.5277 431.22 86.3817C431.16 86.233 431.203 86.2491 431.203 86.5034H451.376ZM432.316 67.2905V47.1176C410.03 47.1176 393.235 64.7044 393.235 86.5034H413.408H433.58C433.58 86.2492 433.624 86.2265 433.568 86.3651C433.514 86.5 433.397 86.709 433.185 86.9239C432.973 87.14 432.729 87.2967 432.507 87.3887C432.279 87.4829 432.188 87.4634 432.316 87.4634V67.2905ZM413.408 86.5034H393.235C393.235 108.302 410.03 125.889 432.316 125.889V105.716V85.5435C432.188 85.5435 432.279 85.5239 432.507 85.6181C432.729 85.7102 432.973 85.8668 433.185 86.0829C433.397 86.2979 433.514 86.5068 433.568 86.6418C433.624 86.7803 433.58 86.7577 433.58 86.5034H413.408ZM604.821 93.6702V113.843C614.077 113.843 622.146 107.543 624.391 98.5628L604.821 93.6702ZM545.352 93.6702V73.4973C539.055 73.4973 533.118 76.4384 529.303 81.4487C525.488 86.4591 524.231 92.9638 525.906 99.0347L545.352 93.6702ZM580.423 100.837V80.664C573.858 80.664 567.704 83.8586 563.926 89.2275L580.423 100.837ZM604.211 100.837L623.137 107.819C625.42 101.63 624.533 94.7148 620.761 89.3024C616.989 83.8899 610.808 80.664 604.211 80.664V100.837ZM545.505 78.8792L526.108 73.3373C524.369 79.4238 525.588 85.9737 529.4 91.0273C533.212 96.0809 539.175 99.0521 545.505 99.0521V78.8792ZM581.643 78.8792V99.0521C587.973 99.0521 593.936 96.0809 597.748 91.0273C601.56 85.9737 602.779 79.4238 601.04 73.3373L581.643 78.8792ZM563.65 127.217V107.044C550.106 107.044 541.738 97.9561 541.738 86.5034H521.565H501.392C501.392 121.406 529.009 147.389 563.65 147.389V127.217ZM521.565 86.5034H541.738C541.738 75.0031 550.155 65.9632 563.498 65.9632V45.7903V25.6175C528.96 25.6175 501.392 51.6488 501.392 86.5034H521.565ZM563.498 45.7903V65.9632C576.686 65.9632 585.258 74.8493 585.258 86.8084H605.431H625.604C625.604 51.4976 597.884 25.6175 563.498 25.6175V45.7903ZM605.431 86.8084H585.258C585.258 87.3458 585.235 88.0839 585.184 88.7493C585.159 89.0719 585.135 89.278 585.123 89.3681C585.105 89.501 585.129 89.2632 585.25 88.7775L604.821 93.6702L624.391 98.5628C625.493 94.1545 625.604 88.9715 625.604 86.8084H605.431ZM604.821 93.6702V73.4973H545.352V93.6702V113.843H604.821V93.6702ZM545.352 93.6702L525.906 99.0347C530.648 116.224 545.319 128.329 564.108 128.329V108.156V87.9832C563.834 87.9832 563.812 87.9442 563.969 87.9964C564.13 88.0501 564.353 88.1585 564.574 88.3315C564.793 88.5021 564.909 88.6563 564.945 88.7123C564.978 88.7629 564.895 88.6543 564.799 88.3056L545.352 93.6702ZM564.108 108.156V128.329C576.735 128.329 589.576 122.884 596.921 112.446L580.423 100.837L563.926 89.2275C564.399 88.555 564.82 88.173 565.042 87.9951C565.27 87.8114 565.387 87.7628 565.352 87.7791C565.27 87.8175 564.847 87.9832 564.108 87.9832V108.156ZM580.423 100.837V121.01H604.211V100.837V80.664H580.423V100.837ZM604.211 100.837L585.285 93.8545C582.694 100.877 575.252 107.044 563.65 107.044V127.217V147.389C590.475 147.389 614.139 132.209 623.137 107.819L604.211 100.837ZM563.498 64.8508V44.6779C544.902 44.6779 530.811 56.8757 526.108 73.3373L545.505 78.8792L564.901 84.4212C564.997 84.087 565.075 83.9869 565.037 84.0458C564.996 84.1098 564.863 84.288 564.606 84.4912C564.344 84.6982 564.05 84.8536 563.778 84.946C563.508 85.0374 563.389 85.0237 563.498 85.0237V64.8508ZM545.505 78.8792V99.0521H581.643V78.8792V58.7064H545.505V78.8792ZM581.643 78.8792L601.04 73.3373C596.28 56.6777 581.898 44.6779 563.498 44.6779V64.8508V85.0237C563.608 85.0237 563.515 85.0379 563.285 84.9606C563.054 84.8827 562.796 84.7492 562.56 84.5655C562.328 84.3843 562.2 84.219 562.152 84.1447C562.105 84.0739 562.167 84.1426 562.247 84.4212L581.643 78.8792ZM630.075 115.933L644.339 101.668C639.586 96.9154 632.778 94.842 626.182 96.1389C619.587 97.4358 614.071 101.933 611.471 108.131L630.075 115.933ZM626.11 125.387V145.56C634.237 145.56 641.57 140.683 644.713 133.188L626.11 125.387ZM603.238 125.387L584.623 117.612C582.022 123.839 582.707 130.953 586.448 136.57C590.189 142.186 596.49 145.56 603.238 145.56V125.387ZM635.717 47.6201V27.4473C627.579 27.4473 620.238 32.3367 617.102 39.8458L635.717 47.6201ZM661.181 47.6201L681.223 45.3253C680.057 35.1385 671.435 27.4473 661.181 27.4473V47.6201ZM648.068 71.1026L665.107 60.3033C661.059 53.9173 653.78 50.3306 646.25 51.0117C638.72 51.6929 632.204 56.5274 629.368 63.5361L648.068 71.1026ZM637.394 97.4822L618.694 89.9157C616.082 96.3706 616.984 103.716 621.079 109.347L637.394 97.4822ZM658.742 127.217V107.044C652.244 107.044 647.238 104.567 644.339 101.668L630.075 115.933L615.81 130.197C626.635 141.022 642.062 147.389 658.742 147.389V127.217ZM630.075 115.933L611.471 108.131L607.507 117.585L626.11 125.387L644.713 133.188L648.678 123.734L630.075 115.933ZM626.11 125.387V105.214H603.238V125.387V145.56H626.11V125.387ZM603.238 125.387L621.852 133.161L654.331 55.3945L635.717 47.6201L617.102 39.8458L584.623 117.612L603.238 125.387ZM635.717 47.6201V67.793H661.181V47.6201V27.4473H635.717V47.6201ZM661.181 47.6201L641.139 49.915C643.435 69.9636 659.918 80.3818 664.244 83.9051C667.426 86.4957 668.785 87.9611 669.577 89.2386C670.123 90.1192 670.895 91.6749 670.895 95.195H691.068H711.241C711.241 84.5341 708.563 75.5494 703.863 67.9719C699.409 60.7914 693.725 55.8811 689.72 52.6201C684.897 48.6925 683.285 47.6089 681.702 45.8778C681.202 45.3313 681.122 45.1288 681.164 45.2113C681.233 45.3488 681.238 45.4511 681.223 45.3253L661.181 47.6201ZM691.068 95.195H670.895C670.895 100.336 669.329 102.929 668.125 104.154C666.984 105.314 664.415 107.044 658.742 107.044V127.217V147.389C673.348 147.389 686.942 142.563 696.895 132.439C706.784 122.38 711.241 108.962 711.241 95.195H691.068ZM668.196 94.7375H688.368C688.368 79.3283 676.892 70.58 673.385 67.7454C667.787 63.221 666.291 62.1724 665.107 60.3033L648.068 71.1026L631.029 81.9018C636.706 90.8592 645.274 96.901 648.024 99.124C650.003 100.723 650.126 101.016 649.839 100.631C649.198 99.7708 648.023 97.6278 648.023 94.7375H668.196ZM648.068 71.1026L629.368 63.5361L618.694 89.9157L637.394 97.4822L656.094 105.049L666.768 78.6691L648.068 71.1026ZM637.394 97.4822L621.079 109.347C628.801 119.965 641.318 125.889 654.472 125.889V105.716V85.5435C653.293 85.5435 653.306 85.0633 653.708 85.6171L637.394 97.4822ZM654.472 105.716V125.889C661.867 125.889 670.043 123.947 676.844 118.592C684.081 112.894 688.368 104.328 688.368 94.7375H668.196H648.023C648.023 93.5296 648.292 92.0085 649.055 90.4424C649.815 88.885 650.859 87.7011 651.885 86.8936C653.844 85.3505 655.159 85.5435 654.472 85.5435V105.716ZM703.949 67.9004H724.122C724.122 56.7593 715.091 47.7276 703.949 47.7276V67.9004ZM692.361 67.9004H672.188C672.188 79.0416 681.219 88.0733 692.361 88.0733V67.9004ZM692.361 47.6201V27.4473C681.219 27.4473 672.188 36.479 672.188 47.6201H692.361ZM705.169 27.1873V7.01446C694.028 7.01446 684.996 16.0462 684.996 27.1873H705.169ZM726.212 27.1873H746.385C746.385 16.0462 737.353 7.01446 726.212 7.01446V27.1873ZM726.212 47.6201H706.039C706.039 58.7613 715.071 67.793 726.212 67.793V47.6201ZM743.138 47.6201H763.311C763.311 36.479 754.279 27.4473 743.138 27.4473V47.6201ZM743.138 67.9004V88.0733C754.279 88.0733 763.311 79.0416 763.311 67.9004H743.138ZM726.212 67.9004V47.7276C715.071 47.7276 706.039 56.7593 706.039 67.9004H726.212ZM743.138 105.106H763.311C763.311 93.9652 754.279 84.9335 743.138 84.9335V105.106ZM743.138 125.387V145.56C754.279 145.56 763.311 136.528 763.311 125.387H743.138ZM732.006 125.387V105.214C725.613 105.214 724.237 103.683 724.577 103.99C724.752 104.148 724.738 104.253 724.614 103.922C724.451 103.492 724.122 102.326 724.122 100.074H703.949H683.776C683.776 112.29 687.421 124.8 697.541 133.937C707.297 142.745 719.949 145.56 732.006 145.56V125.387ZM703.949 100.074H724.122V67.9004H703.949H683.776V100.074H703.949ZM703.949 67.9004V47.7276H692.361V67.9004V88.0733H703.949V67.9004ZM692.361 67.9004H712.533V47.6201H692.361H672.188V67.9004H692.361ZM692.361 47.6201V67.793H698.765V47.6201V27.4473H692.361V47.6201ZM698.765 47.6201V67.793C704.009 67.793 711.648 66.4683 717.833 60.2834C724.017 54.0986 725.342 46.4601 725.342 41.2158H705.169H684.996C684.996 40.241 685.254 35.8047 689.304 31.7547C693.354 27.7046 697.79 27.4473 698.765 27.4473V47.6201ZM705.169 41.2158H725.342V27.1873H705.169H684.996V41.2158H705.169ZM705.169 27.1873V47.3602H726.212V27.1873V7.01446H705.169V27.1873ZM726.212 27.1873H706.039V47.6201H726.212H746.385V27.1873H726.212ZM726.212 47.6201V67.793H743.138V47.6201V27.4473H726.212V47.6201ZM743.138 47.6201H722.965V67.9004H743.138H763.311V47.6201H743.138ZM743.138 67.9004V47.7276H726.212V67.9004V88.0733H743.138V67.9004ZM726.212 67.9004H706.039V96.4149H726.212H746.385V67.9004H726.212ZM726.212 96.4149H706.039C706.039 103.332 708.259 111.299 714.71 117.436C721.022 123.44 728.855 125.279 735.361 125.279V105.106V84.9335C736.073 84.9335 739.331 85.1717 742.517 88.2027C745.842 91.3656 746.385 94.9876 746.385 96.4149H726.212ZM735.361 105.106V125.279H743.138V105.106V84.9335H735.361V105.106ZM743.138 105.106H722.965V125.387H743.138H763.311V105.106H743.138ZM743.138 125.387V105.214H732.006V125.387V145.56H743.138V125.387ZM751.616 125.387L731.829 121.46C730.653 127.382 732.193 133.521 736.025 138.188C739.857 142.855 745.577 145.56 751.616 145.56V125.387ZM763.51 65.4607L783.297 69.3879C784.874 61.4393 781.542 53.3183 774.837 48.7681L763.51 65.4607ZM785.925 49.9074L765.929 52.5735C767.151 61.7388 774.448 68.8999 783.634 69.9498L785.925 49.9074ZM833.957 55.3968H854.13C854.13 45.1419 846.436 36.5188 836.248 35.3544L833.957 55.3968ZM833.957 60.7337L850.299 72.5604C852.789 69.1197 854.13 64.9809 854.13 60.7337H833.957ZM836.397 103.887H856.57C856.57 92.7454 847.538 83.7137 836.397 83.7137V103.887ZM836.397 125.387V145.56C847.538 145.56 856.57 136.528 856.57 125.387H836.397ZM802.85 73.3898L821.131 81.9207C823.842 76.11 823.63 69.3562 820.559 63.7273C817.487 58.0985 811.923 54.2651 805.569 53.401L802.85 73.3898ZM783.79 70.7976L786.508 50.8088C775.856 49.36 765.939 56.5196 763.961 67.0867L783.79 70.7976ZM773.574 125.387V145.56C783.284 145.56 791.616 138.642 793.402 129.098L773.574 125.387ZM751.616 125.387L771.403 129.314L783.297 69.3879L763.51 65.4607L743.723 61.5335L731.829 121.46L751.616 125.387ZM763.51 65.4607L774.837 48.7681C775.771 49.4019 776.275 50.1155 776.521 50.6066C776.766 51.0968 776.821 51.4857 776.821 51.7372H756.648H736.475C736.475 63.3295 741.798 75.1065 752.183 82.1533L763.51 65.4607ZM756.648 51.7372H776.821C776.821 52.5189 776.439 54.4955 774.62 56.2464C772.86 57.9405 771.209 58.0341 771.134 58.0341V37.8612V17.6883C762.368 17.6883 753.473 20.6028 746.643 27.1764C739.754 33.8068 736.475 42.7214 736.475 51.7372H756.648ZM771.134 37.8612V58.0341C770.922 58.0341 769.67 57.9138 768.269 56.7326C766.883 55.5633 766.116 53.9778 765.929 52.5735L785.925 49.9074L805.921 47.2413C803.583 29.7075 788.809 17.6883 771.134 17.6883V37.8612ZM785.925 49.9074L783.634 69.9498L831.666 75.4392L833.957 55.3968L836.248 35.3544L788.215 29.865L785.925 49.9074ZM833.957 55.3968H813.784V60.7337H833.957H854.13V55.3968H833.957ZM833.957 60.7337L817.615 48.907C808.461 61.5562 800.976 75.9268 800.976 90.9254H821.148H841.321C841.321 88.8459 842.68 83.0887 850.299 72.5604L833.957 60.7337ZM821.148 90.9254H800.976C800.976 98.1439 802.74 106.988 809.282 114.153C816.103 121.624 825.157 124.059 833.042 124.059V103.887V83.7137C833.15 83.7137 836.258 83.8617 839.076 86.949C841.616 89.7299 841.321 92.0936 841.321 90.9254H821.148ZM833.042 103.887V124.059H836.397V103.887V83.7137H833.042V103.887ZM836.397 103.887H816.224V125.387H836.397H856.57V103.887H836.397ZM836.397 125.387V105.214H831.06V125.387V145.56H836.397V125.387ZM831.06 125.387V105.214C823.832 105.214 821.403 103.284 820.763 102.648C820.133 102.022 818.449 99.8857 818.449 93.6702H798.276H778.103C778.103 107.277 781.985 120.999 792.334 131.276C802.672 141.543 816.635 145.56 831.06 145.56V125.387ZM798.276 93.6702H818.449C818.449 89.8688 819.192 86.0754 821.131 81.9207L802.85 73.3898L784.57 64.859C780.105 74.4278 778.103 84.053 778.103 93.6702H798.276ZM802.85 73.3898L805.569 53.401L786.508 50.8088L783.79 70.7976L781.071 90.7865L800.132 93.3787L802.85 73.3898ZM783.79 70.7976L763.961 67.0867L753.745 121.676L773.574 125.387L793.402 129.098L803.619 74.5086L783.79 70.7976ZM773.574 125.387V105.214H751.616V125.387V145.56H773.574V125.387ZM845.373 47.6201V27.4473C834.232 27.4473 825.2 36.479 825.2 47.6201H845.373ZM867.636 47.6201H887.809C887.809 36.479 878.777 27.4473 867.636 27.4473V47.6201ZM896.608 47.6201V27.4473C885.466 27.4473 876.435 36.479 876.435 47.6201H896.608ZM918.87 47.6201H939.043C939.043 36.479 930.011 27.4473 918.87 27.4473V47.6201ZM926.647 103.887H946.82C946.82 92.7454 937.788 83.7137 926.647 83.7137V103.887ZM926.647 125.387V145.56C937.788 145.56 946.82 136.528 946.82 125.387H926.647ZM899.2 114.865L917.398 106.162C914.359 99.8074 908.226 95.4983 901.218 94.7937C894.209 94.0891 887.341 97.0909 883.098 102.713L899.2 114.865ZM874.04 127.217V107.044C870.07 107.044 868.355 105.807 867.643 105.082C866.899 104.324 865.546 102.37 865.546 97.9397H845.373H825.2C825.2 111.198 829.565 123.882 838.847 133.341C848.161 142.832 860.779 147.389 874.04 147.389V127.217ZM845.373 97.9397H865.546V47.6201H845.373H825.2V97.9397H845.373ZM845.373 47.6201V67.793H867.636V47.6201V27.4473H845.373V47.6201ZM867.636 47.6201H847.463V91.2304H867.636H887.809V47.6201H867.636ZM867.636 91.2304H847.463C847.463 99.8464 850.247 108.761 856.839 115.664C863.518 122.659 872.498 125.889 881.512 125.889V105.716V85.5435C882.139 85.5435 884.18 85.8765 886.018 87.8012C887.769 89.6348 887.809 91.306 887.809 91.2304H867.636ZM881.512 105.716V125.889C890.529 125.889 899.615 122.833 906.541 116.057C913.507 109.241 916.78 100.13 916.78 90.9254H896.608H876.435C876.435 90.5653 876.658 88.8492 878.325 87.2183C879.073 86.4866 879.866 86.0318 880.521 85.7837C881.161 85.5414 881.536 85.5435 881.512 85.5435V105.716ZM896.608 90.9254H916.78V47.6201H896.608H876.435V90.9254H896.608ZM896.608 47.6201V67.793H918.87V47.6201V27.4473H896.608V47.6201ZM918.87 47.6201H898.697V97.6347H918.87H939.043V47.6201H918.87ZM918.87 97.6347H898.697C898.697 103.46 900.448 110.714 906.245 116.512C912.042 122.309 919.296 124.059 925.122 124.059V103.887V83.7137C926.983 83.7137 931.111 84.3205 934.774 87.983C938.436 91.6455 939.043 95.7737 939.043 97.6347H918.87ZM925.122 103.887V124.059H926.647V103.887V83.7137H925.122V103.887ZM926.647 103.887H906.474V125.387H926.647H946.82V103.887H926.647ZM926.647 125.387V105.214H920.395V125.387V145.56H926.647V125.387ZM920.395 125.387V105.214C917.116 105.214 915.956 104.655 915.996 104.674C916.066 104.709 916.361 104.874 916.716 105.23C917.076 105.591 917.296 105.947 917.398 106.162L899.2 114.865L881.001 123.569C889.003 140.3 905.489 145.56 920.395 145.56V125.387ZM899.2 114.865L883.098 102.713C880.882 105.65 878.352 107.044 874.04 107.044V127.217V147.389C890.771 147.389 905.319 140.244 915.301 127.018L899.2 114.865ZM943.992 67.9004H964.165C964.165 56.7593 955.133 47.7276 943.992 47.7276V67.9004ZM932.403 67.9004H912.23C912.23 79.0416 921.262 88.0733 932.403 88.0733V67.9004ZM932.403 47.6201V27.4473C921.262 27.4473 912.23 36.479 912.23 47.6201H932.403ZM945.212 27.1873V7.01446C934.07 7.01446 925.039 16.0462 925.039 27.1873H945.212ZM966.254 27.1873H986.427C986.427 16.0462 977.395 7.01446 966.254 7.01446V27.1873ZM966.254 47.6201H946.081C946.081 58.7613 955.113 67.793 966.254 67.793V47.6201ZM983.18 47.6201H1003.35C1003.35 36.479 994.321 27.4473 983.18 27.4473V47.6201ZM983.18 67.9004V88.0733C994.321 88.0733 1003.35 79.0416 1003.35 67.9004H983.18ZM966.254 67.9004V47.7276C955.113 47.7276 946.081 56.7593 946.081 67.9004H966.254ZM983.18 105.106H1003.35C1003.35 93.9652 994.321 84.9335 983.18 84.9335V105.106ZM983.18 125.387V145.56C994.321 145.56 1003.35 136.528 1003.35 125.387H983.18ZM972.049 125.387V105.214C965.655 105.214 964.279 103.683 964.62 103.99C964.794 104.148 964.781 104.253 964.656 103.922C964.494 103.492 964.165 102.326 964.165 100.074H943.992H923.819C923.819 112.29 927.463 124.8 937.583 133.937C947.339 142.745 959.992 145.56 972.049 145.56V125.387ZM943.992 100.074H964.165V67.9004H943.992H923.819V100.074H943.992ZM943.992 67.9004V47.7276H932.403V67.9004V88.0733H943.992V67.9004ZM932.403 67.9004H952.576V47.6201H932.403H912.23V67.9004H932.403ZM932.403 47.6201V67.793H938.807V47.6201V27.4473H932.403V47.6201ZM938.807 47.6201V67.793C944.052 67.793 951.69 66.4683 957.875 60.2834C964.06 54.0986 965.384 46.4601 965.384 41.2158H945.212H925.039C925.039 40.241 925.296 35.8047 929.346 31.7547C933.396 27.7046 937.832 27.4473 938.807 27.4473V47.6201ZM945.212 41.2158H965.384V27.1873H945.212H925.039V41.2158H945.212ZM945.212 27.1873V47.3602H966.254V27.1873V7.01446H945.212V27.1873ZM966.254 27.1873H946.081V47.6201H966.254H986.427V27.1873H966.254ZM966.254 47.6201V67.793H983.18V47.6201V27.4473H966.254V47.6201ZM983.18 47.6201H963.007V67.9004H983.18H1003.35V47.6201H983.18ZM983.18 67.9004V47.7276H966.254V67.9004V88.0733H983.18V67.9004ZM966.254 67.9004H946.081V96.4149H966.254H986.427V67.9004H966.254ZM966.254 96.4149H946.081C946.081 103.332 948.301 111.299 954.752 117.436C961.065 123.44 968.897 125.279 975.403 125.279V105.106V84.9335C976.115 84.9335 979.373 85.1717 982.559 88.2027C985.884 91.3656 986.427 94.9876 986.427 96.4149H966.254ZM975.403 105.106V125.279H983.18V105.106V84.9335H975.403V105.106ZM983.18 105.106H963.007V125.387H983.18H1003.35V105.106H983.18ZM983.18 125.387V105.214H972.049V125.387V145.56H983.18V125.387ZM996.07 47.6201V27.4473C984.928 27.4473 975.897 36.479 975.897 47.6201H996.07ZM1018.33 47.6201H1038.51C1038.51 36.479 1029.47 27.4473 1018.33 27.4473V47.6201ZM1047.3 47.6201V27.4473C1036.16 27.4473 1027.13 36.479 1027.13 47.6201H1047.3ZM1069.57 47.6201H1089.74C1089.74 36.479 1080.71 27.4473 1069.57 27.4473V47.6201ZM1077.34 103.887H1097.52C1097.52 92.7454 1088.48 83.7137 1077.34 83.7137V103.887ZM1077.34 125.387V145.56C1088.48 145.56 1097.52 136.528 1097.52 125.387H1077.34ZM1049.9 114.865L1068.09 106.162C1065.06 99.8074 1058.92 95.4983 1051.91 94.7937C1044.91 94.0891 1038.04 97.0909 1033.79 102.713L1049.9 114.865ZM1024.74 127.217V107.044C1020.77 107.044 1019.05 105.807 1018.34 105.082C1017.6 104.324 1016.24 102.37 1016.24 97.9397H996.07H975.897C975.897 111.198 980.262 123.882 989.543 133.341C998.857 142.832 1011.48 147.389 1024.74 147.389V127.217ZM996.07 97.9397H1016.24V47.6201H996.07H975.897V97.9397H996.07ZM996.07 47.6201V67.793H1018.33V47.6201V27.4473H996.07V47.6201ZM1018.33 47.6201H998.159V91.2304H1018.33H1038.51V47.6201H1018.33ZM1018.33 91.2304H998.159C998.159 99.8464 1000.94 108.761 1007.54 115.664C1014.21 122.659 1023.19 125.889 1032.21 125.889V105.716V85.5435C1032.84 85.5435 1034.88 85.8765 1036.71 87.8012C1038.47 89.6348 1038.51 91.306 1038.51 91.2304H1018.33ZM1032.21 105.716V125.889C1041.23 125.889 1050.31 122.833 1057.24 116.057C1064.2 109.241 1067.48 100.13 1067.48 90.9254H1047.3H1027.13C1027.13 90.5653 1027.36 88.8492 1029.02 87.2183C1029.77 86.4866 1030.56 86.0318 1031.22 85.7837C1031.86 85.5414 1032.23 85.5435 1032.21 85.5435V105.716ZM1047.3 90.9254H1067.48V47.6201H1047.3H1027.13V90.9254H1047.3ZM1047.3 47.6201V67.793H1069.57V47.6201V27.4473H1047.3V47.6201ZM1069.57 47.6201H1049.39V97.6347H1069.57H1089.74V47.6201H1069.57ZM1069.57 97.6347H1049.39C1049.39 103.46 1051.14 110.714 1056.94 116.512C1062.74 122.309 1069.99 124.059 1075.82 124.059V103.887V83.7137C1077.68 83.7137 1081.81 84.3205 1085.47 87.983C1089.13 91.6455 1089.74 95.7737 1089.74 97.6347H1069.57ZM1075.82 103.887V124.059H1077.34V103.887V83.7137H1075.82V103.887ZM1077.34 103.887H1057.17V125.387H1077.34H1097.52V103.887H1077.34ZM1077.34 125.387V105.214H1071.09V125.387V145.56H1077.34V125.387ZM1071.09 125.387V105.214C1067.81 105.214 1066.65 104.655 1066.69 104.674C1066.76 104.709 1067.06 104.874 1067.41 105.23C1067.77 105.591 1067.99 105.947 1068.09 106.162L1049.9 114.865L1031.7 123.569C1039.7 140.3 1056.19 145.56 1071.09 145.56V125.387ZM1049.9 114.865L1033.79 102.713C1031.58 105.65 1029.05 107.044 1024.74 107.044V127.217V147.389C1041.47 147.389 1056.02 140.244 1066 127.018L1049.9 114.865ZM1084.43 125.387L1064.64 121.46C1063.47 127.382 1065.01 133.521 1068.84 138.188C1072.67 142.855 1078.39 145.56 1084.43 145.56V125.387ZM1096.32 65.4607L1116.11 69.3879C1117.69 61.4393 1114.36 53.3183 1107.65 48.7681L1096.32 65.4607ZM1118.74 49.9074L1098.74 52.5735C1099.96 61.7388 1107.26 68.8999 1116.45 69.9498L1118.74 49.9074ZM1166.77 55.3968H1186.94C1186.94 45.1419 1179.25 36.5188 1169.06 35.3544L1166.77 55.3968ZM1166.77 60.7337L1183.11 72.5604C1185.6 69.1197 1186.94 64.9809 1186.94 60.7337H1166.77ZM1169.21 103.887H1189.38C1189.38 92.7454 1180.35 83.7137 1169.21 83.7137V103.887ZM1169.21 125.387V145.56C1180.35 145.56 1189.38 136.528 1189.38 125.387H1169.21ZM1135.66 73.3898L1153.94 81.9207C1156.66 76.11 1156.44 69.3562 1153.37 63.7273C1150.3 58.0985 1144.74 54.2651 1138.38 53.401L1135.66 73.3898ZM1116.6 70.7976L1119.32 50.8088C1108.67 49.36 1098.75 56.5196 1096.77 67.0867L1116.6 70.7976ZM1106.39 125.387V145.56C1116.1 145.56 1124.43 138.642 1126.22 129.098L1106.39 125.387ZM1084.43 125.387L1104.22 129.314L1116.11 69.3879L1096.32 65.4607L1076.54 61.5335L1064.64 121.46L1084.43 125.387ZM1096.32 65.4607L1107.65 48.7681C1108.58 49.4019 1109.09 50.1155 1109.33 50.6066C1109.58 51.0968 1109.63 51.4857 1109.63 51.7372H1089.46H1069.29C1069.29 63.3295 1074.61 75.1065 1085 82.1533L1096.32 65.4607ZM1089.46 51.7372H1109.63C1109.63 52.5189 1109.25 54.4955 1107.43 56.2464C1105.67 57.9405 1104.02 58.0341 1103.95 58.0341V37.8612V17.6883C1095.18 17.6883 1086.29 20.6028 1079.46 27.1764C1072.57 33.8068 1069.29 42.7214 1069.29 51.7372H1089.46ZM1103.95 37.8612V58.0341C1103.73 58.0341 1102.48 57.9138 1101.08 56.7326C1099.7 55.5633 1098.93 53.9778 1098.74 52.5735L1118.74 49.9074L1138.73 47.2413C1136.4 29.7075 1121.62 17.6883 1103.95 17.6883V37.8612ZM1118.74 49.9074L1116.45 69.9498L1164.48 75.4392L1166.77 55.3968L1169.06 35.3544L1121.03 29.865L1118.74 49.9074ZM1166.77 55.3968H1146.6V60.7337H1166.77H1186.94V55.3968H1166.77ZM1166.77 60.7337L1150.43 48.907C1141.27 61.5562 1133.79 75.9268 1133.79 90.9254H1153.96H1174.13C1174.13 88.8459 1175.49 83.0887 1183.11 72.5604L1166.77 60.7337ZM1153.96 90.9254H1133.79C1133.79 98.1439 1135.55 106.988 1142.09 114.153C1148.92 121.624 1157.97 124.059 1165.86 124.059V103.887V83.7137C1165.96 83.7137 1169.07 83.8617 1171.89 86.949C1174.43 89.7299 1174.13 92.0936 1174.13 90.9254H1153.96ZM1165.86 103.887V124.059H1169.21V103.887V83.7137H1165.86V103.887ZM1169.21 103.887H1149.04V125.387H1169.21H1189.38V103.887H1169.21ZM1169.21 125.387V105.214H1163.87V125.387V145.56H1169.21V125.387ZM1163.87 125.387V105.214C1156.65 105.214 1154.22 103.284 1153.58 102.648C1152.95 102.022 1151.26 99.8857 1151.26 93.6702H1131.09H1110.92C1110.92 107.277 1114.8 120.999 1125.15 131.276C1135.49 141.543 1149.45 145.56 1163.87 145.56V125.387ZM1131.09 93.6702H1151.26C1151.26 89.8688 1152 86.0754 1153.94 81.9207L1135.66 73.3898L1117.38 64.859C1112.92 74.4278 1110.92 84.053 1110.92 93.6702H1131.09ZM1135.66 73.3898L1138.38 53.401L1119.32 50.8088L1116.6 70.7976L1113.88 90.7865L1132.94 93.3787L1135.66 73.3898ZM1116.6 70.7976L1096.77 67.0867L1086.56 121.676L1106.39 125.387L1126.22 129.098L1136.43 74.5086L1116.6 70.7976ZM1106.39 125.387V105.214H1084.43V125.387V145.56H1106.39V125.387ZM1236.13 55.3968L1221.69 69.4795C1227.41 75.3547 1236.13 77.1747 1243.73 74.0826C1251.33 70.9905 1256.3 63.6025 1256.3 55.3968H1236.13ZM1236.13 47.6201V27.4473C1224.99 27.4473 1215.96 36.479 1215.96 47.6201H1236.13ZM1258.39 47.6201H1278.57C1278.57 36.479 1269.53 27.4473 1258.39 27.4473V47.6201ZM1266.17 103.887H1286.34C1286.34 92.7454 1277.31 83.7137 1266.17 83.7137V103.887ZM1266.17 125.387V145.56C1277.31 145.56 1286.34 136.528 1286.34 125.387H1266.17ZM1238.72 114.865L1256.77 105.844C1253.71 99.7293 1247.76 95.5792 1240.97 94.8179C1234.17 94.0567 1227.46 96.7879 1223.12 102.074L1238.72 114.865ZM1212.65 127.217V107.044C1203.96 107.044 1195.31 100.125 1195.31 86.5034H1175.14H1154.96C1154.96 119.237 1178.64 147.389 1212.65 147.389V127.217ZM1175.14 86.5034H1195.31C1195.31 72.882 1203.96 65.9632 1212.65 65.9632V45.7903V25.6175C1178.64 25.6175 1154.96 53.7699 1154.96 86.5034H1175.14ZM1212.65 45.7903V65.9632C1216.82 65.9632 1219.64 67.3836 1221.69 69.4795L1236.13 55.3968L1250.57 41.3141C1240.72 31.2113 1227.39 25.6175 1212.65 25.6175V45.7903ZM1236.13 55.3968H1256.3V47.6201H1236.13H1215.96V55.3968H1236.13ZM1236.13 47.6201V67.793H1258.39V47.6201V27.4473H1236.13V47.6201ZM1258.39 47.6201H1238.22V97.6347H1258.39H1278.57V47.6201H1258.39ZM1258.39 97.6347H1238.22C1238.22 103.46 1239.97 110.714 1245.77 116.512C1251.56 122.309 1258.82 124.059 1264.64 124.059V103.887V83.7137C1266.51 83.7137 1270.63 84.3205 1274.3 87.983C1277.96 91.6455 1278.57 95.7737 1278.57 97.6347H1258.39ZM1264.64 103.887V124.059H1266.17V103.887V83.7137H1264.64V103.887ZM1266.17 103.887H1246V125.387H1266.17H1286.34V103.887H1266.17ZM1266.17 125.387V105.214H1259.92V125.387V145.56H1266.17V125.387ZM1259.92 125.387V105.214C1256.65 105.214 1255.54 104.659 1255.61 104.694C1255.69 104.732 1255.96 104.885 1256.26 105.191C1256.57 105.497 1256.72 105.763 1256.77 105.844L1238.72 114.865L1220.68 123.887C1228.81 140.142 1244.73 145.56 1259.92 145.56V125.387ZM1238.72 114.865L1223.12 102.074C1220.49 105.286 1217.1 107.044 1212.65 107.044V127.217V147.389C1229.85 147.389 1244.45 139.693 1254.32 127.657L1238.72 114.865ZM1217.07 105.716V125.889C1239.4 125.889 1256.3 108.41 1256.3 86.5034H1236.13H1215.96C1215.96 86.7577 1215.91 86.7739 1215.97 86.6252C1216.03 86.4791 1216.16 86.2615 1216.37 86.0425C1216.59 85.8222 1216.83 85.674 1217.03 85.5928C1217.23 85.5101 1217.27 85.5435 1217.07 85.5435V105.716ZM1236.13 86.5034H1256.3C1256.3 64.5965 1239.4 47.1176 1217.07 47.1176V67.2905V87.4634C1217.27 87.4634 1217.23 87.4968 1217.03 87.414C1216.83 87.3328 1216.59 87.1846 1216.37 86.9644C1216.16 86.7453 1216.03 86.5277 1215.97 86.3817C1215.91 86.233 1215.96 86.2491 1215.96 86.5034H1236.13ZM1217.07 67.2905V47.1176C1194.78 47.1176 1177.99 64.7044 1177.99 86.5034H1198.16H1218.33C1218.33 86.2492 1218.38 86.2265 1218.32 86.3651C1218.27 86.5 1218.15 86.709 1217.94 86.9239C1217.73 87.14 1217.48 87.2967 1217.26 87.3887C1217.03 87.4829 1216.94 87.4634 1217.07 87.4634V67.2905ZM1198.16 86.5034H1177.99C1177.99 108.302 1194.78 125.889 1217.07 125.889V105.716V85.5435C1216.94 85.5435 1217.03 85.5239 1217.26 85.6181C1217.48 85.7102 1217.73 85.8668 1217.94 86.0829C1218.15 86.2979 1218.27 86.5068 1218.32 86.6418C1218.38 86.7803 1218.33 86.7577 1218.33 86.5034H1198.16Z" fill="white" mask="url(#path-1-outside-1_68_24)"/>
</g>
<defs>
<filter id="filter0_d_68_24" x="0" y="0" width="1292.39" height="161.511" filterUnits="userSpaceOnUse" color-interpolation-filters="sRGB">
<feFlood flood-opacity="0" result="BackgroundImageFix"/>
<feColorMatrix in="SourceAlpha" type="matrix" values="0 0 0 0 0 0 0 0 0 0 0 0 0 0 0 0 0 0 127 0" result="hardAlpha"/>
<feOffset dx="6.05186" dy="14.121"/>
<feComposite in2="hardAlpha" operator="out"/>
<feColorMatrix type="matrix" values="0 0 0 0 0 0 0 0 0 0 0 0 0 0 0 0 0 0 0.25 0"/>
<feBlend mode="normal" in2="BackgroundImageFix" result="effect1_dropShadow_68_24"/>
<feBlend mode="normal" in="SourceGraphic" in2="effect1_dropShadow_68_24" result="shape"/>
</filter>
</defs>
</svg>
    